<svg xmlns="http://www.w3.org/2000/svg" xmlns:xlink="http://www.w3.org/1999/xlink" width="389.5" height="240.053" viewBox="0 0 389.5 240.053">
  <defs>
    <clipPath id="clip-path">
      <path id="Path_7509" data-name="Path 7509" d="M1104.7-1100.7v193.336a22.829,22.829,0,0,1-22.836,22.858H739.631a22.829,22.829,0,0,1-22.836-22.858V-1100.7a22.831,22.831,0,0,1,22.836-22.858h342.234A22.831,22.831,0,0,1,1104.7-1100.7Z" transform="translate(-716.795 1123.558)" fill="none"/>
    </clipPath>
  </defs>
  <g id="Group_11616" data-name="Group 11616" transform="translate(7.4 7.222)">
    <g id="Component_1_1" data-name="Component 1 – 1" transform="translate(-5.806 -7.222)">
      <path id="Path_7452" data-name="Path 7452" d="M1104.7-1100.7v193.336a22.829,22.829,0,0,1-22.836,22.858H739.631a22.829,22.829,0,0,1-22.836-22.858V-1100.7a22.831,22.831,0,0,1,22.836-22.858h342.234A22.831,22.831,0,0,1,1104.7-1100.7Z" transform="translate(-716.795 1123.558)" fill="#3968ff"/>
    </g>
    <g id="Group_11615" data-name="Group 11615">
      <g id="Group_5287" data-name="Group 5287" transform="translate(-7.4 10.766)">
        <g id="Group_5272" data-name="Group 5272" transform="translate(38.623 35.144)" opacity="0.5">
          <g id="Group_5271" data-name="Group 5271" transform="translate(4.93 4.93)" opacity="0.5">
            <g id="Group_5270" data-name="Group 5270">
              <path id="Path_7453" data-name="Path 7453" d="M817.554-935.436a81.43,81.43,0,0,1-8.263-.421l.271-2.633a78.949,78.949,0,0,0,7.993.405h.028v2.649Zm3.691-.084-.12-2.645a77.988,77.988,0,0,0,7.964-.772l.391,2.619A80.417,80.417,0,0,1,821.246-935.52Zm-15.592-.794a78.859,78.859,0,0,1-8.11-1.648l.664-2.562a76.92,76.92,0,0,0,7.838,1.592Zm27.44-.63-.513-2.6a76.435,76.435,0,0,0,7.754-1.959l.782,2.53A79.425,79.425,0,0,1,833.094-936.943Zm-39.078-2.017a79.9,79.9,0,0,1-7.541-2.753l-.228-.1,1.041-2.436.219.092a77.228,77.228,0,0,0,7.293,2.663Zm50.577-1.173-.9-2.49c1.305-.471,2.619-.985,3.9-1.528,1.167-.5,2.336-1.023,3.475-1.572l1.149,2.386c-1.177.567-2.384,1.113-3.591,1.624C847.3-941.152,845.942-940.619,844.593-940.134Zm-61.683-3.192a79.4,79.4,0,0,1-7.258-3.972l1.389-2.254a76.858,76.858,0,0,0,7.018,3.84ZM855.487-945l-1.257-2.33a76.878,76.878,0,0,0,6.829-4.163l1.494,2.186A79.279,79.279,0,0,1,855.487-945Zm-82.911-4.291A79.318,79.318,0,0,1,766-954.312l1.712-2.019a76.808,76.808,0,0,0,6.362,4.848Zm92.957-2.153-1.594-2.115a77.658,77.658,0,0,0,6.132-5.139l1.8,1.939A80.224,80.224,0,0,1,865.532-951.448Zm-102.278-5.3c-.724-.674-1.448-1.372-2.151-2.073-1.243-1.245-2.46-2.544-3.615-3.858l1.991-1.748c1.117,1.273,2.294,2.528,3.5,3.733.68.68,1.382,1.353,2.081,2.005ZM874.5-959.318l-1.889-1.857a79.139,79.139,0,0,0,5.309-5.985l2.069,1.652A81.72,81.72,0,0,1,874.5-959.318Zm-119.368-6.168a80,80,0,0,1-4.824-6.723l2.23-1.43a76.984,76.984,0,0,0,4.664,6.5Zm127.079-2.937-2.143-1.556a77.292,77.292,0,0,0,4.355-6.709l2.294,1.323A80.347,80.347,0,0,1,882.213-968.423ZM748.4-975.341a79.819,79.819,0,0,1-3.76-7.369l2.418-1.081a77.783,77.783,0,0,0,3.635,7.126Zm140.075-3.24-2.352-1.217c.91-1.763,1.767-3.587,2.545-5.424.261-.615.515-1.243.76-1.863l2.464.969c-.253.642-.515,1.289-.786,1.925C890.306-982.291,889.419-980.4,888.477-978.582ZM743.223-986.09a79.548,79.548,0,0,1-2.623-7.848l2.553-.708a76.667,76.667,0,0,0,2.537,7.587Zm149.932-3.469-2.506-.854a76.8,76.8,0,0,0,2.18-7.694l2.583.585A79.218,79.218,0,0,1,893.155-989.559ZM739.7-997.494a79.19,79.19,0,0,1-1.412-8.155l2.629-.315a76.688,76.688,0,0,0,1.365,7.882Zm156.434-3.621-2.607-.465a77.092,77.092,0,0,0,1-7.938l2.641.192A79.646,79.646,0,0,1,896.138-1001.115Zm-158.2-8.181c-.144-1.971-.218-3.98-.218-5.973,0-.762.01-1.536.032-2.3l2.647.074c-.02.738-.03,1.486-.03,2.224,0,1.929.07,3.872.211,5.779Zm159.414-3.689-2.647-.074c.02-.732.03-1.476.03-2.21,0-1.931-.07-3.88-.212-5.793l2.643-.194c.144,1.977.218,3.992.218,5.987C897.385-1014.511,897.375-1013.743,897.353-1012.985Zm-156.773-8.047-2.643-.195a80.19,80.19,0,0,1,1.033-8.211l2.607.467A77.067,77.067,0,0,0,740.58-1021.031Zm153.6-3.557a76.553,76.553,0,0,0-1.366-7.88l2.583-.589a79.676,79.676,0,0,1,1.414,8.155Zm-151.9-7.854-2.583-.588a79.52,79.52,0,0,1,2.256-7.962l2.506.854A76.853,76.853,0,0,0,742.283-1032.443Zm149.667-3.463a76.958,76.958,0,0,0-2.536-7.585l2.464-.971a79.48,79.48,0,0,1,2.624,7.848Zm-146.266-7.559-2.464-.969c.251-.637.513-1.281.78-1.912.8-1.9,1.692-3.8,2.639-5.622l2.352,1.217c-.914,1.767-1.773,3.6-2.553,5.438C746.178-1044.7,745.926-1044.08,745.683-1043.465Zm142.358-3.294a77.438,77.438,0,0,0-3.639-7.124l2.294-1.325a79.785,79.785,0,0,1,3.762,7.368Zm-137.352-7.1-2.294-1.325a79.5,79.5,0,0,1,4.508-6.94l2.141,1.556A76.624,76.624,0,0,0,750.69-1053.859Zm131.87-3.05a76.761,76.761,0,0,0-4.664-6.5l2.067-1.654a79.966,79.966,0,0,1,4.826,6.721Zm-125.365-6.479-2.069-1.652a80.312,80.312,0,0,1,5.492-6.188l1.887,1.857A78.252,78.252,0,0,0,757.195-1063.388Zm118.424-2.737c-1.113-1.269-2.286-2.521-3.487-3.721-.684-.684-1.388-1.361-2.091-2.017l1.8-1.939c.73.676,1.458,1.378,2.164,2.084,1.241,1.241,2.454,2.534,3.6,3.848Zm-110.572-5.718-1.8-1.941a80.56,80.56,0,0,1,6.342-5.313l1.594,2.115A78.032,78.032,0,0,0,765.047-1071.843Zm102.341-2.372a77.3,77.3,0,0,0-6.362-4.848l1.494-2.187a80.259,80.259,0,0,1,6.581,5.015Zm-93.328-4.833-1.494-2.187a79.7,79.7,0,0,1,7.066-4.305l1.259,2.33A76.474,76.474,0,0,0,774.06-1079.048Zm83.994-1.945a77.074,77.074,0,0,0-7.018-3.84l1.149-2.386a79.635,79.635,0,0,1,7.258,3.972Zm-74.006-3.828-1.149-2.386c1.171-.563,2.374-1.109,3.577-1.618,1.333-.563,2.7-1.1,4.052-1.584l.9,2.491c-1.309.473-2.627.988-3.916,1.534C786.345-1085.893,785.18-1085.365,784.047-1084.82Zm63.76-1.476-.209-.088a77.33,77.33,0,0,0-7.3-2.665l.78-2.53a80,80,0,0,1,7.555,2.755l.215.092Zm-53.023-2.745-.78-2.531a79.042,79.042,0,0,1,8.025-2.025l.511,2.6A76.64,76.64,0,0,0,794.784-1089.041Zm42.1-.974a76.86,76.86,0,0,0-7.838-1.592l.391-2.618a79.327,79.327,0,0,1,8.111,1.646Zm-30.855-1.588-.391-2.619a80.392,80.392,0,0,1,8.235-.8l.12,2.645A77.8,77.8,0,0,0,806.031-1091.6Zm19.5-.445a78.655,78.655,0,0,0-7.976-.405h-.016v-1.323l0-1.324a81.746,81.746,0,0,1,8.259.417Z" transform="translate(-737.721 1095.1)" fill="#fff"/>
            </g>
          </g>
          <circle id="Ellipse_173" data-name="Ellipse 173" cx="69.808" cy="69.808" r="69.808" transform="translate(0 135.375) rotate(-75.842)" fill="#fff" opacity="0.5"/>
        </g>
        <path id="Path_7454" data-name="Path 7454" d="M813.426-997.659s-.776-21.012,20.518-36.5C833.944-1034.156,831.426-999.678,813.426-997.659Z" transform="translate(-618.081 1196.429)" fill="#e8e8e8"/>
        <path id="Path_7455" data-name="Path 7455" d="M849.461-1026.95s-6.061,26.435-17.456,29.9c-.187.058-.375.108-.564.152l-9.53-4.237-10.376-4.61-4.732-2.1-.69-.307s16.478-28.982,26.941-28.4l6.657,3.9,8.353,4.89Z" transform="translate(-625.427 1194.008)" fill="#ffc08c"/>
        <path id="Path_7456" data-name="Path 7456" d="M862.806-1010.6a21.025,21.025,0,0,1-3.625,6.613c-9.813,11.243-25.533,17.753-40.555,15.407a38.843,38.843,0,0,1-21.352-10.835,10.914,10.914,0,0,0-.872-.764,21.111,21.111,0,0,0-7.754-3.483l-13.739-22.73.912-5.917c2.033-3.441,3.288-3.15,3.288-3.15l45.566-18.377Z" transform="translate(-656.791 1176.649)" fill="#ffc08c"/>
        <path id="Path_7457" data-name="Path 7457" d="M824.9-1029.785l-18.267,11.253a6.08,6.08,0,0,0,.946,10.841c.088.034.179.066.269.1a38.842,38.842,0,0,1-21.352-10.835,10.763,10.763,0,0,0-.872-.764l.194-.3L824.9-1034.92Z" transform="translate(-646.018 1195.661)" fill="#f4966c"/>
        <line id="Line_236" data-name="Line 236" x2="0.033" y2="0.013" transform="translate(183.307 107.747)" fill="#ffc08c"/>
        <path id="Path_7458" data-name="Path 7458" d="M839.711-1042.889s-8.8,26.1-41.229,15.712l-2.805.082-9.779.285-17.737.515a5.782,5.782,0,0,1-4.169-1.6,5.785,5.785,0,0,1-1.791-4.191,5.764,5.764,0,0,1,1.051-3.324l.02-.026a5.789,5.789,0,0,1,4.086-2.428l11.335-1.29,18.4-2.091,7.509,1.339,1.592.285-1.424-.523-6.992-2.577-19.267,2.236-7.637.888a5.706,5.706,0,0,1-4.141-.907l-.509-.347a5.7,5.7,0,0,1-1.72-7.591,5.665,5.665,0,0,1,1.52-1.7,5.7,5.7,0,0,1,2.063-.969l31.334-7.571a26.559,26.559,0,0,1,6.21-.746,26.617,26.617,0,0,1,6.936.912,26.546,26.546,0,0,1,7.2,3.14Z" transform="translate(-669.562 1171.029)" fill="#ffc08c"/>
        <path id="Path_7459" data-name="Path 7459" d="M796.337-1049.021l-8.927,12.813-9.779.285-6.579.191c4.9-.485,4.215-4.113,4.193-4.223v0l-4.491-7.6a3.632,3.632,0,0,1-.327-.716l18.4-2.091Z" transform="translate(-661.295 1180.143)" fill="#f4966c"/>
        <path id="Path_7460" data-name="Path 7460" d="M807.057-1055.156l-10.461,15.01-6.992-2.577-19.267,2.236c.056-1.157.471-3,1.524-3.661l25.6-15.279a26.615,26.615,0,0,1,6.936.912Z" transform="translate(-661.386 1171.029)" fill="#f4966c"/>
        <rect id="Rectangle_2284" data-name="Rectangle 2284" width="48.169" height="64.225" rx="9.342" transform="translate(109.781 128.972) rotate(-30.834)" fill="#fff"/>
        <rect id="Rectangle_2285" data-name="Rectangle 2285" width="34.001" height="38.897" rx="6.594" transform="matrix(0.859, -0.513, 0.513, 0.859, 121.137, 134.175)" fill="#308094"/>
        <rect id="Rectangle_2286" data-name="Rectangle 2286" width="30.225" height="35.12" rx="0.765" transform="translate(123.726 134.828) rotate(-30.834)" fill="#40a0aa"/>
        <text id="_6.0" data-name="6.0" transform="translate(133.791 151.378) rotate(-30.835)" fill="#003e52" font-size="16" font-family="Helvetica"><tspan x="0" y="0">6.0</tspan></text>
        <path id="Path_7461" data-name="Path 7461" d="M788.439-1051.935l-5.539,21.946-2.2-3.687,4.053-16.057Z" transform="translate(-650.971 1178.56)" fill="#fff" opacity="0.2"/>
        <path id="Path_7462" data-name="Path 7462" d="M797.216-1054.538l2.729,4.571-9.781,38.753-.369.221a1.536,1.536,0,0,1-2.1-.531l-2.8-4.682,9.739-38.578.477-.285A1.536,1.536,0,0,1,797.216-1054.538Z" transform="translate(-646.751 1175.192)" fill="#fff" opacity="0.2"/>
        <path id="Path_7463" data-name="Path 7463" d="M798.334-1047.272l2.991,5.01-3.429,13.585-5.012,2.992Z" transform="translate(-638.723 1183.247)" fill="#fff" opacity="0.2"/>
        <path id="Path_7464" data-name="Path 7464" d="M777.694-1050.865l1.035,1.735a2.8,2.8,0,0,0,3.832.966l8.718-5.205a2.791,2.791,0,0,0,.966-3.83l-1.035-1.735Z" transform="translate(-653.991 1171.526)" fill="#0086ab"/>
        <path id="Path_7465" data-name="Path 7465" d="M786.845-1030.694l.045.076-.039-.028Z" transform="translate(-644.793 1199.909)" fill="#999da1"/>
        <path id="Path_7466" data-name="Path 7466" d="M786.869-1030.657l0,.048-.045-.076Z" transform="translate(-644.811 1199.919)" fill="#999da1"/>
        <g id="Group_5273" data-name="Group 5273" transform="translate(147.159 156.406)">
          <path id="Path_7467" data-name="Path 7467" d="M789.392-1027.813l9.191-5.486,2.833,4.746-2.711,1.618a7.918,7.918,0,0,1-9.314-.878Z" transform="translate(-789.392 1040.885)" fill="#999da1"/>
          <path id="Path_7468" data-name="Path 7468" d="M804.92-1037.082l-9.191,5.486,2.833,4.746,2.711-1.618a7.913,7.913,0,0,0,3.647-8.614Z" transform="translate(-783.023 1037.082)" fill="#999da1"/>
        </g>
        <g id="Group_5274" data-name="Group 5274" transform="translate(118.435 100.237)">
          <rect id="Rectangle_2287" data-name="Rectangle 2287" width="8.115" height="21.479" transform="matrix(0.859, -0.513, 0.513, 0.859, 0, 4.159)" fill="#fff"/>
          <rect id="Rectangle_2288" data-name="Rectangle 2288" width="8.115" height="2.406" transform="matrix(0.859, -0.513, 0.513, 0.859, 9.776, 20.536)" fill="#e8e8e8"/>
        </g>
        <path id="Path_7469" data-name="Path 7469" d="M782.035-1065.095l1.323,2.215-2.527,1.508,2,3.347a1.107,1.107,0,0,1,.124.844,1.118,1.118,0,0,1-.511.685,1.115,1.115,0,0,1-1.528-.385l-2-3.347-2.524,1.506-1.323-2.216Z" transform="translate(-656.632 1165.332)" fill="#ff4745"/>
        <g id="Group_5275" data-name="Group 5275" transform="translate(153.758 99.405)">
          <path id="Path_7470" data-name="Path 7470" d="M829.344-987.638a16.667,16.667,0,0,1-8.331-5.073l-.006-.008c-5.169-6.178-4-15.79-4-15.79a45.721,45.721,0,0,1-9.346-26.788c-5.035-2.238-11.185-12.167-11.185-12.167-4.554-6.707-4.287-11.563-2.893-14.739a10.855,10.855,0,0,1,1.283-2.18,2.82,2.82,0,0,1,4.479-.04l6.274,8.061.2.259,16.211,14.116s11.632,12.269,20.919,23.929S842.979-984.389,829.344-987.638Z" transform="translate(-792.683 1065.51)" fill="#ffc08c"/>
          <path id="Path_7471" data-name="Path 7471" d="M803.664-1056.907a2.7,2.7,0,0,1-1.8,2.452c-3.242,1.117-7.232-6.535-7.232-6.535l2.763-3.98Z" transform="translate(-790.73 1066.054)" fill="#fdf6f4"/>
        </g>
        <g id="Group_5277" data-name="Group 5277" transform="translate(111.443 143.884)">
          <g id="Group_5276" data-name="Group 5276" transform="translate(2.05 13.533)">
            <path id="Path_7472" data-name="Path 7472" d="M787.731-1017.943h0a6.18,6.18,0,0,1-4.439-.439c-4.249-2.1-9.829-5.414-10.489-8.6a9.076,9.076,0,0,1,.882-6.186,9.076,9.076,0,0,1,1.727-2.33c.1-.07.2-.136.311-.2,3.318-1.951,8.756-.067,8.756-.067l-.838,1.42-.942,1.594,6.045,2.871a6.31,6.31,0,0,1,3.4,4.128c.022.086.044.171.064.255A6.3,6.3,0,0,1,787.731-1017.943Z" transform="translate(-772.602 1036.578)" fill="#ffc08c"/>
            <path id="Path_7473" data-name="Path 7473" d="M784.019-1029.414a9.224,9.224,0,0,1-2.216,5.44s-5.26-1.045-5.735-4.191C775.526-1031.75,780.446-1032.686,784.019-1029.414Z" transform="translate(-769.159 1041.757)" fill="#fdf6f4"/>
            <path id="Path_7474" data-name="Path 7474" d="M787.189-1018.328a4.583,4.583,0,0,0,2.911-5.8c-.523-1.636-3.152-3.012-6.21-3.4-5.546-.708-9.619-4.72-10.749-6.017a9.078,9.078,0,0,1,1.726-2.33c.1-.071.2-.137.311-.2,2.22-.425,5.3.387,7.918,1.353l-.943,1.594,6.045,2.871a6.311,6.311,0,0,1,3.4,4.128c.022.086.044.171.064.255A6.3,6.3,0,0,1,787.189-1018.328Z" transform="translate(-772.06 1036.963)" fill="#f4966c"/>
          </g>
          <path id="Path_7475" data-name="Path 7475" d="M783.785-1022.095c-4.852-2.4-11.224-6.184-11.978-9.819a10.7,10.7,0,0,1,2.979-9.726c.551-.381,1.031-.682,1.448-.917,2.248-1.263,2.679-.615,2.729-.52l.006.012,2.875,4.8v0l8.167,3.038a7.209,7.209,0,0,1,3.888,4.716c.024.1.05.195.072.289A7.2,7.2,0,0,1,783.785-1022.095Z" transform="translate(-771.58 1043.328)" fill="#ffc08c"/>
          <path id="Path_7476" data-name="Path 7476" d="M785.392-1036.152a27.08,27.08,0,0,1-1.859,7.266s-6.948-.844-7.876-4.894C774.6-1038.39,780.419-1040.06,785.392-1036.152Z" transform="translate(-767.608 1048.344)" fill="#fdf6f4"/>
          <path id="Path_7477" data-name="Path 7477" d="M775.92-1039.042c.964-1.093-.906-2.7-2.019-3.515,2.248-1.263,2.679-.615,2.729-.52l.006.012,2.875,4.8v0Z" transform="translate(-769.247 1043.328)" fill="#f4966c"/>
        </g>
        <path id="Path_7478" data-name="Path 7478" d="M840.146-1029.422,824.087-998.7c-.187.056-.375.106-.563.15l-9.532-4.235c9.532-10.541,15.191-26.455,16.763-32.134Z" transform="translate(-617.509 1195.661)" fill="#f4966c"/>
        <g id="Group_5278" data-name="Group 5278" transform="translate(195.345 162.275)">
          <path id="Path_7479" data-name="Path 7479" d="M862.992-1021.6v43.2L813.424-997.66c7.449-6.759,13.015-17.483,16.458-25.559v0a114.046,114.046,0,0,0,4.06-10.934Z" transform="translate(-813.424 1034.155)" fill="#fff"/>
          <path id="Path_7480" data-name="Path 7480" d="M862.992-996.385v12.5l-49.568-19.255c7.449-6.759,13.015-17.482,16.458-25.559-.07.239-4.133,18.415,12.229,25.559C858.577-995.952,862.992-996.385,862.992-996.385Z" transform="translate(-813.424 1039.637)" fill="#e8e8e8"/>
        </g>
        <path id="Path_7481" data-name="Path 7481" d="M821.006-994.377s-5.62-.956-6.6-5.977l3-2.027a27.374,27.374,0,0,1-.4-7.786,45.706,45.706,0,0,1-9.344-26.788c-5.037-2.236-11.187-12.167-11.187-12.167-4.554-6.707-4.285-11.563-2.891-14.738h0s-2.117,13.157,16.5,26.235c0,0-.245,16.249,8.2,25.982,0,0-.936,8.678,1.309,14.585l0,.006A11.284,11.284,0,0,0,821.006-994.377Z" transform="translate(-638.925 1166.574)" fill="#f4966c"/>
        <path id="Path_7482" data-name="Path 7482" d="M807.517-1027.866a11.291,11.291,0,0,1-1.412-2.674A27.326,27.326,0,0,0,807.517-1027.866Z" transform="translate(-625.435 1200.063)" fill="#f4966c"/>
        <path id="Path_7483" data-name="Path 7483" d="M818.823-1025.147c-.064.106-3.222,5.371-7.634,7.928l-4.732-2.1S814.734-1022,818.823-1025.147Z" transform="translate(-625.081 1205.484)" fill="#f4966c"/>
        <g id="Group_5285" data-name="Group 5285" transform="translate(18.136 31.456)">
          <g id="Group_5284" data-name="Group 5284">
            <g id="Group_5283" data-name="Group 5283">
              <g id="Group_5279" data-name="Group 5279" transform="translate(44.684 27.273)">
                <path id="Path_7484" data-name="Path 7484" d="M774.281-1069.968a11.146,11.146,0,0,1-4.04,6.31c-3.262,2.326-8.963,3.511-15.287-1.215-1.8-1.345-5.1-2.609-6.631-6.4-1.339-3.316-1.119-6.015-.529-9.131,0,0,2.675-5.121,5.52-4.128S755.912-1067.423,774.281-1069.968Z" transform="translate(-747.33 1086.935)" fill="#ffb080"/>
                <path id="Path_7485" data-name="Path 7485" d="M774.247-1072.073a10.152,10.152,0,0,1-1.5,4.493c-.289.473-2.3.12-6.956,1.873a6.886,6.886,0,0,1-7.4-1.428,37.089,37.089,0,0,1-8.219-12.1s-1.845-1.219-2.667,1.937c0,0,.12-5.739,3.93-6.358s4.66,3,6.073,5.965S767.372-1069,774.247-1072.073Z" transform="translate(-747.148 1087.877)" fill="#f4966c"/>
                <path id="Path_7486" data-name="Path 7486" d="M778.555-1083.536s2.663,5.658,2.547,8.843-11.668,8.317-16.919,9.777-5.8-.918-7.958-2.506-6.021-6.5-6.4-9.318,1.047-6.655,1.047-6.655S772.981-1088.7,778.555-1083.536Z" transform="translate(-744.887 1085.796)" fill="#ffb080"/>
                <path id="Path_7487" data-name="Path 7487" d="M754.474-1084.292a4.909,4.909,0,0,1-.505,3.341s5.815,5.388,4.211,9.925c0,0,3.371-5.031-2.765-9.988a7.642,7.642,0,0,0,.415-3.9Z" transform="translate(-740.657 1086.686)" fill="#f4966c"/>
                <path id="Path_7488" data-name="Path 7488" d="M755.72-1079.052a11.621,11.621,0,0,1,5.474-3.948s-3.741,2.131-3.6,5.235c0,0,1.492,1.742,6.434-1.416,0,0-2.625,4.177-7.234,2.979C756.791-1076.2,756.615-1078.545,755.72-1079.052Z" transform="translate(-738.897 1088.606)" fill="#f4966c"/>
                <path id="Path_7489" data-name="Path 7489" d="M754.8-1080.372s.854-1.594,4.762-1.323,10.268.762,12.474-.058,4.221,6.811,4.221,6.811.175-2.941-2.657-9.257c0,0-7.774.09-10.086-.66s-4.963-.808-5.362-.557-1.915.607-2.041.76S753.9-1085.005,754.8-1080.372Z" transform="translate(-740.046 1086.044)" fill="#f4966c"/>
              </g>
              <g id="Group_5282" data-name="Group 5282">
                <g id="Group_5280" data-name="Group 5280">
                  <path id="Path_7490" data-name="Path 7490" d="M725.045-1070.266l.96-1.265,0,0,21.138-27.865c.387.156.774.307,1.155.451h0c12.129,4.611,20.492,3.9,20.492,3.9a83.41,83.41,0,0,1,15.844,3.956,11.2,11.2,0,0,1,3.914,2.19c1.041.964,2.775,2.34,3.882,3.431,5.4,1.053,11.148,1.66,16.392,2.887a5.115,5.115,0,0,1,2.071.98l-4.5,9.739-.758,1.642a45.21,45.21,0,0,1-9.129,1.107l-.024,0a.31.31,0,0,1-.044,0c-.557-.046-1.111-.107-1.664-.181-.064-.01-.126-.016-.187-.03a45.211,45.211,0,0,1-5.7-1.155,96.119,96.119,0,0,0-9.566,1.542q-.52.114-1.037.241a44.927,44.927,0,0,0-5.9,1.843c-.174.07-.311.118-.423.164-.259.116-.4.251-.648.756a13.092,13.092,0,0,0-.6,9.478,22.958,22.958,0,0,0,3.236,6.711q.469.68.973,1.325a45.012,45.012,0,0,0,4.529,4.84.366.366,0,0,1,.036.032v0c.208.2.417.393.628.589l-6.97,7.12c-.69-.213-1.393-.453-2.1-.714-1.161-.429-2.328-.914-3.447-1.412l-.024-.012c-.3-.265-.618-.527-.952-.784l-.2-.146c-.066-.05-.136-.1-.206-.148-.118-.086-.241-.172-.363-.255l-.144-.1c-.1-.068-.208-.136-.317-.2-.076-.048-.152-.1-.231-.142q-.268-.163-.547-.319a20.5,20.5,0,0,0-4.87-1.891h0q-1.335-.346-2.683-.744l-.355-.106c-.164-.05-.329-.1-.5-.152a53.651,53.651,0,0,1-7.068-2.741c-.116-.056-.233-.112-.349-.17s-.232-.112-.349-.17l-.339-.172-.02-.008-.335-.174c-.116-.06-.232-.12-.347-.182s-.231-.122-.347-.187l-.343-.19q-.178-.1-.355-.2c-.225-.128-.451-.259-.674-.393-.114-.066-.227-.134-.339-.2l0,0-.339-.208c-.112-.068-.225-.141-.339-.213l-.471-.3-.345-.229-.1-.068-.221-.148-.042-.03c-.124-.084-.247-.171-.369-.257-.068-.046-.133-.092-.2-.14l-.032-.022c-.126-.09-.255-.184-.381-.277l-.034-.024-.337-.251-.257-.2c-.106-.08-.211-.162-.317-.245l-.2-.156a38.225,38.225,0,0,1-3.489-3.146l-.036-.036-1.592-1.786-.016-.016v0l-10.7-12-.5-.558Z" transform="translate(-725.045 1099.398)" fill="#ffc08c"/>
                  <path id="Path_7491" data-name="Path 7491" d="M730.642-1077.514l1.608,1.8c-.551-.565-1.1-1.157-1.63-1.776Z" transform="translate(-719.442 1121.394)" fill="#ffc08c"/>
                  <path id="Path_7492" data-name="Path 7492" d="M769.226-1084.4a35.934,35.934,0,0,1-8.528.208l-.024,0a35.9,35.9,0,0,0,8.55-.207l.12.148v0C769.3-1084.3,769.264-1084.352,769.226-1084.4Z" transform="translate(-689.234 1114.473)" fill="#f4966c"/>
                  <path id="Path_7493" data-name="Path 7493" d="M769.214-1083.95c.038.048.078.1.118.147l.483-1.045a45.176,45.176,0,0,1-9.129,1.107A35.946,35.946,0,0,0,769.214-1083.95Z" transform="translate(-689.222 1114.022)" fill="#f4966c"/>
                  <path id="Path_7494" data-name="Path 7494" d="M768.62-1089.889l-.1-.1A.819.819,0,0,0,768.62-1089.889Z" transform="translate(-681.35 1108.855)" fill="#ffc08c"/>
                </g>
                <g id="Group_5281" data-name="Group 5281" transform="translate(59.895 11.323)">
                  <path id="Path_7495" data-name="Path 7495" d="M762.421-1091.14a36.723,36.723,0,0,0-7.505-.317,7.376,7.376,0,0,0,4.554-2.294C760.458-1092.887,761.467-1092.041,762.421-1091.14Z" transform="translate(-754.916 1093.751)" fill="#f4966c"/>
                  <path id="Path_7496" data-name="Path 7496" d="M768.584-1089.925l.021.021-.028-.026Z" transform="translate(-741.185 1097.593)" fill="#f4966c"/>
                </g>
                <path id="Path_7497" data-name="Path 7497" d="M781.306-1069.763c3.212,6.922,7.69,20.013,7.69,20.013s-1.175,5.456-7.607,1.175c-.179-.118-.361-.243-.545-.375-6.916-4.962-8.347-16.544-8.347-16.544-5.4-5.013-7.5-12.6-7.5-12.6l.483-1.045.758-1.64,4.5-9.741C778.9-1084.166,778.094-1076.683,781.306-1069.763Z" transform="translate(-684.888 1108.317)" fill="#ffc08c"/>
                <path id="Path_7498" data-name="Path 7498" d="M780.641-1081.989s.914,5.8,6.747,11.886a11.468,11.468,0,0,0,2.488-1.153s.213.391-2.192,2.191c0,0,2.264,10.008,8.147,16.927-.178-.118-.361-.243-.545-.375-6.916-4.962-8.347-16.544-8.347-16.544-5.4-5.013-7.5-12.6-7.5-12.6l.483-1.045a45.184,45.184,0,0,1-9.129,1.107l-.024,0a.277.277,0,0,1-.044,0q-.836-.069-1.664-.181c-.064-.01-.126-.016-.187-.028a45.492,45.492,0,0,1-5.7-1.157,90.125,90.125,0,0,0-10.6,1.785,4.533,4.533,0,0,1-1.943-1.65s11.2-1.965,18.212-.3c4.908,1.163,8.987.471,11.842-1.207a9.812,9.812,0,0,0,2.968-2.635A29.79,29.79,0,0,1,780.641-1081.989Z" transform="translate(-699.331 1111.88)" fill="#f4966c"/>
                <path id="Path_7499" data-name="Path 7499" d="M775.034-1076.1s-2.364,4.5,3.784,10.3A27.621,27.621,0,0,0,775.034-1076.1Z" transform="translate(-675.25 1122.818)" fill="#fdf6f4"/>
                <path id="Path_7500" data-name="Path 7500" d="M725.045-1070.266l.96-1.265,0,0,21.14-27.865c.387.156.774.307,1.155.451l.626.234c-6.5,17.246-22.166,32.561-22.166,32.561l-.331-.371-1.386-1.552Z" transform="translate(-725.045 1099.398)" fill="#f4966c"/>
              </g>
            </g>
          </g>
          <path id="Path_7501" data-name="Path 7501" d="M742.344-1063.5h0l.022.014h0c.327.19,3.762,2.175,7.828,3.986l.024.012c1.119.5,2.286.983,3.447,1.412.7.261,1.407.5,2.1.713a9.831,9.831,0,0,0,4.758.56c5.987-.754,7.385-3.154,8.64-6.38a7.8,7.8,0,0,0,.545-2.364,4.818,4.818,0,0,0-.545-2.787,28.631,28.631,0,0,1-15.83-9.649,13.836,13.836,0,0,0-2.38,1.067c-4.784,2.7-7.008,7.716-7.964,10.788A19.409,19.409,0,0,0,742.344-1063.5Z" transform="translate(-707.658 1120.919)" fill="#ffc08c"/>
          <path id="Path_7502" data-name="Path 7502" d="M746.393-1072.817a14.418,14.418,0,0,0,1.325,2.934,17.247,17.247,0,0,0,5.616,5.644,23.848,23.848,0,0,0,10.3,3.643c2.556.07,2.825,1.989,2.837,2.081a4.819,4.819,0,0,0-.545-2.787,27.513,27.513,0,0,1-12.544-6.3,10.717,10.717,0,0,1-2.809-12.576c.038-.084.078-.168.12-.25.245-.505.389-.64.648-.756.112-.046.249-.094.423-.164a44.868,44.868,0,0,1,5.895-1.843q.518-.127,1.037-.241a4.229,4.229,0,0,0-2.057-1.554s-6.876,1.077-8.887,3.671C743.812-1076.224,746.393-1072.817,746.393-1072.817Z" transform="translate(-704.422 1113.884)" fill="#f4966c"/>
        </g>
        <path id="Path_7503" data-name="Path 7503" d="M756.239-1083.63c-4.692,9.372-12.5,19.658-17.473,25.8-2.749,3.4-4.63,5.526-4.63,5.526l-4.321-3.224L716-1065.839v-49.247l35.9,28.06Z" transform="translate(-716 1115.086)" fill="#ffcf38"/>
        <path id="Path_7504" data-name="Path 7504" d="M731.133-1095.849a9.694,9.694,0,0,1-1.025,1.566Q730.629-1095.074,731.133-1095.849Z" transform="translate(-701.82 1134.421)" fill="#ffb03e"/>
        <path id="Path_7505" data-name="Path 7505" d="M756.239-1097.5c-4.692,9.372-12.5,19.658-17.473,25.8-.1.118-.193.236-.285.353l-.3.363c-.1.12-.195.236-.289.353l-.118.144c-.078.1-.156.191-.233.282l-.114.141c-.076.092-.15.181-.222.27-.11.134-.221.263-.325.391-.034.038-.066.078-.1.116l-.219.264-.19.227c-.128.155-.255.3-.375.447-.088.1-.174.209-.258.306-.341.4-.634.746-.874,1.025l-.08.095-.078.09-.07.081c-.126.146-.231.266-.311.357l-.03.036-.162.185-4.321-3.224L716-1079.706v-21.583c3.631,5.663,10.457,15.024,16.671,16.42a10.966,10.966,0,0,0,11.617-3.946,9.721,9.721,0,0,0,1.025-1.566l0,0c2.685-4.131,4.995-7.882,6.581-10.509Z" transform="translate(-716 1128.954)" fill="#ffae3e"/>
        <g id="Group_5286" data-name="Group 5286" transform="translate(118.836 91.688)">
          <path id="Path_7506" data-name="Path 7506" d="M776.669-1060.557c-2.482,0-1.057-5.448-.339-7.774h0c.194-.63.337-1.029.337-1.029a25.718,25.718,0,0,1,1.45,6.047v.006l0,.068,0,.014.008.168C778.172-1061.643,777.828-1060.557,776.669-1060.557Z" transform="translate(-775.267 1069.359)" fill="#ff4745"/>
          <path id="Path_7507" data-name="Path 7507" d="M776.669-1061.072c-2.482,0-1.057-5.448-.339-7.774h0s-1.021,5.149-.245,6.17c.736.968,2.017.168,2.045-.894C778.172-1062.159,777.828-1061.072,776.669-1061.072Z" transform="translate(-775.267 1069.875)" fill="#e1272e"/>
        </g>
      </g>
      <g id="Group_11614" data-name="Group 11614">
        <g id="Group_11613" data-name="Group 11613">
          <g id="Group_11612" data-name="Group 11612">
            <g id="Group_5289" data-name="Group 5289" transform="translate(-5.806 -6.222)">
              <g id="Group_5288" data-name="Group 5288" clip-path="url(#clip-path)">
                <path id="Path_7508" data-name="Path 7508" d="M1024.765-1008.842H992.591v-32.174a44.028,44.028,0,0,0-44.028-44.028h0a44.028,44.028,0,0,0-44.028,44.028v32.174H872.361a44.029,44.029,0,0,0-44.028,44.028h0a44.027,44.027,0,0,0,44.028,44.026h32.174v32.176a44.027,44.027,0,0,0,44.028,44.026h0a44.027,44.027,0,0,0,44.028-44.026v-32.176h32.174a44.025,44.025,0,0,0,44.026-44.026h0A44.027,44.027,0,0,0,1024.765-1008.842Z" transform="translate(-604.688 1162.268)" fill="#2856eb"/>
              </g>
            </g>
          </g>
        </g>
      </g>
    </g>
  </g>
</svg>
