<svg id="Group_5349" data-name="Group 5349" xmlns="http://www.w3.org/2000/svg" xmlns:xlink="http://www.w3.org/1999/xlink" width="74.053" height="74.053" viewBox="0 0 74.053 74.053">
  <defs>
    <clipPath id="clip-path">
      <rect id="Rectangle_2296" data-name="Rectangle 2296" width="74.053" height="74.053" rx="7.908" fill="none"/>
    </clipPath>
    <clipPath id="clip-path-2">
      <rect id="Rectangle_2295" data-name="Rectangle 2295" width="76.047" height="82.518" fill="none"/>
    </clipPath>
  </defs>
  <g id="Group_5348" data-name="Group 5348" clip-path="url(#clip-path)">
    <g id="Group_5347" data-name="Group 5347" transform="translate(-2.73 -8.522)">
      <g id="Group_5346" data-name="Group 5346" clip-path="url(#clip-path-2)">
        <g id="Group_5326" data-name="Group 5326" transform="translate(17.174 32.737)">
          <g id="Group_5291" data-name="Group 5291">
            <path id="Path_7510" data-name="Path 7510" d="M745.338-946.913a30.95,30.95,0,0,0,9.973-3.062,65.247,65.247,0,0,0,13.615-9.323c2.356-2.366,6.438-6.52,12.612-5.773s7.275,5.577,7.275,5.577,4.808-.678,7.251.547,1.013,3.986,1.013,3.986l-2.93,4.163s4.438,1.9,3.4,5.768-5.13,4.748-5.13,4.748a6.469,6.469,0,0,1-4.809,5.765c-4.578,1.157-11.568,5.947-21.926,4.42,0,0-14.393,8.431-19.439,7.282S739.975-946.365,745.338-946.913Z" transform="translate(-741.687 965.325)" fill="#ffd499"/>
            <g id="Group_5290" data-name="Group 5290" transform="translate(0.162 0.166)">
              <path id="Path_7511" data-name="Path 7511" d="M745.844-946.252a30.971,30.971,0,0,0,9.973-3.06,65.382,65.382,0,0,0,13.615-9.323c2.356-2.366,6.438-6.52,12.612-5.773a8.691,8.691,0,0,1,5.814,2.9,8.489,8.489,0,0,0-6.32-3.565c-6.175-.747-10.257,3.407-12.612,5.773a65.247,65.247,0,0,1-13.615,9.323,30.95,30.95,0,0,1-9.973,3.062c-4.865.5-4.308,18.985-.393,23.265C741.5-928.892,741.2-945.777,745.844-946.252Z" transform="translate(-741.848 965.16)" fill="#fff"/>
            </g>
            <path id="Path_7512" data-name="Path 7512" d="M796.9-952.467a4.062,4.062,0,0,0-.14-2.643c-3.98-.708-8.8.915-9.459,2.932-1.2,3.639-11.541,13.943-20.265,12.544s-8.325-7.545-8.325-7.545c-2.14-1.346-2.589-5.507-2.589-5.507-1.36,4.159.61,6.2.61,6.2-.314,4.257,2.864,5.318.638,8.46-1.607,2.268-10.068,3.521-14.649,4.042.726,2.04,1.7,3.469,2.874,3.737,5.046,1.148,19.439-7.282,19.439-7.282,10.358,1.527,17.348-3.264,21.926-4.42a6.469,6.469,0,0,0,4.809-5.765S795.862-948.6,796.9-952.467Z" transform="translate(-741.032 972.762)" fill="#f5a666"/>
            <path id="Path_7513" data-name="Path 7513" d="M747.391-922.471a5.075,5.075,0,0,1-1.113-.112c-3.335-.759-4.848-10-4.464-16.293.3-4.965,1.607-7.929,3.577-8.131h0a31.093,31.093,0,0,0,9.911-3.044,65.68,65.68,0,0,0,13.573-9.291l.054-.056c2.427-2.436,6.489-6.516,12.7-5.765,5.609.678,7.123,4.734,7.375,5.558.834-.105,4.951-.549,7.2.582a2.6,2.6,0,0,1,1.39,1.527,3.906,3.906,0,0,1-.305,2.682l-.011.019-2.818,4c.84.422,4.25,2.377,3.316,5.875-.948,3.546-4.445,4.652-5.137,4.838a6.633,6.633,0,0,1-4.922,5.793,33.621,33.621,0,0,0-4.014,1.441c-3.539,1.425-8.15,3.281-13.95,3.281a27.684,27.684,0,0,1-3.97-.289C764.778-929.266,752.993-922.471,747.391-922.471Zm-1.966-24.208c-1.767.182-2.992,3.106-3.281,7.822-.417,6.839,1.33,15.3,4.208,15.951a4.663,4.663,0,0,0,1.039.105c5.631,0,18.146-7.291,18.281-7.368a.152.152,0,0,1,.107-.021c7.645,1.127,13.519-1.237,17.806-2.964a33.611,33.611,0,0,1,4.056-1.453,6.352,6.352,0,0,0,4.685-5.614.163.163,0,0,1,.13-.152c.04-.009,4.01-.906,5.006-4.629.985-3.684-3.134-5.5-3.309-5.575a.16.16,0,0,1-.095-.107.157.157,0,0,1,.025-.139L797-954.976a3.6,3.6,0,0,0,.277-2.42,2.284,2.284,0,0,0-1.222-1.332c-2.37-1.188-7.107-.538-7.155-.531a.165.165,0,0,1-.184-.126c-.01-.047-1.153-4.725-7.133-5.449-6.049-.733-10.038,3.276-12.421,5.67l-.054.056a65.027,65.027,0,0,1-13.657,9.352A31.42,31.42,0,0,1,745.425-946.679Z" transform="translate(-741.756 965.254)" fill="#303081"/>
          </g>
          <g id="Group_5304" data-name="Group 5304" transform="translate(19.509 0.679)">
            <g id="Group_5292" data-name="Group 5292">
              <path id="Path_7514" data-name="Path 7514" d="M762.376-964.757c-9.622-.563-9.394,14.565-9.394,23.127,0,7.417,9.394,6.821,9.394,6.821s9.393.6,9.393-6.821C771.768-950.193,772-965.32,762.376-964.757Z" transform="translate(-752.816 964.937)" fill="#2f57c2"/>
              <path id="Path_7515" data-name="Path 7515" d="M765.86-937.069s-9.393.6-9.393-6.82c0-6.338-.124-16.27,3.712-20.776-7.389,1.732-7.2,15.1-7.2,22.953,0,7.417,9.394,6.821,9.394,6.821s5.442.345,8.041-2.762A14.041,14.041,0,0,1,765.86-937.069Z" transform="translate(-752.816 965.018)" fill="#14459e"/>
              <path id="Path_7516" data-name="Path 7516" d="M761.4-964.757c-3.547-.207-5.754,1.719-7.13,4.66a6.78,6.78,0,0,1,6.658-3.749c9.622-.562,9.393,14.565,9.393,23.127a6.823,6.823,0,0,1-.468,2.587,6.335,6.335,0,0,0,.939-3.5C770.8-950.193,771.025-965.32,761.4-964.757Z" transform="translate(-751.844 964.937)" fill="#fff"/>
              <path id="Path_7517" data-name="Path 7517" d="M762.979-934.56c-.289,0-.479-.01-.533-.014-.317.019-4.964.247-7.68-2.3a6.145,6.145,0,0,1-1.879-4.683v-.584c0-6.7-.011-16.815,4.327-20.91a6.75,6.75,0,0,1,5.232-1.8,6.755,6.755,0,0,1,5.23,1.8c4.338,4.094,4.333,14.214,4.327,20.91v.584a6.145,6.145,0,0,1-1.879,4.683C767.887-934.775,764.336-934.56,762.979-934.56Zm-1.039-29.976a6.331,6.331,0,0,0-4.5,1.723c-4.233,4-4.228,14.03-4.224,20.67v.584a5.831,5.831,0,0,0,1.776,4.443c2.646,2.485,7.395,2.217,7.444,2.214h.019c.049,0,4.8.272,7.445-2.214a5.836,5.836,0,0,0,1.774-4.443v-.584c0-6.639.01-16.673-4.224-20.67a6.435,6.435,0,0,0-5-1.709h-.019C762.268-964.533,762.1-964.536,761.94-964.536Z" transform="translate(-752.887 964.867)" fill="#303081"/>
            </g>
            <g id="Group_5293" data-name="Group 5293" transform="translate(3.658 7.848)">
              <circle id="Ellipse_174" data-name="Ellipse 174" cx="1.242" cy="1.242" r="1.242" transform="translate(0.165 0.165)" fill="#fff"/>
              <path id="Path_7518" data-name="Path 7518" d="M756.381-957.574a1.408,1.408,0,0,1-1.407-1.407,1.408,1.408,0,0,1,1.407-1.407,1.409,1.409,0,0,1,1.407,1.407A1.409,1.409,0,0,1,756.381-957.574Zm0-2.485a1.079,1.079,0,0,0-1.078,1.078,1.079,1.079,0,0,0,1.078,1.078,1.079,1.079,0,0,0,1.078-1.078A1.079,1.079,0,0,0,756.381-960.06Z" transform="translate(-754.974 960.389)" fill="#303081"/>
            </g>
            <g id="Group_5294" data-name="Group 5294" transform="translate(2.505 11.786)">
              <path id="Path_7519" data-name="Path 7519" d="M765.869-958.048h-9.14a2.318,2.318,0,0,0-2.319,2.319v9.17a2.319,2.319,0,0,0,2.319,2.319h9.14a2.319,2.319,0,0,0,2.319-2.319v-9.17A2.318,2.318,0,0,0,765.869-958.048Z" transform="translate(-754.245 958.213)" fill="#dae2f2"/>
              <path id="Path_7520" data-name="Path 7520" d="M756.806-946.559v-9.17a2.318,2.318,0,0,1,2.319-2.319h-2.4a2.318,2.318,0,0,0-2.319,2.319v9.17a2.319,2.319,0,0,0,2.319,2.319h2.4A2.319,2.319,0,0,1,756.806-946.559Z" transform="translate(-754.245 958.213)" fill="#b5cef8"/>
              <path id="Path_7521" data-name="Path 7521" d="M765.839-958.048H756.7a2.316,2.316,0,0,0-2.249,1.767,2.313,2.313,0,0,1,2.031-1.2h9.142a2.317,2.317,0,0,1,2.317,2.317V-946a2.3,2.3,0,0,1-.068.552,2.326,2.326,0,0,0,.286-1.115v-9.17A2.318,2.318,0,0,0,765.839-958.048Z" transform="translate(-754.215 958.213)" fill="#fff"/>
              <path id="Path_7522" data-name="Path 7522" d="M765.94-944H756.8a2.487,2.487,0,0,1-2.484-2.484v-9.17a2.486,2.486,0,0,1,2.484-2.484h9.14a2.486,2.486,0,0,1,2.484,2.484v9.17A2.487,2.487,0,0,1,765.94-944Zm-9.14-13.808a2.155,2.155,0,0,0-2.152,2.154v9.17a2.155,2.155,0,0,0,2.152,2.152h9.14a2.156,2.156,0,0,0,2.154-2.152v-9.17a2.157,2.157,0,0,0-2.154-2.154Z" transform="translate(-754.316 958.142)" fill="#303081"/>
            </g>
            <g id="Group_5295" data-name="Group 5295" transform="translate(3.485 13.539)">
              <path id="Path_7523" data-name="Path 7523" d="M760.878-956.73l-5.908.1v8.731h11.817v-8.731Z" transform="translate(-754.804 957.452)" fill="#fff"/>
              <text id="_150" data-name="150" transform="translate(4.849 6)" fill="#303081" font-size="5" font-family="Helvetica"><tspan x="-4.171" y="0">150</tspan></text>
              <text id="MG_DL" data-name="MG/DL" transform="translate(8.153 8.054)" fill="#303081" font-size="1" font-family="Helvetica"><tspan x="-1.583" y="0">MG/DL</tspan></text>
              <path id="Path_7524" data-name="Path 7524" d="M766.858-947.663H755.04a.165.165,0,0,1-.165-.165v-8.732a.165.165,0,0,1,.163-.165l5.908-.1h.005l5.908.1a.165.165,0,0,1,.163.165v8.732A.165.165,0,0,1,766.858-947.663Zm-11.652-.329h11.485v-8.4l-5.742-.1-5.744.1Z" transform="translate(-754.875 957.382)" fill="#303081"/>
            </g>
            <g id="Group_5297" data-name="Group 5297" transform="translate(7.355 2.796)">
              <g id="Group_5296" data-name="Group 5296">
                <path id="Path_7525" data-name="Path 7525" d="M758.875-963.04l-1.544,1.478a.492.492,0,0,0,.34.848h3.09a.492.492,0,0,0,.34-.848l-1.544-1.478A.493.493,0,0,0,758.875-963.04Z" transform="translate(-757.012 963.342)" fill="#fff"/>
                <path id="Path_7526" data-name="Path 7526" d="M760.832-960.479h-3.09a.648.648,0,0,1-.61-.414.645.645,0,0,1,.156-.719l1.544-1.478h0a.657.657,0,0,1,.91,0l1.544,1.478a.645.645,0,0,1,.156.719A.646.646,0,0,1,760.832-960.479Zm-1.544-2.463a.321.321,0,0,0-.226.091h0l-1.546,1.478a.32.32,0,0,0-.077.358.319.319,0,0,0,.3.205h3.09a.319.319,0,0,0,.3-.205.32.32,0,0,0-.077-.358l-1.544-1.478A.327.327,0,0,0,759.288-962.941Z" transform="translate(-757.083 963.271)" fill="#303081"/>
              </g>
            </g>
            <g id="Group_5299" data-name="Group 5299" transform="translate(7.355 6.586)">
              <g id="Group_5298" data-name="Group 5298">
                <path id="Path_7527" data-name="Path 7527" d="M759.217-961.015h-1.546a.492.492,0,0,0-.34.848l1.544,1.478a.5.5,0,0,0,.682,0l1.544-1.478a.492.492,0,0,0-.34-.848Z" transform="translate(-757.012 961.18)" fill="#fff"/>
                <path id="Path_7528" data-name="Path 7528" d="M759.288-958.317a.661.661,0,0,1-.456-.182l-1.544-1.478a.648.648,0,0,1-.156-.72.646.646,0,0,1,.61-.412h3.09a.644.644,0,0,1,.61.412.648.648,0,0,1-.156.72l-1.544,1.478A.66.66,0,0,1,759.288-958.317Zm-1.546-2.463a.322.322,0,0,0-.3.205.323.323,0,0,0,.077.359l1.546,1.478a.327.327,0,0,0,.452,0l1.544-1.478a.324.324,0,0,0,.077-.359.322.322,0,0,0-.3-.205Z" transform="translate(-757.083 961.109)" fill="#303081"/>
              </g>
            </g>
            <g id="Group_5300" data-name="Group 5300" transform="translate(5.412 26.936)">
              <path id="Path_7529" data-name="Path 7529" d="M761.64-949.4h-3.181a2.39,2.39,0,0,0-2.389,2.391v.217a14.249,14.249,0,0,0,3.98.419,14.253,14.253,0,0,0,3.98-.419v-.217A2.391,2.391,0,0,0,761.64-949.4Z" transform="translate(-755.903 949.569)" fill="#fff"/>
              <path id="Path_7530" data-name="Path 7530" d="M760.625-946.129c-.277,0-.456-.009-.5-.012a14.265,14.265,0,0,1-4.022-.424.165.165,0,0,1-.125-.16v-.217a2.558,2.558,0,0,1,2.555-2.556h3.181a2.558,2.558,0,0,1,2.555,2.556v.217a.165.165,0,0,1-.124.16A14.531,14.531,0,0,1,760.625-946.129Zm-.5-.342h.009a14.245,14.245,0,0,0,3.805-.384v-.088a2.226,2.226,0,0,0-2.224-2.224H758.53a2.226,2.226,0,0,0-2.224,2.224v.088a14.161,14.161,0,0,0,3.805.384Zm3.98-.254Z" transform="translate(-755.975 949.498)" fill="#303081"/>
            </g>
            <g id="Group_5303" data-name="Group 5303" transform="translate(8.322 28.314)">
              <g id="Group_5301" data-name="Group 5301">
                <rect id="Rectangle_2293" data-name="Rectangle 2293" width="2.143" height="7.939" transform="translate(0.165 0.165)" fill="#fff"/>
                <path id="Path_7531" data-name="Path 7531" d="M758.338-940.679v-7.939h-.609v7.939h.609Z" transform="translate(-757.564 948.783)" fill="#b5cef8"/>
                <rect id="Rectangle_2294" data-name="Rectangle 2294" width="2.139" height="1.233" transform="translate(0.165 3.772)" fill="#2f57c2"/>
                <path id="Path_7532" data-name="Path 7532" d="M759.943-940.443H757.8a.165.165,0,0,1-.165-.165v-7.94a.165.165,0,0,1,.165-.165h2.144a.165.165,0,0,1,.165.165v7.94A.165.165,0,0,1,759.943-940.443Zm-1.979-.331h1.814v-7.608h-1.814Z" transform="translate(-757.635 948.712)" fill="#303081"/>
              </g>
              <g id="Group_5302" data-name="Group 5302" transform="translate(0.627 6.21)">
                <path id="Path_7533" data-name="Path 7533" d="M758.532-945.075a.446.446,0,0,0-.445.445v1.285h.889v-1.285A.445.445,0,0,0,758.532-945.075Z" transform="translate(-757.922 945.24)" fill="#fff"/>
                <path id="Path_7534" data-name="Path 7534" d="M759.046-943.11h-.889a.165.165,0,0,1-.165-.165v-1.285a.61.61,0,0,1,.61-.61.61.61,0,0,1,.608.61v1.285A.165.165,0,0,1,759.046-943.11Zm-.724-.331h.559v-1.118a.281.281,0,0,0-.279-.281.281.281,0,0,0-.28.281Z" transform="translate(-757.993 945.169)" fill="#303081"/>
              </g>
            </g>
          </g>
          <g id="Group_5305" data-name="Group 5305" transform="translate(14.215 8.027)">
            <path id="Path_7535" data-name="Path 7535" d="M753.561-960.227c-4.547,1.311-4.184,7.7-2.217,9.955a.928.928,0,0,0,.428.284c1.853.745,5.908-2.846,6.171-6.148,0,0,0-.026.07-2.631h0S758.107-961.539,753.561-960.227Z" transform="translate(-749.797 960.746)" fill="#ffd499"/>
            <path id="Path_7536" data-name="Path 7536" d="M757.942-957.284s0-.021.047-1.77c-.982,2.573-2.976,6.091-5.922,4.964a3.4,3.4,0,0,1-1.953-3.314,7.566,7.566,0,0,0,1.229,5.985.928.928,0,0,0,.428.284C753.623-950.391,757.679-953.982,757.942-957.284Z" transform="translate(-749.796 961.894)" fill="#f5a666"/>
            <path id="Path_7537" data-name="Path 7537" d="M753.857-959.6c2.543-.733,3.633-.191,4.1.431-.182-.717-.974-2.044-4.4-1.055-4.119,1.188-4.208,6.543-2.725,9.217C749.685-953.817,750.038-958.5,753.857-959.6Z" transform="translate(-749.796 960.746)" fill="#fff"/>
            <path id="Path_7538" data-name="Path 7538" d="M752.39-949.651a1.635,1.635,0,0,1-.61-.11l-.019-.009a1.088,1.088,0,0,1-.472-.321,7.8,7.8,0,0,1-1.127-6.692,4.938,4.938,0,0,1,3.423-3.532l.046.16-.046-.16c1.818-.524,3.141-.475,3.937.144a1.908,1.908,0,0,1,.726,1.481c-.025.973-.068,2.612-.07,2.64-.182,2.282-2.128,4.657-3.865,5.733A3.8,3.8,0,0,1,752.39-949.651Zm3.372-10.69a7.678,7.678,0,0,0-2.086.344,4.615,4.615,0,0,0-3.2,3.309,7.411,7.411,0,0,0,1.059,6.38.77.77,0,0,0,.337.23l.028.01a2.668,2.668,0,0,0,2.235-.529c1.67-1.034,3.537-3.306,3.71-5.479,0-.005.005-.167.07-2.624a1.582,1.582,0,0,0-.6-1.213A2.494,2.494,0,0,0,755.762-960.341Z" transform="translate(-749.866 960.674)" fill="#303081"/>
          </g>
          <g id="Group_5306" data-name="Group 5306" transform="translate(15.944 9.279)">
            <path id="Path_7539" data-name="Path 7539" d="M751.018-958.511a.164.164,0,0,1-.137-.072.166.166,0,0,1,.042-.23,7.039,7.039,0,0,1,6.487-.57.164.164,0,0,1,.079.219.165.165,0,0,1-.219.079,6.7,6.7,0,0,0-6.159.545A.169.169,0,0,1,751.018-958.511Z" transform="translate(-750.853 959.96)" fill="#303081"/>
          </g>
          <g id="Group_5307" data-name="Group 5307" transform="translate(14.922 19.16)">
            <path id="Path_7540" data-name="Path 7540" d="M759.346-938.09a.163.163,0,0,1-.068-.016c-4.5-2.1-6.245-4.555-6.918-6.243a5.721,5.721,0,0,1-.4-3.15c-2.259-2.555-1.612-6.518-1.583-6.687a.164.164,0,0,1,.191-.135.166.166,0,0,1,.135.189c-.007.04-.659,4.042,1.558,6.474a.17.17,0,0,1,.037.154,5.311,5.311,0,0,0,.379,3.053c.654,1.627,2.356,3.995,6.739,6.045a.165.165,0,0,1,.081.219A.166.166,0,0,1,759.346-938.09Z" transform="translate(-750.269 954.322)" fill="#303081"/>
          </g>
          <g id="Group_5308" data-name="Group 5308" transform="translate(11.556 23.821)">
            <path id="Path_7541" data-name="Path 7541" d="M752.513-942.561a.168.168,0,0,1-.095-.03c-3.816-2.673-4.061-8.648-4.07-8.9a.165.165,0,0,1,.159-.17.167.167,0,0,1,.17.159c0,.06.251,6.066,3.93,8.641a.166.166,0,0,1,.04.23A.163.163,0,0,1,752.513-942.561Z" transform="translate(-748.349 951.663)" fill="#303081"/>
          </g>
          <g id="Group_5311" data-name="Group 5311" transform="translate(34.416 0.321)">
            <path id="Path_7542" data-name="Path 7542" d="M777.639-940.437s4.1-.88,5.13-4.748-3.4-5.768-3.4-5.768,6.024-4.943,1.917-8.148c-2.447-1.909-7.251-.547-7.251-.547a7.779,7.779,0,0,0-5.835-5.307,9.659,9.659,0,0,1-2.059,4.536c-2.545,3.016-5.23,4.127-4.543,7.423s3.241,2.766,3.241,2.766-1.13,3.723,2.138,5.339a3.366,3.366,0,0,0-2.848,4.029c.215,1.676,2.172,2.492,2.838,2.61A2.265,2.265,0,0,0,765.021-936c-.186,1.821,1.073,2.769,4.366,2.533a28.514,28.514,0,0,1,3.442-1.209A6.469,6.469,0,0,0,777.639-940.437Z" transform="translate(-761.321 965.158)" fill="#ffd499"/>
            <g id="Group_5310" data-name="Group 5310" transform="translate(0.164 0.203)">
              <path id="Path_7543" data-name="Path 7543" d="M775.456-946.486c-2.638,1.721-8.225,3.805-9.961,2.792-2-1.169-.435-3.327.119-3.505a11.744,11.744,0,0,1,2.6-.109,29.776,29.776,0,0,0,5.419-1.327,24.378,24.378,0,0,1,2.873-.8c.012-.109.016-.17.016-.17a7.555,7.555,0,0,0,4.455-3.16l-.026.025c-2.019,1.931-12.733,5.754-15.552,4.7a3.985,3.985,0,0,1-2.433-2.71,5.553,5.553,0,0,0,.042.724c.215,1.676,2.172,2.492,2.838,2.61a2.265,2.265,0,0,0-1.942,2.257c-.186,1.821,1.073,2.769,4.366,2.533a28.514,28.514,0,0,1,3.442-1.209A6.049,6.049,0,0,0,775.456-946.486Z" transform="translate(-760.37 974.127)" fill="#f5a666"/>
              <g id="Group_5309" data-name="Group 5309">
                <path id="Path_7544" data-name="Path 7544" d="M762.368-952.676c-.689-3.3,2-4.408,4.543-7.424a9.654,9.654,0,0,0,2.058-4.536c.323.082.626.177.913.281a9.49,9.49,0,0,0-1.684-.6,9.659,9.659,0,0,1-2.059,4.536c-2.545,3.016-5.23,4.127-4.543,7.423.4,1.917,1.43,2.538,2.222,2.724A3.474,3.474,0,0,1,762.368-952.676Z" transform="translate(-761.486 964.955)" fill="#fff"/>
              </g>
              <path id="Path_7545" data-name="Path 7545" d="M764.652-951.371s-1.13,3.723,2.138,5.339c0,0-.031,0-.088.014,1.011,0,1.534-.263,4.562-1.232,3.1-.992,7.917-4.843,7.917-4.843a52.739,52.739,0,0,1-9.009,4.5c-1.492.515-3.8,1.134-4.666-.179s-.119-3.989.347-4.063a18.883,18.883,0,0,0,3.9-3.146,52.27,52.27,0,0,1,5.014-4.184,23.559,23.559,0,0,1,3.707-2.031,13.731,13.731,0,0,0-4.629.408,7,7,0,0,0-1.443-2.652c.472,1.068.049,4.135-1.215,5.9-1.288,1.8-5.035,4.892-6.788,5.277a2.651,2.651,0,0,1-2.675-.861h0A2.677,2.677,0,0,0,764.652-951.371Z" transform="translate(-761.303 966.095)" fill="#f5a666"/>
            </g>
            <path id="Path_7546" data-name="Path 7546" d="M768.511-933.174a4.143,4.143,0,0,1-3.044-.887,2.228,2.228,0,0,1-.54-1.865,2.47,2.47,0,0,1,1.507-2.242,3.54,3.54,0,0,1-2.4-2.587,3.757,3.757,0,0,1,.641-2.873,3.71,3.71,0,0,1,1.907-1.244c-2.443-1.488-2.066-4.259-1.891-5.083-.687.037-2.6-.121-3.186-2.92-.519-2.487.834-3.8,2.548-5.453a28.111,28.111,0,0,0,2.03-2.112A9.577,9.577,0,0,0,768.1-964.9l.031-.173.172.044a8.08,8.08,0,0,1,5.908,5.265c.873-.223,4.979-1.145,7.239.619a3.488,3.488,0,0,1,1.5,2.759c.028,2.433-2.485,4.832-3.218,5.481.918.471,4.182,2.417,3.265,5.849-.948,3.546-4.445,4.652-5.137,4.838a6.633,6.633,0,0,1-4.922,5.793,28.78,28.78,0,0,0-3.421,1.2l-.049.012C769.13-933.186,768.811-933.174,768.511-933.174Zm-3.369-17.187-.079.265c-.044.147-1.048,3.61,2.054,5.142l.489.242-.542.07a3.182,3.182,0,0,0-2.7,3.845c.2,1.556,2.051,2.354,2.7,2.468l.945.166-.946.16a2.107,2.107,0,0,0-1.805,2.112,1.886,1.886,0,0,0,.447,1.6c.612.631,1.861.883,3.718.754a28.269,28.269,0,0,1,3.439-1.206,6.352,6.352,0,0,0,4.685-5.614l.005-.126.124-.026c.04-.009,4.01-.906,5.006-4.629.985-3.689-3.267-5.556-3.309-5.575l-.251-.107.21-.172c.033-.028,3.323-2.759,3.29-5.388a3.173,3.173,0,0,0-1.369-2.5c-2.352-1.835-7.056-.531-7.1-.517l-.166.047-.04-.17a7.658,7.658,0,0,0-5.546-5.139,9.777,9.777,0,0,1-2.061,4.438,28.391,28.391,0,0,1-2.052,2.135c-1.705,1.649-2.937,2.839-2.455,5.148.645,3.088,2.948,2.657,3.046,2.638Z" transform="translate(-761.392 965.071)" fill="#303081"/>
          </g>
          <g id="Group_5325" data-name="Group 5325" transform="translate(36.286 5.666)">
            <g id="Group_5312" data-name="Group 5312" transform="translate(11.286 13.493)">
              <path id="Path_7547" data-name="Path 7547" d="M770.04-950.627a.165.165,0,0,1-.165-.161,4.938,4.938,0,0,0-.931-3.253.167.167,0,0,1,0-.233.164.164,0,0,1,.233,0,5.143,5.143,0,0,1,1.027,3.481.165.165,0,0,1-.163.167Z" transform="translate(-768.898 954.323)" fill="#303081"/>
            </g>
            <g id="Group_5313" data-name="Group 5313" transform="translate(10.444 14.212)">
              <path id="Path_7548" data-name="Path 7548" d="M769.426-950.026l-.026,0a.164.164,0,0,1-.139-.187,6.63,6.63,0,0,0-.822-3.453.164.164,0,0,1,.063-.224.166.166,0,0,1,.224.063,6.83,6.83,0,0,1,.861,3.663A.164.164,0,0,1,769.426-950.026Z" transform="translate(-768.418 953.913)" fill="#303081"/>
            </g>
            <g id="Group_5314" data-name="Group 5314" transform="translate(11.286 4.997)">
              <path id="Path_7549" data-name="Path 7549" d="M770.277-955.529h-.005a.162.162,0,0,1-.16-.168,5.716,5.716,0,0,0-1.178-3.2.165.165,0,0,1,.026-.233.165.165,0,0,1,.231.026,5.949,5.949,0,0,1,1.25,3.418A.165.165,0,0,1,770.277-955.529Z" transform="translate(-768.898 959.17)" fill="#303081"/>
            </g>
            <g id="Group_5315" data-name="Group 5315" transform="translate(10.443 6.104)">
              <path id="Path_7550" data-name="Path 7550" d="M769.7-955.525a.165.165,0,0,1-.165-.165,4.8,4.8,0,0,0-1.08-2.578.165.165,0,0,1,.019-.233.168.168,0,0,1,.233.019,5.045,5.045,0,0,1,1.157,2.792.165.165,0,0,1-.165.165Z" transform="translate(-768.417 958.539)" fill="#303081"/>
            </g>
            <g id="Group_5316" data-name="Group 5316" transform="translate(1.478)">
              <path id="Path_7551" data-name="Path 7551" d="M763.468-952.274a.165.165,0,0,1-.158-.114.166.166,0,0,1,.107-.208c5.011-1.6,9.061-9.26,9.1-9.337a.163.163,0,0,1,.223-.068.165.165,0,0,1,.07.223c-.168.319-4.152,7.857-9.295,9.5A.157.157,0,0,1,763.468-952.274Z" transform="translate(-763.303 962.021)" fill="#303081"/>
            </g>
            <g id="Group_5317" data-name="Group 5317" transform="translate(3.617 8.695)">
              <path id="Path_7552" data-name="Path 7552" d="M764.688-950.67a.166.166,0,0,1-.165-.151.165.165,0,0,1,.151-.179c5.913-.508,12.234-5.966,12.3-6.021a.166.166,0,0,1,.233.016.166.166,0,0,1-.016.233c-.065.056-6.466,5.584-12.486,6.1Z" transform="translate(-764.523 957.06)" fill="#303081"/>
            </g>
            <g id="Group_5318" data-name="Group 5318" transform="translate(3.324 19.211)">
              <path id="Path_7553" data-name="Path 7553" d="M765.923-948.385a5.4,5.4,0,0,1-1.448-.168.167.167,0,0,1-.114-.205.166.166,0,0,1,.2-.114c3.06.866,10.776-2.147,10.853-2.177a.166.166,0,0,1,.214.093.165.165,0,0,1-.093.214C775.26-950.632,769.5-948.385,765.923-948.385Z" transform="translate(-764.355 951.061)" fill="#303081"/>
            </g>
            <g id="Group_5319" data-name="Group 5319" transform="translate(7.017 1.02)">
              <path id="Path_7554" data-name="Path 7554" d="M766.628-956.866a.158.158,0,0,1-.119-.051.166.166,0,0,1,0-.233c1.365-1.318,5.333-4.138,5.5-4.259a.166.166,0,0,1,.231.04.164.164,0,0,1-.04.23c-.04.03-4.117,2.927-5.463,4.227A.167.167,0,0,1,766.628-956.866Z" transform="translate(-766.463 961.439)" fill="#303081"/>
            </g>
            <g id="Group_5320" data-name="Group 5320" transform="translate(4.911 0.426)">
              <path id="Path_7555" data-name="Path 7555" d="M767.1-959.2a.166.166,0,0,1-.158-.117,3.356,3.356,0,0,0-1.583-2.142.165.165,0,0,1-.086-.217.164.164,0,0,1,.216-.088,3.617,3.617,0,0,1,1.768,2.35.167.167,0,0,1-.11.207A.22.22,0,0,1,767.1-959.2Z" transform="translate(-765.261 961.778)" fill="#303081"/>
            </g>
            <path id="Path_7556" data-name="Path 7556" d="M765.179-960.532c-.242.137-2.582,1.488-2.615,3-.019.906.03,1.891.54,2.319a1.564,1.564,0,0,0,1.355.188,4.2,4.2,0,0,0,2.776-1.753,1.962,1.962,0,0,0,.214-1.637C766.987-959.906,766.1-960.734,765.179-960.532Z" transform="translate(-762.383 963.12)" fill="#f5a666" opacity="0.6"/>
            <g id="Group_5321" data-name="Group 5321" transform="translate(0 2.397)">
              <path id="Path_7557" data-name="Path 7557" d="M764.047-954.734a1.441,1.441,0,0,1-.96-.31,3.092,3.092,0,0,1-.624-2.44c.037-1.683,2.54-3.053,2.647-3.111a.157.157,0,0,1,.04-.016c1.053-.252,2.052.615,2.543,2.208a2.179,2.179,0,0,1-.233,1.8,4.28,4.28,0,0,1-2.824,1.8A3.066,3.066,0,0,1,764.047-954.734Zm1.2-5.561c-.228.128-2.424,1.4-2.456,2.82-.019.85.028,1.776.507,2.177a1.462,1.462,0,0,0,1.272.177,3.955,3.955,0,0,0,2.606-1.646,1.837,1.837,0,0,0,.2-1.537C766.944-959.706,766.11-960.483,765.247-960.295Z" transform="translate(-762.459 960.654)" fill="#303081"/>
            </g>
            <g id="Group_5322" data-name="Group 5322" transform="translate(2.313 8.466)">
              <path id="Path_7558" data-name="Path 7558" d="M766.288-957.076c-.138.039-2.082.6-2.329,2.112a3.305,3.305,0,0,0,.471,2.61,1.339,1.339,0,0,0,1.064.484h0c1.293,0,2.652-.638,2.75-1.849a4.217,4.217,0,0,0-.862-3.025A1.269,1.269,0,0,0,766.288-957.076Z" transform="translate(-763.694 957.266)" fill="#f5a666" opacity="0.6"/>
              <path id="Path_7559" data-name="Path 7559" d="M767.614-956.775a1.5,1.5,0,0,0-1.313-.394l-.016,0c-.088.023-2.165.568-2.44,2.252a3.426,3.426,0,0,0,.517,2.72,1.593,1.593,0,0,0,1.251.57h0c1.367,0,2.806-.7,2.915-2.04A4.237,4.237,0,0,0,767.614-956.775Zm.587,3.085c-.093,1.139-1.371,1.735-2.585,1.737h0a1.26,1.26,0,0,1-1-.454,3.107,3.107,0,0,1-.442-2.454c.231-1.425,2.058-1.947,2.189-1.984a1.192,1.192,0,0,1,1.029.312A3.955,3.955,0,0,1,768.2-953.691Z" transform="translate(-763.779 957.191)" fill="#303081"/>
            </g>
            <g id="Group_5323" data-name="Group 5323" transform="translate(1.667 15.946)">
              <path id="Path_7560" data-name="Path 7560" d="M766.339-952.779c-.207-.019-.41-.028-.6-.028-.95,0-1.74.205-1.912.522a3.394,3.394,0,0,0-.073,2.673,1.968,1.968,0,0,0,1.388,1.169,3.211,3.211,0,0,0,2.927-1.118,2.345,2.345,0,0,0,.78-2.1C768.655-952.222,767.672-952.662,766.339-952.779Z" transform="translate(-763.335 953.011)" fill="#f5a666" opacity="0.6"/>
              <path id="Path_7561" data-name="Path 7561" d="M769.082-951.615c-.266-.8-1.542-1.185-2.647-1.281s-2.38.061-2.694.638a3.567,3.567,0,0,0-.082,2.81,2.2,2.2,0,0,0,1.532,1.292,2.372,2.372,0,0,0,.591.074,3.6,3.6,0,0,0,2.494-1.223A2.493,2.493,0,0,0,769.082-951.615Zm-1.048,2.084a3.035,3.035,0,0,1-2.762,1.055,1.861,1.861,0,0,1-1.309-1.1,3.2,3.2,0,0,1,.07-2.52c.163-.3.908-.493,1.8-.493.184,0,.375.009.57.026,1.258.11,2.186.526,2.363,1.057A2.209,2.209,0,0,1,768.034-949.531Z" transform="translate(-763.41 952.924)" fill="#303081"/>
            </g>
            <g id="Group_5324" data-name="Group 5324" transform="translate(2.474 21.746)">
              <path id="Path_7562" data-name="Path 7562" d="M766.409-949.243a2.919,2.919,0,0,0-2.2-.081c-.131.415-.689,2.417.577,2.988a2.352,2.352,0,0,0,2.459-.557c.419-.393.6-.833.485-1.146A2.468,2.468,0,0,0,766.409-949.243Z" transform="translate(-763.792 949.699)" fill="#f5a666" opacity="0.6"/>
              <path id="Path_7563" data-name="Path 7563" d="M767.973-948.056a2.581,2.581,0,0,0-1.4-1.293,3.007,3.007,0,0,0-2.349-.049.163.163,0,0,0-.093.1c-.037.1-.889,2.524.682,3.234a2.026,2.026,0,0,0,.829.175,2.72,2.72,0,0,0,1.8-.75A1.367,1.367,0,0,0,767.973-948.056Zm-.755,1.172a2.168,2.168,0,0,1-2.265.514c-1.164-.526-.652-2.37-.531-2.75a2.677,2.677,0,0,1,2.023.074,2.275,2.275,0,0,1,1.22,1.108C767.773-947.649,767.6-947.245,767.217-946.883Z" transform="translate(-763.871 949.614)" fill="#303081"/>
            </g>
          </g>
        </g>
        <g id="Group_5345" data-name="Group 5345" transform="translate(-13.573 48.761)">
          <g id="Group_5327" data-name="Group 5327" transform="translate(22.619)">
            <path id="Path_7564" data-name="Path 7564" d="M757.063-947.446a24.977,24.977,0,0,0-10.807-8c-2.1-.72-8.117-.868-8.7.24s-1.484,5.02,7.715,4.478C745.268-950.731,750.908-945.141,757.063-947.446Z" transform="translate(-737.047 956.184)" fill="#ffd499"/>
            <path id="Path_7565" data-name="Path 7565" d="M737.5-954.687c.587-1.108,6.606-.96,8.7-.24a24.841,24.841,0,0,1,10.5,7.607c.119-.04.24-.081.361-.126a24.977,24.977,0,0,0-10.807-8c-2.1-.72-8.117-.868-8.7.24a3.043,3.043,0,0,0-.338,1.348A3.054,3.054,0,0,1,737.5-954.687Z" transform="translate(-737.047 956.184)" fill="#fff"/>
            <path id="Path_7566" data-name="Path 7566" d="M754.832-949.5s-1.609-1.364-2.787-2.236-4.464-2.054-4.894-2.342c-.939-.629-4.029,1.372-6.555,1.369a3.842,3.842,0,0,1-3.383-2.091c-.019,1.525,1.269,3.528,7.963,3.155.014-.005.575-.191,1.7-.661,1.145-.475,1.695-.147,3.269.3a19.68,19.68,0,0,1,4.336,2.508Z" transform="translate(-737.047 957.101)" fill="#f5a666"/>
            <path id="Path_7567" data-name="Path 7567" d="M754.075-946.657c-4.561,0-8.306-3.37-8.8-3.833-4.182.237-6.793-.408-7.764-1.919a2.858,2.858,0,0,1-.035-2.8c.673-1.271,6.872-1.017,8.9-.319a25.363,25.363,0,0,1,10.886,8.062.162.162,0,0,1,.025.144.16.16,0,0,1-.1.107A8.818,8.818,0,0,1,754.075-946.657Zm-8.735-4.166a.165.165,0,0,1,.116.047c.056.054,5.509,5.362,11.412,3.323a24.937,24.937,0,0,0-10.591-7.768c-2.207-.759-8-.783-8.506.161a2.534,2.534,0,0,0,.021,2.471c.624.971,2.44,2.065,7.54,1.765Z" transform="translate(-737.119 956.111)" fill="#303081"/>
          </g>
          <path id="Path_7568" data-name="Path 7568" d="M737.223-954.583a5.144,5.144,0,0,0,1.8.231c2.606-.063,4.236-.549,4.855-1.444-3.412-.315-6.092-.072-6.425.6A3.229,3.229,0,0,0,737.223-954.583Z" transform="translate(-714.421 956.246)" fill="#f5a666" opacity="0.6"/>
          <g id="Group_5328" data-name="Group 5328" transform="translate(22.698 0.089)">
            <path id="Path_7569" data-name="Path 7569" d="M739.012-954.03a4.927,4.927,0,0,1-1.742-.272.166.166,0,0,1-.1-.193,3.186,3.186,0,0,1,.277-.757h0c.615-1.16,5.531-.759,6.511-.666a.169.169,0,0,1,.128.082.171.171,0,0,1,.005.154c-.508,1.046-2.11,1.584-4.9,1.649C739.131-954.03,739.07-954.03,739.012-954.03Zm-1.486-.533a5.021,5.021,0,0,0,1.658.2c2.4-.056,3.909-.477,4.48-1.251-3.148-.273-5.621-.061-5.928.515A2.873,2.873,0,0,0,737.526-954.563Z" transform="translate(-737.163 956.06)" fill="#303081"/>
          </g>
          <g id="Group_5329" data-name="Group 5329" transform="translate(38.993 7.356)">
            <path id="Path_7570" data-name="Path 7570" d="M751.2-945.657s1.567-2.427.789-4.42-3.956-1.849-5.249-1.607S751.2-945.657,751.2-945.657Z" transform="translate(-746.392 951.985)" fill="#f5a666"/>
            <path id="Path_7571" data-name="Path 7571" d="M751.272-945.422a.166.166,0,0,1-.118-.049c-.834-.838-4.983-5.072-4.678-6.049a.367.367,0,0,1,.3-.256c1.535-.287,4.648-.3,5.433,1.707.8,2.049-.736,4.469-.8,4.571a.165.165,0,0,1-.121.075Zm-2.9-6.166a8.449,8.449,0,0,0-1.528.137c-.044.009-.047.019-.051.028-.16.513,2.112,3.2,4.448,5.568.331-.585,1.288-2.5.668-4.093C751.4-951.234,749.783-951.588,748.37-951.588Z" transform="translate(-746.461 951.914)" fill="#303081"/>
          </g>
          <g id="Group_5331" data-name="Group 5331" transform="translate(0 4.395)">
            <path id="Path_7572" data-name="Path 7572" d="M728.689-941.713c-5.258,4.678-6.45,19.56.154,21.167s12.541-3.039,15.441-2.149,11.857.924,19.5-.8a30.754,30.754,0,0,0,7.915-.955,20.917,20.917,0,0,0,6.893-2.72s10.812-1.746,10.825-5.423-7.149-3.516-11.452-.589a21.374,21.374,0,0,0-8.716,1.309l-3.931-.852s5.167-10.814,3.246-13.631-8.078-7.272-10.905-7.147-10.283,6.11-10.858,7c-1.62,2.522,1.707,3.25,1.707,3.25l-.936,1.469a8.511,8.511,0,0,0-4.045.324S733.949-946.391,728.689-941.713Z" transform="translate(-724.141 953.674)" fill="#ffd499"/>
            <g id="Group_5330" data-name="Group 5330" transform="translate(1.093 0.165)">
              <path id="Path_7573" data-name="Path 7573" d="M747.592-939.877l3.931.852a21.353,21.353,0,0,1,8.716-1.307c4.3-2.929,11.463-3.09,11.452.587a1.962,1.962,0,0,1-.019.249,2,2,0,0,0,.223-.89c.012-3.679-7.149-3.516-11.452-.589a21.374,21.374,0,0,0-8.716,1.309l-3.847-.834C747.7-940.1,747.592-939.877,747.592-939.877Z" transform="translate(-707.71 961.299)" fill="#fff"/>
              <path id="Path_7574" data-name="Path 7574" d="M728.088-945.272c5.26-4.678,14.84.253,14.84.253a8.509,8.509,0,0,1,4.045-.324l.936-1.469s-.068-.014-.177-.046l-.556.873a8.511,8.511,0,0,0-4.045.324s-9.58-4.93-14.84-.252a13.319,13.319,0,0,0-3.455,6.066A12.746,12.746,0,0,1,728.088-945.272Z" transform="translate(-724.837 957.71)" fill="#fff"/>
              <path id="Path_7575" data-name="Path 7575" d="M737.123-945.862c.575-.894,8.031-6.881,10.858-7s8.983,4.333,10.905,7.149c.827,1.213.34,3.908-.484,6.585.941-2.878,1.581-5.917.687-7.228-1.923-2.815-8.078-7.272-10.905-7.147s-10.283,6.11-10.858,7a2.635,2.635,0,0,0-.426,1.045A3.632,3.632,0,0,1,737.123-945.862Z" transform="translate(-715.757 953.509)" fill="#fff"/>
            </g>
            <path id="Path_7576" data-name="Path 7576" d="M737.862-944.784s3.283.116,4.832-1.542,2.319-5.4,2.319-5.4.673.719.2,2.92,1.581,3.37,3.246,3.509a5.608,5.608,0,0,0,3.264-1.027s-.079,1.088-1.916,2.235-1.367,6.4-1.367,6.4a7.762,7.762,0,0,1-.575-3.356,9.9,9.9,0,0,1,.848-3.416,3.758,3.758,0,0,1-2.906-1.038c-1.209-1.241-1.595-1.69-1.595-1.69S743.427-943.794,737.862-944.784Z" transform="translate(-713.94 955.015)" fill="#f5a666"/>
            <path id="Path_7577" data-name="Path 7577" d="M738.631-944.688s1.069.473,2.119-.854,3.781-.689,3.781-.689.883-1.148.86-1.155a10.946,10.946,0,0,1-1.626-1.583c-.1-.3-.259-.119-.259-.119a3.677,3.677,0,0,1-2.519,2.212c-1.763.27-1.6.314-1.6.314Z" transform="translate(-713.361 956.961)" fill="#f5a666"/>
            <path id="Path_7578" data-name="Path 7578" d="M729.865-936.64a3.749,3.749,0,0,0,3.209-1.055c1.322-1.411.71-3.658,1.56-5.7s2.038-2.08,3.148-1.961a2.424,2.424,0,0,0-1.505,2.813c.238,2.317.515,4.534-.079,6.14s1.243,4.694,5,3.905a4.63,4.63,0,0,1-3.519-.074c-1.782-.833-3.171-2.8-2.827-4.387l.375-1.139A5.186,5.186,0,0,1,729.865-936.64Z" transform="translate(-719.959 959.784)" fill="#f5a666"/>
            <path id="Path_7579" data-name="Path 7579" d="M789.365-941.191a2.427,2.427,0,0,0-.165-.9c.561,3.269-7.644,4.809-9.207,4.967s-2.762-2.776-3.106-2.78.471,2.286.491,3.651-4.436,2.238-8.825,2.713-4.206-.475-4.206-.475-5.267,2.081-8.99,2.2-10.478-1.01-13.864-2.692-4.713,3.069-12.318,2.356a5.363,5.363,0,0,1-4.794-3.66c.407,3.332,1.8,6.04,4.406,6.674,6.6,1.607,12.541-3.039,15.441-2.149s11.857.924,19.5-.8a30.754,30.754,0,0,0,7.915-.955,20.917,20.917,0,0,0,6.893-2.72S789.352-937.514,789.365-941.191Z" transform="translate(-724.086 962.268)" fill="#f5a666"/>
            <path id="Path_7580" data-name="Path 7580" d="M741.138-951.236a.424.424,0,0,0-.447.1c-.733.643-3.167,2.412-3.451,2.846s-.2.778.251.489c.715-.459,1.5-.812,2.175-1.334.337-.263.761-.461,1.087-.738a1.384,1.384,0,0,0,.652-.992A.41.41,0,0,0,741.138-951.236Z" transform="translate(-714.533 955.365)" fill="#f5a666" opacity="0.6"/>
            <path id="Path_7581" data-name="Path 7581" d="M739.1-945.117a7.622,7.622,0,0,0,1.1-2.4c-.009-.025-.016-.049-.026-.074a6.151,6.151,0,0,1-1.492-.072,7.58,7.58,0,0,0-1.269,2.158C737.078-944.445,738.652-944.426,739.1-945.117Z" transform="translate(-714.313 958.079)" fill="#f5a666" opacity="0.6"/>
            <path id="Path_7582" data-name="Path 7582" d="M731.828-919.969a12.36,12.36,0,0,1-2.952-.347c-2.054-.5-3.514-2.257-4.217-5.086-1.369-5.489.535-13.289,3.993-16.363h0c2.191-1.949,5.488-2.526,9.535-1.667a24.837,24.837,0,0,1,5.425,1.861,8.62,8.62,0,0,1,3.954-.324l.755-1.187a3.035,3.035,0,0,1-1.933-1.448,2.121,2.121,0,0,1,.349-1.993c.608-.947,8.059-6.951,10.989-7.079,3.013-.133,9.174,4.473,11.049,7.219,1.833,2.689-2.442,12.1-3.144,13.606l3.677.8a21.636,21.636,0,0,1,8.686-1.3c3.146-2.115,7.8-2.831,10.2-1.558a2.519,2.519,0,0,1,1.465,2.315c-.012,3.7-10.108,5.446-10.926,5.581a21.348,21.348,0,0,1-6.918,2.722,31.506,31.506,0,0,1-7.94.96c-7.915,1.786-16.728,1.669-19.563.8-1.143-.351-2.862.224-4.853.889A24.017,24.017,0,0,1,731.828-919.969Zm-2.957-21.551c-3.379,3.006-5.235,10.651-3.893,16.039.47,1.882,1.541,4.252,3.975,4.844,3.844.936,7.477-.279,10.4-1.253,2.046-.684,3.81-1.272,5.055-.892,2.74.841,11.664.945,19.416-.808a.123.123,0,0,1,.044,0,31.054,31.054,0,0,0,7.87-.952,21.012,21.012,0,0,0,6.834-2.692.2.2,0,0,1,.072-.03c.105-.016,10.674-1.763,10.686-5.26a2.186,2.186,0,0,0-1.29-2.024c-2.273-1.206-6.9-.472-9.9,1.572a.159.159,0,0,1-.105.028,21.363,21.363,0,0,0-8.637,1.3.167.167,0,0,1-.1.01l-3.931-.852a.163.163,0,0,1-.112-.088.169.169,0,0,1,0-.145c.051-.107,5.106-10.76,3.258-13.466-1.975-2.894-8.1-7.188-10.761-7.076-2.838.123-10.222,6.145-10.726,6.928a1.816,1.816,0,0,0-.321,1.686c.4.967,1.909,1.309,1.925,1.313a.17.17,0,0,1,.117.1.167.167,0,0,1-.014.152l-.936,1.467a.16.16,0,0,1-.17.074,8.438,8.438,0,0,0-3.958.317.164.164,0,0,1-.131-.009c-.095-.049-9.542-4.822-14.654-.275Z" transform="translate(-724.213 953.604)" fill="#303081"/>
          </g>
          <g id="Group_5332" data-name="Group 5332" transform="translate(22.196 8.202)">
            <path id="Path_7583" data-name="Path 7583" d="M737.072-947.319a.266.266,0,0,1-.068-.007.162.162,0,0,1-.121-.2.164.164,0,0,1,.188-.124c.026,0,.479,0,1.888-.962.238-.163.477-.317.706-.466.836-.545,1.627-1.059,1.658-1.511a.711.711,0,0,0-.319-.554.166.166,0,0,1-.018-.233.166.166,0,0,1,.233-.018,1.012,1.012,0,0,1,.433.827c-.042.617-.822,1.123-1.809,1.763-.226.149-.463.3-.7.464C737.809-947.427,737.259-947.319,737.072-947.319Z" transform="translate(-736.877 951.432)" fill="#303081"/>
          </g>
          <g id="Group_5333" data-name="Group 5333" transform="translate(57.581 22.687)">
            <path id="Path_7584" data-name="Path 7584" d="M761.293-942.108c.082.662-.773,1.316-1.912,1.46s-2.131-.275-2.215-.936.773-1.316,1.912-1.46S761.209-942.768,761.293-942.108Z" transform="translate(-756.995 943.239)" fill="#ff7320"/>
            <path id="Path_7585" data-name="Path 7585" d="M759.006-940.382a2.908,2.908,0,0,1-1.122-.209,1.194,1.194,0,0,1-.812-.9c-.1-.762.806-1.485,2.054-1.644s2.3.317,2.4,1.081h0a1.19,1.19,0,0,1-.561,1.074,3.129,3.129,0,0,1-1.493.57A3.853,3.853,0,0,1,759.006-940.382Zm.58-2.454a3.388,3.388,0,0,0-.417.026c-1.031.131-1.84.715-1.768,1.276a.89.89,0,0,0,.612.64,2.817,2.817,0,0,0,1.418.154,2.824,2.824,0,0,0,1.336-.5.887.887,0,0,0,.433-.773C761.138-942.5,760.438-942.836,759.586-942.836Z" transform="translate(-757.066 943.167)" fill="#303081"/>
          </g>
          <g id="Group_5334" data-name="Group 5334" transform="translate(14.676 16.443)">
            <path id="Path_7586" data-name="Path 7586" d="M737.558-931.019a5.308,5.308,0,0,1-3.782-1.732,3.426,3.426,0,0,1-1.06-3.351,11.52,11.52,0,0,0,.629-5.007c0-.265-.009-.547-.014-.85a2.485,2.485,0,0,1,.72-1.968,2.627,2.627,0,0,1,1.9-.57.165.165,0,0,1,.144.182.165.165,0,0,1-.182.146,2.333,2.333,0,0,0-1.641.489,2.169,2.169,0,0,0-.608,1.718c0,.3.009.582.014.848a11.915,11.915,0,0,1-.652,5.127,3.162,3.162,0,0,0,.992,3.013,4.737,4.737,0,0,0,4.722,1.456c1.427-.414,2.611-2.687,2.878-5.524.31-3.3-.682-7.487-4.392-9.373a.168.168,0,0,1-.072-.223.166.166,0,0,1,.223-.072c3.858,1.961,4.89,6.3,4.569,9.7-.279,2.969-1.56,5.358-3.114,5.81A4.521,4.521,0,0,1,737.558-931.019Z" transform="translate(-732.587 946.729)" fill="#303081"/>
          </g>
          <g id="Group_5335" data-name="Group 5335" transform="translate(9.759 25.745)">
            <path id="Path_7587" data-name="Path 7587" d="M731.523-939.168a4.192,4.192,0,0,1-1.648-.31.165.165,0,0,1-.079-.219.167.167,0,0,1,.221-.079c.11.053,2.725,1.248,5.313-1.591a.164.164,0,0,1,.233-.012.166.166,0,0,1,.01.233A5.4,5.4,0,0,1,731.523-939.168Z" transform="translate(-729.781 941.422)" fill="#303081"/>
          </g>
          <g id="Group_5336" data-name="Group 5336" transform="translate(23.754 21.25)">
            <path id="Path_7588" data-name="Path 7588" d="M748.773-943.237c-5.4-2.221-7.94,1.136-8.353,1.758a.148.148,0,0,1-.075.06,4.254,4.254,0,0,0-2.578,2.382l.005.03a.076.076,0,0,1,.025.06c0,.026,0,.054,0,.081.01.051.021.1.033.154a1.918,1.918,0,0,1,.079.258,3.884,3.884,0,0,1,2.654-2.69.176.176,0,0,0,.089-.074c.095-.17,2.371-4.036,8.006-1.712a.162.162,0,0,0,.217-.189l0-.005A.165.165,0,0,0,748.773-943.237Z" transform="translate(-737.766 943.987)" fill="#303081"/>
          </g>
          <g id="Group_5337" data-name="Group 5337" transform="translate(24.204 7.314)">
            <path id="Path_7589" data-name="Path 7589" d="M738.865-944.245c-.4,0-.655-.023-.692-.026a.165.165,0,0,1-.149-.18.166.166,0,0,1,.179-.149c.032,0,3.039.261,4.713-1.1s1.842-6.034,1.844-6.082a.167.167,0,0,1,.172-.159.167.167,0,0,1,.159.172c-.007.2-.182,4.88-1.967,6.326A7.112,7.112,0,0,1,738.865-944.245Z" transform="translate(-738.023 951.938)" fill="#303081"/>
          </g>
          <g id="Group_5338" data-name="Group 5338" transform="translate(30.271 12.23)">
            <path id="Path_7590" data-name="Path 7590" d="M745.6-946.237c-1.406,0-2.78-.885-4.087-2.632a.163.163,0,0,1,.033-.23.164.164,0,0,1,.231.033c1.264,1.688,2.573,2.527,3.894,2.5a4.624,4.624,0,0,0,3.227-1.954.166.166,0,0,1,.23-.044.166.166,0,0,1,.044.229,4.884,4.884,0,0,1-3.493,2.1Z" transform="translate(-741.484 949.133)" fill="#303081"/>
          </g>
          <g id="Group_5339" data-name="Group 5339" transform="translate(32.614 24.58)">
            <path id="Path_7591" data-name="Path 7591" d="M742.985-939.109a.172.172,0,0,1-.075-.019.165.165,0,0,1-.07-.223c.021-.042,2.289-4.273,8.6-2.131a.163.163,0,0,1,.1.209.164.164,0,0,1-.209.1c-6.033-2.047-8.115,1.807-8.2,1.972A.166.166,0,0,1,742.985-939.109Z" transform="translate(-742.821 942.087)" fill="#303081"/>
          </g>
          <g id="Group_5340" data-name="Group 5340" transform="translate(33.707 14.839)">
            <path id="Path_7592" data-name="Path 7592" d="M746.605-937.883a7.869,7.869,0,0,1-2.817-6.566,7.356,7.356,0,0,1,.952-3.043.166.166,0,0,0,.009-.154h-.3c-.237.391-3.046,5.319,1.932,10a.156.156,0,0,0,.112.046.166.166,0,0,0,.121-.053A.166.166,0,0,0,746.605-937.883Z" transform="translate(-743.445 947.645)" fill="#303081"/>
          </g>
          <g id="Group_5341" data-name="Group 5341" transform="translate(22.932 13.875)">
            <path id="Path_7593" data-name="Path 7593" d="M746.392-947.983a1.927,1.927,0,0,1-.142-.212c-.158.263-3.139,5.135-5.665,5.333a2.776,2.776,0,0,1-2.734-1.017,1.7,1.7,0,0,1,.086-1.818.165.165,0,0,0-.049-.228.163.163,0,0,0-.228.049,2.025,2.025,0,0,0-.091,2.166,2.88,2.88,0,0,0,2.608,1.194c.142,0,.286-.007.433-.017,2.543-.2,5.34-4.547,5.85-5.376C746.437-947.932,746.413-947.957,746.392-947.983Z" transform="translate(-737.297 948.195)" fill="#303081"/>
          </g>
          <g id="Group_5342" data-name="Group 5342" transform="translate(22.95 14.627)">
            <path id="Path_7594" data-name="Path 7594" d="M738.124-944.373a1.282,1.282,0,0,1-.757-.259.166.166,0,0,1-.021-.233.164.164,0,0,1,.231-.021.957.957,0,0,0,.647.177,1.288,1.288,0,0,0,.836-.568,7.353,7.353,0,0,0,1.16-2.364.166.166,0,0,1,.2-.119.165.165,0,0,1,.119.2,7.675,7.675,0,0,1-1.218,2.484,1.591,1.591,0,0,1-1.066.7A1.133,1.133,0,0,1,738.124-944.373Z" transform="translate(-737.307 947.766)" fill="#303081"/>
          </g>
          <g id="Group_5343" data-name="Group 5343" transform="translate(52.799 24.719)">
            <path id="Path_7595" data-name="Path 7595" d="M755.676-936.768a.163.163,0,0,1-.135-.07c-.1-.144-2.469-3.553-.272-5.139a.167.167,0,0,1,.231.037.166.166,0,0,1-.038.231c-1.935,1.4.324,4.648.349,4.68a.169.169,0,0,1-.04.231A.178.178,0,0,1,755.676-936.768Z" transform="translate(-754.338 942.008)" fill="#303081"/>
          </g>
          <g id="Group_5344" data-name="Group 5344" transform="translate(43.383 26.027)">
            <path id="Path_7596" data-name="Path 7596" d="M749.173-937.086a.165.165,0,0,1-.163-.14c-.018-.118-.426-2.92,1.605-4.016a.163.163,0,0,1,.223.067.165.165,0,0,1-.067.224c-1.823.983-1.439,3.647-1.435,3.675a.164.164,0,0,1-.137.188Z" transform="translate(-748.965 941.262)" fill="#303081"/>
          </g>
        </g>
      </g>
    </g>
  </g>
</svg>
