<svg xmlns="http://www.w3.org/2000/svg" width="74.65" height="49.662" viewBox="0 0 74.65 49.662">
  <g id="Group_7916" data-name="Group 7916" transform="translate(0 0)">
    <g id="Group_7913" data-name="Group 7913">
      <g id="Group_7912" data-name="Group 7912">
        <path id="Path_34596" data-name="Path 34596" d="M413.234-1126.185l-17.447,6.786-7.482,2.909c-.505-.571-1.359-1.418-1.354-2.154s.463-.824,1.041-1.28a4.193,4.193,0,0,1,.623-.411,9.444,9.444,0,0,1,1.055-.452c3.974-1.53,7.875-3.478,12.037-4.387A53.424,53.424,0,0,1,413.234-1126.185Z" transform="translate(-386.95 1126.475)" fill="#9d8444"/>
        <path id="Path_34597" data-name="Path 34597" d="M395.787-1119.844l-7.482,2.909c-.505-.571-1.359-1.418-1.354-2.154s.463-.824,1.041-1.28a4.2,4.2,0,0,1,.623-.412l.128-.024c-.294.321-.591.642-.885.964a.485.485,0,0,0-.171.344c.023.232.334.29.563.266,2.134-.212,3.93-2.085,6.071-1.941Z" transform="translate(-386.95 1126.921)" fill="#bb9e50"/>
        <path id="Path_34598" data-name="Path 34598" d="M444.556-1106.834,441.691-1105l-3.335,2.137a11.517,11.517,0,0,1-2.7,2.071c-1.525.8-8.5,6.982-10.347,7.491a20.878,20.878,0,0,1-4.373,4.042l-4.952,4.139-1.084.906s-2.165,2.151-3.338-.451-7.152-8.475-7.152-8.475l-4.182-5.138s-9.98-10.826-11.425-14.122l-1.218-1.706a1.481,1.481,0,0,1,.255-2c2.589-2.171,9.638-7.6,16.567-8.782,8.7-1.479,14.3-2.138,20.049-.973a22.157,22.157,0,0,1,6.416,2.405,18.4,18.4,0,0,1,3.005,2.051l7.728,5.921a4.542,4.542,0,0,1,1.1,1.212,29.026,29.026,0,0,1,2.312,4.426c.12.3.224.6.31.883A1.871,1.871,0,0,1,444.556-1106.834Z" transform="translate(-386.919 1126.452)" fill="#caab56"/>
        <path id="Path_34599" data-name="Path 34599" d="M413.8-1116.3a1.024,1.024,0,0,0,.759-1.216,1.618,1.618,0,0,0-1.064-1.112,4.158,4.158,0,0,0-1.586-.174,1.986,1.986,0,0,0-1.176.3,1.284,1.284,0,0,0-.169,1.692,2.1,2.1,0,0,0,1.625.8A4.791,4.791,0,0,0,413.8-1116.3Z" transform="translate(-384.874 1127.131)" fill="#9d8444"/>
        <path id="Path_34600" data-name="Path 34600" d="M409.548-1093.132a.716.716,0,0,0,.768.645,1.132,1.132,0,0,0,.873-.627,2.9,2.9,0,0,0,.275-1.082,1.378,1.378,0,0,0-.094-.843.9.9,0,0,0-1.154-.282,1.464,1.464,0,0,0-.712,1.046A3.344,3.344,0,0,0,409.548-1093.132Z" transform="translate(-384.95 1129.208)" fill="#9d8444"/>
        <path id="Path_34601" data-name="Path 34601" d="M421.146-1106a.6.6,0,0,0,.4-.734c-.066-.322-.257-.755-.591-.695-.3.054-.574-.131-.863-.126a.952.952,0,0,0-.635.169.851.851,0,0,0-.07,1.032,1.158,1.158,0,0,0,.892.511A2.281,2.281,0,0,0,421.146-1106Z" transform="translate(-384.082 1128.131)" fill="#9d8444"/>
        <path id="Path_34602" data-name="Path 34602" d="M401.622-1103.887a.382.382,0,0,0,.25-.464c-.041-.2-.162-.477-.375-.439-.186.034-.361-.083-.546-.08a.6.6,0,0,0-.4.107.537.537,0,0,0-.045.653.729.729,0,0,0,.564.322A1.443,1.443,0,0,0,401.622-1103.887Z" transform="translate(-385.754 1128.369)" fill="#9d8444"/>
        <path id="Path_34603" data-name="Path 34603" d="M411.056-1104.164a.9.9,0,0,0-.373-.586.843.843,0,0,0-.758.063,2.2,2.2,0,0,0-1.015,1.055,1.291,1.291,0,0,0-.131.655.726.726,0,0,0,.333.559,1.178,1.178,0,0,0,.645.094l.856-.039C411.437-1102.4,411.209-1103.6,411.056-1104.164Z" transform="translate(-385.012 1128.374)" fill="#9d8444"/>
        <path id="Path_34604" data-name="Path 34604" d="M419.3-1101.01a.543.543,0,0,0-.228-.356.507.507,0,0,0-.461.038,1.337,1.337,0,0,0-.617.641.794.794,0,0,0-.081.4.442.442,0,0,0,.2.34.7.7,0,0,0,.392.057l.52-.023C419.53-1099.937,419.391-1100.666,419.3-1101.01Z" transform="translate(-384.2 1128.677)" fill="#9d8444"/>
        <path id="Path_34605" data-name="Path 34605" d="M408.892-1122.015a.778.778,0,0,0-.324-.508.73.73,0,0,0-.658.055,1.9,1.9,0,0,0-.88.915,1.125,1.125,0,0,0-.114.568.626.626,0,0,0,.29.485,1.012,1.012,0,0,0,.559.081l.743-.034C409.223-1120.485,409.023-1121.524,408.892-1122.015Z" transform="translate(-385.177 1126.796)" fill="#9d8444"/>
        <path id="Path_34606" data-name="Path 34606" d="M431.978-1109.918a1.089,1.089,0,0,0,.388-.32.423.423,0,0,0,.051-.5.63.63,0,0,0-.53-.168.686.686,0,0,0-.525.152.517.517,0,0,0-.087.437.642.642,0,0,0,.244.42A.369.369,0,0,0,431.978-1109.918Z" transform="translate(-383.014 1127.833)" fill="#9d8444"/>
        <path id="Path_34607" data-name="Path 34607" d="M400.2-1112.6a1.617,1.617,0,0,0-.64-.381.625.625,0,0,0-.721.178.928.928,0,0,0,.03.823,1.016,1.016,0,0,0,.475.657.766.766,0,0,0,.652-.1.942.942,0,0,0,.466-.551A.546.546,0,0,0,400.2-1112.6Z" transform="translate(-385.902 1127.645)" fill="#9d8444"/>
        <path id="Path_34608" data-name="Path 34608" d="M413.753-1111.811a1.594,1.594,0,0,0-.684.3.623.623,0,0,0-.277.689c.1.269.41.379.686.457a1.019,1.019,0,0,0,.811,0,.763.763,0,0,0,.3-.586.944.944,0,0,0-.175-.7A.544.544,0,0,0,413.753-1111.811Z" transform="translate(-384.657 1127.748)" fill="#9d8444"/>
        <path id="Path_34609" data-name="Path 34609" d="M428.928-1109.558a.57.57,0,0,0,.571-.284c.1-.234-.243-.641-.458-.5-.287.19-.4.058-.475.351C428.5-1109.716,428.695-1109.575,428.928-1109.558Z" transform="translate(-383.255 1127.88)" fill="#9d8444"/>
        <path id="Path_34610" data-name="Path 34610" d="M421.271-1111.31a.725.725,0,0,0,.811.013c.248-.207.1-.868-.225-.833-.437.046-.489-.171-.741.119A.435.435,0,0,0,421.271-1111.31Z" transform="translate(-383.926 1127.721)" fill="#9d8444"/>
        <path id="Path_34611" data-name="Path 34611" d="M412.219-1099.8a.727.727,0,0,0,.664-.466c.079-.313-.428-.761-.672-.542-.327.294-.5.149-.531.531C411.648-1099.921,411.922-1099.781,412.219-1099.8Z" transform="translate(-384.754 1128.724)" fill="#9d8444"/>
        <path id="Path_34612" data-name="Path 34612" d="M404.595-1112.27a.725.725,0,0,0,.628.513c.323-.009.616-.618.339-.794-.371-.234-.278-.437-.655-.367C404.551-1112.851,404.492-1112.549,404.595-1112.27Z" transform="translate(-385.387 1127.653)" fill="#9d8444"/>
      </g>
      <path id="Path_34613" data-name="Path 34613" d="M414.576-1099.213c-.275.252-.623.322-.776.155s-.053-.506.222-.76.624-.322.776-.156S414.852-1099.466,414.576-1099.213Z" transform="translate(-384.572 1128.796)" fill="#caab56" opacity="0.39" style="mix-blend-mode: multiply;isolation: isolate"/>
      <path id="Path_34614" data-name="Path 34614" d="M423.534-1105.918c-.275.253-.623.323-.776.157s-.053-.507.222-.76.623-.323.776-.157S423.81-1106.17,423.534-1105.918Z" transform="translate(-383.776 1128.201)" fill="#caab56" opacity="0.39" style="mix-blend-mode: multiply;isolation: isolate"/>
      <path id="Path_34615" data-name="Path 34615" d="M427.557-1110.1c-.275.252-.623.323-.776.156s-.053-.506.222-.759.624-.323.776-.157S427.833-1110.352,427.557-1110.1Z" transform="translate(-383.419 1127.829)" fill="#caab56" opacity="0.39" style="mix-blend-mode: multiply;isolation: isolate"/>
      <path id="Path_34616" data-name="Path 34616" d="M418.063-1103.612c-.275.253-.623.322-.776.156s-.053-.506.222-.76.624-.322.776-.156S418.339-1103.865,418.063-1103.612Z" transform="translate(-384.262 1128.406)" fill="#caab56" opacity="0.39" style="mix-blend-mode: multiply;isolation: isolate"/>
      <path id="Path_34617" data-name="Path 34617" d="M443.574-1108.985a25.367,25.367,0,0,0-2.621-5.31,4.591,4.591,0,0,0-1.1-1.212l-7.73-5.92a21.755,21.755,0,0,0-9.422-4.458c-.377-.076-.753-.144-1.129-.2a17.845,17.845,0,0,1,2.69,1.873l8.367,6.407a28.307,28.307,0,0,1,3.088,6.034,1.87,1.87,0,0,1-.771,2.125l-1.214.777a.372.372,0,0,0-.038-.378c-.152-.167-.5-.1-.776.157s-.375.593-.222.76a.279.279,0,0,0,.1.063l-4.046,2.594-.022.022a.3.3,0,0,0-.069-.208c-.153-.167-.5-.1-.776.157s-.376.594-.222.76a.292.292,0,0,0,.208.087,10.413,10.413,0,0,1-1.825,1.252,22.526,22.526,0,0,0-2.362,1.721.334.334,0,0,0-.059-.3c-.154-.167-.5-.1-.776.156s-.376.593-.222.76a.281.281,0,0,0,.173.084c-1.206.96-2.559,2.044-3.783,2.966a.378.378,0,0,0-.032-.4c-.152-.167-.5-.1-.776.157s-.375.594-.222.76a.3.3,0,0,0,.207.087,10.611,10.611,0,0,1-2.494,1.5,21.961,21.961,0,0,1-1.933,2.083.246.246,0,0,0-.051-.088c-.152-.167-.5-.1-.775.156s-.376.593-.223.76a.283.283,0,0,0,.063.05,15.366,15.366,0,0,1-1.453,1.081l-4.278,3.575a19.417,19.417,0,0,1,2.763,3.806c1.173,2.6,3.335.454,3.335.454l6.039-5.046a20.908,20.908,0,0,0,4.373-4.042c1.843-.508,8.819-6.69,10.346-7.492a11.535,11.535,0,0,0,2.7-2.071l6.2-3.973A1.867,1.867,0,0,0,443.574-1108.985Z" transform="translate(-385.165 1126.485)" fill="#caab56" opacity="0.39" style="mix-blend-mode: multiply;isolation: isolate"/>
      <path id="Path_34618" data-name="Path 34618" d="M394.052-1115.25a6.728,6.728,0,0,1,3.951-4.117,2.889,2.889,0,0,1,1.224-.269,1.274,1.274,0,0,1,1.057.589c.333.6-.022,1.321-.279,1.954a6.559,6.559,0,0,0-.36,3.654c.143.751.418,1.476.5,2.238a2.432,2.432,0,0,1-.661,2.1c-1.308,1.128-3.274-.1-4.234-1.129A5.224,5.224,0,0,1,394.052-1115.25Z" transform="translate(-386.338 1127.057)" fill="#fff" opacity="0.3"/>
      <path id="Path_34619" data-name="Path 34619" d="M444.358-1110.086a42.561,42.561,0,0,1-3.326,4.844L437.7-1103.1a11.517,11.517,0,0,1-2.7,2.071c-1.525.8-8.5,6.982-10.347,7.491a20.878,20.878,0,0,1-4.373,4.042l-4.952,4.139L395.5-1110.331a3.514,3.514,0,0,1,.432-4.823c3.66-3.233,12.837-8.361,34.281-8.542a18.4,18.4,0,0,1,3.005,2.051l7.728,5.921a4.542,4.542,0,0,1,1.1,1.212A29.029,29.029,0,0,1,444.358-1110.086Z" transform="translate(-386.259 1126.697)" fill="#caab56" opacity="0.72" style="mix-blend-mode: multiply;isolation: isolate"/>
    </g>
    <g id="Group_7915" data-name="Group 7915" transform="translate(13.352 4.476)">
      <g id="Group_7914" data-name="Group 7914">
        <path id="Path_34620" data-name="Path 34620" d="M426.758-1122.025l-18.284,7.112-7.841,3.049c-.529-.6-1.424-1.486-1.42-2.256s.484-.865,1.091-1.344a4.453,4.453,0,0,1,.652-.431,10,10,0,0,1,1.106-.472c4.166-1.6,8.253-3.646,12.615-4.6A55.961,55.961,0,0,1,426.758-1122.025Z" transform="translate(-399.213 1122.368)" fill="#b3964d"/>
        <path id="Path_34621" data-name="Path 34621" d="M408.473-1115.38l-7.841,3.049c-.529-.6-1.424-1.486-1.42-2.256s.484-.865,1.091-1.344a4.443,4.443,0,0,1,.652-.431l.136-.024c-.308.336-.621.673-.929,1.009a.509.509,0,0,0-.18.36c.025.244.352.3.591.279,2.235-.223,4.117-2.186,6.362-2.034Z" transform="translate(-399.213 1122.836)" fill="#d1b059"/>
        <path id="Path_34622" data-name="Path 34622" d="M399.8-1109.4a1.555,1.555,0,0,1,.263-2.095c2.716-2.274,10.1-7.967,17.362-9.2,9.12-1.552,14.987-2.24,21.012-1.021a22.809,22.809,0,0,1,9.874,4.671l8.1,6.2a4.814,4.814,0,0,1,1.156,1.27,26.619,26.619,0,0,1,2.747,5.565,1.96,1.96,0,0,1-.808,2.227l-6.5,4.164a12.088,12.088,0,0,1-2.834,2.17c-1.6.84-8.911,7.32-10.842,7.852a21.927,21.927,0,0,1-4.582,4.235l-6.328,5.287s-2.267,2.252-3.5-.476-7.5-8.879-7.5-8.879l-4.38-5.385s-10.461-11.345-11.976-14.8Z" transform="translate(-399.186 1122.342)" fill="#e0bd5f"/>
        <path id="Path_34623" data-name="Path 34623" d="M427.347-1111.67a1.074,1.074,0,0,0,.8-1.275,1.7,1.7,0,0,0-1.115-1.165,4.383,4.383,0,0,0-1.663-.183,2.084,2.084,0,0,0-1.233.316,1.344,1.344,0,0,0-.176,1.773,2.2,2.2,0,0,0,1.7.839A5.018,5.018,0,0,0,427.347-1111.67Z" transform="translate(-397.038 1123.056)" fill="#b3964d"/>
        <path id="Path_34624" data-name="Path 34624" d="M422.895-1087.386a.75.75,0,0,0,.8.675,1.189,1.189,0,0,0,.916-.658,3.063,3.063,0,0,0,.289-1.134,1.461,1.461,0,0,0-.1-.884.94.94,0,0,0-1.21-.3,1.538,1.538,0,0,0-.747,1.1A3.5,3.5,0,0,0,422.895-1087.386Z" transform="translate(-397.117 1125.233)" fill="#b3964d"/>
        <path id="Path_34625" data-name="Path 34625" d="M434.977-1100.831a.766.766,0,0,0,.5-.933c-.084-.409-.327-.959-.752-.883-.376.068-.73-.165-1.1-.161a1.213,1.213,0,0,0-.806.216,1.081,1.081,0,0,0-.089,1.313,1.473,1.473,0,0,0,1.133.649A2.9,2.9,0,0,0,434.977-1100.831Z" transform="translate(-396.251 1124.077)" fill="#b3964d"/>
        <path id="Path_34626" data-name="Path 34626" d="M434.846-1100.953a.67.67,0,0,0,.441-.816c-.073-.358-.285-.839-.658-.772-.329.059-.637-.145-.96-.141a1.065,1.065,0,0,0-.7.188.945.945,0,0,0-.077,1.148,1.287,1.287,0,0,0,.991.568A2.543,2.543,0,0,0,434.846-1100.953Z" transform="translate(-396.236 1124.088)" fill="#b3964d" opacity="0.52" style="mix-blend-mode: multiply;isolation: isolate"/>
        <path id="Path_34627" data-name="Path 34627" d="M414.589-1098.657a.4.4,0,0,0,.262-.487c-.044-.214-.17-.5-.392-.459-.2.035-.38-.087-.572-.085a.635.635,0,0,0-.42.112.563.563,0,0,0-.046.685.761.761,0,0,0,.59.338A1.515,1.515,0,0,0,414.589-1098.657Z" transform="translate(-397.959 1124.354)" fill="#b3964d"/>
        <path id="Path_34628" data-name="Path 34628" d="M424.476-1098.947a.942.942,0,0,0-.392-.614.884.884,0,0,0-.795.067,2.3,2.3,0,0,0-1.063,1.1,1.369,1.369,0,0,0-.137.686.762.762,0,0,0,.35.586,1.232,1.232,0,0,0,.675.1l.9-.04C424.876-1097.1,424.635-1098.355,424.476-1098.947Z" transform="translate(-397.182 1124.359)" fill="#b3964d"/>
        <path id="Path_34629" data-name="Path 34629" d="M424.338-1098.824a.817.817,0,0,0-.342-.536.766.766,0,0,0-.693.058,2.018,2.018,0,0,0-.929.965,1.2,1.2,0,0,0-.119.6.659.659,0,0,0,.3.51,1.066,1.066,0,0,0,.589.086l.783-.036C424.688-1097.212,424.478-1098.307,424.338-1098.824Z" transform="translate(-397.167 1124.377)" fill="#b3964d" opacity="0.52" style="mix-blend-mode: multiply;isolation: isolate"/>
        <path id="Path_34630" data-name="Path 34630" d="M433.113-1095.642a.569.569,0,0,0-.237-.374.536.536,0,0,0-.483.04,1.4,1.4,0,0,0-.647.672.825.825,0,0,0-.084.418.463.463,0,0,0,.212.356.749.749,0,0,0,.41.059l.547-.024C433.357-1094.518,433.211-1095.282,433.113-1095.642Z" transform="translate(-396.331 1124.676)" fill="#b3964d"/>
        <path id="Path_34631" data-name="Path 34631" d="M422.207-1117.655a.815.815,0,0,0-.34-.532.763.763,0,0,0-.689.058,2,2,0,0,0-.923.958,1.182,1.182,0,0,0-.119.6.662.662,0,0,0,.3.509,1.065,1.065,0,0,0,.586.084l.777-.035C422.554-1116.052,422.346-1117.141,422.207-1117.655Z" transform="translate(-397.355 1122.705)" fill="#b3964d"/>
        <path id="Path_34632" data-name="Path 34632" d="M422.01-1117.634a.637.637,0,0,0-.267-.417.6.6,0,0,0-.54.045,1.572,1.572,0,0,0-.724.752.931.931,0,0,0-.093.467.515.515,0,0,0,.237.4.841.841,0,0,0,.459.066l.611-.028C422.282-1116.377,422.119-1117.23,422.01-1117.634Z" transform="translate(-397.333 1122.719)" fill="#b3964d" opacity="0.52" style="mix-blend-mode: multiply;isolation: isolate"/>
        <path id="Path_34633" data-name="Path 34633" d="M446.4-1104.978a1.153,1.153,0,0,0,.407-.335.442.442,0,0,0,.052-.523.659.659,0,0,0-.555-.175.717.717,0,0,0-.55.159.541.541,0,0,0-.09.458.67.67,0,0,0,.255.442A.386.386,0,0,0,446.4-1104.978Z" transform="translate(-395.089 1123.792)" fill="#b3964d"/>
        <path id="Path_34634" data-name="Path 34634" d="M413.1-1107.789a1.671,1.671,0,0,0-.671-.4.655.655,0,0,0-.756.187.973.973,0,0,0,.032.862,1.069,1.069,0,0,0,.5.69.8.8,0,0,0,.683-.1.992.992,0,0,0,.489-.578A.571.571,0,0,0,413.1-1107.789Z" transform="translate(-398.115 1123.595)" fill="#b3964d"/>
        <path id="Path_34635" data-name="Path 34635" d="M412.974-1107.8a1.48,1.48,0,0,0-.589-.35.574.574,0,0,0-.663.164.859.859,0,0,0,.027.758.939.939,0,0,0,.438.6.7.7,0,0,0,.6-.089.872.872,0,0,0,.429-.507A.5.5,0,0,0,412.974-1107.8Z" transform="translate(-398.109 1123.599)" fill="#b3964d" opacity="0.52" style="mix-blend-mode: multiply;isolation: isolate"/>
        <path id="Path_34636" data-name="Path 34636" d="M427.3-1106.962a1.681,1.681,0,0,0-.716.31.656.656,0,0,0-.29.723c.1.281.43.4.719.478a1.066,1.066,0,0,0,.849,0,.8.8,0,0,0,.317-.615.991.991,0,0,0-.183-.734A.571.571,0,0,0,427.3-1106.962Z" transform="translate(-396.81 1123.702)" fill="#b3964d"/>
        <path id="Path_34637" data-name="Path 34637" d="M443.2-1104.6a.6.6,0,0,0,.6-.3c.1-.245-.255-.673-.48-.524-.3.2-.422.06-.5.367C442.753-1104.766,442.96-1104.619,443.2-1104.6Z" transform="translate(-395.341 1123.842)" fill="#b3964d"/>
        <path id="Path_34638" data-name="Path 34638" d="M435.181-1106.437a.76.76,0,0,0,.849.014c.261-.218.106-.909-.236-.873-.457.048-.512-.179-.777.124C434.767-1106.888,434.915-1106.6,435.181-1106.437Z" transform="translate(-396.044 1123.675)" fill="#b3964d"/>
        <path id="Path_34639" data-name="Path 34639" d="M425.694-1094.378a.761.761,0,0,0,.7-.489c.084-.328-.449-.8-.7-.567-.342.308-.52.156-.556.557C425.1-1094.5,425.383-1094.355,425.694-1094.378Z" transform="translate(-396.911 1124.726)" fill="#b3964d"/>
        <path id="Path_34640" data-name="Path 34640" d="M425.7-1094.509a.6.6,0,0,0,.544-.382c.065-.258-.351-.625-.551-.445-.268.242-.407.123-.436.437C425.229-1094.6,425.454-1094.49,425.7-1094.509Z" transform="translate(-396.9 1124.736)" fill="#b3964d" opacity="0.52" style="mix-blend-mode: multiply;isolation: isolate"/>
        <path id="Path_34641" data-name="Path 34641" d="M417.7-1107.443a.759.759,0,0,0,.659.537c.339-.009.646-.648.355-.832-.389-.245-.291-.457-.687-.384C417.659-1108.052,417.6-1107.735,417.7-1107.443Z" transform="translate(-397.575 1123.603)" fill="#b3964d"/>
        <path id="Path_34642" data-name="Path 34642" d="M427.031-1112.06a.851.851,0,0,0,.63-1.01,1.345,1.345,0,0,0-.883-.923,3.474,3.474,0,0,0-1.319-.145,1.651,1.651,0,0,0-.976.25,1.065,1.065,0,0,0-.141,1.4,1.741,1.741,0,0,0,1.348.665A3.99,3.99,0,0,0,427.031-1112.06Z" transform="translate(-396.999 1123.07)" fill="#b3964d" opacity="0.52" style="mix-blend-mode: multiply;isolation: isolate"/>
      </g>
      <path id="Path_34643" data-name="Path 34643" d="M428.164-1093.759c-.289.265-.653.339-.813.163s-.056-.531.233-.8.653-.339.813-.164S428.454-1094.025,428.164-1093.759Z" transform="translate(-396.721 1124.801)" fill="#e0bd5f" opacity="0.39" style="mix-blend-mode: multiply;isolation: isolate"/>
      <path id="Path_34644" data-name="Path 34644" d="M437.553-1100.785c-.29.265-.653.339-.813.163s-.057-.531.232-.8.653-.339.813-.164S437.841-1101.051,437.553-1100.785Z" transform="translate(-395.887 1124.177)" fill="#e0bd5f" opacity="0.39" style="mix-blend-mode: multiply;isolation: isolate"/>
      <path id="Path_34645" data-name="Path 34645" d="M441.769-1105.168c-.289.265-.653.339-.813.163s-.057-.53.233-.8.653-.339.813-.163S442.057-1105.434,441.769-1105.168Z" transform="translate(-395.512 1123.788)" fill="#e0bd5f" opacity="0.39" style="mix-blend-mode: multiply;isolation: isolate"/>
      <path id="Path_34646" data-name="Path 34646" d="M431.82-1098.369c-.29.265-.653.339-.813.163s-.057-.531.232-.8.653-.339.813-.163S432.108-1098.635,431.82-1098.369Z" transform="translate(-396.396 1124.392)" fill="#e0bd5f" opacity="0.39" style="mix-blend-mode: multiply;isolation: isolate"/>
      <path id="Path_34647" data-name="Path 34647" d="M435.62-1111.236c-.289.265-.653.337-.813.163s-.056-.531.233-.8.653-.339.813-.165S435.91-1111.5,435.62-1111.236Z" transform="translate(-396.058 1123.249)" fill="#e0bd5f" opacity="0.39" style="mix-blend-mode: multiply;isolation: isolate"/>
      <path id="Path_34648" data-name="Path 34648" d="M418.536-1101.789c-.289.265-.653.339-.813.163s-.057-.531.233-.8.653-.339.813-.164S418.825-1102.055,418.536-1101.789Z" transform="translate(-397.576 1124.088)" fill="#e0bd5f" opacity="0.39" style="mix-blend-mode: multiply;isolation: isolate"/>
      <path id="Path_34649" data-name="Path 34649" d="M420.471-1092.79c-.289.265-.653.339-.813.163s-.057-.531.233-.8.652-.339.813-.164S420.76-1093.056,420.471-1092.79Z" transform="translate(-397.404 1124.887)" fill="#e0bd5f" opacity="0.39" style="mix-blend-mode: multiply;isolation: isolate"/>
      <path id="Path_34650" data-name="Path 34650" d="M417.447-1111.236c-.289.265-.653.337-.813.163s-.057-.531.233-.8.652-.339.813-.165S417.735-1111.5,417.447-1111.236Z" transform="translate(-397.673 1123.249)" fill="#e0bd5f" opacity="0.39" style="mix-blend-mode: multiply;isolation: isolate"/>
      <path id="Path_34651" data-name="Path 34651" d="M458.554-1104a26.631,26.631,0,0,0-2.747-5.565,4.794,4.794,0,0,0-1.155-1.27l-8.1-6.2a22.809,22.809,0,0,0-9.873-4.672q-.593-.119-1.184-.214a18.758,18.758,0,0,1,2.82,1.963l8.767,6.714a29.619,29.619,0,0,1,3.236,6.324,1.957,1.957,0,0,1-.808,2.226l-1.272.816a.388.388,0,0,0-.04-.4c-.16-.175-.525-.1-.813.163s-.393.622-.233.8a.275.275,0,0,0,.1.066l-4.24,2.718-.023.024a.311.311,0,0,0-.072-.218c-.161-.174-.525-.1-.813.163s-.393.622-.233.8a.316.316,0,0,0,.219.091,11.013,11.013,0,0,1-1.913,1.312,23.318,23.318,0,0,0-2.475,1.8.352.352,0,0,0-.062-.316c-.16-.174-.525-.1-.813.165s-.393.621-.233.8a.3.3,0,0,0,.182.088c-1.264,1.005-2.682,2.141-3.963,3.107a.4.4,0,0,0-.034-.414c-.16-.174-.525-.1-.813.163s-.393.622-.233.8a.313.313,0,0,0,.217.091,11.111,11.111,0,0,1-2.614,1.57,22.855,22.855,0,0,1-2.025,2.182.285.285,0,0,0-.053-.092c-.16-.175-.525-.1-.813.163s-.393.622-.233.8a.282.282,0,0,0,.066.051,16.08,16.08,0,0,1-1.523,1.134l-4.483,3.745a20.439,20.439,0,0,1,2.9,3.99c1.228,2.727,3.5.476,3.5.476l6.328-5.287a21.923,21.923,0,0,0,4.582-4.235c1.932-.532,9.243-7.011,10.842-7.852a12.084,12.084,0,0,0,2.835-2.169l6.5-4.163A1.96,1.96,0,0,0,458.554-1104Z" transform="translate(-397.343 1122.379)" fill="#e0bd5f" opacity="0.39" style="mix-blend-mode: multiply;isolation: isolate"/>
      <path id="Path_34652" data-name="Path 34652" d="M406.656-1110.566a7.05,7.05,0,0,1,4.142-4.314,3.011,3.011,0,0,1,1.281-.282,1.34,1.34,0,0,1,1.108.616c.349.626-.024,1.385-.292,2.049a6.861,6.861,0,0,0-.378,3.829c.149.787.437,1.547.518,2.344a2.547,2.547,0,0,1-.692,2.2c-1.371,1.182-3.431-.106-4.438-1.184A5.474,5.474,0,0,1,406.656-1110.566Z" transform="translate(-398.572 1122.979)" fill="#fff" opacity="0.3"/>
    </g>
  </g>
</svg>
