<svg xmlns="http://www.w3.org/2000/svg" width="177.154" height="304.563" viewBox="0 0 177.154 304.563">
  <g id="Group_5374" data-name="Group 5374" transform="translate(0)">
    <path id="Path_7629" data-name="Path 7629" d="M724.3-614.845a91.11,91.11,0,0,0-15.288-41.817c-8.4-12.187-27.665-19.846-49.728-22.978-.916-.129-1.838-.252-2.76-.369l-.329-.038c-.812-.1-1.63-.193-2.457-.277-.238-.025-.476-.052-.721-.07-.413-.052-.832-.091-1.251-.122q-.86-.088-1.722-.156a.177.177,0,0,0-.05,0c-.626-.052-1.244-.1-1.87-.143-.322-.025-.639-.052-.954-.065q-1.248-.086-2.5-.154h-.007c-.871-.039-1.741-.077-2.611-.109l-.548-.02c-.728-.025-1.464-.045-2.2-.057-.277-.007-.548-.013-.825-.013-.4-.013-.807-.013-1.206-.013-.515-.012-1.038-.012-1.553-.012-.922,0-1.845.007-2.76.025-.277,0-.555.007-.825.013q-1.092.018-2.185.057l-.587.02c-.864.032-1.729.07-2.593.109-.825.045-1.65.091-2.469.149-.335.019-.664.045-1,.071-.619.045-1.238.09-1.856.143h-.02c-.619.05-1.238.109-1.856.166q-.968.088-1.929.195c-.8.084-1.6.174-2.391.27l-.335.038q-1.384.176-2.759.369c-22.069,3.133-41.334,10.791-49.729,22.978a91.1,91.1,0,0,0-15.286,41.817q.048,13.732.1,27.466v.025q.234,63.644.464,127.3a40.269,40.269,0,0,0,12.141,21.578,40.158,40.158,0,0,0,21.578,10.117H690.016A40.166,40.166,0,0,0,711.6-438.48a40.273,40.273,0,0,0,12.14-21.578q.232-63.657.465-127.3v-.025Q724.248-601.114,724.3-614.845Z" transform="translate(-547.143 732.925)" fill="#4086d7"/>
    <path id="Path_7630" data-name="Path 7630" d="M724.3-614.845a91.11,91.11,0,0,0-15.288-41.817c-8.4-12.187-27.665-19.846-49.728-22.978-.916-.129-1.838-.252-2.76-.369l-.329-.038c-.812-.1-1.63-.193-2.457-.277-.238-.025-.476-.052-.721-.07-.413-.052-.832-.091-1.251-.122q-.86-.088-1.722-.156a.177.177,0,0,0-.05,0c-.626-.052-1.244-.1-1.87-.143-.322-.025-.639-.052-.954-.065q-1.248-.086-2.5-.154h-.007c-.871-.039-1.741-.077-2.611-.109l-.548-.02c-.728-.025-1.464-.045-2.2-.057-.277-.007-.548-.013-.825-.013-.4-.013-.807-.013-1.206-.013-.515-.012-1.038-.012-1.553-.012-.922,0-1.845.007-2.76.025-.277,0-.555.007-.825.013q-1.092.018-2.185.057l-.587.02c-.864.032-1.729.07-2.593.109-.825.045-1.65.091-2.469.149-.335.019-.664.045-1,.071-.619.045-1.238.09-1.856.143h-.02c-.619.05-1.238.109-1.856.166q-.968.088-1.929.195c-.8.084-1.6.174-2.391.27l-.335.038q-1.384.176-2.759.369c-22.069,3.133-41.334,10.791-49.729,22.978a91.1,91.1,0,0,0-15.286,41.817q.048,13.732.1,27.466a91.119,91.119,0,0,1,15.19-40.96c11.489-16.673,43.34-24.868,74.847-24.59,30.471.27,60.618,8.47,71.733,24.59a91.12,91.12,0,0,1,15.19,40.96Q724.248-601.114,724.3-614.845Z" transform="translate(-547.143 732.925)" fill="#2b71c2"/>
    <path id="Path_7631" data-name="Path 7631" d="M702.456-487.156A28.7,28.7,0,0,1,692.4-471.295a35.463,35.463,0,0,1-17.873,7.436H584.614a35.453,35.453,0,0,1-17.872-7.436,28.708,28.708,0,0,1-10.054-15.861q-.231-56.875-.464-113.75a62.352,62.352,0,0,1,12.66-30.729c18.713-24.107,102.664-24.107,121.379,0a62.35,62.35,0,0,1,12.66,30.729Q702.688-544.031,702.456-487.156Z" transform="translate(-540.995 754.285)" fill="#fff"/>
    <g id="Group_5367" data-name="Group 5367" transform="translate(32.492 250.346)">
      <g id="Group_5360" data-name="Group 5360">
        <g id="Group_5358" data-name="Group 5358">
          <g id="Group_5356" data-name="Group 5356" transform="translate(0.002 0.004)">
            <g id="Group_5355" data-name="Group 5355">
              <rect id="Rectangle_2315" data-name="Rectangle 2315" width="32.124" height="32.124" rx="9.577" fill="#039be6"/>
            </g>
          </g>
          <g id="Group_5357" data-name="Group 5357">
            <path id="Path_7632" data-name="Path 7632" d="M566.518-546.719a15.99,15.99,0,0,1,4.707-11.362,16.05,16.05,0,0,1,11.362-4.707,16,16,0,0,1,11.35,4.707,16.546,16.546,0,0,1,1.412,1.613,15.983,15.983,0,0,0-9.738-3.3,16.046,16.046,0,0,0-11.36,4.707,15.986,15.986,0,0,0-4.707,11.362,15.989,15.989,0,0,0,3.3,9.748A16.067,16.067,0,0,1,566.518-546.719Z" transform="translate(-566.518 562.788)" fill="#ccc" style="mix-blend-mode: multiply;isolation: isolate"/>
          </g>
        </g>
        <g id="Group_5359" data-name="Group 5359" transform="translate(7.036 7.567)">
          <path id="Path_7633" data-name="Path 7633" d="M588.6-558.276l.085,8.5.085,8.5-9.027-4.159-9.027-4.159,8.942-4.338Z" transform="translate(-570.714 558.276)" fill="#b7d8f2"/>
          <path id="Path_7634" data-name="Path 7634" d="M587.211-543.037l-15.389-7.09,15.245-7.4Z" transform="translate(-569.964 558.785)" fill="#666" style="mix-blend-mode: screen;isolation: isolate"/>
        </g>
      </g>
      <g id="Group_5366" data-name="Group 5366" transform="translate(73.685)">
        <g id="Group_5364" data-name="Group 5364">
          <g id="Group_5362" data-name="Group 5362" transform="translate(0.001 0.004)">
            <g id="Group_5361" data-name="Group 5361">
              <rect id="Rectangle_2316" data-name="Rectangle 2316" width="32.124" height="32.124" rx="9.577" fill="#039be6"/>
            </g>
          </g>
          <g id="Group_5363" data-name="Group 5363">
            <path id="Path_7635" data-name="Path 7635" d="M610.457-546.719a15.991,15.991,0,0,1,4.707-11.362,16.047,16.047,0,0,1,11.36-4.707,16.011,16.011,0,0,1,11.351,4.707,16.505,16.505,0,0,1,1.411,1.613,15.983,15.983,0,0,0-9.738-3.3,16.049,16.049,0,0,0-11.36,4.707,15.993,15.993,0,0,0-4.707,11.362,15.989,15.989,0,0,0,3.3,9.748A16.065,16.065,0,0,1,610.457-546.719Z" transform="translate(-610.457 562.788)" fill="#ccc" style="mix-blend-mode: multiply;isolation: isolate"/>
          </g>
        </g>
        <g id="Group_5365" data-name="Group 5365" transform="translate(7.035 7.567)">
          <path id="Path_7636" data-name="Path 7636" d="M614.822-558.276l-.085,8.5-.085,8.5,9.027-4.159,9.027-4.159-8.942-4.338Z" transform="translate(-614.652 558.276)" fill="#b7d8f2"/>
          <path id="Path_7637" data-name="Path 7637" d="M615.133-543.037l15.39-7.09-15.245-7.4Z" transform="translate(-614.327 558.785)" fill="#666" style="mix-blend-mode: screen;isolation: isolate"/>
        </g>
      </g>
    </g>
    <g id="Group_5373" data-name="Group 5373" transform="translate(37.988 130.276)">
      <g id="Group_5372" data-name="Group 5372">
        <g id="Group_5371" data-name="Group 5371">
          <g id="Group_5368" data-name="Group 5368">
            <rect id="Rectangle_2317" data-name="Rectangle 2317" width="101.913" height="106.715" fill="#89b1e0"/>
          </g>
          <g id="Group_5370" data-name="Group 5370" transform="translate(0.02)" style="mix-blend-mode: multiply;isolation: isolate">
            <g id="Group_5369" data-name="Group 5369">
              <path id="Path_7638" data-name="Path 7638" d="M576.118-527.805h-6.311V-634.387H671.679v6.337H576.118Z" transform="translate(-569.808 634.387)" fill="#89b1e0"/>
            </g>
          </g>
        </g>
      </g>
      <text id="_0.0" data-name="0.0" transform="translate(52.097 67.456)" fill="#023763" font-size="50" font-family="Helvetica"><tspan x="-34.753" y="0">0.0</tspan></text>
    </g>
    <path id="Path_7639" data-name="Path 7639" d="M633.035-661.461v-18.18c-.916-.129-1.838-.252-2.76-.369l-.329-.038c-.812-.1-1.63-.193-2.457-.277-.238-.025-.476-.052-.721-.07-.413-.052-.832-.091-1.251-.122q-.86-.088-1.722-.156a.176.176,0,0,0-.05,0c-.626-.052-1.244-.1-1.87-.143-.322-.025-.639-.052-.954-.065q-1.248-.086-2.5-.154h-.007c-.87-.039-1.741-.077-2.611-.109l-.548-.02c-.728-.025-1.464-.045-2.2-.057-.277-.007-.548-.013-.825-.013-.4-.013-.8-.013-1.206-.019-.515-.007-1.038-.007-1.553-.007-.922,0-1.845.007-2.76.025-.277,0-.555.007-.825.013q-1.092.018-2.185.057l-.587.02c-.864.032-1.729.07-2.593.109-.825.045-1.65.091-2.469.149-.335.019-.664.045-1,.071-.619.045-1.238.09-1.856.143h-.02c-.619.05-1.238.109-1.856.166q-.968.088-1.929.195c-.8.084-1.6.174-2.391.27l-.335.038q-1.384.176-2.759.369v18.18a7.577,7.577,0,0,0,7.582,7.577h31.965A7.577,7.577,0,0,0,633.035-661.461Z" transform="translate(-520.897 732.925)" fill="#023763"/>
    <rect id="Rectangle_2318" data-name="Rectangle 2318" width="28.542" height="79.041" transform="translate(74.305)" fill="#2b71c2"/>
    <rect id="Rectangle_2319" data-name="Rectangle 2319" width="28.542" height="25.918" transform="translate(74.305)" fill="#b4d2fa"/>
    <path id="Path_7640" data-name="Path 7640" d="M619.909-666.37H591.452v3.825c4.367-.329,9.054-.53,14.028-.535,5.123,0,9.946.2,14.429.535Z" transform="translate(-517.146 743.01)" fill="#b3b3b3" style="mix-blend-mode: multiply;isolation: isolate"/>
  </g>
</svg>
