<svg xmlns="http://www.w3.org/2000/svg" width="74.053" height="74.053" viewBox="0 0 74.053 74.053">
  <g id="Group_11617" data-name="Group 11617" transform="translate(-48 -532.584)">
    <rect id="Rectangle_2292" data-name="Rectangle 2292" width="74.053" height="74.053" rx="7.908" transform="translate(48 532.584)" fill="#f4f4f4" opacity="0.5"/>
    <g id="Group_5354" data-name="Group 5354" transform="translate(0.005 0.897)">
      <path id="Path_7605" data-name="Path 7605" d="M791.553-789.354a22.394,22.394,0,0,1-11.208,20.827c-8.641,4.853-20.081,2.533-28.362-2.007-17.05-9.347-18.189-38.314,3.342-42.634a28.075,28.075,0,0,1,4.855-.526,50.751,50.751,0,0,1,12.064,1.567c3.849.841,7.915,1.47,11.2,3.8C788.735-804.576,791.11-795.487,791.553-789.354Z" transform="translate(-681.256 1362.784)" fill="#2856eb"/>
      <path id="Path_7606" data-name="Path 7606" d="M779.861-787.278c-1.479,2.142-4.724,3.148-7.023,4.106-.524.219-1.222.2-1.5.71a3.008,3.008,0,0,0-.195,1.777,7.516,7.516,0,0,0,.645,1.972,4.621,4.621,0,0,1-1.968-.89,18.753,18.753,0,0,1-1.749-1.048c-.529-.373-.962-.86-1.493-1.227-.239-.163-.615-.053-.952-.018-.822.089-1.644.17-2.468.237a44.139,44.139,0,0,1-4.862.161,23.034,23.034,0,0,1-9.48-2.173c-2.434-1.187-5.484-3.76-6.292-6.425a9.959,9.959,0,0,1-.324-1.9c-.643-6.5,4.476-12.444,10.467-14.274a28.378,28.378,0,0,1,7.57-1.164c.633-.016,1.251-.046,1.861-.072,5.9-.265,11.336.815,16.177,4.4a10.593,10.593,0,0,1,4.194,6.849C782.883-793.425,781.47-789.611,779.861-787.278Z" transform="translate(-679.02 1367.416)" fill="#fff" opacity="0.5"/>
      <path id="Path_7607" data-name="Path 7607" d="M780.513-787.781c-1.479,2.143-4.725,3.148-7.025,4.108-.771.323-2.005.436-2.394,1.236a4.524,4.524,0,0,0,.224,3.972c-2.17-.554-3.06-2.277-4.149-4.029-6.1.687-11.974,1.113-17.7-1.679-2.435-1.187-5.484-3.76-6.292-6.424a9.829,9.829,0,0,1-.324-1.9c-.645-6.5,4.476-12.444,10.467-14.274a28.378,28.378,0,0,1,7.568-1.166c.635-.014,1.253-.044,1.861-.07,5.907-.265,11.338.815,16.177,4.4a10.593,10.593,0,0,1,4.194,6.849C783.535-793.928,782.122-790.112,780.513-787.781Z" transform="translate(-678.529 1367.038)" fill="#fff"/>
      <text id="CONTACT_US" data-name="CONTACT US" transform="translate(80.565 573.597)" fill="#3968ff" font-size="5" font-family="Helvetica"><tspan x="-16.022" y="0">CONTACT US</tspan></text>
      <path id="Path_7608" data-name="Path 7608" d="M775.506-763.451c-5.093,1.676-10.919,3.032-15.848.138a10.318,10.318,0,0,1-2.631-2.179,8.542,8.542,0,0,1-1.243-1.884,3.468,3.468,0,0,0,1.074-.713,1.588,1.588,0,0,0,.088-2.3,1.083,1.083,0,0,0-1.751.447,3.053,3.053,0,0,0,.149,2.34,4.619,4.619,0,0,1-.508.168c-2.625.691-5.4-.335-7.636-1.688a21.758,21.758,0,0,1-5.51-4.781,16.958,16.958,0,0,1-3.863-13.715,13.829,13.829,0,0,1,3.057-6.56,17.213,17.213,0,0,1,6.252-4.345,55.517,55.517,0,0,1,8.134-2.531c1.43-.373,2.86-.757,4.264-1.22a14.24,14.24,0,0,0,3.458-1.511c.082-.056.165-.114.247-.175a8.4,8.4,0,0,0,3.777-.245,4.627,4.627,0,0,0,3.525-4.182c.091-2.438-1.511-4.611-2.294-6.823a9.208,9.208,0,0,1-.273-5.064h-.365q-.058.268-.1.542a9.292,9.292,0,0,0,.116,3.667,20.053,20.053,0,0,0,1.39,3.514c1,2.182,2.014,4.957-.047,6.883a6.651,6.651,0,0,1-5.347,1.4c1.421-1.272,2.392-3.412,1.1-5.1a3.056,3.056,0,0,0-4.764-.168,3.251,3.251,0,0,0-.675,2.533,3.361,3.361,0,0,0,1.733,2.273,6.478,6.478,0,0,0,1.77.683,17.007,17.007,0,0,1-4.376,1.768c-5.29,1.6-11.065,2.4-15.581,5.828a14.591,14.591,0,0,0-5.57,12.577,18.679,18.679,0,0,0,6.364,12.5,18.625,18.625,0,0,0,6.329,3.942,9.3,9.3,0,0,0,3.744.538,7.078,7.078,0,0,0,1.8-.368,8.943,8.943,0,0,0,1.8,2.561,11.891,11.891,0,0,0,5.866,3.106,18.178,18.178,0,0,0,8.19-.373,33.983,33.983,0,0,0,4.187-1.358C775.62-763.355,775.588-763.479,775.506-763.451Zm-12.761-40.978a4.2,4.2,0,0,1-2.9-1.954,2.818,2.818,0,0,1,.54-3.12,2.615,2.615,0,0,1,3.137-.427,2.722,2.722,0,0,1,1.344,3.139,4.377,4.377,0,0,1-1.676,2.457C763.037-804.363,762.888-804.394,762.745-804.429ZM755.42-768.45a2.221,2.221,0,0,1,.126-1.441.737.737,0,0,1,1.279-.117c.773,1.013-.228,1.839-1.188,2.284A4.4,4.4,0,0,1,755.42-768.45Z" transform="translate(-682.722 1357.84)" fill="#fff"/>
      <path id="Path_7609" data-name="Path 7609" d="M772.443-778.392a14.48,14.48,0,0,1-6.511,2.084,10.111,10.111,0,0,1-7.247-2.317c-.058-.049-.114-.1-.17-.147-.1-.089-.2-.186-.295-.284a2.212,2.212,0,0,1-.554-.906,2.125,2.125,0,0,1,.4-1.781,5.448,5.448,0,0,1,1.409-1.246,6.929,6.929,0,0,1,2.8-1.269,2.981,2.981,0,0,1,2.5.726,2.157,2.157,0,0,1,.249.3l.026.04c.168.258.287.547.461.8a2.674,2.674,0,0,0,2.175,1.05,5.186,5.186,0,0,0,2.394-.673,12.744,12.744,0,0,0,4.418-4.036,2.584,2.584,0,0,0,.594-2.524,3.2,3.2,0,0,0-1.025-1c-.084-.063-.166-.128-.247-.2-.047-.042-.093-.082-.135-.126-1.477-1.465-.533-4.214.55-5.593.783-1,2.268-2.666,3.728-2.333a1.555,1.555,0,0,1,.51.244,4.387,4.387,0,0,1,1.164,1.167c.093.131.181.268.263.407a25.033,25.033,0,0,1,1.176,2.555C783.671-787.633,776.907-781.063,772.443-778.392Z" transform="translate(-667.383 1374.707)" fill="#3968ff"/>
      <g id="Group_5352" data-name="Group 5352" transform="translate(90.223 579.373)">
        <path id="Path_7610" data-name="Path 7610" d="M773.2-784.457a14.479,14.479,0,0,1-6.513,2.082,10.114,10.114,0,0,1-7.247-2.317,2.886,2.886,0,0,1-1.016-1.336,1.772,1.772,0,0,1-.031-.785,3.507,3.507,0,0,0-.323.38,2.131,2.131,0,0,0-.4,1.781,2.9,2.9,0,0,0,1.018,1.337A10.111,10.111,0,0,0,765.932-781a14.48,14.48,0,0,0,6.511-2.084c2.82-1.686,6.553-4.927,8.273-8.551A23.829,23.829,0,0,1,773.2-784.457Z" transform="translate(-757.605 800.022)" fill="#fff"/>
        <path id="Path_7611" data-name="Path 7611" d="M767.244-790.851c.445.38,1.006.67,1.272,1.192a1.7,1.7,0,0,1,.049,1.3c.039-.051.075-.1.114-.156a2.584,2.584,0,0,0,.594-2.524c-.266-.524-.827-.812-1.272-1.194-1.185-1.015-1.039-2.757-.456-4.191C766.481-794.956,765.633-792.232,767.244-790.851Z" transform="translate(-751.025 796.419)" fill="#fff"/>
      </g>
      <path id="Path_7612" data-name="Path 7612" d="M773-796.624a7.743,7.743,0,0,0-1.39.459,7.541,7.541,0,0,0-2.338,1.595,7.589,7.589,0,0,0-1.625,2.473,8.362,8.362,0,0,0-.48,1.9c-.084-.063-.166-.128-.247-.2-.047-.042-.093-.082-.135-.126a7.963,7.963,0,0,1,2.226-4.369,8,8,0,0,1,2.443-1.67,10.324,10.324,0,0,1,1.283-.475C772.827-796.9,772.915-796.763,773-796.624Z" transform="translate(-660.476 1375.331)" fill="#fff"/>
      <path id="Path_7613" data-name="Path 7613" d="M764.79-789.344c-.263.061-.524.126-.783.2a12.852,12.852,0,0,0-2.6.989,7.844,7.844,0,0,0-2.11,1.6,6.615,6.615,0,0,0-1.048,1.635c-.1-.089-.2-.186-.295-.284a7.076,7.076,0,0,1,2.985-3.125,12.007,12.007,0,0,1,2.829-1.153c.247-.07.5-.137.745-.2a2.157,2.157,0,0,1,.249.3Z" transform="translate(-667.119 1380.86)" fill="#fff"/>
      <path id="Path_7614" data-name="Path 7614" d="M770.879-795.2a.384.384,0,0,0-.133-.212l-.088-.053a.39.39,0,0,0-.209-.032l-.107,0a.4.4,0,0,0-.273.152.4.4,0,0,0-.075.365.417.417,0,0,0,.554.284l.1-.037A.4.4,0,0,0,770.879-795.2Z" transform="translate(-658.069 1376.487)" fill="#fff"/>
      <path id="Path_7615" data-name="Path 7615" d="M767.58-788.742a12.247,12.247,0,0,0-1.414.635,6.709,6.709,0,0,1-1.6.475,3.6,3.6,0,0,1-2.92-.773c-.119-.1-.307.07-.2.194a3.39,3.39,0,0,0,2.841,1.017,6.2,6.2,0,0,0,1.774-.435,6.511,6.511,0,0,0,1.679-.826A.167.167,0,0,0,767.58-788.742Z" transform="translate(-664.515 1381.565)" fill="#fff"/>
      <path id="Path_7616" data-name="Path 7616" d="M766.269-789.255a.146.146,0,0,0-.117-.093c-.182-.025-.28.142-.38.268a1.147,1.147,0,0,0-.254.431.143.143,0,0,0,.195.152,1.164,1.164,0,0,0,.372-.333C766.192-788.955,766.329-789.076,766.269-789.255Z" transform="translate(-661.43 1381.113)" fill="#fff"/>
      <g id="Group_5353" data-name="Group 5353" transform="translate(96.591 549.295)">
        <path id="Path_7617" data-name="Path 7617" d="M768.6-806.776l-1.5,2.154a1.947,1.947,0,0,0-.4-.992,38.933,38.933,0,0,1-2.752-5.2,18.773,18.773,0,0,1,2.312,2.124,20.45,20.45,0,0,0,2.307,1.937l-.258-.117" transform="translate(-759.192 815.659)" fill="#1bb9c2"/>
        <path id="Path_7618" data-name="Path 7618" d="M761.239-813.58c1.737,3.257,3.009,6.627,5.223,9.582.2.233,3.062-.638,3.349-.68,1.229-.179,3.023-.615,4.241-.715-2.471-1.514-5.39-2.98-7.763-4.643l-2.608-1.83C763.1-812.278,761.569-812.96,761.239-813.58Z" transform="translate(-761.239 813.58)" fill="#f5c818"/>
        <path id="Path_7619" data-name="Path 7619" d="M761.482-813.308l7.375,7.484c.221.224.482.384.713.589.14.123.281.372.45.44a.427.427,0,0,0,.221.007c.351-.049.547-.219.9-.28-.21.037-.717-.412-.919-.549-.452-.308-.866-.706-1.286-1.055q-1.28-1.062-2.536-2.154Q763.888-811.009,761.482-813.308Z" transform="translate(-761.056 813.785)" fill="#1bb9c2"/>
      </g>
      <path id="Path_7620" data-name="Path 7620" d="M775.127-803.6a16.937,16.937,0,0,0-2.7-.089h-2.9l-5.71,0c-3.777,0-7.556-.005-11.333,0-2.143,0-4.275.01-6.413.188a.132.132,0,0,0,0,.265c3.791.314,7.619.189,11.421.189l11.333,0h3.162a19.769,19.769,0,0,0,3.141-.088A.247.247,0,0,0,775.127-803.6Z" transform="translate(-676.161 1370.315)" fill="#3968ff"/>
      <path id="Path_7621" data-name="Path 7621" d="M774.215-797.1a18.951,18.951,0,0,0-2.58-.154c-.908-.023-1.814-.03-2.72-.033l-5.437-.014c-3.626-.01-7.251,0-10.877,0H749.62a14.7,14.7,0,0,0-3.043.123.226.226,0,0,0,0,.433,12.667,12.667,0,0,0,2.6.121c.906,0,1.812,0,2.718,0h5.439q5.437,0,10.875-.014c.994,0,1.988,0,2.981-.023a21.976,21.976,0,0,0,3.02-.165A.144.144,0,0,0,774.215-797.1Z" transform="translate(-675.805 1375.116)" fill="#3968ff"/>
      <path id="Path_7622" data-name="Path 7622" d="M769.837-798.463c-.133-.051-.214.156-.1.226a7.348,7.348,0,0,1,2.673,2.485,7.718,7.718,0,0,1,1.069,3.481.167.167,0,0,0,.333,0A6.54,6.54,0,0,0,769.837-798.463Z" transform="translate(-658.292 1374.248)" fill="#3968ff"/>
      <path id="Path_7623" data-name="Path 7623" d="M765.5-790.542a3,3,0,0,0-1.558-.429A8.928,8.928,0,0,0,762.02-791a7.662,7.662,0,0,0-3.441,1.106c-.088.058-.033.224.075.181a11.225,11.225,0,0,1,3.365-.883,8.88,8.88,0,0,1,1.628.028,9.452,9.452,0,0,1,.964.165,2.229,2.229,0,0,0,.776.131C765.512-790.284,765.617-790.44,765.5-790.542Z" transform="translate(-666.682 1379.844)" fill="#fff"/>
      <path id="Path_7624" data-name="Path 7624" d="M771.075-786.009c-.394-.016-.831.363-1.18.535a12.333,12.333,0,0,1-1.448.592,13.142,13.142,0,0,1-2.983.622,15.115,15.115,0,0,1-5.935-.806.1.1,0,0,0-.075.181,11.362,11.362,0,0,0,6.08,1.074,13.054,13.054,0,0,0,3.041-.606,13.278,13.278,0,0,0,1.376-.542c.384-.177,1.08-.4,1.269-.8A.17.17,0,0,0,771.075-786.009Z" transform="translate(-666.027 1383.627)" fill="#3968ff"/>
      <path id="Path_7625" data-name="Path 7625" d="M760.969-792.179c-.974-.01-1.974.194-2.95.254q-1.522.092-3.048.074c-2-.023-3.994-.2-5.984-.408-.161-.016-.194.247-.039.282a30.1,30.1,0,0,0,6.022.649q1.525.024,3.048-.072a14.532,14.532,0,0,0,3.009-.333A.228.228,0,0,0,760.969-792.179Z" transform="translate(-673.974 1378.922)" fill="#fff"/>
      <path id="Path_7626" data-name="Path 7626" d="M770.7-805.963a8.212,8.212,0,0,0-2.049-.9q-1.1-.413-2.233-.74a31.118,31.118,0,0,0-4.575-.957,30.491,30.491,0,0,0-4.7-.266,17.828,17.828,0,0,0-4.624.54.068.068,0,0,0,.019.133c1.513-.068,3.008-.3,4.525-.331a31.787,31.787,0,0,1,4.62.252,30.931,30.931,0,0,1,4.562.943q1.094.315,2.161.708.515.189,1.024.4a7.151,7.151,0,0,0,1.162.461A.135.135,0,0,0,770.7-805.963Z" transform="translate(-671.241 1366.45)" fill="#fff"/>
      <path id="Path_7627" data-name="Path 7627" d="M770.453-803.171c-.72-.643-1.541-1.16-2.254-1.811a5.853,5.853,0,0,1-.91-1.022,7.261,7.261,0,0,1-.6-1.232c-.032-.07-.142-.033-.142.039.03,1.292,1.32,2.368,2.243,3.093,1.138.894,2.5,1.805,2.892,3.288a2.218,2.218,0,0,1-.368,1.982,1.391,1.391,0,0,0-.817-.9,1.094,1.094,0,0,0-1.378.335.927.927,0,0,0,.131,1.272,1.415,1.415,0,0,0,1.805-.053,4.22,4.22,0,0,1-.724,1.9.17.17,0,0,0,.293.172,4.458,4.458,0,0,0,.754-2.347,2.506,2.506,0,0,0,.619-1C772.432-800.872,771.465-802.272,770.453-803.171Zm-.086,4.962c-.408.086-1.06-.026-1.106-.55a.739.739,0,0,1,.932-.724,1.168,1.168,0,0,1,.817.871c.007.026.01.052.016.079A1.551,1.551,0,0,1,770.368-798.21Z" transform="translate(-660.649 1367.622)" fill="#fff"/>
      <path id="Path_7628" data-name="Path 7628" d="M771.762-794.224a.418.418,0,0,0-.829.1,10.489,10.489,0,0,1-.424,3.773,7.869,7.869,0,0,1-.675,1.728,7.287,7.287,0,0,1-.526.831,1.487,1.487,0,0,0-.38.629c-.01.054.046.082.091.07.5-.128.952-.875,1.227-1.278a9.715,9.715,0,0,0,1.034-1.791A8.133,8.133,0,0,0,771.762-794.224Z" transform="translate(-658.862 1377.178)" fill="#fff"/>
    </g>
  </g>
</svg>
