<svg id="Group_5436" data-name="Group 5436" xmlns="http://www.w3.org/2000/svg" xmlns:xlink="http://www.w3.org/1999/xlink" width="186.689" height="202.576" viewBox="0 0 186.689 202.576">
  <defs>
    <clipPath id="clip-path">
      <rect id="Rectangle_2322" data-name="Rectangle 2322" width="186.689" height="202.576" fill="none"/>
    </clipPath>
  </defs>
  <g id="Group_5435" data-name="Group 5435" clip-path="url(#clip-path)">
    <g id="Group_5434" data-name="Group 5434" transform="translate(-33.321 80.367)">
      <g id="Group_5414" data-name="Group 5414" transform="translate(75.483)">
        <g id="Group_5379" data-name="Group 5379">
          <path id="Path_7644" data-name="Path 7644" d="M514.969-640.1a76.008,76.008,0,0,0,24.48-7.515c12.651-6.409,27.641-17.077,33.423-22.885s15.806-16.006,30.965-14.173,17.859,13.69,17.859,13.69,11.8-1.666,17.8,1.344,2.487,9.782,2.487,9.782l-7.2,10.22s10.9,4.662,8.358,14.161-12.6,11.653-12.6,11.653-.568,11.313-11.806,14.154-28.4,14.6-53.823,10.851c0,0-35.335,20.7-47.722,17.879S501.8-638.753,514.969-640.1Z" transform="translate(-506.005 685.297)" fill="#ffd499"/>
          <g id="Group_5378" data-name="Group 5378" transform="translate(0.395 0.407)">
            <path id="Path_7645" data-name="Path 7645" d="M516.211-638.474a76.008,76.008,0,0,0,24.48-7.515c12.651-6.409,27.641-17.079,33.425-22.885s15.8-16.008,30.963-14.173c7.256.878,11.653,4.053,14.273,7.124-2.375-3.487-6.961-7.715-15.515-8.749-15.158-1.833-25.181,8.364-30.965,14.173s-20.771,16.476-33.423,22.885a76.008,76.008,0,0,1-24.48,7.515c-11.949,1.222-10.578,46.61-.967,57.115C505.539-595.858,504.8-637.307,516.211-638.474Z" transform="translate(-506.399 684.89)" fill="#fff"/>
          </g>
          <path id="Path_7646" data-name="Path 7646" d="M641.243-657.114a9.949,9.949,0,0,0-.346-6.487c-9.77-1.739-21.594,2.244-23.221,7.2-2.935,8.931-28.331,34.227-49.748,30.794s-20.437-18.523-20.437-18.523c-5.252-3.3-6.354-13.519-6.354-13.519-3.34,10.21,1.5,15.211,1.5,15.211-.77,10.448,7.031,13.053,1.564,20.767-3.945,5.57-24.714,8.643-35.964,9.924,1.784,5.006,4.167,8.513,7.061,9.173,12.387,2.819,47.722-17.879,47.722-17.879,25.425,3.747,42.586-8.012,53.823-10.851s11.806-14.154,11.806-14.154S638.7-647.617,641.243-657.114Z" transform="translate(-504.103 706.935)" fill="#f5a666"/>
          <path id="Path_7647" data-name="Path 7647" d="M520.037-580.062a12.43,12.43,0,0,1-2.729-.273c-8.189-1.866-11.9-24.554-10.959-40,.743-12.191,3.943-19.466,8.78-19.961h0a76.345,76.345,0,0,0,24.336-7.472c12.611-6.389,27.682-17.148,33.319-22.81l.135-.135c5.957-5.983,15.926-16,31.166-14.154,13.77,1.666,17.488,11.621,18.106,13.643,2.049-.257,12.156-1.344,17.686,1.43a6.366,6.366,0,0,1,3.409,3.747c1.016,3.13-.672,6.444-.745,6.584l-.029.047-6.918,9.826c2.063,1.035,10.438,5.833,8.142,14.423-2.326,8.7-10.91,11.417-12.609,11.873-.2,1.847-1.731,11.6-12.085,14.224a81.937,81.937,0,0,0-9.851,3.536c-8.688,3.5-20.01,8.053-34.246,8.053a67.61,67.61,0,0,1-9.745-.709C562.72-596.744,533.788-580.062,520.037-580.062Zm-4.829-59.426c-4.334.446-7.344,7.625-8.051,19.2-1.024,16.79,3.265,37.551,10.33,39.16a11.613,11.613,0,0,0,2.552.255c13.822,0,44.547-17.9,44.877-18.089a.392.392,0,0,1,.263-.051c18.767,2.768,33.185-3.037,43.71-7.273a82.955,82.955,0,0,1,9.955-3.57c10.806-2.731,11.5-13.672,11.5-13.782a.407.407,0,0,1,.32-.375c.1-.02,9.847-2.224,12.289-11.364,2.417-9.043-7.692-13.5-8.124-13.684a.4.4,0,0,1-.23-.261.412.412,0,0,1,.057-.344l7.177-10.193c.143-.287,1.554-3.265.682-5.943a5.587,5.587,0,0,0-3-3.269c-5.815-2.919-17.446-1.322-17.562-1.306a.408.408,0,0,1-.452-.312c-.026-.114-2.833-11.6-17.513-13.377-14.849-1.8-24.641,8.043-30.494,13.92l-.134.134c-5.8,5.827-20.657,16.444-33.527,22.963A77.218,77.218,0,0,1,515.208-639.489Z" transform="translate(-506.206 685.09)" fill="#303081"/>
        </g>
        <g id="Group_5392" data-name="Group 5392" transform="translate(47.891 1.665)">
          <g id="Group_5380" data-name="Group 5380">
            <path id="Path_7648" data-name="Path 7648" d="M552.981-684.036c-23.623-1.379-23.06,35.759-23.06,56.777,0,18.207,23.06,16.745,23.06,16.745s23.061,1.462,23.061-16.745C576.042-648.277,576.6-685.415,552.981-684.036Z" transform="translate(-529.515 684.478)" fill="#2f57c2"/>
            <path id="Path_7649" data-name="Path 7649" d="M561.537-616.1s-23.059,1.464-23.059-16.745c0-15.556-.305-39.938,9.112-51-18.138,4.25-17.67,37.076-17.67,56.351,0,18.207,23.06,16.745,23.06,16.745s13.36.845,19.741-6.782A34.521,34.521,0,0,1,561.537-616.1Z" transform="translate(-529.515 684.714)" fill="#14459e"/>
            <path id="Path_7650" data-name="Path 7650" d="M550.151-684.036c-8.706-.509-14.126,4.22-17.5,11.442,3.417-5.941,8.572-9.66,16.344-9.206,23.623-1.379,23.06,35.759,23.06,56.777a16.747,16.747,0,0,1-1.151,6.35,15.528,15.528,0,0,0,2.307-8.586C573.211-648.277,573.773-685.415,550.151-684.036Z" transform="translate(-526.684 684.478)" fill="#fff"/>
            <path id="Path_7651" data-name="Path 7651" d="M554.5-609.871c-.711,0-1.175-.024-1.312-.032-.776.047-12.183.6-18.851-5.654a15.08,15.08,0,0,1-4.615-11.5v-1.434c-.01-16.44-.025-41.282,10.625-51.333a16.576,16.576,0,0,1,12.841-4.415,16.583,16.583,0,0,1,12.841,4.415c10.649,10.051,10.635,34.9,10.625,51.333v1.434a15.081,15.081,0,0,1-4.615,11.5C566.543-610.4,557.827-609.871,554.5-609.871Zm-2.552-73.591a15.536,15.536,0,0,0-11.044,4.232c-10.395,9.81-10.381,34.443-10.37,50.742v1.434a14.31,14.31,0,0,0,4.356,10.9c6.5,6.1,18.156,5.444,18.272,5.436a.24.24,0,0,1,.053,0c.116.008,11.774.668,18.273-5.436a14.31,14.31,0,0,0,4.356-10.9v-1.434c.01-16.3.025-40.932-10.37-50.742a15.793,15.793,0,0,0-12.26-4.2h-.049C552.753-683.449,552.346-683.461,551.947-683.461Z" transform="translate(-529.721 684.272)" fill="#303081"/>
          </g>
          <g id="Group_5381" data-name="Group 5381" transform="translate(8.938 19.223)">
            <circle id="Ellipse_176" data-name="Ellipse 176" cx="3.05" cy="3.05" r="3.05" transform="translate(0 6.021) rotate(-80.783)" fill="#fff"/>
            <path id="Path_7652" data-name="Path 7652" d="M537.585-667.9a3.459,3.459,0,0,1-3.454-3.454,3.459,3.459,0,0,1,3.454-3.456,3.459,3.459,0,0,1,3.456,3.456A3.459,3.459,0,0,1,537.585-667.9Zm0-6.1a2.648,2.648,0,0,0-2.644,2.646,2.646,2.646,0,0,0,2.644,2.643,2.647,2.647,0,0,0,2.645-2.643A2.649,2.649,0,0,0,537.585-674Z" transform="translate(-534.087 674.856)" fill="#303081"/>
          </g>
          <g id="Group_5382" data-name="Group 5382" transform="translate(6.151 28.934)">
            <path id="Path_7653" data-name="Path 7653" d="M561.07-669.866H538.63a5.691,5.691,0,0,0-5.69,5.69v22.515a5.69,5.69,0,0,0,5.69,5.69H561.07a5.691,5.691,0,0,0,5.69-5.69v-22.515A5.691,5.691,0,0,0,561.07-669.866Z" transform="translate(-532.535 670.271)" fill="#dae2f2"/>
            <path id="Path_7654" data-name="Path 7654" d="M538.82-641.661v-22.515a5.691,5.691,0,0,1,5.69-5.69h-5.88a5.691,5.691,0,0,0-5.69,5.69v22.515a5.69,5.69,0,0,0,5.69,5.69h5.88A5.69,5.69,0,0,1,538.82-641.661Z" transform="translate(-532.535 670.271)" fill="#b5cef8"/>
            <path id="Path_7655" data-name="Path 7655" d="M560.984-669.866H538.544a5.69,5.69,0,0,0-5.521,4.336,5.687,5.687,0,0,1,4.99-2.955h22.439a5.69,5.69,0,0,1,5.69,5.69v22.513a5.626,5.626,0,0,1-.169,1.357,5.664,5.664,0,0,0,.7-2.735v-22.515A5.691,5.691,0,0,0,560.984-669.866Z" transform="translate(-532.449 670.271)" fill="#fff"/>
            <path id="Path_7656" data-name="Path 7656" d="M561.276-635.359H538.837a6.1,6.1,0,0,1-6.1-6.1v-22.515a6.1,6.1,0,0,1,6.1-6.1h22.439a6.1,6.1,0,0,1,6.1,6.1v22.515A6.1,6.1,0,0,1,561.276-635.359Zm-22.439-33.9a5.291,5.291,0,0,0-5.285,5.285v22.515a5.291,5.291,0,0,0,5.285,5.285h22.439a5.291,5.291,0,0,0,5.285-5.285v-22.515a5.291,5.291,0,0,0-5.285-5.285Z" transform="translate(-532.741 670.065)" fill="#303081"/>
          </g>
          <g id="Group_5383" data-name="Group 5383" transform="translate(8.556 32.127)">
            <path id="Path_7657" data-name="Path 7657" d="M548.626-667.082l-14.5.247V-645.4h29.01v-21.435Z" transform="translate(-533.716 669.964)" fill="#fff"/>
            <text id="_0.0" data-name="0.0" transform="translate(14.843 14)" fill="#303081" font-size="12" font-family="Helvetica"><tspan x="-8.341" y="0">0.0</tspan></text>
            <text id="MG_DL" data-name="MG/DL" transform="translate(16.289 18.627)" fill="#303081" font-size="2" font-family="Helvetica"><tspan x="-3.167" y="0">MG/DL</tspan></text>
            <path id="Path_7658" data-name="Path 7658" d="M563.337-644.789h-29.01a.405.405,0,0,1-.405-.405v-21.433a.405.405,0,0,1,.4-.405l14.5-.248h.012l14.5.248a.405.405,0,0,1,.4.405v21.433A.405.405,0,0,1,563.337-644.789Zm-28.6-.811h28.2V-666.23l-14.1-.24-14.1.24Z" transform="translate(-533.922 669.758)" fill="#303081"/>
          </g>
          <g id="Group_5385" data-name="Group 5385" transform="translate(18.055 6.864)">
            <g id="Group_5384" data-name="Group 5384">
              <path id="Path_7659" data-name="Path 7659" d="M542.955-680.366l-3.792,3.625a1.209,1.209,0,0,0,.835,2.084h7.584a1.21,1.21,0,0,0,.837-2.084l-3.794-3.625A1.205,1.205,0,0,0,542.955-680.366Z" transform="translate(-538.378 681.108)" fill="#fff"/>
              <path id="Path_7660" data-name="Path 7660" d="M547.79-674.045h-7.584a1.587,1.587,0,0,1-1.5-1.014,1.587,1.587,0,0,1,.383-1.768l3.794-3.625h0a1.612,1.612,0,0,1,2.232,0l3.792,3.625a1.587,1.587,0,0,1,.383,1.768A1.587,1.587,0,0,1,547.79-674.045ZM544-680.09a.79.79,0,0,0-.554.224h0l-3.792,3.625a.787.787,0,0,0-.189.88.79.79,0,0,0,.745.505h7.584a.793.793,0,0,0,.747-.505.792.792,0,0,0-.191-.88l-3.792-3.625A.8.8,0,0,0,544-680.09Z" transform="translate(-538.586 680.902)" fill="#303081"/>
            </g>
          </g>
          <g id="Group_5387" data-name="Group 5387" transform="translate(18.055 16.169)">
            <g id="Group_5386" data-name="Group 5386">
              <path id="Path_7661" data-name="Path 7661" d="M543.79-676.134H540a1.208,1.208,0,0,0-.835,2.081l3.792,3.627a1.209,1.209,0,0,0,1.67,0l3.794-3.627a1.209,1.209,0,0,0-.837-2.081Z" transform="translate(-538.378 676.539)" fill="#fff"/>
              <path id="Path_7662" data-name="Path 7662" d="M544-669.478a1.613,1.613,0,0,1-1.116-.45l-3.792-3.625a1.586,1.586,0,0,1-.383-1.768,1.585,1.585,0,0,1,1.5-1.012h7.584a1.585,1.585,0,0,1,1.5,1.012,1.586,1.586,0,0,1-.383,1.768l-3.792,3.625A1.613,1.613,0,0,1,544-669.478Zm-3.792-6.045a.791.791,0,0,0-.745.5.788.788,0,0,0,.189.88l3.792,3.627a.8.8,0,0,0,1.112,0l3.792-3.627a.792.792,0,0,0,.191-.88.794.794,0,0,0-.747-.5Z" transform="translate(-538.586 676.333)" fill="#303081"/>
            </g>
          </g>
          <g id="Group_5388" data-name="Group 5388" transform="translate(13.289 66.129)">
            <path id="Path_7663" data-name="Path 7663" d="M550.121-651.6h-7.808a5.868,5.868,0,0,0-5.867,5.868v.531a34.906,34.906,0,0,0,9.772,1.031,34.907,34.907,0,0,0,9.772-1.031v-.531A5.868,5.868,0,0,0,550.121-651.6Z" transform="translate(-536.04 652.008)" fill="#fff"/>
            <path id="Path_7664" data-name="Path 7664" d="M547.657-643.533c-.678,0-1.116-.022-1.234-.029a35.065,35.065,0,0,1-9.873-1.043.407.407,0,0,1-.3-.391v-.533a6.281,6.281,0,0,1,6.273-6.273h7.808a6.281,6.281,0,0,1,6.273,6.273V-645a.407.407,0,0,1-.3.391A35.706,35.706,0,0,1,547.657-643.533Zm-1.234-.839h.026a34.94,34.94,0,0,0,9.34-.939v-.218a5.468,5.468,0,0,0-5.462-5.462h-7.808a5.468,5.468,0,0,0-5.462,5.462v.218a34.94,34.94,0,0,0,9.34.939Zm9.772-.623h0Z" transform="translate(-536.246 651.802)" fill="#303081"/>
          </g>
          <g id="Group_5391" data-name="Group 5391" transform="translate(20.43 69.51)">
            <g id="Group_5389" data-name="Group 5389">
              <rect id="Rectangle_2320" data-name="Rectangle 2320" width="5.262" height="19.49" transform="translate(0.406 0.405)" fill="#fff"/>
              <path id="Path_7665" data-name="Path 7665" d="M541.446-630.453v-19.49h-1.495v19.49h1.495Z" transform="translate(-539.546 650.348)" fill="#b5cef8"/>
              <rect id="Rectangle_2321" data-name="Rectangle 2321" width="5.251" height="3.026" transform="translate(0.407 9.26)" fill="#2f57c2"/>
              <path id="Path_7666" data-name="Path 7666" d="M545.42-629.843h-5.263a.405.405,0,0,1-.405-.405v-19.488a.405.405,0,0,1,.405-.405h5.263a.405.405,0,0,1,.405.405v19.488A.405.405,0,0,1,545.42-629.843Zm-4.857-.809h4.452v-18.68h-4.452Z" transform="translate(-539.752 650.142)" fill="#303081"/>
            </g>
            <g id="Group_5390" data-name="Group 5390" transform="translate(1.542 15.246)">
              <path id="Path_7667" data-name="Path 7667" d="M541.8-642.457a1.089,1.089,0,0,0-1.089,1.09v3.153h2.179v-3.153A1.088,1.088,0,0,0,541.8-642.457Z" transform="translate(-540.303 642.862)" fill="#fff"/>
              <path id="Path_7668" data-name="Path 7668" d="M543.094-637.6h-2.179a.405.405,0,0,1-.405-.405v-3.153A1.5,1.5,0,0,1,542-642.656a1.5,1.5,0,0,1,1.495,1.495v3.153A.405.405,0,0,1,543.094-637.6Zm-1.774-.809h1.369v-2.749a.685.685,0,0,0-.684-.684.684.684,0,0,0-.684.684Z" transform="translate(-540.509 642.656)" fill="#303081"/>
            </g>
          </g>
        </g>
        <g id="Group_5393" data-name="Group 5393" transform="translate(34.895 19.705)">
          <path id="Path_7669" data-name="Path 7669" d="M532.377-674.349c-11.163,3.22-10.269,18.9-5.442,24.441a2.333,2.333,0,0,0,1.049.7c4.548,1.825,14.5-6.99,15.148-15.093,0,0,.006-.069.173-6.462h0S543.538-677.569,532.377-674.349Z" transform="translate(-523.136 675.622)" fill="#ffd499"/>
          <path id="Path_7670" data-name="Path 7670" d="M543.13-667.642s.006-.053.118-4.35c-2.409,6.32-7.307,14.955-14.541,12.187-3.509-1.342-4.619-4.78-4.79-8.134-1.118,5.45.344,11.625,3.016,14.692a2.333,2.333,0,0,0,1.049.7C532.53-650.724,542.487-659.538,543.13-667.642Z" transform="translate(-523.134 678.962)" fill="#f5a666"/>
          <path id="Path_7671" data-name="Path 7671" d="M533.106-672.815c6.24-1.8,8.916-.468,10.067,1.057-.448-1.758-2.393-5.016-10.8-2.59-10.112,2.918-10.33,16.063-6.692,22.629C522.862-658.613,523.729-670.11,533.106-672.815Z" transform="translate(-523.136 675.621)" fill="#fff"/>
          <path id="Path_7672" data-name="Path 7672" d="M529.536-648.355a3.991,3.991,0,0,1-1.5-.271l-.049-.018a2.674,2.674,0,0,1-1.155-.79c-3.187-3.656-4.4-10.871-2.768-16.423a12.11,12.11,0,0,1,8.4-8.672l.112.389-.112-.389c4.46-1.287,7.713-1.169,9.666.354a4.7,4.7,0,0,1,1.78,3.633c-.063,2.389-.169,6.411-.173,6.478-.446,5.6-5.222,11.434-9.489,14.077A9.35,9.35,0,0,1,529.536-648.355Zm8.279-26.24a18.921,18.921,0,0,0-5.122.843,11.342,11.342,0,0,0-7.851,8.122c-1.745,5.933-.049,12.623,2.6,15.664a1.868,1.868,0,0,0,.825.562l.069.027c1.328.534,3.277.073,5.489-1.3,4.1-2.54,8.682-8.116,9.106-13.452,0-.012.014-.409.171-6.44a3.861,3.861,0,0,0-1.479-2.978A6.128,6.128,0,0,0,537.815-674.6Z" transform="translate(-523.34 675.414)" fill="#303081"/>
        </g>
        <g id="Group_5394" data-name="Group 5394" transform="translate(39.139 22.78)">
          <path id="Path_7673" data-name="Path 7673" d="M525.828-670.348a.4.4,0,0,1-.334-.175.406.406,0,0,1,.106-.564c.077-.053,7.818-5.244,15.922-1.4a.4.4,0,0,1,.193.54.4.4,0,0,1-.54.193c-7.676-3.641-15.047,1.287-15.12,1.338A.4.4,0,0,1,525.828-670.348Z" transform="translate(-525.423 673.904)" fill="#303081"/>
        </g>
        <g id="Group_5395" data-name="Group 5395" transform="translate(36.63 47.035)">
          <path id="Path_7674" data-name="Path 7674" d="M546.475-622.145a.4.4,0,0,1-.171-.039c-11.043-5.163-15.33-11.185-16.981-15.328a14.027,14.027,0,0,1-.982-7.729c-5.546-6.275-3.957-16-3.886-16.419a.4.4,0,0,1,.469-.33.4.4,0,0,1,.33.466c-.016.1-1.617,9.922,3.827,15.894a.405.405,0,0,1,.094.377,13.036,13.036,0,0,0,.924,7.5c1.609,3.99,5.784,9.8,16.548,14.837a.4.4,0,0,1,.2.538A.406.406,0,0,1,546.475-622.145Z" transform="translate(-524.191 661.995)" fill="#303081"/>
        </g>
        <g id="Group_5396" data-name="Group 5396" transform="translate(28.366 58.479)">
          <path id="Path_7675" data-name="Path 7675" d="M530.356-634.034a.412.412,0,0,1-.232-.073c-9.364-6.558-9.967-21.23-9.99-21.851a.4.4,0,0,1,.391-.417.411.411,0,0,1,.42.391c0,.149.615,14.89,9.645,21.213a.407.407,0,0,1,.1.564A.4.4,0,0,1,530.356-634.034Z" transform="translate(-520.134 656.376)" fill="#303081"/>
        </g>
        <g id="Group_5399" data-name="Group 5399" transform="translate(84.487 0.785)">
          <path id="Path_7676" data-name="Path 7676" d="M587.541-624.27s10.057-2.157,12.6-11.653-8.358-14.161-8.358-14.161,14.79-12.134,4.709-20c-6.006-4.688-17.8-1.344-17.8-1.344s-2.277-9.953-14.326-13.028a23.712,23.712,0,0,1-5.053,11.134c-6.25,7.405-12.841,10.134-11.152,18.224s7.953,6.79,7.953,6.79-2.774,9.14,5.25,13.1c0,0-8.128,1.035-6.99,9.9.53,4.112,5.33,6.116,6.965,6.4-1.874.316-4.356,1.5-4.77,5.544-.456,4.47,2.633,6.8,10.719,6.216a70.322,70.322,0,0,1,8.45-2.967C586.972-612.957,587.541-624.27,587.541-624.27Z" transform="translate(-547.484 684.959)" fill="#ffd499"/>
          <g id="Group_5398" data-name="Group 5398" transform="translate(0.405 0.501)">
            <path id="Path_7677" data-name="Path 7677" d="M581.676-643.289c-6.474,4.224-20.193,9.342-24.449,6.853-4.91-2.87-1.071-8.167.291-8.6s4.271-.267,6.387-.267,11.116-2.358,13.3-3.258a60.384,60.384,0,0,1,7.049-1.973c.031-.265.039-.42.039-.42s7.185-1.542,10.941-7.753l-.063.059c-4.959,4.739-31.262,14.124-38.182,11.525a9.775,9.775,0,0,1-5.969-6.654,12.836,12.836,0,0,0,.1,1.782c.53,4.112,5.33,6.116,6.965,6.4-1.874.316-4.356,1.5-4.77,5.544-.456,4.47,2.634,6.8,10.719,6.216a70.32,70.32,0,0,1,8.45-2.967A14.84,14.84,0,0,0,581.676-643.289Z" transform="translate(-544.642 711.147)" fill="#f5a666"/>
            <g id="Group_5397" data-name="Group 5397">
              <path id="Path_7678" data-name="Path 7678" d="M550.053-654.316c-1.688-8.089,4.9-10.818,11.152-18.224a23.712,23.712,0,0,0,5.053-11.134c.788.2,1.533.434,2.24.688a23.231,23.231,0,0,0-4.136-1.473,23.712,23.712,0,0,1-5.053,11.134c-6.25,7.405-12.841,10.134-11.152,18.224.979,4.707,3.509,6.232,5.454,6.688C552.154-649.322,550.731-651.056,550.053-654.316Z" transform="translate(-547.888 684.458)" fill="#fff"/>
            </g>
            <path id="Path_7679" data-name="Path 7679" d="M555.577-651.629s-2.774,9.14,5.25,13.1c0,0-.077.01-.216.037,2.487.006,3.766-.646,11.2-3.024,7.621-2.438,19.433-11.89,19.433-11.89-6.491,4.413-18.448,9.782-22.114,11.047s-9.326,2.784-11.456-.438-.291-9.8.851-9.975,6.344-4.513,9.578-7.723a128.263,128.263,0,0,1,12.311-10.271,57.962,57.962,0,0,1,9.1-4.99,33.743,33.743,0,0,0-11.364,1,17.1,17.1,0,0,0-3.544-6.507c1.163,2.615.124,10.146-2.98,14.492-3.161,4.423-12.362,12.008-16.666,12.955a6.493,6.493,0,0,1-6.562-2.114l0,0C550.714-650.623,555.577-651.629,555.577-651.629Z" transform="translate(-547.356 687.777)" fill="#f5a666"/>
          </g>
          <path id="Path_7680" data-name="Path 7680" d="M565.169-606.4c-3.6,0-6.059-.719-7.474-2.177a5.464,5.464,0,0,1-1.324-4.574c.346-3.385,2.116-4.863,3.7-5.507-2.283-.862-5.458-2.953-5.894-6.348a9.2,9.2,0,0,1,1.572-7.053,9.1,9.1,0,0,1,4.684-3.055c-6-3.652-5.075-10.458-4.643-12.48-1.688.092-6.389-.3-7.823-7.169-1.275-6.1,2.049-9.318,6.258-13.385a69.644,69.644,0,0,0,4.982-5.183,23.511,23.511,0,0,0,4.963-10.945l.077-.43.422.108c10.757,2.745,13.91,11,14.507,12.927,2.142-.548,12.222-2.811,17.769,1.519a8.557,8.557,0,0,1,3.672,6.774c.073,5.971-6.1,11.861-7.9,13.452,2.255,1.159,10.267,5.935,8.016,14.36-2.326,8.7-10.91,11.417-12.609,11.873-.2,1.847-1.731,11.6-12.085,14.224a69.765,69.765,0,0,0-8.4,2.951l-.122.029Q566.273-606.4,565.169-606.4Zm-8.269-42.19-.2.65c-.11.36-2.574,8.861,5.041,12.625l1.2.593-1.328.173c-.316.041-7.713,1.1-6.641,9.44.493,3.819,5.034,5.776,6.635,6.057l2.32.409-2.324.389c-1.811.305-4.051,1.452-4.434,5.185a4.649,4.649,0,0,0,1.1,3.929c1.5,1.546,4.568,2.167,9.124,1.847a69.985,69.985,0,0,1,8.442-2.961c10.806-2.731,11.5-13.672,11.5-13.782l.016-.31.3-.065c.1-.02,9.847-2.224,12.289-11.364,2.42-9.053-8.018-13.637-8.124-13.682l-.613-.263.515-.424c.082-.067,8.157-6.774,8.077-13.226a7.778,7.778,0,0,0-3.36-6.142c-5.774-4.507-17.325-1.307-17.442-1.275l-.409.116-.1-.413c-.022-.1-2.322-9.521-13.613-12.617a24.017,24.017,0,0,1-5.061,10.892,70.259,70.259,0,0,1-5.039,5.246c-4.185,4.045-7.21,6.967-6.028,12.635,1.583,7.58,7.238,6.523,7.477,6.474Z" transform="translate(-547.69 684.704)" fill="#303081"/>
        </g>
        <g id="Group_5413" data-name="Group 5413" transform="translate(89.078 13.91)">
          <g id="Group_5400" data-name="Group 5400" transform="translate(27.708 33.125)">
            <path id="Path_7681" data-name="Path 7681" d="M566.354-652.922a.407.407,0,0,1-.405-.4c-.083-5.664-2.263-7.963-2.285-7.985a.407.407,0,0,1,.006-.572.4.4,0,0,1,.57,0c.1.1,2.432,2.517,2.519,8.542a.4.4,0,0,1-.4.411Z" transform="translate(-563.549 661.995)" fill="#303081"/>
          </g>
          <g id="Group_5401" data-name="Group 5401" transform="translate(25.639 34.887)">
            <path id="Path_7682" data-name="Path 7682" d="M565.005-651.585a.567.567,0,0,1-.061,0,.408.408,0,0,1-.34-.462c.57-3.768-1.994-8.429-2.02-8.476a.4.4,0,0,1,.157-.55.4.4,0,0,1,.552.157c.11.2,2.725,4.947,2.114,8.992A.407.407,0,0,1,565.005-651.585Z" transform="translate(-562.533 661.13)" fill="#303081"/>
          </g>
          <g id="Group_5402" data-name="Group 5402" transform="translate(27.707 12.266)">
            <path id="Path_7683" data-name="Path 7683" d="M566.933-663.3h-.01a.405.405,0,0,1-.4-.415c.1-4.081-2.861-7.827-2.89-7.865a.4.4,0,0,1,.063-.568.4.4,0,0,1,.568.063c.13.161,3.175,4.01,3.069,8.391A.406.406,0,0,1,566.933-663.3Z" transform="translate(-563.548 672.237)" fill="#303081"/>
          </g>
          <g id="Group_5403" data-name="Group 5403" transform="translate(25.639 14.984)">
            <path id="Path_7684" data-name="Path 7684" d="M565.684-663.5a.4.4,0,0,1-.405-.405c-.01-3.171-2.623-6.3-2.65-6.328a.406.406,0,0,1,.047-.572.41.41,0,0,1,.572.047c.114.136,2.831,3.381,2.841,6.851a.408.408,0,0,1-.4.407Z" transform="translate(-562.533 670.903)" fill="#303081"/>
          </g>
          <g id="Group_5404" data-name="Group 5404" transform="translate(3.63)">
            <path id="Path_7685" data-name="Path 7685" d="M552.131-654.33a.4.4,0,0,1-.385-.283.4.4,0,0,1,.263-.509c12.3-3.925,22.242-22.731,22.342-22.92a.4.4,0,0,1,.546-.171.406.406,0,0,1,.173.546c-.411.786-10.193,19.291-22.814,23.317A.44.44,0,0,1,552.131-654.33Z" transform="translate(-551.726 678.26)" fill="#303081"/>
          </g>
          <g id="Group_5405" data-name="Group 5405" transform="translate(8.881 21.344)">
            <path id="Path_7686" data-name="Path 7686" d="M554.709-652.091a.405.405,0,0,1-.4-.371.407.407,0,0,1,.369-.438c14.519-1.246,30.032-14.645,30.187-14.78a.4.4,0,0,1,.572.039.406.406,0,0,1-.039.572c-.157.137-15.869,13.708-30.651,14.977Z" transform="translate(-554.304 667.779)" fill="#303081"/>
          </g>
          <g id="Group_5406" data-name="Group 5406" transform="translate(8.161 47.16)">
            <path id="Path_7687" data-name="Path 7687" d="M557.8-648.536a13.225,13.225,0,0,1-3.552-.413.408.408,0,0,1-.281-.5.408.408,0,0,1,.5-.279c7.509,2.126,26.452-5.271,26.641-5.346a.405.405,0,0,1,.526.23.407.407,0,0,1-.228.525C580.72-654.051,566.592-648.536,557.8-648.536Z" transform="translate(-553.951 655.104)" fill="#303081"/>
          </g>
          <g id="Group_5407" data-name="Group 5407" transform="translate(17.227 2.506)">
            <path id="Path_7688" data-name="Path 7688" d="M558.807-665.8a.408.408,0,0,1-.291-.124.405.405,0,0,1,.01-.572c3.348-3.236,13.094-10.163,13.507-10.456a.407.407,0,0,1,.564.1.4.4,0,0,1-.1.564c-.1.073-10.108,7.185-13.413,10.378A.4.4,0,0,1,558.807-665.8Z" transform="translate(-558.402 677.029)" fill="#303081"/>
          </g>
          <g id="Group_5408" data-name="Group 5408" transform="translate(12.057 1.046)">
            <path id="Path_7689" data-name="Path 7689" d="M560.381-671.422a.407.407,0,0,1-.387-.287c-1.236-4.067-3.859-5.248-3.886-5.261a.406.406,0,0,1-.212-.531.405.405,0,0,1,.532-.212c.12.051,2.99,1.318,4.34,5.768a.4.4,0,0,1-.269.505A.394.394,0,0,1,560.381-671.422Z" transform="translate(-555.864 677.746)" fill="#303081"/>
          </g>
          <path id="Path_7690" data-name="Path 7690" d="M556.585-675.1c-.595.334-6.338,3.652-6.417,7.369-.049,2.226.069,4.643,1.324,5.694a3.835,3.835,0,0,0,3.326.462,10.331,10.331,0,0,0,6.814-4.3,4.814,4.814,0,0,0,.524-4.02C561.025-673.568,558.843-675.6,556.585-675.1Z" transform="translate(-549.721 681.455)" fill="#f5a666" opacity="0.6"/>
          <g id="Group_5409" data-name="Group 5409" transform="translate(0 5.885)">
            <path id="Path_7691" data-name="Path 7691" d="M553.842-660.839a3.528,3.528,0,0,1-2.358-.764c-1.434-1.2-1.585-3.589-1.532-5.986.09-4.132,6.236-7.5,6.5-7.639a.418.418,0,0,1,.1-.037c2.586-.619,5.036,1.511,6.244,5.419a5.37,5.37,0,0,1-.572,4.43,10.52,10.52,0,0,1-6.935,4.422A7.425,7.425,0,0,1,553.842-660.839Zm2.947-13.649c-.56.314-5.951,3.428-6.026,6.918-.047,2.09.065,4.36,1.242,5.348a3.605,3.605,0,0,0,3.122.432,9.688,9.688,0,0,0,6.4-4.041,4.512,4.512,0,0,0,.493-3.774C560.956-673.046,558.907-674.952,556.789-674.488Z" transform="translate(-549.944 675.37)" fill="#303081"/>
          </g>
          <g id="Group_5410" data-name="Group 5410" transform="translate(5.679 20.781)">
            <path id="Path_7692" data-name="Path 7692" d="M558.853-667.805c-.338.092-5.108,1.46-5.717,5.181-.434,2.652,0,5.045,1.157,6.407a3.284,3.284,0,0,0,2.613,1.187h0c3.173,0,6.511-1.564,6.751-4.538.159-1.959-.275-5.708-2.118-7.427A3.116,3.116,0,0,0,558.853-667.805Z" transform="translate(-552.485 668.273)" fill="#f5a666" opacity="0.6"/>
            <path id="Path_7693" data-name="Path 7693" d="M562.149-667.036a3.7,3.7,0,0,0-3.224-.967l-.037.008c-.218.055-5.318,1.393-5.992,5.529-.446,2.723.029,5.22,1.269,6.678a3.917,3.917,0,0,0,3.073,1.4h0c3.354,0,6.888-1.725,7.155-5.01C564.564-661.468,564.1-665.213,562.149-667.036Zm1.44,7.574c-.226,2.8-3.364,4.261-6.346,4.265h0a3.091,3.091,0,0,1-2.456-1.116c-1.088-1.279-1.495-3.531-1.088-6.022.572-3.5,5.055-4.784,5.375-4.87a2.922,2.922,0,0,1,2.528.762C563.33-664.828,563.738-661.305,563.589-659.462Z" transform="translate(-552.732 668.056)" fill="#303081"/>
          </g>
          <g id="Group_5411" data-name="Group 5411" transform="translate(4.093 39.144)">
            <path id="Path_7694" data-name="Path 7694" d="M559.109-658.727c-.505-.045-1-.065-1.483-.065-2.332,0-4.271.5-4.694,1.279a8.329,8.329,0,0,0-.181,6.562,4.846,4.846,0,0,0,3.409,2.872c2.77.7,5.6-1.041,7.185-2.747,1.623-1.747,2.375-3.77,1.914-5.148S562.384-658.438,559.109-658.727Z" transform="translate(-551.737 659.296)" fill="#f5a666" opacity="0.6"/>
            <path id="Path_7695" data-name="Path 7695" d="M565.877-655.827c-.654-1.955-3.786-2.906-6.5-3.147-2.735-.24-5.839.151-6.609,1.566a8.743,8.743,0,0,0-.2,6.9,5.419,5.419,0,0,0,3.76,3.171,5.916,5.916,0,0,0,1.448.179,8.83,8.83,0,0,0,6.124-3C565.653-652.055,566.412-654.226,565.877-655.827Zm-2.574,5.114c-1.493,1.609-4.167,3.25-6.778,2.591a4.571,4.571,0,0,1-3.216-2.709,7.86,7.86,0,0,1,.171-6.189c.4-.735,2.228-1.208,4.428-1.208.454,0,.923.02,1.4.063,3.087.271,5.364,1.289,5.8,2.595S564.834-652.362,563.3-650.713Z" transform="translate(-551.954 659.039)" fill="#303081"/>
          </g>
          <g id="Group_5412" data-name="Group 5412" transform="translate(6.075 53.383)">
            <path id="Path_7696" data-name="Path 7696" d="M559.121-651.174a7.142,7.142,0,0,0-5.4-.2c-.32,1.016-1.686,5.933,1.417,7.336,2.126.961,4.621-.037,6.039-1.37,1.026-.965,1.483-2.043,1.191-2.813A6.064,6.064,0,0,0,559.121-651.174Z" transform="translate(-552.696 652.296)" fill="#f5a666" opacity="0.6"/>
            <path id="Path_7697" data-name="Path 7697" d="M562.995-648.219a6.31,6.31,0,0,0-3.428-3.177,7.358,7.358,0,0,0-5.768-.12.406.406,0,0,0-.226.238c-.092.25-2.181,6.191,1.676,7.935a4.912,4.912,0,0,0,2.032.432,6.678,6.678,0,0,0,4.415-1.841C562.9-645.887,563.39-647.185,562.995-648.219Zm-1.853,2.878a5.322,5.322,0,0,1-5.558,1.259c-2.857-1.291-1.6-5.814-1.3-6.751a6.573,6.573,0,0,1,4.965.181,5.578,5.578,0,0,1,2.992,2.721C562.506-647.224,562.086-646.232,561.141-645.342Z" transform="translate(-552.926 652.048)" fill="#303081"/>
          </g>
        </g>
      </g>
      <g id="Group_5433" data-name="Group 5433" transform="translate(0 39.338)">
        <g id="Group_5415" data-name="Group 5415" transform="translate(55.529)">
          <path id="Path_7698" data-name="Path 7698" d="M545.336-644.535s-10.2-14.034-26.529-19.645c-5.151-1.77-19.926-2.13-21.366.589S493.8-651.27,516.38-652.6C516.38-652.6,530.227-638.876,545.336-644.535Z" transform="translate(-496.199 665.985)" fill="#ffd499"/>
          <path id="Path_7699" data-name="Path 7699" d="M497.311-662.309c1.442-2.719,16.218-2.358,21.368-.589,13.731,4.721,23.13,15.4,25.771,18.672.3-.1.591-.2.886-.31,0,0-10.2-14.034-26.529-19.645-5.151-1.77-19.926-2.13-21.366.589a7.421,7.421,0,0,0-.831,3.31A7.443,7.443,0,0,1,497.311-662.309Z" transform="translate(-496.199 665.985)" fill="#fff"/>
          <path id="Path_7700" data-name="Path 7700" d="M539.862-649.984s-3.951-3.35-6.843-5.491S522.06-660.519,521-661.226c-2.3-1.542-9.888,3.37-16.091,3.362a9.419,9.419,0,0,1-8.3-5.134c-.049,3.745,3.114,8.664,19.545,7.745.035-.012,1.413-.468,4.185-1.619,2.807-1.167,4.157-.365,8.022.729s10.647,6.159,10.647,6.159Z" transform="translate(-496.199 668.652)" fill="#f5a666"/>
          <path id="Path_7701" data-name="Path 7701" d="M538.034-642.565c-11.2,0-20.393-8.275-21.6-9.407-10.267.581-16.678-1.006-19.061-4.717a7.017,7.017,0,0,1-.085-6.882c1.652-3.118,16.869-2.5,21.857-.782,16.258,5.589,26.622,19.649,26.724,19.79a.4.4,0,0,1,.061.354.4.4,0,0,1-.246.263A21.629,21.629,0,0,1,538.034-642.565Zm-21.446-10.228a.4.4,0,0,1,.285.118c.136.132,13.523,13.161,28.014,8.157-1.876-2.4-11.595-14.116-26-19.069-5.417-1.861-19.649-1.922-20.879.4a6.2,6.2,0,0,0,.053,6.065c1.532,2.385,5.986,5.071,18.507,4.336Z" transform="translate(-496.408 665.774)" fill="#303081"/>
        </g>
        <path id="Path_7702" data-name="Path 7702" d="M496.627-662.083a12.656,12.656,0,0,0,4.415.566c6.4-.155,10.4-1.348,11.92-3.546-8.377-.776-14.957-.175-15.774,1.462A8.206,8.206,0,0,0,496.627-662.083Z" transform="translate(-440.652 666.164)" fill="#f5a666" opacity="0.6"/>
        <g id="Group_5416" data-name="Group 5416" transform="translate(55.72 0.219)">
          <path id="Path_7703" data-name="Path 7703" d="M501.038-660.682a12.1,12.1,0,0,1-4.275-.67.4.4,0,0,1-.251-.469,7.8,7.8,0,0,1,.682-1.861h0c1.509-2.849,13.578-1.862,15.983-1.635a.405.405,0,0,1,.314.206.406.406,0,0,1,.012.375c-1.244,2.568-5.177,3.892-12.022,4.049C501.333-660.684,501.184-660.682,501.038-660.682Zm-3.646-1.305a12.415,12.415,0,0,0,4.071.489c5.9-.134,9.6-1.165,11-3.069-7.727-.672-13.8-.153-14.55,1.265A6.974,6.974,0,0,0,497.392-661.987Z" transform="translate(-496.502 665.666)" fill="#303081"/>
        </g>
        <g id="Group_5417" data-name="Group 5417" transform="translate(95.723 18.058)">
          <path id="Path_7704" data-name="Path 7704" d="M527.757-641.579s3.847-5.959,1.935-10.851-9.709-4.54-12.888-3.945S527.757-641.579,527.757-641.579Z" transform="translate(-515.942 657.113)" fill="#f5a666"/>
          <path id="Path_7705" data-name="Path 7705" d="M527.958-640.968a.41.41,0,0,1-.287-.118c-2.049-2.059-12.234-12.454-11.489-14.853a.913.913,0,0,1,.75-.627c3.768-.707,11.407-.739,13.338,4.193,1.967,5.029-1.809,10.969-1.971,11.22a.4.4,0,0,1-.3.183ZM520.83-656.1a20.934,20.934,0,0,0-3.749.334c-.108.02-.116.049-.124.071-.391,1.259,5.185,7.863,10.92,13.668.813-1.438,3.163-6.148,1.637-10.047C528.28-655.235,524.3-656.1,520.83-656.1Z" transform="translate(-516.144 656.907)" fill="#303081"/>
        </g>
        <g id="Group_5419" data-name="Group 5419" transform="translate(0 10.788)">
          <path id="Path_7706" data-name="Path 7706" d="M480.1-631.317c-12.91,11.484-15.835,48.019.379,51.964s30.785-7.46,37.907-5.275,29.107,2.265,47.872-1.975a75.582,75.582,0,0,0,19.435-2.346c11.509-2.753,16.92-6.674,16.92-6.674s26.545-4.287,26.574-13.316-17.549-8.631-28.111-1.444c0,0-11.908-.894-21.4,3.212l-9.651-2.089s12.686-26.547,7.967-33.462-19.828-17.853-26.769-17.549-25.246,15-26.655,17.2c-3.978,6.191,4.189,7.977,4.189,7.977l-2.3,3.6a20.926,20.926,0,0,0-9.931.794S493.01-642.8,480.1-631.317Z" transform="translate(-468.933 660.684)" fill="#ffd499"/>
          <g id="Group_5418" data-name="Group 5418" transform="translate(2.683 0.406)">
            <path id="Path_7707" data-name="Path 7707" d="M518.535-630.349l9.651,2.09c9.491-4.106,21.4-3.212,21.4-3.212,10.562-7.189,28.142-7.586,28.111,1.444a4.373,4.373,0,0,1-.047.611,4.858,4.858,0,0,0,.548-2.187c.029-9.03-17.549-8.631-28.111-1.444,0,0-11.908-.894-21.4,3.212l-9.444-2.045C518.8-630.909,518.535-630.349,518.535-630.349Z" transform="translate(-420.625 682.943)" fill="#fff"/>
            <path id="Path_7708" data-name="Path 7708" d="M478.444-641.963c12.91-11.482,36.431.617,36.431.617a20.915,20.915,0,0,1,9.928-.794l2.3-3.6s-.165-.037-.432-.114l-1.365,2.143a20.924,20.924,0,0,0-9.931.794s-23.519-12.1-36.431-.617c-3.741,3.328-6.641,8.761-8.482,14.894C472.307-634.126,475.026-638.923,478.444-641.963Z" transform="translate(-470.46 672.5)" fill="#fff"/>
            <path id="Path_7709" data-name="Path 7709" d="M496.492-641.5c1.409-2.2,19.714-16.892,26.655-17.195s22.052,10.637,26.771,17.549c2.03,2.977.835,9.6-1.185,16.169,2.307-7.065,3.88-14.529,1.684-17.745-4.717-6.912-19.828-17.853-26.769-17.549s-25.246,15-26.655,17.2a6.507,6.507,0,0,0-1.047,2.564A8.724,8.724,0,0,1,496.492-641.5Z" transform="translate(-444.041 660.278)" fill="#fff"/>
          </g>
          <path id="Path_7710" data-name="Path 7710" d="M497.979-639.467s8.059.283,11.863-3.788,5.692-13.258,5.692-13.258,1.65,1.762.483,7.167,3.88,8.275,7.971,8.615S532-643.255,532-643.255s-.2,2.674-4.7,5.489-3.354,15.7-3.354,15.7a19.044,19.044,0,0,1-1.411-8.242,24.286,24.286,0,0,1,2.079-8.387,9.219,9.219,0,0,1-7.132-2.544c-2.969-3.047-3.914-4.151-3.914-4.151S511.641-637.035,497.979-639.467Z" transform="translate(-439.251 664.587)" fill="#f5a666"/>
          <path id="Path_7711" data-name="Path 7711" d="M499.6-640.118s2.625,1.163,5.2-2.094,9.285-1.69,9.285-1.69,2.165-2.819,2.112-2.837-3.739-3.136-3.994-3.884-.637-.291-.637-.291-1.853,4.768-6.181,5.43-3.939.768-3.939.768Z" transform="translate(-437.568 670.248)" fill="#f5a666"/>
          <path id="Path_7712" data-name="Path 7712" d="M481.083-621.643a9.2,9.2,0,0,0,7.878-2.589c3.244-3.464,1.743-8.983,3.831-13.99s5-5.106,7.727-4.815c0,0-4.277,1.216-3.694,6.9s1.265,11.134-.194,15.073,3.049,11.521,12.275,9.588a11.39,11.39,0,0,1-8.641-.181c-4.377-2.043-7.782-6.861-6.941-10.77l.925-2.8S488.851-618.994,481.083-621.643Z" transform="translate(-456.765 678.461)" fill="#f5a666"/>
          <path id="Path_7713" data-name="Path 7713" d="M629.026-633.944a5.86,5.86,0,0,0-.405-2.212c1.377,8.026-18.761,11.806-22.6,12.2s-6.782-6.814-7.621-6.827,1.155,5.611,1.2,8.967-10.89,5.493-21.665,6.66-10.326-1.167-10.326-1.167-12.932,5.106-22.071,5.4-25.72-2.481-34.034-6.609-11.572,7.531-30.24,5.782c-6.493-.609-9.979-4.356-11.766-8.985.994,8.177,4.411,14.825,10.816,16.385,16.214,3.945,30.785-7.46,37.908-5.275s29.107,2.265,47.872-1.976a75.583,75.583,0,0,0,19.435-2.346c11.509-2.753,16.92-6.674,16.92-6.674S629-624.916,629.026-633.944Z" transform="translate(-468.772 685.689)" fill="#f5a666"/>
          <path id="Path_7714" data-name="Path 7714" d="M506.293-655.466a1.047,1.047,0,0,0-1.1.244c-1.8,1.576-7.774,5.918-8.47,6.986-.713,1.09-.487,1.908.613,1.2,1.756-1.128,3.692-1.994,5.338-3.277.827-.644,1.87-1.132,2.668-1.809a3.387,3.387,0,0,0,1.6-2.438A1,1,0,0,0,506.293-655.466Z" transform="translate(-440.977 665.603)" fill="#f5a666" opacity="0.6"/>
          <path id="Path_7715" data-name="Path 7715" d="M501.176-641.677a18.7,18.7,0,0,0,2.709-5.88,1.634,1.634,0,0,0-.063-.183,14.866,14.866,0,0,1-3.662-.175,18.617,18.617,0,0,0-3.114,5.3C496.221-640.029,500.087-639.982,501.176-641.677Z" transform="translate(-440.336 673.5)" fill="#f5a666" opacity="0.6"/>
          <path id="Path_7716" data-name="Path 7716" d="M487.837-577.9a30.543,30.543,0,0,1-7.246-.849c-5.045-1.228-8.625-5.546-10.354-12.487-3.356-13.476,1.316-32.624,9.8-40.172h0c5.379-4.786,13.474-6.2,23.411-4.092a61.092,61.092,0,0,1,13.315,4.57,21.175,21.175,0,0,1,9.706-.8l1.855-2.912c-1.169-.35-3.845-1.373-4.747-3.554-.595-1.436-.306-3.081.855-4.89,1.493-2.324,19.784-17.067,26.979-17.382,7.4-.326,22.519,10.982,27.124,17.727,4.5,6.6-5.994,29.71-7.719,33.4l9.026,1.955c8.892-3.8,19.947-3.283,21.325-3.2,7.721-5.193,19.152-6.949,25.034-3.827a6.189,6.189,0,0,1,3.6,5.686c-.031,9.083-24.814,13.366-26.822,13.7-.735.511-6.138,4.088-16.983,6.682a77.687,77.687,0,0,1-19.492,2.36c-19.431,4.381-41.062,4.094-48.029,1.957-2.8-.861-7.024.548-11.912,2.181C501.147-580.043,494.746-577.9,487.837-577.9Zm-7.261-52.9c-8.3,7.379-12.849,26.144-9.554,39.372,1.153,4.623,3.78,10.44,9.759,11.894,9.432,2.3,18.354-.684,25.523-3.077,5.02-1.678,9.354-3.126,12.407-2.189,6.725,2.065,28.637,2.318,47.665-1.984a.405.405,0,0,1,.11-.01,75.988,75.988,0,0,0,19.319-2.336c11.283-2.7,16.723-6.568,16.778-6.607a.385.385,0,0,1,.173-.073c.261-.041,26.205-4.332,26.234-12.916a5.357,5.357,0,0,0-3.167-4.965c-5.578-2.963-16.939-1.161-24.313,3.857a.388.388,0,0,1-.257.069c-.118-.008-11.92-.837-21.207,3.179a.4.4,0,0,1-.247.024l-9.652-2.09a.4.4,0,0,1-.279-.218.411.411,0,0,1,0-.352c.126-.263,12.533-26.415,8-33.058-4.849-7.1-19.873-17.649-26.417-17.372-6.971.3-25.1,15.085-26.333,17.01-1.01,1.572-1.275,2.965-.79,4.141.98,2.373,4.688,3.214,4.725,3.222a.4.4,0,0,1,.287.24.4.4,0,0,1-.033.373l-2.3,3.6a.409.409,0,0,1-.42.181,20.66,20.66,0,0,0-9.715.776.4.4,0,0,1-.324-.02c-.232-.118-23.423-11.839-35.977-.674Z" transform="translate(-469.143 660.477)" fill="#303081"/>
        </g>
        <g id="Group_5420" data-name="Group 5420" transform="translate(54.489 20.135)">
          <path id="Path_7717" data-name="Path 7717" d="M496.375-645.791a.864.864,0,0,1-.169-.014.407.407,0,0,1-.3-.491.406.406,0,0,1,.46-.3c.067.008,1.175,0,4.633-2.36.587-.4,1.173-.782,1.735-1.149,2.055-1.334,3.994-2.6,4.071-3.709a1.747,1.747,0,0,0-.782-1.359.406.406,0,0,1-.043-.572.406.406,0,0,1,.572-.041,2.469,2.469,0,0,1,1.059,2.028c-.1,1.515-2.014,2.758-4.436,4.332-.558.362-1.139.739-1.719,1.136C498.188-646.056,496.833-645.791,496.375-645.791Z" transform="translate(-495.897 655.888)" fill="#303081"/>
        </g>
        <g id="Group_5421" data-name="Group 5421" transform="translate(141.357 55.696)">
          <path id="Path_7718" data-name="Path 7718" d="M548.893-635.856c.206,1.625-1.9,3.228-4.692,3.582s-5.232-.674-5.438-2.3,1.9-3.23,4.692-3.584S548.688-637.481,548.893-635.856Z" transform="translate(-538.344 638.634)" fill="#ff7320"/>
          <path id="Path_7719" data-name="Path 7719" d="M543.311-631.59a7.132,7.132,0,0,1-2.751-.511,2.93,2.93,0,0,1-1.992-2.214c-.238-1.876,1.978-3.65,5.043-4.036s5.651.776,5.89,2.652h0a2.936,2.936,0,0,1-1.377,2.642,7.72,7.72,0,0,1-3.666,1.395A9.112,9.112,0,0,1,543.311-631.59Zm1.426-6.024a8.374,8.374,0,0,0-1.024.065c-2.528.322-4.515,1.756-4.34,3.132a2.175,2.175,0,0,0,1.5,1.57,6.886,6.886,0,0,0,3.48.379,6.89,6.89,0,0,0,3.277-1.236A2.168,2.168,0,0,0,548.7-635.6C548.547-636.786,546.828-637.615,544.737-637.615Z" transform="translate(-538.55 638.427)" fill="#303081"/>
        </g>
        <g id="Group_5422" data-name="Group 5422" transform="translate(36.026 40.366)">
          <path id="Path_7720" data-name="Path 7720" d="M499.037-607.383a13.065,13.065,0,0,1-9.287-4.253c-2.487-2.664-3.485-5.817-2.6-8.226,1.688-4.611,1.641-7.179,1.548-12.295-.012-.652-.024-1.344-.035-2.085a6.085,6.085,0,0,1,1.768-4.833,6.43,6.43,0,0,1,4.66-1.4.4.4,0,0,1,.354.448.407.407,0,0,1-.448.356,5.7,5.7,0,0,0-4.028,1.2,5.336,5.336,0,0,0-1.495,4.218c.01.739.022,1.43.035,2.081.094,5.053.145,7.835-1.6,12.588-.766,2.089.189,4.992,2.434,7.393,2.468,2.641,6.808,4.969,11.59,3.578,3.505-1.018,6.409-6.595,7.065-13.562.76-8.09-1.672-18.383-10.78-23.014a.406.406,0,0,1-.177-.546.4.4,0,0,1,.544-.177c9.47,4.817,12.006,15.458,11.22,23.812-.684,7.289-3.829,13.156-7.645,14.266A11.159,11.159,0,0,1,499.037-607.383Z" transform="translate(-486.832 645.954)" fill="#303081"/>
        </g>
        <g id="Group_5423" data-name="Group 5423" transform="translate(23.957 63.203)">
          <path id="Path_7721" data-name="Path 7721" d="M485.183-629.206a10.325,10.325,0,0,1-4.047-.762.406.406,0,0,1-.192-.54.408.408,0,0,1,.542-.191c.269.128,6.688,3.063,13.04-3.91a.406.406,0,0,1,.572-.026.405.405,0,0,1,.026.572C491.552-630.138,487.871-629.206,485.183-629.206Z" transform="translate(-480.906 634.741)" fill="#303081"/>
        </g>
        <g id="Group_5424" data-name="Group 5424" transform="translate(58.315 52.168)">
          <path id="Path_7722" data-name="Path 7722" d="M524.8-638.318c-13.264-5.45-19.492,2.786-20.5,4.316a.4.4,0,0,1-.189.149,10.44,10.44,0,0,0-6.326,5.845l.01.071a.191.191,0,0,1,.061.149c0,.065-.006.13-.006.2.024.128.051.257.081.381a4.849,4.849,0,0,1,.193.633c.55-2.086,2.114-5.041,6.513-6.607a.407.407,0,0,0,.218-.181c.236-.416,5.825-9.908,19.655-4.2a.4.4,0,0,0,.534-.466l0-.01A.409.409,0,0,0,524.8-638.318Z" transform="translate(-497.776 640.159)" fill="#303081"/>
        </g>
        <g id="Group_5425" data-name="Group 5425" transform="translate(59.419 17.959)">
          <path id="Path_7723" data-name="Path 7723" d="M500.383-638.076c-.971,0-1.611-.055-1.7-.063a.4.4,0,0,1-.365-.44.4.4,0,0,1,.44-.367c.073.006,7.46.639,11.568-2.69s4.523-14.812,4.527-14.928a.408.408,0,0,1,.42-.391.4.4,0,0,1,.391.418c-.016.487-.444,11.979-4.827,15.531C507.684-638.451,502.911-638.076,500.383-638.076Z" transform="translate(-498.318 656.956)" fill="#303081"/>
        </g>
        <g id="Group_5426" data-name="Group 5426" transform="translate(74.313 30.024)">
          <path id="Path_7724" data-name="Path 7724" d="M515.745-643.922c-3.448,0-6.823-2.173-10.032-6.46a.406.406,0,0,1,.081-.568.4.4,0,0,1,.566.081c3.106,4.147,6.315,6.208,9.562,6.134,4.7-.112,7.892-4.749,7.922-4.8a.409.409,0,0,1,.564-.11.408.408,0,0,1,.108.564c-.141.2-3.464,5.03-8.576,5.153Z" transform="translate(-505.631 651.032)" fill="#303081"/>
        </g>
        <g id="Group_5427" data-name="Group 5427" transform="translate(80.066 60.341)">
          <path id="Path_7725" data-name="Path 7725" d="M508.861-628.835a.405.405,0,0,1-.185-.047.4.4,0,0,1-.175-.544c.055-.106,5.619-10.495,21.112-5.236a.406.406,0,0,1,.253.515.4.4,0,0,1-.513.253c-14.81-5.026-19.92,4.434-20.13,4.839A.409.409,0,0,1,508.861-628.835Z" transform="translate(-508.456 636.146)" fill="#303081"/>
        </g>
        <g id="Group_5428" data-name="Group 5428" transform="translate(82.748 36.429)">
          <path id="Path_7726" data-name="Path 7726" d="M517.53-623.92c-5.106-4.807-7.431-10.23-6.91-16.122a18.066,18.066,0,0,1,2.332-7.468.4.4,0,0,0,.024-.377h-.743c-.58.959-7.474,13.057,4.741,24.556a.4.4,0,0,0,.279.112.405.405,0,0,0,.3-.128A.405.405,0,0,0,517.53-623.92Z" transform="translate(-509.773 647.887)" fill="#303081"/>
        </g>
        <g id="Group_5429" data-name="Group 5429" transform="translate(56.295 34.063)">
          <path id="Path_7727" data-name="Path 7727" d="M519.111-648.53a5.642,5.642,0,0,1-.348-.519c-.389.644-7.7,12.6-13.908,13.091-3.161.251-5.607-.66-6.709-2.495a4.179,4.179,0,0,1,.212-4.464.405.405,0,0,0-.124-.558.4.4,0,0,0-.56.122,4.971,4.971,0,0,0-.222,5.318c1.132,1.888,3.436,2.929,6.4,2.929q.519,0,1.063-.043c6.244-.491,13.108-11.159,14.364-13.2A1.841,1.841,0,0,1,519.111-648.53Z" transform="translate(-496.784 649.049)" fill="#303081"/>
        </g>
        <g id="Group_5430" data-name="Group 5430" transform="translate(56.341 35.908)">
          <path id="Path_7728" data-name="Path 7728" d="M498.811-639.815a3.116,3.116,0,0,1-1.857-.635.4.4,0,0,1-.053-.57.406.406,0,0,1,.568-.055,2.323,2.323,0,0,0,1.584.438,3.173,3.173,0,0,0,2.055-1.4,18.252,18.252,0,0,0,2.849-5.8.406.406,0,0,1,.493-.293.4.4,0,0,1,.291.493,18.737,18.737,0,0,1-2.99,6.1,3.911,3.911,0,0,1-2.617,1.709A2.524,2.524,0,0,1,498.811-639.815Z" transform="translate(-496.807 648.143)" fill="#303081"/>
        </g>
        <g id="Group_5431" data-name="Group 5431" transform="translate(129.617 60.684)">
          <path id="Path_7729" data-name="Path 7729" d="M536.069-623.115a.4.4,0,0,1-.33-.171c-.251-.354-6.061-8.723-.666-12.615a.406.406,0,0,1,.566.092.4.4,0,0,1-.092.564c-4.754,3.43.8,11.411.853,11.493a.4.4,0,0,1-.1.564A.4.4,0,0,1,536.069-623.115Z" transform="translate(-532.786 635.977)" fill="#303081"/>
        </g>
        <g id="Group_5432" data-name="Group 5432" transform="translate(106.502 63.895)">
          <path id="Path_7730" data-name="Path 7730" d="M521.947-624.149a.406.406,0,0,1-.4-.344c-.045-.291-1.045-7.171,3.939-9.859a.4.4,0,0,1,.548.163.4.4,0,0,1-.163.55c-4.477,2.415-3.534,8.957-3.523,9.022a.4.4,0,0,1-.338.462A.341.341,0,0,1,521.947-624.149Z" transform="translate(-521.437 634.401)" fill="#303081"/>
        </g>
      </g>
    </g>
  </g>
</svg>
