<svg xmlns="http://www.w3.org/2000/svg" xmlns:xlink="http://www.w3.org/1999/xlink" width="194.807" height="211.384" viewBox="0 0 194.807 211.384">
  <defs>
    <clipPath id="clip-path">
      <rect id="Rectangle_2322" data-name="Rectangle 2322" width="194.807" height="211.384" fill="none"/>
    </clipPath>
  </defs>
  <g id="Group_5435" data-name="Group 5435" clip-path="url(#clip-path)">
    <g id="Group_5434" data-name="Group 5434" transform="translate(-6.77 86.861)">
      <g id="Group_5414" data-name="Group 5414" transform="translate(78.765)">
        <g id="Group_5379" data-name="Group 5379">
          <path id="Path_7644" data-name="Path 7644" d="M515.341-638.151a79.315,79.315,0,0,0,25.545-7.842c13.2-6.688,28.843-17.82,34.876-23.881s16.493-16.7,32.311-14.789,18.636,14.285,18.636,14.285,12.315-1.738,18.574,1.4,2.595,10.207,2.595,10.207L640.369-648.1s11.37,4.865,8.722,14.776-13.144,12.16-13.144,12.16-.593,11.805-12.32,14.77-29.633,15.233-56.164,11.323c0,0-36.872,21.6-49.8,18.657S501.6-636.747,515.341-638.151Z" transform="translate(-505.987 685.315)" fill="#ffd499"/>
          <g id="Group_5378" data-name="Group 5378" transform="translate(0.412 0.425)">
            <path id="Path_7645" data-name="Path 7645" d="M516.638-636.456a79.312,79.312,0,0,0,25.544-7.842c13.2-6.688,28.843-17.822,34.878-23.881s16.491-16.7,32.309-14.789c7.572.916,12.16,4.229,14.893,7.434-2.478-3.638-7.264-8.05-16.19-9.13-15.818-1.912-26.276,8.728-32.311,14.789s-21.675,17.193-34.876,23.881a79.315,79.315,0,0,1-25.545,7.842c-12.468,1.275-11.038,48.637-1.01,59.6C505.5-591.987,504.73-635.238,516.638-636.456Z" transform="translate(-506.399 684.89)" fill="#fff"/>
          </g>
          <path id="Path_7646" data-name="Path 7646" d="M647.027-656.814a10.382,10.382,0,0,0-.361-6.769c-10.194-1.815-22.533,2.342-24.231,7.51-3.062,9.319-29.563,35.716-51.912,32.133S549.2-643.268,549.2-643.268c-5.481-3.447-6.63-14.107-6.63-14.107-3.485,10.654,1.564,15.873,1.564,15.873-.8,10.9,7.336,13.62,1.632,21.67-4.116,5.812-25.789,9.019-37.528,10.356,1.862,5.224,4.348,8.883,7.368,9.572,12.925,2.941,49.8-18.657,49.8-18.657,26.531,3.91,44.437-8.36,56.164-11.323s12.32-14.77,12.32-14.77S644.377-646.9,647.027-656.814Z" transform="translate(-503.923 708.801)" fill="#f5a666"/>
          <path id="Path_7647" data-name="Path 7647" d="M520.638-575.5a12.971,12.971,0,0,1-2.848-.285c-8.545-1.947-12.42-25.621-11.435-41.738.776-12.721,4.114-20.312,9.161-20.829h0a79.669,79.669,0,0,0,25.394-7.8c13.159-6.667,28.885-17.894,34.768-23.8l.14-.14c6.216-6.244,16.619-16.7,32.521-14.77,14.368,1.738,18.249,12.126,18.893,14.236,2.138-.268,12.685-1.4,18.455,1.492a6.644,6.644,0,0,1,3.557,3.91c1.06,3.267-.7,6.724-.778,6.871l-.03.049-7.219,10.254c2.153,1.08,10.891,6.087,8.5,15.051-2.427,9.083-11.385,11.914-13.157,12.39-.208,1.928-1.806,12.109-12.611,14.842a85.5,85.5,0,0,0-10.279,3.689c-9.066,3.649-20.88,8.4-35.735,8.4a70.561,70.561,0,0,1-10.169-.739C565.178-592.9,534.988-575.5,520.638-575.5Zm-5.039-62.01c-4.523.465-7.663,7.957-8.4,20.038-1.069,17.52,3.407,39.184,10.779,40.863a12.116,12.116,0,0,0,2.663.266c14.423,0,46.484-18.674,46.828-18.876a.409.409,0,0,1,.274-.053c19.583,2.888,34.628-3.169,45.61-7.589a86.565,86.565,0,0,1,10.388-3.725c11.276-2.85,12-14.266,12-14.381a.425.425,0,0,1,.334-.391c.1-.021,10.275-2.321,12.823-11.859,2.523-9.436-8.027-14.083-8.477-14.279a.415.415,0,0,1-.24-.272.43.43,0,0,1,.06-.359l7.489-10.636c.149-.3,1.621-3.407.712-6.2a5.83,5.83,0,0,0-3.13-3.411c-6.067-3.045-18.2-1.379-18.325-1.362a.426.426,0,0,1-.472-.325c-.027-.119-2.956-12.1-18.274-13.958-15.495-1.876-25.712,8.392-31.82,14.526l-.14.14c-6.053,6.08-21.556,17.159-34.985,23.961A80.576,80.576,0,0,1,515.6-637.506Z" transform="translate(-506.206 685.09)" fill="#303081"/>
        </g>
        <g id="Group_5392" data-name="Group 5392" transform="translate(49.974 1.738)">
          <g id="Group_5380" data-name="Group 5380">
            <path id="Path_7648" data-name="Path 7648" d="M553.984-684.034c-24.65-1.439-24.063,37.314-24.063,59.245,0,19,24.063,17.473,24.063,17.473s24.063,1.526,24.063-17.473C578.047-646.721,578.634-685.473,553.984-684.034Z" transform="translate(-529.497 684.496)" fill="#2f57c2"/>
            <path id="Path_7649" data-name="Path 7649" d="M562.912-613.152s-24.061,1.528-24.061-17.473c0-16.232-.319-41.675,9.508-53.221-18.927,4.435-18.438,38.689-18.438,58.8,0,19,24.063,17.473,24.063,17.473s13.941.882,20.6-7.077A36.025,36.025,0,0,1,562.912-613.152Z" transform="translate(-529.497 684.751)" fill="#14459e"/>
            <path id="Path_7650" data-name="Path 7650" d="M550.912-684.034c-9.085-.532-14.74,4.4-18.262,11.939,3.566-6.2,8.945-10.08,17.055-9.606,24.65-1.439,24.063,37.314,24.063,59.245a17.474,17.474,0,0,1-1.2,6.626,16.2,16.2,0,0,0,2.408-8.96C574.975-646.721,575.561-685.473,550.912-684.034Z" transform="translate(-526.425 684.496)" fill="#fff"/>
            <path id="Path_7651" data-name="Path 7651" d="M555.576-606.635c-.742,0-1.226-.026-1.369-.034-.81.049-12.713.631-19.67-5.9-3.2-3-4.816-7.034-4.816-12v-1.5c-.01-17.154-.026-43.077,11.087-53.565a17.3,17.3,0,0,1,13.4-4.607,17.3,17.3,0,0,1,13.4,4.607c11.113,10.488,11.1,36.413,11.087,53.565v1.5c0,4.962-1.62,9-4.816,12C568.145-607.186,559.049-606.635,555.576-606.635Zm-2.663-76.791a16.212,16.212,0,0,0-11.525,4.416c-10.847,10.237-10.832,35.941-10.821,52.949v1.5a14.932,14.932,0,0,0,4.546,11.378c6.781,6.369,18.946,5.681,19.067,5.672a.239.239,0,0,1,.055,0c.121.008,12.286.7,19.067-5.672a14.933,14.933,0,0,0,4.546-11.378v-1.5c.011-17.008.026-42.712-10.821-52.949a16.479,16.479,0,0,0-12.793-4.378h-.051C553.755-683.413,553.33-683.426,552.913-683.426Z" transform="translate(-529.721 684.272)" fill="#303081"/>
          </g>
          <g id="Group_5381" data-name="Group 5381" transform="translate(9.327 20.059)">
            <circle id="Ellipse_176" data-name="Ellipse 176" cx="3.182" cy="3.182" r="3.182" transform="translate(0 6.283) rotate(-80.783)" fill="#fff"/>
            <path id="Path_7652" data-name="Path 7652" d="M537.735-667.6a3.609,3.609,0,0,1-3.6-3.6,3.609,3.609,0,0,1,3.6-3.607,3.61,3.61,0,0,1,3.606,3.607A3.609,3.609,0,0,1,537.735-667.6Zm0-6.365a2.763,2.763,0,0,0-2.759,2.761,2.761,2.761,0,0,0,2.759,2.758,2.762,2.762,0,0,0,2.76-2.758A2.764,2.764,0,0,0,537.735-673.966Z" transform="translate(-534.085 674.858)" fill="#303081"/>
          </g>
          <g id="Group_5382" data-name="Group 5382" transform="translate(6.419 30.192)">
            <path id="Path_7653" data-name="Path 7653" d="M562.293-669.866H538.878a5.938,5.938,0,0,0-5.938,5.938v23.494a5.938,5.938,0,0,0,5.938,5.938h23.415a5.938,5.938,0,0,0,5.938-5.938v-23.494A5.938,5.938,0,0,0,562.293-669.866Z" transform="translate(-532.517 670.289)" fill="#dae2f2"/>
            <path id="Path_7654" data-name="Path 7654" d="M539.076-640.435v-23.494a5.938,5.938,0,0,1,5.938-5.938h-6.135a5.938,5.938,0,0,0-5.938,5.938v23.494a5.938,5.938,0,0,0,5.938,5.938h6.135A5.938,5.938,0,0,1,539.076-640.435Z" transform="translate(-532.517 670.289)" fill="#b5cef8"/>
            <path id="Path_7655" data-name="Path 7655" d="M562.2-669.866H538.784a5.937,5.937,0,0,0-5.761,4.524,5.934,5.934,0,0,1,5.207-3.083h23.415a5.938,5.938,0,0,1,5.938,5.938V-639a5.87,5.87,0,0,1-.176,1.416,5.911,5.911,0,0,0,.731-2.854v-23.494A5.938,5.938,0,0,0,562.2-669.866Z" transform="translate(-532.424 670.289)" fill="#fff"/>
            <path id="Path_7656" data-name="Path 7656" d="M562.517-633.85H539.1a6.369,6.369,0,0,1-6.361-6.361V-663.7a6.369,6.369,0,0,1,6.361-6.361h23.415a6.369,6.369,0,0,1,6.361,6.361v23.494A6.369,6.369,0,0,1,562.517-633.85ZM539.1-669.219a5.521,5.521,0,0,0-5.515,5.515v23.494A5.521,5.521,0,0,0,539.1-634.7h23.415a5.521,5.521,0,0,0,5.515-5.515V-663.7a5.521,5.521,0,0,0-5.515-5.515Z" transform="translate(-532.741 670.065)" fill="#303081"/>
          </g>
          <g id="Group_5383" data-name="Group 5383" transform="translate(8.928 33.524)">
            <path id="Path_7657" data-name="Path 7657" d="M549.257-667.082l-15.136.258v22.367h30.271v-22.367Z" transform="translate(-533.698 670.09)" fill="#fff"/>
            <text id="_0.0" data-name="0.0" transform="translate(15.141 14)" fill="#303081" font-size="12" font-family="Helvetica"><tspan x="-8.341" y="0">0.0</tspan></text>
            <text id="MG_DL" data-name="MG/DL" transform="translate(16.867 19.35)" fill="#303081" font-size="2" font-family="Helvetica"><tspan x="-3.167" y="0">MG/DL</tspan></text>
            <path id="Path_7658" data-name="Path 7658" d="M564.616-643.811H534.345a.423.423,0,0,1-.423-.423V-666.6a.423.423,0,0,1,.417-.423l15.135-.259h.013l15.135.259a.423.423,0,0,1,.417.423v22.365A.423.423,0,0,1,564.616-643.811Zm-29.848-.846h29.425v-21.528l-14.713-.251-14.712.251Z" transform="translate(-533.922 669.865)" fill="#303081"/>
          </g>
          <g id="Group_5385" data-name="Group 5385" transform="translate(18.84 7.163)">
            <g id="Group_5384" data-name="Group 5384">
              <path id="Path_7659" data-name="Path 7659" d="M543.136-680.351l-3.957,3.783a1.262,1.262,0,0,0,.871,2.174h7.914a1.263,1.263,0,0,0,.873-2.174l-3.959-3.783A1.257,1.257,0,0,0,543.136-680.351Z" transform="translate(-538.361 681.126)" fill="#fff"/>
              <path id="Path_7660" data-name="Path 7660" d="M548.19-673.747h-7.914a1.656,1.656,0,0,1-1.564-1.059,1.656,1.656,0,0,1,.4-1.845l3.959-3.783h0a1.682,1.682,0,0,1,2.329,0l3.957,3.783a1.656,1.656,0,0,1,.4,1.845A1.656,1.656,0,0,1,548.19-673.747Zm-3.957-6.308a.824.824,0,0,0-.578.234h0l-3.957,3.783a.822.822,0,0,0-.2.918.824.824,0,0,0,.778.527h7.914a.827.827,0,0,0,.78-.527.827.827,0,0,0-.2-.918l-3.957-3.783A.833.833,0,0,0,544.233-680.055Z" transform="translate(-538.586 680.902)" fill="#303081"/>
            </g>
          </g>
          <g id="Group_5387" data-name="Group 5387" transform="translate(18.84 16.872)">
            <g id="Group_5386" data-name="Group 5386">
              <path id="Path_7661" data-name="Path 7661" d="M544.007-676.134H540.05a1.26,1.26,0,0,0-.871,2.172l3.957,3.785a1.262,1.262,0,0,0,1.742,0l3.959-3.785a1.261,1.261,0,0,0-.873-2.172Z" transform="translate(-538.361 676.557)" fill="#fff"/>
              <path id="Path_7662" data-name="Path 7662" d="M544.233-669.18a1.683,1.683,0,0,1-1.164-.47l-3.957-3.783a1.655,1.655,0,0,1-.4-1.845,1.654,1.654,0,0,1,1.564-1.056h7.914a1.654,1.654,0,0,1,1.564,1.056,1.655,1.655,0,0,1-.4,1.845l-3.957,3.783A1.683,1.683,0,0,1,544.233-669.18Zm-3.957-6.307a.825.825,0,0,0-.778.525.822.822,0,0,0,.2.918l3.957,3.785a.839.839,0,0,0,1.16,0l3.957-3.785a.827.827,0,0,0,.2-.918.828.828,0,0,0-.78-.525Z" transform="translate(-538.586 676.333)" fill="#303081"/>
            </g>
          </g>
          <g id="Group_5388" data-name="Group 5388" transform="translate(13.867 69.004)">
            <path id="Path_7663" data-name="Path 7663" d="M550.715-651.6h-8.148a6.123,6.123,0,0,0-6.123,6.123v.555a36.423,36.423,0,0,0,10.2,1.075,36.425,36.425,0,0,0,10.2-1.075v-.555A6.123,6.123,0,0,0,550.715-651.6Z" transform="translate(-536.022 652.026)" fill="#fff"/>
            <path id="Path_7664" data-name="Path 7664" d="M548.153-643.174c-.708,0-1.165-.023-1.288-.03a36.593,36.593,0,0,1-10.3-1.088.425.425,0,0,1-.317-.408v-.557a6.554,6.554,0,0,1,6.546-6.546h8.148a6.554,6.554,0,0,1,6.546,6.546v.557a.425.425,0,0,1-.317.408A37.258,37.258,0,0,1,548.153-643.174Zm-1.288-.875h.028a36.464,36.464,0,0,0,9.746-.98v-.227a5.706,5.706,0,0,0-5.7-5.7h-8.148a5.706,5.706,0,0,0-5.7,5.7v.227a36.463,36.463,0,0,0,9.746.98Zm10.2-.65h0Z" transform="translate(-536.246 651.802)" fill="#303081"/>
          </g>
          <g id="Group_5391" data-name="Group 5391" transform="translate(21.318 72.532)">
            <g id="Group_5389" data-name="Group 5389">
              <rect id="Rectangle_2320" data-name="Rectangle 2320" width="5.491" height="20.337" transform="translate(0.423 0.422)" fill="#fff"/>
              <path id="Path_7665" data-name="Path 7665" d="M541.511-629.606v-20.337h-1.56v20.337h1.56Z" transform="translate(-539.528 650.366)" fill="#b5cef8"/>
              <rect id="Rectangle_2321" data-name="Rectangle 2321" width="5.479" height="3.158" transform="translate(0.425 9.663)" fill="#2f57c2"/>
              <path id="Path_7666" data-name="Path 7666" d="M545.666-628.96h-5.491a.423.423,0,0,1-.423-.423v-20.336a.423.423,0,0,1,.423-.423h5.491a.423.423,0,0,1,.423.423v20.336A.423.423,0,0,1,545.666-628.96ZM540.6-629.8h4.646V-649.3H540.6Z" transform="translate(-539.752 650.142)" fill="#303081"/>
            </g>
            <g id="Group_5390" data-name="Group 5390" transform="translate(1.609 15.909)">
              <path id="Path_7667" data-name="Path 7667" d="M541.845-642.457a1.137,1.137,0,0,0-1.137,1.137v3.29h2.274v-3.29A1.136,1.136,0,0,0,541.845-642.457Z" transform="translate(-540.285 642.88)" fill="#fff"/>
              <path id="Path_7668" data-name="Path 7668" d="M543.206-637.383h-2.274a.423.423,0,0,1-.423-.423v-3.29a1.561,1.561,0,0,1,1.56-1.56,1.561,1.561,0,0,1,1.56,1.56v3.29A.423.423,0,0,1,543.206-637.383Zm-1.851-.844h1.428V-641.1a.714.714,0,0,0-.714-.714.714.714,0,0,0-.714.714Z" transform="translate(-540.509 642.656)" fill="#303081"/>
            </g>
          </g>
        </g>
        <g id="Group_5393" data-name="Group 5393" transform="translate(36.413 20.562)">
          <path id="Path_7669" data-name="Path 7669" d="M532.762-674.311c-11.648,3.36-10.715,19.726-5.679,25.5a2.436,2.436,0,0,0,1.094.729c4.745,1.9,15.135-7.294,15.807-15.75,0,0,.006-.072.181-6.743h0S544.407-677.671,532.762-674.311Z" transform="translate(-523.119 675.64)" fill="#ffd499"/>
          <path id="Path_7670" data-name="Path 7670" d="M543.982-667.453s.006-.055.123-4.539c-2.514,6.595-7.625,15.605-15.174,12.717-3.662-1.4-4.82-4.988-5-8.488-1.167,5.687.359,12.13,3.147,15.331a2.434,2.434,0,0,0,1.094.729C532.921-649.8,543.311-659,543.982-667.453Z" transform="translate(-523.116 679.265)" fill="#f5a666"/>
          <path id="Path_7671" data-name="Path 7671" d="M533.522-672.71c6.512-1.879,9.3-.489,10.5,1.1-.467-1.834-2.5-5.234-11.265-2.7-10.552,3.045-10.779,16.761-6.983,23.613C522.833-657.892,523.738-669.888,533.522-672.71Z" transform="translate(-523.119 675.639)" fill="#fff"/>
          <path id="Path_7672" data-name="Path 7672" d="M529.805-647.179a4.163,4.163,0,0,1-1.564-.283l-.051-.019a2.789,2.789,0,0,1-1.205-.825c-3.326-3.815-4.595-11.344-2.888-17.137a12.637,12.637,0,0,1,8.768-9.049l.117.406-.117-.406c4.654-1.343,8.048-1.22,10.086.37a4.9,4.9,0,0,1,1.857,3.791c-.066,2.493-.176,6.69-.181,6.76-.465,5.846-5.449,11.931-9.9,14.689A9.757,9.757,0,0,1,529.805-647.179Zm8.639-27.381a19.741,19.741,0,0,0-5.345.88,11.835,11.835,0,0,0-8.192,8.475c-1.821,6.191-.051,13.172,2.716,16.345a1.949,1.949,0,0,0,.861.586l.072.028c1.385.557,3.419.077,5.727-1.354,4.276-2.65,9.06-8.469,9.5-14.037,0-.013.015-.427.178-6.72a4.029,4.029,0,0,0-1.543-3.107A6.4,6.4,0,0,0,538.444-674.56Z" transform="translate(-523.34 675.414)" fill="#303081"/>
        </g>
        <g id="Group_5394" data-name="Group 5394" transform="translate(40.841 23.771)">
          <path id="Path_7673" data-name="Path 7673" d="M525.846-670.193a.421.421,0,0,1-.349-.183.424.424,0,0,1,.11-.589c.081-.055,8.159-5.472,16.615-1.462a.422.422,0,0,1,.2.563.422.422,0,0,1-.563.2c-8.01-3.8-15.7,1.343-15.777,1.4A.422.422,0,0,1,525.846-670.193Z" transform="translate(-525.423 673.904)" fill="#303081"/>
        </g>
        <g id="Group_5395" data-name="Group 5395" transform="translate(38.223 49.08)">
          <path id="Path_7674" data-name="Path 7674" d="M547.444-620.412a.412.412,0,0,1-.178-.04c-11.523-5.387-16-11.672-17.72-15.994a14.636,14.636,0,0,1-1.024-8.065c-5.787-6.548-4.129-16.7-4.055-17.133a.422.422,0,0,1,.489-.344.42.42,0,0,1,.344.487c-.017.1-1.687,10.354,3.993,16.585a.423.423,0,0,1,.1.393,13.6,13.6,0,0,0,.965,7.825c1.679,4.163,6.036,10.228,17.267,15.482a.42.42,0,0,1,.2.561A.424.424,0,0,1,547.444-620.412Z" transform="translate(-524.191 661.995)" fill="#303081"/>
        </g>
        <g id="Group_5396" data-name="Group 5396" transform="translate(29.6 61.021)">
          <path id="Path_7675" data-name="Path 7675" d="M530.8-633.063a.429.429,0,0,1-.242-.076c-9.772-6.843-10.4-22.153-10.424-22.8a.421.421,0,0,1,.408-.436.429.429,0,0,1,.438.408c0,.155.642,15.537,10.065,22.136a.425.425,0,0,1,.1.589A.422.422,0,0,1,530.8-633.063Z" transform="translate(-520.134 656.376)" fill="#303081"/>
        </g>
        <g id="Group_5399" data-name="Group 5399" transform="translate(88.16 0.82)">
          <path id="Path_7676" data-name="Path 7676" d="M589.265-621.653s10.494-2.25,13.144-12.16-8.722-14.776-8.722-14.776,15.433-12.662,4.913-20.871c-6.267-4.892-18.574-1.4-18.574-1.4s-2.376-10.386-14.948-13.595a24.743,24.743,0,0,1-5.273,11.618c-6.522,7.727-13.4,10.575-11.637,19.016s8.3,7.085,8.3,7.085-2.895,9.538,5.479,13.673c0,0-8.481,1.08-7.294,10.326.553,4.291,5.561,6.382,7.268,6.682-1.955.329-4.546,1.57-4.977,5.785-.476,4.665,2.748,7.092,11.185,6.486a73.394,73.394,0,0,1,8.817-3.1C588.672-609.848,589.265-621.653,589.265-621.653Z" transform="translate(-547.466 684.981)" fill="#ffd499"/>
          <g id="Group_5398" data-name="Group 5398" transform="translate(0.422 0.523)">
            <path id="Path_7677" data-name="Path 7677" d="M583.009-642.618c-6.756,4.408-21.071,9.748-25.513,7.151-5.124-2.994-1.118-8.522.3-8.979s4.456-.278,6.664-.278,11.6-2.461,13.882-3.4a63,63,0,0,1,7.355-2.059c.032-.276.04-.438.04-.438s7.5-1.609,11.417-8.09l-.066.062c-5.175,4.945-32.621,14.738-39.843,12.026a10.2,10.2,0,0,1-6.229-6.943,13.387,13.387,0,0,0,.108,1.86c.553,4.291,5.562,6.382,7.268,6.682-1.955.329-4.546,1.57-4.977,5.785-.476,4.665,2.748,7.092,11.185,6.486a73.39,73.39,0,0,1,8.817-3.1A15.485,15.485,0,0,0,583.009-642.618Z" transform="translate(-544.365 713.427)" fill="#f5a666"/>
            <g id="Group_5397" data-name="Group 5397">
              <path id="Path_7678" data-name="Path 7678" d="M550.147-653.006c-1.762-8.441,5.115-11.289,11.638-19.016a24.744,24.744,0,0,0,5.273-11.618c.822.21,1.6.453,2.337.718a24.244,24.244,0,0,0-4.316-1.537,24.743,24.743,0,0,1-5.273,11.618c-6.522,7.727-13.4,10.575-11.637,19.016,1.022,4.911,3.662,6.5,5.691,6.979C552.34-647.795,550.854-649.6,550.147-653.006Z" transform="translate(-547.888 684.458)" fill="#fff"/>
            </g>
            <path id="Path_7679" data-name="Path 7679" d="M555.889-650.341s-2.895,9.538,5.479,13.673c0,0-.081.011-.225.038,2.595.006,3.93-.674,11.689-3.156,7.952-2.544,20.278-12.407,20.278-12.407-6.773,4.605-19.25,10.207-23.075,11.527s-9.731,2.905-11.954-.457-.3-10.224.888-10.409,6.62-4.709,9.995-8.059a133.84,133.84,0,0,1,12.847-10.717,60.489,60.489,0,0,1,9.5-5.207,35.211,35.211,0,0,0-11.858,1.048,17.845,17.845,0,0,0-3.7-6.79c1.213,2.729.13,10.588-3.109,15.123-3.3,4.616-12.9,12.53-17.39,13.518a6.775,6.775,0,0,1-6.847-2.206l0,0C550.814-649.291,555.889-650.341,555.889-650.341Z" transform="translate(-547.31 688.061)" fill="#f5a666"/>
          </g>
          <path id="Path_7680" data-name="Path 7680" d="M565.929-602.994c-3.759,0-6.322-.75-7.8-2.272a5.7,5.7,0,0,1-1.381-4.773c.361-3.532,2.208-5.075,3.859-5.747-2.382-.9-5.7-3.081-6.15-6.624a9.6,9.6,0,0,1,1.64-7.359,9.5,9.5,0,0,1,4.888-3.188c-6.259-3.81-5.3-10.913-4.845-13.023-1.762.1-6.667-.308-8.163-7.481-1.331-6.369,2.138-9.723,6.531-13.967a72.7,72.7,0,0,0,5.2-5.409,24.534,24.534,0,0,0,5.179-11.421l.081-.448.44.112c11.225,2.865,14.515,11.48,15.138,13.489,2.236-.572,12.753-2.933,18.542,1.585a8.93,8.93,0,0,1,3.832,7.068c.076,6.231-6.363,12.377-8.241,14.037,2.353,1.209,10.713,6.193,8.365,14.985-2.427,9.083-11.385,11.914-13.157,12.39-.208,1.928-1.806,12.109-12.611,14.842a72.806,72.806,0,0,0-8.764,3.08l-.128.03Q567.081-602.995,565.929-602.994ZM557.3-647.018l-.2.678c-.115.376-2.686,9.247,5.26,13.174l1.254.618-1.386.18c-.329.043-8.048,1.143-6.93,9.85.514,3.985,5.253,6.027,6.924,6.32l2.42.427-2.425.406c-1.889.319-4.227,1.515-4.627,5.411a4.852,4.852,0,0,0,1.148,4.1c1.564,1.613,4.767,2.261,9.521,1.928a73.037,73.037,0,0,1,8.809-3.09c11.276-2.85,12-14.266,12-14.381l.017-.323.317-.068c.1-.021,10.275-2.321,12.823-11.859,2.525-9.446-8.367-14.23-8.477-14.277l-.64-.274.538-.442c.085-.07,8.511-7.068,8.429-13.8a8.116,8.116,0,0,0-3.507-6.409c-6.025-4.7-18.079-1.364-18.2-1.33l-.427.121-.1-.431c-.023-.1-2.423-9.935-14.2-13.166a25.061,25.061,0,0,1-5.281,11.365,73.3,73.3,0,0,1-5.258,5.475c-4.367,4.22-7.523,7.27-6.291,13.184,1.651,7.91,7.553,6.807,7.8,6.756Z" transform="translate(-547.69 684.704)" fill="#303081"/>
        </g>
        <g id="Group_5413" data-name="Group 5413" transform="translate(92.951 14.515)">
          <g id="Group_5400" data-name="Group 5400" transform="translate(28.913 34.565)">
            <path id="Path_7681" data-name="Path 7681" d="M566.476-652.527a.424.424,0,0,1-.423-.417c-.087-5.91-2.361-8.309-2.384-8.333a.425.425,0,0,1,.006-.6.42.42,0,0,1,.6,0c.1.1,2.537,2.627,2.629,8.913a.422.422,0,0,1-.417.429Z" transform="translate(-563.549 661.995)" fill="#303081"/>
          </g>
          <g id="Group_5401" data-name="Group 5401" transform="translate(26.754 36.404)">
            <path id="Path_7682" data-name="Path 7682" d="M565.113-651.17a.6.6,0,0,1-.064,0,.426.426,0,0,1-.355-.482c.6-3.932-2.08-8.8-2.108-8.845a.422.422,0,0,1,.164-.574.421.421,0,0,1,.576.164c.115.208,2.844,5.162,2.206,9.383A.424.424,0,0,1,565.113-651.17Z" transform="translate(-562.533 661.13)" fill="#303081"/>
          </g>
          <g id="Group_5402" data-name="Group 5402" transform="translate(28.912 12.8)">
            <path id="Path_7683" data-name="Path 7683" d="M567.08-662.91h-.011a.423.423,0,0,1-.412-.434c.1-4.259-2.986-8.167-3.016-8.207a.42.42,0,0,1,.066-.593.42.42,0,0,1,.593.066c.136.168,3.313,4.185,3.2,8.756A.423.423,0,0,1,567.08-662.91Z" transform="translate(-563.548 672.237)" fill="#303081"/>
          </g>
          <g id="Group_5403" data-name="Group 5403" transform="translate(26.754 15.635)">
            <path id="Path_7684" data-name="Path 7684" d="M565.821-663.181a.423.423,0,0,1-.423-.423c-.011-3.309-2.737-6.571-2.765-6.6a.424.424,0,0,1,.049-.6.428.428,0,0,1,.6.049c.119.142,2.954,3.528,2.965,7.149a.425.425,0,0,1-.421.425Z" transform="translate(-562.533 670.903)" fill="#303081"/>
          </g>
          <g id="Group_5404" data-name="Group 5404" transform="translate(3.788)">
            <path id="Path_7685" data-name="Path 7685" d="M552.148-653.29a.422.422,0,0,1-.4-.3.42.42,0,0,1,.274-.531c12.838-4.1,23.209-23.719,23.313-23.917a.422.422,0,0,1,.57-.179.423.423,0,0,1,.181.57c-.429.82-10.637,20.13-23.806,24.331A.46.46,0,0,1,552.148-653.29Z" transform="translate(-551.726 678.26)" fill="#303081"/>
          </g>
          <g id="Group_5405" data-name="Group 5405" transform="translate(9.267 22.272)">
            <path id="Path_7686" data-name="Path 7686" d="M554.727-651.408a.423.423,0,0,1-.421-.387.425.425,0,0,1,.385-.457c15.15-1.3,31.338-15.282,31.5-15.422a.421.421,0,0,1,.6.04.424.424,0,0,1-.04.6c-.164.143-16.559,14.3-31.984,15.629Z" transform="translate(-554.304 667.78)" fill="#303081"/>
          </g>
          <g id="Group_5406" data-name="Group 5406" transform="translate(8.516 49.21)">
            <path id="Path_7687" data-name="Path 7687" d="M557.966-648.251a13.8,13.8,0,0,1-3.706-.431.426.426,0,0,1-.293-.523.426.426,0,0,1,.523-.291c7.836,2.219,27.6-5.5,27.8-5.579a.423.423,0,0,1,.548.24.424.424,0,0,1-.238.548C581.884-654.005,567.142-648.251,557.966-648.251Z" transform="translate(-553.951 655.104)" fill="#303081"/>
          </g>
          <g id="Group_5407" data-name="Group 5407" transform="translate(17.976 2.615)">
            <path id="Path_7688" data-name="Path 7688" d="M558.825-665.315a.426.426,0,0,1-.3-.13.423.423,0,0,1,.011-.6c3.494-3.377,13.663-10.6,14.094-10.911a.424.424,0,0,1,.589.1.42.42,0,0,1-.1.589c-.106.077-10.547,7.5-14,10.83A.421.421,0,0,1,558.825-665.315Z" transform="translate(-558.402 677.029)" fill="#303081"/>
          </g>
          <g id="Group_5408" data-name="Group 5408" transform="translate(12.582 1.092)">
            <path id="Path_7689" data-name="Path 7689" d="M560.578-671.147a.425.425,0,0,1-.4-.3c-1.29-4.244-4.027-5.477-4.055-5.489a.424.424,0,0,1-.221-.555.423.423,0,0,1,.555-.221c.125.053,3.12,1.375,4.529,6.018a.422.422,0,0,1-.28.527A.411.411,0,0,1,560.578-671.147Z" transform="translate(-555.864 677.746)" fill="#303081"/>
          </g>
          <path id="Path_7690" data-name="Path 7690" d="M556.864-675.1c-.621.349-6.614,3.81-6.7,7.689-.051,2.323.072,4.845,1.381,5.942a4,4,0,0,0,3.47.482,10.78,10.78,0,0,0,7.111-4.49,5.023,5.023,0,0,0,.546-4.2C561.5-673.5,559.221-675.617,556.864-675.1Z" transform="translate(-549.702 681.728)" fill="#f5a666" opacity="0.6"/>
          <g id="Group_5409" data-name="Group 5409" transform="translate(0 6.141)">
            <path id="Path_7691" data-name="Path 7691" d="M554.012-660.207a3.681,3.681,0,0,1-2.461-.8c-1.5-1.256-1.653-3.745-1.6-6.246.094-4.312,6.507-7.825,6.779-7.971a.438.438,0,0,1,.1-.038c2.7-.646,5.255,1.577,6.516,5.655a5.6,5.6,0,0,1-.6,4.622,10.978,10.978,0,0,1-7.236,4.614A7.752,7.752,0,0,1,554.012-660.207Zm3.075-14.243c-.584.327-6.21,3.577-6.288,7.219-.049,2.18.068,4.55,1.3,5.581a3.762,3.762,0,0,0,3.258.451,10.109,10.109,0,0,0,6.677-4.216,4.708,4.708,0,0,0,.514-3.938C561.435-672.945,559.3-674.934,557.087-674.45Z" transform="translate(-549.944 675.37)" fill="#303081"/>
          </g>
          <g id="Group_5410" data-name="Group 5410" transform="translate(5.926 21.685)">
            <path id="Path_7692" data-name="Path 7692" d="M559.109-667.8c-.353.1-5.33,1.524-5.965,5.406-.453,2.767,0,5.264,1.207,6.686a3.427,3.427,0,0,0,2.727,1.239h0c3.311,0,6.794-1.632,7.045-4.735.166-2.044-.287-5.957-2.21-7.75A3.251,3.251,0,0,0,559.109-667.8Z" transform="translate(-552.464 668.292)" fill="#f5a666" opacity="0.6"/>
            <path id="Path_7693" data-name="Path 7693" d="M562.558-666.992A3.856,3.856,0,0,0,559.194-668l-.038.009c-.227.057-5.549,1.453-6.252,5.77-.465,2.841.03,5.447,1.324,6.968a4.087,4.087,0,0,0,3.207,1.462h0c3.5,0,7.187-1.8,7.466-5.228C565.079-661.181,564.6-665.089,562.558-666.992Zm1.5,7.9c-.236,2.918-3.511,4.446-6.622,4.45h0a3.225,3.225,0,0,1-2.563-1.164c-1.135-1.335-1.56-3.685-1.135-6.284.6-3.649,5.275-4.992,5.608-5.081a3.049,3.049,0,0,1,2.638.795C563.791-664.688,564.216-661.012,564.061-659.088Z" transform="translate(-552.732 668.056)" fill="#303081"/>
          </g>
          <g id="Group_5411" data-name="Group 5411" transform="translate(4.271 40.846)">
            <path id="Path_7694" data-name="Path 7694" d="M559.411-658.724c-.527-.047-1.046-.068-1.547-.068-2.433,0-4.457.521-4.9,1.335a8.691,8.691,0,0,0-.189,6.847,5.057,5.057,0,0,0,3.558,3c2.89.731,5.846-1.086,7.5-2.867,1.694-1.823,2.478-3.934,2-5.372S562.828-658.422,559.411-658.724Z" transform="translate(-551.719 659.318)" fill="#f5a666" opacity="0.6"/>
            <path id="Path_7695" data-name="Path 7695" d="M566.482-655.687c-.682-2.04-3.951-3.033-6.781-3.284-2.854-.251-6.093.157-6.9,1.634a9.123,9.123,0,0,0-.212,7.2,5.655,5.655,0,0,0,3.923,3.309,6.175,6.175,0,0,0,1.511.187,9.214,9.214,0,0,0,6.391-3.135C566.248-651.751,567.041-654.017,566.482-655.687Zm-2.686,5.336c-1.558,1.679-4.348,3.392-7.073,2.7a4.77,4.77,0,0,1-3.356-2.826,8.2,8.2,0,0,1,.178-6.458c.417-.767,2.325-1.26,4.62-1.26.474,0,.963.021,1.46.066,3.222.283,5.6,1.345,6.052,2.707S565.394-652.072,563.8-650.351Z" transform="translate(-551.954 659.039)" fill="#303081"/>
          </g>
          <g id="Group_5412" data-name="Group 5412" transform="translate(6.339 55.705)">
            <path id="Path_7696" data-name="Path 7696" d="M559.38-651.146a7.452,7.452,0,0,0-5.632-.206c-.334,1.061-1.76,6.191,1.479,7.655,2.219,1,4.822-.038,6.3-1.43,1.071-1.007,1.547-2.132,1.243-2.935A6.328,6.328,0,0,0,559.38-651.146Z" transform="translate(-552.676 652.317)" fill="#f5a666" opacity="0.6"/>
            <path id="Path_7697" data-name="Path 7697" d="M563.432-648.053a6.585,6.585,0,0,0-3.577-3.315,7.678,7.678,0,0,0-6.019-.125.424.424,0,0,0-.236.249c-.1.261-2.276,6.461,1.749,8.28a5.125,5.125,0,0,0,2.121.451,6.968,6.968,0,0,0,4.607-1.921C563.337-645.62,563.845-646.973,563.432-648.053Zm-1.934,3c-1.36,1.279-3.757,2.238-5.8,1.313-2.982-1.347-1.67-6.067-1.36-7.045a6.858,6.858,0,0,1,5.181.189,5.821,5.821,0,0,1,3.122,2.839C562.922-647.014,562.485-645.979,561.5-645.05Z" transform="translate(-552.926 652.048)" fill="#303081"/>
          </g>
        </g>
      </g>
      <g id="Group_5433" data-name="Group 5433" transform="translate(0 41.049)">
        <g id="Group_5415" data-name="Group 5415" transform="translate(57.944)">
          <path id="Path_7698" data-name="Path 7698" d="M547.455-643.621s-10.647-14.645-27.682-20.5c-5.375-1.847-20.793-2.223-22.3.614s-3.8,12.857,19.762,11.472C517.239-652.034,531.688-637.715,547.455-643.621Z" transform="translate(-496.181 666.003)" fill="#ffd499"/>
          <path id="Path_7699" data-name="Path 7699" d="M497.341-662.167c1.5-2.837,16.923-2.461,22.3-.614,14.328,4.926,24.135,16.066,26.892,19.483.308-.1.616-.206.924-.323,0,0-10.647-14.645-27.682-20.5-5.375-1.847-20.793-2.223-22.3.614a7.743,7.743,0,0,0-.867,3.453A7.767,7.767,0,0,1,497.341-662.167Z" transform="translate(-496.181 666.003)" fill="#fff"/>
          <path id="Path_7700" data-name="Path 7700" d="M541.743-649.418s-4.123-3.5-7.141-5.73-11.436-5.264-12.538-6c-2.4-1.609-10.318,3.517-16.791,3.509A9.829,9.829,0,0,1,496.61-663c-.051,3.908,3.249,9.041,20.4,8.082.036-.013,1.475-.489,4.367-1.69,2.929-1.218,4.338-.38,8.371.761s11.11,6.427,11.11,6.427Z" transform="translate(-496.181 668.898)" fill="#f5a666"/>
          <path id="Path_7701" data-name="Path 7701" d="M539.844-641.555c-11.682,0-21.279-8.635-22.535-9.816-10.713.606-17.4-1.05-19.889-4.922-2.032-3.162-.431-6.537-.089-7.181,1.724-3.254,17.6-2.605,22.807-.816,16.965,5.832,27.78,20.5,27.886,20.65a.418.418,0,0,1,.064.37.418.418,0,0,1-.257.274A22.57,22.57,0,0,1,539.844-641.555Zm-22.378-10.673a.419.419,0,0,1,.3.123c.142.138,14.111,13.733,29.232,8.511-1.957-2.5-12.1-14.73-27.132-19.9-5.653-1.942-20.5-2.006-21.787.412-.3.572-1.724,3.564.055,6.329,1.6,2.489,6.246,5.292,19.311,4.525Z" transform="translate(-496.408 665.774)" fill="#303081"/>
        </g>
        <path id="Path_7702" data-name="Path 7702" d="M496.627-661.938a13.207,13.207,0,0,0,4.607.591c6.679-.162,10.855-1.407,12.439-3.7-8.741-.81-15.607-.183-16.46,1.526A8.56,8.56,0,0,0,496.627-661.938Z" transform="translate(-438.218 666.197)" fill="#f5a666" opacity="0.6"/>
        <g id="Group_5416" data-name="Group 5416" transform="translate(58.143 0.229)">
          <path id="Path_7703" data-name="Path 7703" d="M501.235-660.465a12.621,12.621,0,0,1-4.461-.7.421.421,0,0,1-.261-.489,8.141,8.141,0,0,1,.712-1.942h0c1.575-2.973,14.168-1.943,16.678-1.706a.423.423,0,0,1,.327.214.424.424,0,0,1,.013.391c-1.3,2.68-5.4,4.061-12.545,4.225C501.543-660.467,501.388-660.465,501.235-660.465Zm-3.8-1.362a12.956,12.956,0,0,0,4.248.51c6.161-.14,10.014-1.216,11.474-3.2-8.063-.7-14.4-.159-15.182,1.32A7.276,7.276,0,0,0,497.431-661.827Z" transform="translate(-496.502 665.666)" fill="#303081"/>
        </g>
        <g id="Group_5417" data-name="Group 5417" transform="translate(99.886 18.843)">
          <path id="Path_7704" data-name="Path 7704" d="M528.253-640.921s4.014-6.218,2.019-11.323-10.131-4.737-13.448-4.116S528.253-640.921,528.253-640.921Z" transform="translate(-515.925 657.13)" fill="#f5a666"/>
          <path id="Path_7705" data-name="Path 7705" d="M528.472-640.275a.428.428,0,0,1-.3-.123c-2.138-2.149-12.766-13-11.988-15.5a.952.952,0,0,1,.782-.655c3.931-.737,11.9-.771,13.918,4.376,2.053,5.247-1.887,11.446-2.057,11.708a.414.414,0,0,1-.31.191Zm-7.438-15.794a21.846,21.846,0,0,0-3.912.349c-.113.021-.121.051-.13.074-.408,1.313,5.411,8.205,11.4,14.262.848-1.5,3.3-6.416,1.708-10.483C528.808-655.162,524.655-656.069,521.034-656.069Z" transform="translate(-516.144 656.907)" fill="#303081"/>
        </g>
        <g id="Group_5419" data-name="Group 5419" transform="translate(0 11.257)">
          <path id="Path_7706" data-name="Path 7706" d="M480.566-630.058c-13.471,11.984-16.523,50.107.4,54.224s32.124-7.784,39.556-5.5,30.373,2.363,49.954-2.061a78.868,78.868,0,0,0,20.281-2.448c12.009-2.873,17.656-6.964,17.656-6.964s27.7-4.474,27.729-13.895-18.313-9.006-29.334-1.507c0,0-12.426-.933-22.329,3.351l-10.071-2.18s13.237-27.7,8.314-34.917-20.691-18.629-27.933-18.313-26.344,15.652-27.814,17.943c-4.151,6.461,4.372,8.324,4.372,8.324l-2.4,3.761a21.836,21.836,0,0,0-10.362.829S494.039-642.04,480.566-630.058Z" transform="translate(-468.915 660.702)" fill="#ffd499"/>
          <g id="Group_5418" data-name="Group 5418" transform="translate(2.8 0.424)">
            <path id="Path_7707" data-name="Path 7707" d="M518.535-630l10.071,2.181c9.9-4.284,22.327-3.351,22.327-3.351,11.021-7.5,29.366-7.916,29.334,1.507a4.557,4.557,0,0,1-.049.638,5.07,5.07,0,0,0,.572-2.283c.03-9.423-18.313-9.006-29.334-1.507,0,0-12.426-.933-22.329,3.351l-9.854-2.134C518.813-630.583,518.535-630,518.535-630Z" transform="translate(-416.367 684.879)" fill="#fff"/>
            <path id="Path_7708" data-name="Path 7708" d="M478.791-641.679c13.471-11.982,38.015.644,38.015.644a21.825,21.825,0,0,1,10.36-.829l2.4-3.762s-.172-.038-.451-.119l-1.424,2.236a21.834,21.834,0,0,0-10.362.829s-24.542-12.626-38.015-.644c-3.9,3.473-6.93,9.142-8.851,15.541C472.388-633.5,475.225-638.507,478.791-641.679Z" transform="translate(-470.46 673.544)" fill="#fff"/>
            <path id="Path_7709" data-name="Path 7709" d="M496.516-640.684c1.471-2.291,20.572-17.626,27.814-17.943s23.011,11.1,27.935,18.313c2.119,3.107.871,10.014-1.237,16.872,2.408-7.372,4.048-15.161,1.758-18.517-4.922-7.213-20.691-18.629-27.933-18.313s-26.344,15.652-27.814,17.943a6.791,6.791,0,0,0-1.092,2.675A9.105,9.105,0,0,1,496.516-640.684Z" transform="translate(-441.784 660.278)" fill="#fff"/>
          </g>
          <path id="Path_7710" data-name="Path 7710" d="M497.979-638.725s8.409.3,12.379-3.953,5.94-13.835,5.94-13.835,1.721,1.838.5,7.478,4.048,8.635,8.318,8.99,8.36-2.633,8.36-2.633-.2,2.79-4.909,5.727-3.5,16.387-3.5,16.387a19.873,19.873,0,0,1-1.473-8.6,25.344,25.344,0,0,1,2.17-8.752,9.62,9.62,0,0,1-7.442-2.654c-3.1-3.179-4.085-4.331-4.085-4.331S512.235-636.188,497.979-638.725Z" transform="translate(-436.697 664.938)" fill="#f5a666"/>
          <path id="Path_7711" data-name="Path 7711" d="M499.6-639.642s2.739,1.214,5.428-2.185,9.689-1.764,9.689-1.764,2.259-2.941,2.2-2.96-3.9-3.273-4.168-4.053-.665-.3-.665-.3-1.934,4.975-6.45,5.666-4.11.8-4.11.8Z" transform="translate(-434.871 671.083)" fill="#f5a666"/>
          <path id="Path_7712" data-name="Path 7712" d="M481.083-620.709a9.6,9.6,0,0,0,8.22-2.7c3.385-3.615,1.819-9.374,4-14.6s5.221-5.328,8.063-5.024c0,0-4.463,1.269-3.855,7.2s1.32,11.618-.2,15.728,3.181,12.022,12.808,10.005a11.885,11.885,0,0,1-9.017-.189c-4.567-2.132-8.12-7.16-7.243-11.238l.965-2.918S489.188-617.944,481.083-620.709Z" transform="translate(-455.708 679.997)" fill="#f5a666"/>
          <path id="Path_7713" data-name="Path 7713" d="M635.962-633.848a6.117,6.117,0,0,0-.423-2.308c1.437,8.375-19.577,12.32-23.585,12.726s-7.077-7.111-7.952-7.124,1.2,5.855,1.256,9.357-11.363,5.732-22.607,6.949-10.775-1.218-10.775-1.218-13.495,5.328-23.03,5.632-26.839-2.589-35.514-6.9-12.075,7.859-31.555,6.033c-6.775-.635-10.413-4.546-12.277-9.376,1.037,8.533,4.6,15.469,11.287,17.1,16.919,4.116,32.124-7.784,39.556-5.5s30.373,2.363,49.954-2.061a78.869,78.869,0,0,0,20.281-2.448c12.009-2.873,17.656-6.964,17.656-6.964S635.933-624.427,635.962-633.848Z" transform="translate(-468.741 687.843)" fill="#f5a666"/>
          <path id="Path_7714" data-name="Path 7714" d="M506.727-655.464a1.093,1.093,0,0,0-1.148.255c-1.877,1.645-8.112,6.176-8.839,7.289-.744,1.137-.508,1.991.64,1.254,1.832-1.177,3.853-2.081,5.57-3.419.863-.672,1.951-1.182,2.784-1.887a3.534,3.534,0,0,0,1.67-2.544A1.048,1.048,0,0,0,506.727-655.464Z" transform="translate(-438.57 666.041)" fill="#f5a666" opacity="0.6"/>
          <path id="Path_7715" data-name="Path 7715" d="M501.361-641.406a19.512,19.512,0,0,0,2.827-6.135,1.691,1.691,0,0,0-.066-.191,15.508,15.508,0,0,1-3.821-.183,19.428,19.428,0,0,0-3.249,5.528C496.191-639.686,500.224-639.637,501.361-641.406Z" transform="translate(-437.875 674.612)" fill="#f5a666" opacity="0.6"/>
          <path id="Path_7716" data-name="Path 7716" d="M488.65-574.314a31.869,31.869,0,0,1-7.561-.886c-5.264-1.282-9-5.787-10.8-13.03-3.5-14.062,1.373-34.043,10.228-41.919h0c5.613-4.994,14.06-6.469,24.429-4.27a63.752,63.752,0,0,1,13.894,4.769,22.1,22.1,0,0,1,10.129-.833l1.936-3.039c-1.22-.366-4.012-1.432-4.954-3.709-.621-1.5-.319-3.215.893-5.1,1.558-2.425,20.644-17.809,28.152-18.138,7.719-.34,23.5,11.459,28.3,18.5,4.7,6.886-6.254,31-8.054,34.853l9.419,2.04c9.278-3.964,20.814-3.426,22.252-3.341,8.057-5.419,19.985-7.251,26.123-3.993a6.458,6.458,0,0,1,3.753,5.934c-.032,9.478-25.893,13.947-27.989,14.294-.767.534-6.405,4.265-17.722,6.973a81.064,81.064,0,0,1-20.34,2.463c-20.276,4.571-42.848,4.272-50.118,2.042-2.926-.9-7.33.572-12.43,2.276C502.538-576.545,495.859-574.314,488.65-574.314Zm-7.576-55.2c-8.656,7.7-13.408,27.281-9.969,41.084,1.2,4.824,3.944,10.894,10.184,12.411,9.842,2.395,19.152-.714,26.633-3.211,5.239-1.751,9.761-3.262,12.946-2.285,7.017,2.155,29.882,2.418,49.737-2.07a.423.423,0,0,1,.115-.01,79.3,79.3,0,0,0,20.159-2.437c11.773-2.816,17.45-6.854,17.507-6.894a.4.4,0,0,1,.181-.076c.272-.042,27.345-4.52,27.374-13.478a5.59,5.59,0,0,0-3.3-5.181c-5.821-3.092-17.675-1.211-25.37,4.025a.405.405,0,0,1-.268.072c-.123-.009-12.438-.874-22.129,3.317a.412.412,0,0,1-.257.026l-10.071-2.18a.422.422,0,0,1-.291-.227.428.428,0,0,1,0-.368c.132-.274,13.078-27.563,8.348-34.5-5.06-7.413-20.737-18.417-27.566-18.128-7.274.317-26.188,15.741-27.478,17.749-1.054,1.641-1.33,3.094-.825,4.321,1.022,2.476,4.892,3.354,4.93,3.362a.422.422,0,0,1,.3.251.421.421,0,0,1-.034.389l-2.4,3.761a.427.427,0,0,1-.438.189,21.558,21.558,0,0,0-10.137.81.417.417,0,0,1-.338-.021c-.242-.123-24.442-12.354-37.541-.7Z" transform="translate(-469.143 660.477)" fill="#303081"/>
        </g>
        <g id="Group_5420" data-name="Group 5420" transform="translate(56.858 21.011)">
          <path id="Path_7717" data-name="Path 7717" d="M496.4-645.352a.9.9,0,0,1-.176-.015.425.425,0,0,1-.31-.512.424.424,0,0,1,.48-.317c.07.009,1.226,0,4.835-2.463.612-.419,1.224-.816,1.811-1.2,2.144-1.392,4.167-2.71,4.248-3.87a1.823,1.823,0,0,0-.816-1.418.424.424,0,0,1-.045-.6.424.424,0,0,1,.6-.043,2.577,2.577,0,0,1,1.1,2.117c-.106,1.581-2.1,2.878-4.629,4.52-.582.378-1.188.771-1.794,1.186C498.287-645.628,496.874-645.352,496.4-645.352Z" transform="translate(-495.897 655.888)" fill="#303081"/>
        </g>
        <g id="Group_5421" data-name="Group 5421" transform="translate(147.503 58.118)">
          <path id="Path_7718" data-name="Path 7718" d="M549.334-635.753c.215,1.7-1.979,3.368-4.9,3.738s-5.46-.7-5.674-2.4,1.979-3.37,4.9-3.74S549.12-637.449,549.334-635.753Z" transform="translate(-538.327 638.651)" fill="#ff7320"/>
          <path id="Path_7719" data-name="Path 7719" d="M543.518-631.293a7.443,7.443,0,0,1-2.871-.533,3.057,3.057,0,0,1-2.078-2.31c-.249-1.957,2.064-3.808,5.262-4.212s5.9.81,6.146,2.767h0a3.064,3.064,0,0,1-1.437,2.756,8.056,8.056,0,0,1-3.825,1.456A9.507,9.507,0,0,1,543.518-631.293Zm1.488-6.286a8.733,8.733,0,0,0-1.069.068c-2.637.336-4.712,1.832-4.529,3.268a2.27,2.27,0,0,0,1.569,1.639,7.186,7.186,0,0,0,3.632.4,7.189,7.189,0,0,0,3.419-1.29,2.263,2.263,0,0,0,1.109-1.976C548.982-636.714,547.188-637.579,545.006-637.579Z" transform="translate(-538.55 638.427)" fill="#303081"/>
        </g>
        <g id="Group_5422" data-name="Group 5422" transform="translate(37.593 42.122)">
          <path id="Path_7720" data-name="Path 7720" d="M499.568-605.706a13.633,13.633,0,0,1-9.691-4.437c-2.595-2.78-3.636-6.069-2.716-8.584,1.762-4.811,1.713-7.491,1.615-12.83-.013-.68-.026-1.4-.036-2.176a6.349,6.349,0,0,1,1.845-5.043,6.71,6.71,0,0,1,4.862-1.458.421.421,0,0,1,.37.468.424.424,0,0,1-.467.372,5.95,5.95,0,0,0-4.2,1.25,5.568,5.568,0,0,0-1.56,4.4c.011.771.023,1.492.036,2.172.1,5.272.151,8.176-1.666,13.136-.8,2.18.2,5.209,2.54,7.714,2.576,2.756,7.1,5.185,12.094,3.734,3.657-1.063,6.688-6.881,7.372-14.151.793-8.441-1.745-19.182-11.248-24.015a.423.423,0,0,1-.185-.569.422.422,0,0,1,.567-.185c9.882,5.026,12.528,16.13,11.708,24.848-.714,7.606-4,13.728-7.978,14.887A11.644,11.644,0,0,1,499.568-605.706Z" transform="translate(-486.832 645.954)" fill="#303081"/>
        </g>
        <g id="Group_5423" data-name="Group 5423" transform="translate(24.999 65.951)">
          <path id="Path_7721" data-name="Path 7721" d="M485.369-628.965a10.775,10.775,0,0,1-4.223-.795.423.423,0,0,1-.2-.563.426.426,0,0,1,.565-.2c.281.134,6.979,3.2,13.607-4.08a.423.423,0,0,1,.6-.028.423.423,0,0,1,.028.6C492.015-629.938,488.174-628.965,485.369-628.965Z" transform="translate(-480.906 634.741)" fill="#303081"/>
        </g>
        <g id="Group_5424" data-name="Group 5424" transform="translate(60.851 54.436)">
          <path id="Path_7722" data-name="Path 7722" d="M525.971-638.238c-13.841-5.687-20.34,2.907-21.4,4.5a.419.419,0,0,1-.2.155,10.9,10.9,0,0,0-6.6,6.1l.011.074a.2.2,0,0,1,.064.155c0,.068-.006.136-.006.2.026.134.053.268.085.4a5.069,5.069,0,0,1,.2.661c.574-2.176,2.206-5.26,6.8-6.894a.425.425,0,0,0,.227-.189c.247-.434,6.078-10.339,20.51-4.385a.414.414,0,0,0,.557-.487l0-.011A.427.427,0,0,0,525.971-638.238Z" transform="translate(-497.776 640.159)" fill="#303081"/>
        </g>
        <g id="Group_5425" data-name="Group 5425" transform="translate(62.003 18.74)">
          <path id="Path_7723" data-name="Path 7723" d="M500.473-637.255c-1.014,0-1.681-.057-1.772-.066a.42.42,0,0,1-.38-.459.422.422,0,0,1,.459-.383c.077.006,7.785.667,12.071-2.807s4.72-15.456,4.724-15.577a.426.426,0,0,1,.438-.408.423.423,0,0,1,.408.436c-.017.508-.463,12.5-5.037,16.207C508.092-637.647,503.11-637.255,500.473-637.255Z" transform="translate(-498.318 656.956)" fill="#303081"/>
        </g>
        <g id="Group_5426" data-name="Group 5426" transform="translate(77.544 31.33)">
          <path id="Path_7724" data-name="Path 7724" d="M516.184-643.613c-3.6,0-7.119-2.267-10.468-6.741a.424.424,0,0,1,.085-.593.421.421,0,0,1,.591.085c3.241,4.327,6.59,6.478,9.978,6.4,4.9-.117,8.235-4.956,8.267-5a.426.426,0,0,1,.589-.115.425.425,0,0,1,.113.589c-.147.213-3.615,5.249-8.949,5.377Z" transform="translate(-505.631 651.032)" fill="#303081"/>
        </g>
        <g id="Group_5427" data-name="Group 5427" transform="translate(83.548 62.964)">
          <path id="Path_7725" data-name="Path 7725" d="M508.879-628.517a.424.424,0,0,1-.193-.049.421.421,0,0,1-.183-.568c.057-.11,5.863-10.951,22.03-5.464a.423.423,0,0,1,.264.538.422.422,0,0,1-.536.264c-15.454-5.245-20.786,4.626-21.005,5.049A.427.427,0,0,1,508.879-628.517Z" transform="translate(-508.456 636.146)" fill="#303081"/>
        </g>
        <g id="Group_5428" data-name="Group 5428" transform="translate(86.346 38.013)">
          <path id="Path_7726" data-name="Path 7726" d="M517.868-622.878c-5.328-5.016-7.755-10.675-7.211-16.823a18.851,18.851,0,0,1,2.433-7.793.418.418,0,0,0,.025-.393h-.776c-.606,1-7.8,13.625,4.948,25.623a.421.421,0,0,0,.291.117.423.423,0,0,0,.308-.134A.423.423,0,0,0,517.868-622.878Z" transform="translate(-509.773 647.887)" fill="#303081"/>
        </g>
        <g id="Group_5429" data-name="Group 5429" transform="translate(58.743 35.544)">
          <path id="Path_7727" data-name="Path 7727" d="M520.082-648.507a5.881,5.881,0,0,1-.364-.542c-.406.672-8.039,13.153-14.513,13.661-3.3.261-5.851-.689-7-2.6a4.361,4.361,0,0,1,.221-4.658.423.423,0,0,0-.13-.582.422.422,0,0,0-.584.128,5.187,5.187,0,0,0-.232,5.549c1.182,1.97,3.585,3.056,6.682,3.056q.542,0,1.109-.045c6.516-.512,13.678-11.644,14.989-13.769A1.919,1.919,0,0,1,520.082-648.507Z" transform="translate(-496.784 649.049)" fill="#303081"/>
        </g>
        <g id="Group_5430" data-name="Group 5430" transform="translate(58.791 37.469)">
          <path id="Path_7728" data-name="Path 7728" d="M498.9-639.453a3.251,3.251,0,0,1-1.938-.663.42.42,0,0,1-.055-.595.423.423,0,0,1,.593-.057,2.425,2.425,0,0,0,1.653.457,3.311,3.311,0,0,0,2.144-1.456,19.045,19.045,0,0,0,2.973-6.057.424.424,0,0,1,.514-.306.423.423,0,0,1,.3.514,19.551,19.551,0,0,1-3.12,6.361,4.081,4.081,0,0,1-2.731,1.783A2.636,2.636,0,0,1,498.9-639.453Z" transform="translate(-496.807 648.143)" fill="#303081"/>
        </g>
        <g id="Group_5431" data-name="Group 5431" transform="translate(135.253 63.323)">
          <path id="Path_7729" data-name="Path 7729" d="M536.212-622.556a.418.418,0,0,1-.344-.179c-.261-.37-6.324-9.1-.7-13.163a.424.424,0,0,1,.591.1.422.422,0,0,1-.1.589c-4.96,3.579.831,11.907.89,11.992a.422.422,0,0,1-.1.589A.415.415,0,0,1,536.212-622.556Z" transform="translate(-532.786 635.978)" fill="#303081"/>
        </g>
        <g id="Group_5432" data-name="Group 5432" transform="translate(111.133 66.674)">
          <path id="Path_7730" data-name="Path 7730" d="M521.969-623.7a.424.424,0,0,1-.417-.359c-.047-.3-1.09-7.483,4.11-10.288a.422.422,0,0,1,.572.17.421.421,0,0,1-.17.574c-4.671,2.52-3.687,9.346-3.677,9.415a.423.423,0,0,1-.353.482A.356.356,0,0,1,521.969-623.7Z" transform="translate(-521.437 634.401)" fill="#303081"/>
        </g>
      </g>
    </g>
  </g>
</svg>
