<svg xmlns="http://www.w3.org/2000/svg" width="250.989" height="91.019" viewBox="0 0 250.989 91.019">
  <path id="Path_7831" data-name="Path 7831" d="M2221.587,412.7H2002.523a15.98,15.98,0,0,1-15.972-15.954V337.651a15.99,15.99,0,0,1,15.972-15.972h219.064a15.982,15.982,0,0,1,15.953,15.972v59.093A15.972,15.972,0,0,1,2221.587,412.7ZM2002.523,323.71a13.956,13.956,0,0,0-13.941,13.941v59.093a13.946,13.946,0,0,0,13.941,13.921h219.064a13.935,13.935,0,0,0,13.919-13.921V337.651a13.944,13.944,0,0,0-13.919-13.941Z" transform="translate(-1986.551 -321.679)" fill="#dce0e3"/>
</svg>
