<svg xmlns="http://www.w3.org/2000/svg" width="74.053" height="74.053" viewBox="0 0 74.053 74.053">
  <g id="Group_11619" data-name="Group 11619" transform="translate(-48 -441.471)">
    <rect id="Rectangle_2291" data-name="Rectangle 2291" width="74.053" height="74.053" rx="7.908" transform="translate(48 441.471)" fill="#f4f4f4" opacity="0.5"/>
    <g id="Group_5351" data-name="Group 5351" transform="translate(53.037 446.966)">
      <rect id="Rectangle_2297" data-name="Rectangle 2297" width="3.881" height="3.881" transform="translate(52.076 1.7)" fill="#3968ff"/>
      <path id="Path_7597" data-name="Path 7597" d="M741.386-870.526l-3.055,5.291h6.11Z" transform="translate(-736.521 872.821)" fill="#3968ff"/>
      <circle id="Ellipse_175" data-name="Ellipse 175" cx="2.139" cy="2.139" r="2.139" transform="translate(55.044 57.046)" fill="#3968ff"/>
      <rect id="Rectangle_2298" data-name="Rectangle 2298" width="1.84" height="0.698" transform="translate(0 40.002) rotate(-45)" fill="#333"/>
      <rect id="Rectangle_2299" data-name="Rectangle 2299" width="1.84" height="0.698" transform="translate(2.4 37.602) rotate(-45)" fill="#333"/>
      <rect id="Rectangle_2300" data-name="Rectangle 2300" width="0.698" height="1.84" transform="translate(2.4 39.194) rotate(-45)" fill="#333"/>
      <rect id="Rectangle_2301" data-name="Rectangle 2301" width="0.698" height="1.84" transform="translate(0 36.794) rotate(-45)" fill="#333"/>
      <rect id="Rectangle_2302" data-name="Rectangle 2302" width="1.84" height="0.698" transform="translate(56.974 29.852) rotate(-45.001)" fill="#333"/>
      <rect id="Rectangle_2303" data-name="Rectangle 2303" width="1.84" height="0.698" transform="translate(59.374 27.452) rotate(-45.001)" fill="#333"/>
      <rect id="Rectangle_2304" data-name="Rectangle 2304" width="0.698" height="1.84" transform="translate(59.374 29.045) rotate(-45)" fill="#333"/>
      <rect id="Rectangle_2305" data-name="Rectangle 2305" width="0.698" height="1.84" transform="translate(56.974 26.645) rotate(-45)" fill="#333"/>
      <rect id="Rectangle_2306" data-name="Rectangle 2306" width="1.84" height="0.698" transform="translate(26.108 3.941) rotate(-45)" fill="#333"/>
      <rect id="Rectangle_2307" data-name="Rectangle 2307" width="1.84" height="0.698" transform="translate(28.508 1.541) rotate(-45)" fill="#333"/>
      <rect id="Rectangle_2308" data-name="Rectangle 2308" width="0.698" height="1.84" transform="matrix(0.707, -0.707, 0.707, 0.707, 28.509, 3.133)" fill="#333"/>
      <rect id="Rectangle_2309" data-name="Rectangle 2309" width="0.698" height="1.84" transform="translate(26.108 0.733) rotate(-45)" fill="#333"/>
      <rect id="Rectangle_2310" data-name="Rectangle 2310" width="0.698" height="4.552" transform="translate(13.867 58.511)" fill="#333"/>
      <rect id="Rectangle_2311" data-name="Rectangle 2311" width="4.552" height="0.698" transform="translate(11.94 60.438)" fill="#333"/>
      <path id="Path_7598" data-name="Path 7598" d="M771.824-867.257h-3.88a.349.349,0,0,1-.349-.349v-3.88a.349.349,0,0,1,.349-.349h3.88a.349.349,0,0,1,.349.349v3.88A.349.349,0,0,1,771.824-867.257Zm-3.532-.7h3.183v-3.183h-3.183Z" transform="translate(-714.495 871.835)" fill="#333"/>
      <path id="Path_7599" data-name="Path 7599" d="M745.375-865.506h-6.11a.351.351,0,0,1-.3-.175.353.353,0,0,1,0-.349l3.055-5.291a.353.353,0,0,1,.3-.173.349.349,0,0,1,.3.173l3.055,5.291a.345.345,0,0,1,0,.349A.347.347,0,0,1,745.375-865.506Zm-5.505-.7h4.9l-2.45-4.245Z" transform="translate(-736.081 872.091)" fill="#333"/>
      <path id="Path_7600" data-name="Path 7600" d="M771.777-835.281a2.49,2.49,0,0,1-2.489-2.487,2.492,2.492,0,0,1,2.489-2.489,2.49,2.49,0,0,1,2.487,2.489A2.488,2.488,0,0,1,771.777-835.281Zm0-4.278a1.8,1.8,0,0,0-1.791,1.791,1.793,1.793,0,0,0,1.791,1.789,1.791,1.791,0,0,0,1.79-1.789A1.793,1.793,0,0,0,771.777-839.56Z" transform="translate(-713.22 895.603)" fill="#333"/>
      <path id="Path_7601" data-name="Path 7601" d="M752.486-839.637l3.738-1,.025-.105c.061-.263.133-.526.21-.785l.03-.1-2.231-2.228-.051-.051-.014-.009a6.722,6.722,0,0,1-.882-.745,6.666,6.666,0,0,1-1.434-2.126,6.61,6.61,0,0,1-.524-2.6,6.618,6.618,0,0,1,.524-2.6,6.666,6.666,0,0,1,1.434-2.126,6.666,6.666,0,0,1,2.126-1.434,6.611,6.611,0,0,1,2.6-.524,6.613,6.613,0,0,1,2.6.524,6.663,6.663,0,0,1,2.126,1.434,6.585,6.585,0,0,1,.743.883l.01.012,2.279,2.282.1-.03c.258-.077.522-.149.785-.21l.1-.025,1-3.739h4.047l1.441-1.439-1.563-2.71-3.628.974a13.572,13.572,0,0,0-1.32-1.318l.974-3.628-2.71-1.565-2.652,2.655a13.3,13.3,0,0,0-1.805-.482l-.969-3.626h-3.129l-.969,3.626a13.3,13.3,0,0,0-1.805.482l-2.652-2.655-2.71,1.565.974,3.628a13.559,13.559,0,0,0-1.32,1.318l-3.628-.974-1.563,2.71,2.655,2.652a13.3,13.3,0,0,0-.482,1.805l-3.628.969v3.129l3.628.969a13.285,13.285,0,0,0,.482,1.805L742.8-842.4l1.563,2.71,3.628-.974a13.786,13.786,0,0,0,1.32,1.32l-.974,3.628,2.71,1.563,1.439-1.441Z" transform="translate(-734.252 876.168)" fill="#3968ff"/>
      <path id="Path_7602" data-name="Path 7602" d="M777.4-846.942l2.655-2.652L778.5-852.3l-3.628.974a13.571,13.571,0,0,0-1.32-1.318l.974-3.628-2.71-1.565-2.652,2.655a13.3,13.3,0,0,0-1.805-.482l-.969-3.626h-3.129l-.969,3.626a13.3,13.3,0,0,0-1.805.482l-2.652-2.655-2.71,1.565.974,3.628a13.365,13.365,0,0,0-1.318,1.318l-3.63-.974-1.563,2.71,2.655,2.652a13.279,13.279,0,0,0-.482,1.805l-3.628.969v3.129l3.628.969a13.292,13.292,0,0,0,.482,1.805l-2.655,2.652,1.563,2.71,3.63-.974a13.572,13.572,0,0,0,1.318,1.32l-.974,3.628,2.71,1.563,2.652-2.655a13.041,13.041,0,0,0,1.805.482l.969,3.628h3.129l.969-3.628a13.041,13.041,0,0,0,1.805-.482l2.652,2.655,2.71-1.563-.974-3.628a13.784,13.784,0,0,0,1.32-1.32l3.628.974,1.563-2.71-2.655-2.652a13.31,13.31,0,0,0,.482-1.805l3.628-.969v-3.129l-3.628-.969A13.3,13.3,0,0,0,777.4-846.942Zm-4.867,7.6a8.371,8.371,0,0,1-1.8,2.662,8.366,8.366,0,0,1-2.661,1.795,8.334,8.334,0,0,1-3.256.656,8.335,8.335,0,0,1-3.258-.656,8.364,8.364,0,0,1-2.661-1.795,8.371,8.371,0,0,1-1.8-2.662,8.375,8.375,0,0,1-.522-1.753,8.611,8.611,0,0,1-.133-1.5,8.338,8.338,0,0,1,.655-3.258,8.345,8.345,0,0,1,1.8-2.661,8.343,8.343,0,0,1,2.661-1.8,8.337,8.337,0,0,1,3.258-.656,8.44,8.44,0,0,1,1.5.135,8.364,8.364,0,0,1,1.753.521,8.345,8.345,0,0,1,2.661,1.8,8.345,8.345,0,0,1,1.8,2.661,8.338,8.338,0,0,1,.655,3.258A8.33,8.33,0,0,1,772.537-839.346Z" transform="translate(-729.145 881.275)" fill="#3968ff"/>
      <g id="Group_5350" data-name="Group 5350" transform="translate(7.522 8.266)">
        <path id="Path_7603" data-name="Path 7603" d="M787.744-840.075l-3.213-.859c-.081-.354-.173-.706-.282-1.052l2.352-2.35.38-.379-.268-.463-1.563-2.71-.268-.464-.519.14-3.213.862q-.371-.4-.768-.766l.862-3.214.14-.519-.464-.266-2.71-1.565-.463-.268-.379.38-2.35,2.352c-.345-.107-.7-.2-1.052-.282l-.841-3.15.142-.14,1.441-1.441.38-.379-.268-.463-1.563-2.71-.268-.464-.519.14-3.213.862q-.371-.4-.768-.766l.862-3.214.14-.519-.464-.266-2.71-1.565-.463-.268-.379.38-2.35,2.352c-.345-.107-.7-.2-1.052-.282l-.857-3.211-.138-.519h-4.2l-.139.519-.859,3.211c-.354.081-.706.175-1.052.282l-2.349-2.352-.379-.38-.465.268-2.709,1.565-.463.266.139.519.862,3.214q-.4.368-.766.766l-3.214-.862-.517-.14-.268.464-1.565,2.71-.266.463.379.379,2.352,2.35c-.107.345-.2.7-.281,1.052l-3.213.859-.519.137v4.2l.519.138,3.213.859c.079.354.173.706.281,1.052l-2.352,2.35-.379.379.266.463,1.565,2.71.268.464.517-.14,3.214-.862q.368.4.766.766l-.862,3.214-.139.517.463.268,2.709,1.565.465.266.379-.379,1.439-1.441.142-.142,3.15.841c.079.354.173.706.28,1.052l-2.352,2.35-.379.379.266.463,1.565,2.71.268.464.517-.14,3.214-.862q.368.4.766.766l-.862,3.214-.138.517.463.268,2.71,1.565.464.268.379-.38,2.349-2.352c.345.107.7.2,1.052.282l.859,3.211.138.519h4.2l.138-.519.857-3.211c.354-.081.706-.175,1.052-.282l2.35,2.352.379.38.464-.268,2.708-1.565.464-.268-.14-.517-.862-3.214q.4-.368.768-.766l3.213.862.519.14.268-.464,1.563-2.71.268-.463-.38-.379-2.352-2.35c.109-.345.2-.7.282-1.052l3.213-.859.517-.137v-4.2Zm-34.316.095v4.047l-1.439,1.441-2.71-1.563.975-3.63A13.355,13.355,0,0,1,748.935-841l-3.628.974-1.565-2.71,2.655-2.652a13.3,13.3,0,0,1-.482-1.805l-3.626-.969v-3.129l3.626-.969a13.3,13.3,0,0,1,.482-1.805l-2.655-2.652,1.565-2.71,3.628.974a13.573,13.573,0,0,1,1.318-1.32l-.975-3.628,2.71-1.563,2.652,2.655a13.279,13.279,0,0,1,1.805-.482l.969-3.628h3.128l.969,3.628a13.281,13.281,0,0,1,1.805.482l2.652-2.655,2.71,1.563-.975,3.628a13.785,13.785,0,0,1,1.32,1.32l3.628-.974,1.563,2.71-1.441,1.439H768.73l-1,3.739-.105.024c-.263.061-.526.133-.785.21l-.1.03-2.28-2.282-.009-.014a6.713,6.713,0,0,0-.745-.882,6.664,6.664,0,0,0-2.126-1.434,6.609,6.609,0,0,0-2.6-.524,6.617,6.617,0,0,0-2.6.524,6.662,6.662,0,0,0-2.126,1.434,6.663,6.663,0,0,0-1.434,2.126,6.609,6.609,0,0,0-.524,2.6,6.617,6.617,0,0,0,.524,2.6A6.666,6.666,0,0,0,754.253-845a6.592,6.592,0,0,0,.883.743l.012.01.053.051,2.229,2.228-.03.1c-.077.258-.147.522-.21.785l-.025.1Zm7.07-11.349.862,3.214q-.4.368-.766.766l-3.214-.862-.517-.14-.268.464-1.544,2.675q-.158-.137-.305-.284a5.993,5.993,0,0,1-1.285-1.905,5.952,5.952,0,0,1-.468-2.329,5.951,5.951,0,0,1,.468-2.328,6,6,0,0,1,1.285-1.905,6.014,6.014,0,0,1,1.905-1.285,5.953,5.953,0,0,1,2.329-.468,5.95,5.95,0,0,1,2.328.468,5.993,5.993,0,0,1,1.905,1.285q.147.147.284.3l-2.675,1.544-.463.266Zm27.065,15.056-3.628.969a13.035,13.035,0,0,1-.482,1.805l2.655,2.652-1.563,2.71-3.628-.975a13.8,13.8,0,0,1-1.32,1.32l.974,3.628-2.71,1.563-2.652-2.655a13.3,13.3,0,0,1-1.805.482l-.969,3.628h-3.129l-.969-3.628a13.3,13.3,0,0,1-1.805-.482l-2.652,2.655-2.71-1.563.974-3.628a13.574,13.574,0,0,1-1.318-1.32l-3.628.975-1.565-2.71,2.655-2.652a13.279,13.279,0,0,1-.482-1.805l-3.626-.969V-839.4l3.626-.969a13.285,13.285,0,0,1,.482-1.805l-2.655-2.652,1.565-2.71,3.628.975a13.574,13.574,0,0,1,1.318-1.32l-.974-3.628,2.71-1.563,2.652,2.655a13.3,13.3,0,0,1,1.805-.482l.969-3.628h3.129l.969,3.628a13.3,13.3,0,0,1,1.805.482l2.652-2.655,2.71,1.563-.974,3.628a13.8,13.8,0,0,1,1.32,1.32l3.628-.975,1.563,2.71-2.655,2.652a13.041,13.041,0,0,1,.482,1.805l3.628.969Z" transform="translate(-741.59 867.119)" fill="#333"/>
        <path id="Path_7604" data-name="Path 7604" d="M767.811-852.736a8.375,8.375,0,0,0-2.662-1.8,8.371,8.371,0,0,0-1.753-.522,8.613,8.613,0,0,0-1.5-.133,8.335,8.335,0,0,0-3.258.656,8.347,8.347,0,0,0-2.661,1.8,8.345,8.345,0,0,0-1.8,2.661,8.331,8.331,0,0,0-.656,3.256,8.455,8.455,0,0,0,.135,1.505,8.355,8.355,0,0,0,.521,1.753,8.344,8.344,0,0,0,1.8,2.661,8.347,8.347,0,0,0,2.661,1.8,8.335,8.335,0,0,0,3.258.656,8.327,8.327,0,0,0,3.257-.656,8.375,8.375,0,0,0,2.662-1.8,8.371,8.371,0,0,0,1.795-2.661,8.335,8.335,0,0,0,.656-3.258,8.333,8.333,0,0,0-.656-3.256A8.372,8.372,0,0,0,767.811-852.736Zm1.151,8.9a7.636,7.636,0,0,1-1.646,2.44,7.638,7.638,0,0,1-2.44,1.646,7.608,7.608,0,0,1-2.985.6,7.622,7.622,0,0,1-2.986-.6,7.638,7.638,0,0,1-2.44-1.646,7.634,7.634,0,0,1-1.646-2.44,7.655,7.655,0,0,1-.479-1.605,7.894,7.894,0,0,1-.123-1.381,7.606,7.606,0,0,1,.6-2.985,7.636,7.636,0,0,1,1.646-2.44,7.638,7.638,0,0,1,2.44-1.646,7.622,7.622,0,0,1,2.986-.6,7.889,7.889,0,0,1,1.379.123,7.654,7.654,0,0,1,1.605.478,7.638,7.638,0,0,1,2.44,1.646,7.638,7.638,0,0,1,1.646,2.44,7.606,7.606,0,0,1,.6,2.985A7.608,7.608,0,0,1,768.962-843.832Z" transform="translate(-732.61 876.099)" fill="#333"/>
      </g>
    </g>
  </g>
</svg>
