<svg xmlns="http://www.w3.org/2000/svg" xmlns:xlink="http://www.w3.org/1999/xlink" width="272.239" height="200.588" viewBox="0 0 272.239 200.588">
  <defs>
    <clipPath id="clip-path">
      <ellipse id="Ellipse_168" data-name="Ellipse 168" cx="8.913" cy="8.913" rx="8.913" ry="8.913" transform="matrix(0.228, -0.974, 0.974, 0.228, 0, 17.354)" fill="#3968ff" stroke="#1a2e35" stroke-miterlimit="10" stroke-width="1"/>
    </clipPath>
    <clipPath id="clip-path-2">
      <circle id="Ellipse_171" data-name="Ellipse 171" cx="8.913" cy="8.913" r="8.913" transform="translate(0 12.604) rotate(-45)" fill="#3968ff" stroke="#1a2e35" stroke-miterlimit="10" stroke-width="1"/>
    </clipPath>
  </defs>
  <g id="Group_12463" data-name="Group 12463" transform="translate(-43.493 -244.85)">
    <g id="Group_12254" data-name="Group 12254">
      <path id="Path_7428" data-name="Path 7428" d="M921.526-327.458s-1.126,5.558-8.693,1.469a50.29,50.29,0,0,1-11.415-8.06,88.51,88.51,0,0,1-12.568-9.305l-5.181-2.184s.674,1.988,1.381,4.111c.633,1.927,1.287,3.983,1.483,4.758.411,1.636-3.215,5.322-4.468,6.138,0,0,1.933,3,0,5.594s-18.174.451-18.174.451-2.452.229-9-2.089c0,0-14.73,0-24.554-2.587a90.72,90.72,0,0,1-17.87-6.961s-6.341,1.577-11.193-1.1a99.942,99.942,0,0,0-11.449.336c-1.084.123-2.836.311-5.087.6-1.826.222-3.976.505-6.367.855l-5.7-38.245c8.841.154,17.155.256,18.821.135,7.473-.56,13.058.094,17.411,0,13.106-.3,45.713-4.664,52.262-4.253s12.17,7.776,12.17,7.776L893.7-357.949l14.94,14.326S917.225-330.532,921.526-327.458Z" transform="translate(-728.67 623.162)" fill="#fff"/>
      <path id="Path_7429" data-name="Path 7429" d="M881.537-345.744c.411,1.636-3.215,5.322-4.468,6.138,0,0,1.933,3,0,5.594s-18.174.451-18.174.451-2.452.229-9-2.089c0,0-14.73,0-24.554-2.587a90.719,90.719,0,0,1-17.87-6.961s-6.341,1.577-11.193-1.1a99.929,99.929,0,0,0-11.449.336c-1.084.123-2.836.311-5.087.6a24.112,24.112,0,0,1,9.657-3.247s-6.711-9.447-4.57-16.368c0,0,2.5,10.356,11.206,13.983s29.143-9.529,29.143-9.529,5.688,2.662,8,.708.425,3.606,2.191,5.768l.451-1.362c-.073.379-.667,3.679,1.044,4.415l.674-1.435s2.648,8.133,4.562,10.5,11.355,3.618,12.237,2.014c.863-1.577-3.645-22.228-3.773-22.815.208.256,3.5,4.408,3.807,6.556.311,2.217,3.213,15.836,3.983,17.292s6.124,2.276,8.072,0c0,0-3.341-20.027-3.382-21.819s2.365-.809,2.418,2.345,4.159,7.79,6.288,11.515S879.967-343.4,881.537-345.744Z" transform="translate(-723.674 632.237)" fill="#3968ff" opacity="0.4"/>
      <path id="Path_7430" data-name="Path 7430" d="M879.675-333.491s-1.126,5.558-8.693,1.469a50.291,50.291,0,0,1-11.415-8.06A88.509,88.509,0,0,1,847-349.387l-5.181-2.184s.674,1.988,1.381,4.111a9.716,9.716,0,0,0-.761-.715s-2.836-12.4-8.213-16.805a12.038,12.038,0,0,1-2.285-3.88c-.457-1.805,4.541,2.669,5.432,4.447s8.268,8.261,10.174,9.1,11.158,8.444,13.375,9.623S872.033-326.747,879.675-333.491Z" transform="translate(-686.819 629.195)" fill="#3968ff" opacity="0.4"/>
      <g id="Group_5268" data-name="Group 5268" transform="translate(44.002 245.341)">
        <path id="Path_7431" data-name="Path 7431" d="M772.671-373.674c8.838.152,17.153.253,18.817.13,7.476-.553,13.063.1,17.414,0,13.105-.3,45.714-4.659,52.262-4.249s12.165,7.775,12.165,7.775L893.7-357.948l14.935,14.322s8.594,13.1,12.891,16.164c0,0-1.119,5.565-8.691,1.473a50.5,50.5,0,0,1-11.413-8.058,88.48,88.48,0,0,1-12.565-9.305l-5.182-2.183s2.456,7.229,2.863,8.867-3.215,5.319-4.473,6.138c0,0,1.939,3,0,5.592s-18.17.452-18.17.452-2.454.229-9-2.089c0,0-14.732,0-24.553-2.592a90.444,90.444,0,0,1-17.868-6.957s-6.343,1.578-11.2-1.1a99.238,99.238,0,0,0-11.445.334c-1.964.213-6.119.672-11.457,1.457" transform="translate(-772.671 377.821)" fill="none" stroke="#1a2e35" stroke-linecap="round" stroke-linejoin="round" stroke-width="1"/>
        <path id="Path_7432" data-name="Path 7432" d="M831.658-370.092s-.026,1.5,1.747,4.229S839.924-357.256,842-351" transform="translate(-731 383.281)" fill="none" stroke="#1a2e35" stroke-linecap="round" stroke-linejoin="round" stroke-width="1"/>
        <path id="Path_7433" data-name="Path 7433" d="M830.355-364.976a29.871,29.871,0,0,0,0,5.164c.273,2.065,3.138,17.479,3.275,19.525s-.137,6.36-7.5,6.727" transform="translate(-734.907 386.895)" fill="none" stroke="#1a2e35" stroke-linecap="round" stroke-linejoin="round" stroke-width="1"/>
        <path id="Path_7434" data-name="Path 7434" d="M820.989-365.775a29.881,29.881,0,0,0,.954,5.406c.819,3.051,3.723,17.481,3.348,21.027s-4.438,4.258-4.438,4.258" transform="translate(-738.633 386.331)" fill="none" stroke="#1a2e35" stroke-linecap="round" stroke-linejoin="round" stroke-width="1"/>
        <path id="Path_7435" data-name="Path 7435" d="M799.909-352.537a25.97,25.97,0,0,0,15.466-5.333" transform="translate(-753.429 391.915)" fill="none" stroke="#1a2e35" stroke-linecap="round" stroke-linejoin="round" stroke-width="1"/>
        <path id="Path_7436" data-name="Path 7436" d="M807.663-360.18s.136,3.819,7.911,8.184" transform="translate(-747.951 390.283)" fill="none" stroke="#1a2e35" stroke-linecap="round" stroke-linejoin="round" stroke-width="1"/>
        <path id="Path_7437" data-name="Path 7437" d="M815.876-358.5s-4.229,4.229-3.546,7.092,3.546,5.592,3.546,5.592" transform="translate(-744.706 391.469)" fill="none" stroke="#1a2e35" stroke-linecap="round" stroke-linejoin="round" stroke-width="1"/>
        <path id="Path_7438" data-name="Path 7438" d="M811.272-356.783a23.857,23.857,0,0,0-1.688,3.5c-.546,1.568-1.858,6.659-.043,8.022s6.689,2.594,14.783,3.684" transform="translate(-747.28 392.683)" fill="none" stroke="#1a2e35" stroke-linecap="round" stroke-linejoin="round" stroke-width="1"/>
        <path id="Path_7439" data-name="Path 7439" d="M813.485-354.345a10.594,10.594,0,0,0-2.865,4.092" transform="translate(-745.862 394.406)" fill="none" stroke="#1a2e35" stroke-linecap="round" stroke-linejoin="round" stroke-width="1"/>
        <path id="Path_7440" data-name="Path 7440" d="M814.317-361.093a30.412,30.412,0,0,0-2.418,7.355" transform="translate(-744.958 389.638)" fill="none" stroke="#1a2e35" stroke-linecap="round" stroke-linejoin="round" stroke-width="1"/>
        <path id="Path_7441" data-name="Path 7441" d="M829.975-354.041s3.256,3.437,6.665,4.392" transform="translate(-732.188 394.62)" fill="none" stroke="#1a2e35" stroke-linecap="round" stroke-linejoin="round" stroke-width="1"/>
        <path id="Path_7442" data-name="Path 7442" d="M841.182-350.108s-3.669,1.637-10.646,0" transform="translate(-731.792 397.399)" fill="none" stroke="#1a2e35" stroke-linecap="round" stroke-linejoin="round" stroke-width="1"/>
        <path id="Path_7443" data-name="Path 7443" d="M807.663-353.781a16.752,16.752,0,0,0,3.384-3.438" transform="translate(-747.951 392.375)" fill="none" stroke="#1a2e35" stroke-linecap="round" stroke-linejoin="round" stroke-width="1"/>
        <path id="Path_7444" data-name="Path 7444" d="M821.731-376.167c5.455,1.5,6,2.729,6.957,6.957" transform="translate(-738.012 378.989)" fill="none" stroke="#1a2e35" stroke-linecap="round" stroke-linejoin="round" stroke-width="1"/>
        <path id="Path_7445" data-name="Path 7445" d="M813.316-372.73c5.085,1.229,4.949,3.138,5.766,5.321" transform="translate(-743.957 381.417)" fill="none" stroke="#1a2e35" stroke-linecap="round" stroke-linejoin="round" stroke-width="1"/>
        <path id="Path_7446" data-name="Path 7446" d="M840.755-356.692a16.727,16.727,0,0,1,1.092-2.246" transform="translate(-724.573 391.161)" fill="none" stroke="#1a2e35" stroke-linecap="round" stroke-linejoin="round" stroke-width="1"/>
        <path id="Path_7447" data-name="Path 7447" d="M848.118-351.756a5.558,5.558,0,0,0,2.714-1" transform="translate(-719.371 395.53)" fill="none" stroke="#1a2e35" stroke-linecap="round" stroke-linejoin="round" stroke-width="1"/>
        <path id="Path_7448" data-name="Path 7448" d="M782.724-363.857s1.5,10.126,9.138,13.8" transform="translate(-765.569 387.686)" fill="none" stroke="#1a2e35" stroke-linecap="round" stroke-linejoin="round" stroke-width="1"/>
      </g>
    </g>
    <g id="Group_12255" data-name="Group 12255">
      <g id="Group_5219" data-name="Group 5219" transform="translate(237.95 367.631)">
        <path id="Path_7334" data-name="Path 7334" d="M887.078-303.433l44.851-2.725s1.846,43.308,12.974,66.227l-49.52,7.09S888.145-270.082,887.078-303.433Z" transform="translate(-885.796 306.158)" fill="none" stroke="#1a2e35" stroke-linecap="round" stroke-linejoin="round" stroke-width="1"/>
        <path id="Path_7335" data-name="Path 7335" d="M886.327-302s-.14,29.4,6.524,70.214l47.45-4.77-.616-3.2" transform="translate(-886.327 309.095)" fill="none" stroke="#1a2e35" stroke-linecap="round" stroke-linejoin="round" stroke-width="1"/>
        <path id="Path_7336" data-name="Path 7336" d="M891.244-296.03s3.732-2.461,5.865-1.684,1.065,4,3.2,2.256,5.865-3.433,6.664-1.79,7.2,0,7.2,0,6.643-1.039,10.252-1.164" transform="translate(-882.853 311.63)" fill="none" stroke="#1a2e35" stroke-linecap="round" stroke-linejoin="round" stroke-width="1"/>
        <path id="Path_7337" data-name="Path 7337" d="M892.591-288.092a34.875,34.875,0,0,0,5.179-2.6,3.124,3.124,0,0,0-.1,2.159l2.287-1.239a1.038,1.038,0,0,0,1.169.879c.613-.113,1.2-.778,1.735-.456.152.092.258.256.423.324.265.108.553-.072.783-.241l2.36-1.741c-.05.756.747,1.338,1.5,1.386a6.306,6.306,0,0,0,2.2-.491c4.212-1.3,9.112.415,13-1.655" transform="translate(-881.902 316.327)" fill="none" stroke="#1a2e35" stroke-linecap="round" stroke-linejoin="round" stroke-width="1"/>
        <path id="Path_7338" data-name="Path 7338" d="M893.255-282.043a7.66,7.66,0,0,1,3.061-.845l.326,1.072a5.092,5.092,0,0,0,1.549-.657c.278.307.782.126,1.143-.073l4.182-2.293a12.857,12.857,0,0,0-.314,4.179q1.592-1.556,3.182-3.114c.2.718,1.278.785,1.86.319.21-.167.425-.4.693-.369s.326.543.06.5c.44-.5,1.241-.27,1.9-.171,2.058.306,3.925-1.109,5.894-1.785,2.346-.807,4.909-.556,7.377-.3" transform="translate(-881.433 320.521)" fill="none" stroke="#1a2e35" stroke-linecap="round" stroke-linejoin="round" stroke-width="1"/>
        <path id="Path_7339" data-name="Path 7339" d="M894.674-274.108a1.152,1.152,0,0,0,1.136-.449,2.73,2.73,0,0,1,.969-.836c.406-.143.983.154.894.577a12.842,12.842,0,0,0,3.676-2.319,6.67,6.67,0,0,0,.819,3.7c.664.273,1.341-.35,1.749-.942s.9-1.3,1.618-1.273c.305.012.59.164.9.2.73.077,1.338-.527,2.027-.79,1.118-.427,2.476.061,3.517-.529,1.369-.776,1.59-3.085,3.142-3.35l-.328,5.819a11.356,11.356,0,0,1,2.787-2.853c.406.623,1.377.469,2,.07a4.714,4.714,0,0,1,1.932-1.056,4.634,4.634,0,0,1,1.242.179,4.272,4.272,0,0,0,2.42-.261" transform="translate(-880.43 324.551)" fill="none" stroke="#1a2e35" stroke-linecap="round" stroke-linejoin="round" stroke-width="1"/>
      </g>
      <g id="Group_5220" data-name="Group 5220" transform="translate(102.517 384.247)">
        <rect id="Rectangle_2278" data-name="Rectangle 2278" width="30.318" height="45.486" rx="4.029" transform="translate(0 11.22)" fill="none" stroke="#1a2e35" stroke-linecap="round" stroke-linejoin="round" stroke-width="1"/>
        <path id="Path_7340" data-name="Path 7340" d="M808.482-286.694v-9.727h25.556v9.727H812.08" transform="translate(-805.887 296.421)" fill="none" stroke="#1a2e35" stroke-linecap="round" stroke-linejoin="round" stroke-width="1"/>
        <line id="Line_206" data-name="Line 206" y2="6.837" transform="translate(26.06 1.527)" fill="none" stroke="#1a2e35" stroke-linecap="round" stroke-linejoin="round" stroke-width="1"/>
        <line id="Line_207" data-name="Line 207" y2="6.837" transform="translate(4.853 1.527)" fill="none" stroke="#1a2e35" stroke-linecap="round" stroke-linejoin="round" stroke-width="1"/>
        <line id="Line_208" data-name="Line 208" y2="6.837" transform="translate(8.978 1.527)" fill="none" stroke="#1a2e35" stroke-linecap="round" stroke-linejoin="round" stroke-width="1"/>
        <line id="Line_209" data-name="Line 209" y2="6.759" transform="translate(21.721 1.605)" fill="none" stroke="#1a2e35" stroke-linecap="round" stroke-linejoin="round" stroke-width="1"/>
        <line id="Line_210" data-name="Line 210" y2="6.759" transform="translate(15.923 1.605)" fill="none" stroke="#1a2e35" stroke-linecap="round" stroke-linejoin="round" stroke-width="1"/>
        <path id="Path_7341" data-name="Path 7341" d="M807.466-282.521h22.858v18.66H807.466" transform="translate(-806.605 306.24)" fill="none" stroke="#1a2e35" stroke-linecap="round" stroke-linejoin="round" stroke-width="1"/>
        <line id="Line_211" data-name="Line 211" y2="22.658" transform="translate(28.718 14.322)" fill="none" stroke="#1a2e35" stroke-linecap="round" stroke-linejoin="round" stroke-width="1"/>
        <line id="Line_212" data-name="Line 212" y2="3.732" transform="translate(28.718 38.647)" fill="none" stroke="#1a2e35" stroke-linecap="round" stroke-linejoin="round" stroke-width="1"/>
      </g>
      <g id="Group_5221" data-name="Group 5221" transform="translate(70.295 436.304)">
        <line id="Line_213" data-name="Line 213" x2="30.321" fill="none" stroke="#1a2e35" stroke-linecap="round" stroke-linejoin="round" stroke-width="1"/>
        <line id="Line_214" data-name="Line 214" x2="8.953" transform="translate(62.539)" fill="none" stroke="#1a2e35" stroke-linecap="round" stroke-linejoin="round" stroke-width="1"/>
        <line id="Line_215" data-name="Line 215" x2="8.07" transform="translate(164.317)" fill="none" stroke="#1a2e35" stroke-linecap="round" stroke-linejoin="round" stroke-width="1"/>
        <line id="Line_216" data-name="Line 216" x2="18.899" transform="translate(226.038)" fill="none" stroke="#1a2e35" stroke-linecap="round" stroke-linejoin="round" stroke-width="1"/>
      </g>
      <rect id="Rectangle_2279" data-name="Rectangle 2279" width="88.227" height="116.623" rx="13.554" transform="translate(143.856 327.878)" fill="#3968ff" stroke="#1a2e35" stroke-miterlimit="10" stroke-width="1"/>
      <path id="Rectangle_2280" data-name="Rectangle 2280" d="M8.555,0H99.748A8.554,8.554,0,0,1,108.3,8.554v62.8a8.555,8.555,0,0,1-8.555,8.555H8.555A8.555,8.555,0,0,1,0,71.351V8.555A8.555,8.555,0,0,1,8.555,0Z" transform="translate(227.923 332.039) rotate(90)" fill="#fff" opacity="0.4"/>
      <g id="Group_5258" data-name="Group 5258" transform="translate(148.017 332.039)">
        <path id="Path_7403" data-name="Path 7403" d="M899.681-298.871v53.156a7.128,7.128,0,0,1-7.119,7.119H853.23" transform="translate(-819.775 346.898)" fill="none" stroke="#1a2e35" stroke-linecap="round" stroke-linejoin="round" stroke-width="1"/>
        <g id="Group_5257" data-name="Group 5257">
          <line id="Line_229" data-name="Line 229" x2="2.044" transform="translate(60.757)" fill="none" stroke="#1a2e35" stroke-linecap="round" stroke-linejoin="round" stroke-width="1"/>
          <path id="Path_7404" data-name="Path 7404" d="M833.625-262.53V-319.9a7.125,7.125,0,0,1,7.118-7.118h45.521" transform="translate(-833.625 327.016)" fill="none" stroke="#1a2e35" stroke-linecap="round" stroke-linejoin="round" stroke-width="1"/>
          <line id="Line_230" data-name="Line 230" y1="13.607" transform="translate(0 69.095)" fill="none" stroke="#1a2e35" stroke-linecap="round" stroke-linejoin="round" stroke-width="1"/>
          <line id="Line_231" data-name="Line 231" y1="1.823" transform="translate(0 88.543)" fill="none" stroke="#1a2e35" stroke-linecap="round" stroke-linejoin="round" stroke-width="1"/>
          <line id="Line_232" data-name="Line 232" x1="4.259" transform="translate(26.783 108.302)" fill="none" stroke="#1a2e35" stroke-linecap="round" stroke-linejoin="round" stroke-width="1"/>
          <line id="Line_233" data-name="Line 233" y2="10.056" transform="translate(79.906 32.045)" fill="none" stroke="#1a2e35" stroke-linecap="round" stroke-linejoin="round" stroke-width="1"/>
          <line id="Line_234" data-name="Line 234" y2="2.656" transform="translate(79.906 17.937)" fill="none" stroke="#1a2e35" stroke-linecap="round" stroke-linejoin="round" stroke-width="1"/>
        </g>
      </g>
      <rect id="Rectangle_2281" data-name="Rectangle 2281" width="74.62" height="60.202" rx="7.373" transform="translate(150.66 339.991)" fill="#1a2e35"/>
      <rect id="Rectangle_2282" data-name="Rectangle 2282" width="68.951" height="49.803" rx="4.651" transform="translate(153.494 345.19)" fill="#999" stroke="#1a2e35" stroke-linecap="round" stroke-linejoin="round" stroke-width="1"/>
      <g id="Group_5260" data-name="Group 5260" transform="translate(164.774 409.868)">
        <ellipse id="Ellipse_167" data-name="Ellipse 167" cx="8.913" cy="8.913" rx="8.913" ry="8.913" transform="matrix(0.228, -0.974, 0.974, 0.228, 0, 17.354)" fill="#3968ff"/>
        <g id="Group_5259" data-name="Group 5259" transform="translate(0 0)" clip-path="url(#clip-path)">
          <path id="Path_7405" data-name="Path 7405" d="M853.413-280.351a8.912,8.912,0,0,0-8.913,8.913,8.911,8.911,0,0,0,8.913,8.911,8.912,8.912,0,0,0,8.913-8.911A8.912,8.912,0,0,0,853.413-280.351Zm-.961,13.872a6.087,6.087,0,0,1-6.087-6.087,6.087,6.087,0,0,1,6.087-6.087,6.087,6.087,0,0,1,6.087,6.087A6.087,6.087,0,0,1,852.452-266.479Z" transform="translate(-842.7 282.152)" fill="rgba(0,0,0,0.7)" opacity="0.2"/>
        </g>
        <ellipse id="Ellipse_169" data-name="Ellipse 169" cx="8.913" cy="8.913" rx="8.913" ry="8.913" transform="matrix(0.228, -0.974, 0.974, 0.228, 0, 17.354)" fill="none" stroke="#1a2e35" stroke-miterlimit="10" stroke-width="1"/>
      </g>
      <path id="Path_7406" data-name="Path 7406" d="M847.189-273.683l6.983,3.492v-6.983Z" transform="translate(-676.026 694.264)" fill="#1a2e35"/>
      <g id="Group_5263" data-name="Group 5263" transform="translate(187.848 407.977)">
        <g id="Group_5262" data-name="Group 5262" transform="translate(0 0)">
          <circle id="Ellipse_170" data-name="Ellipse 170" cx="8.913" cy="8.913" r="8.913" transform="translate(0 12.604) rotate(-45)" fill="#3968ff"/>
          <g id="Group_5261" data-name="Group 5261" clip-path="url(#clip-path-2)">
            <path id="Path_7407" data-name="Path 7407" d="M868.043-280.351a8.912,8.912,0,0,0-8.913,8.913,8.912,8.912,0,0,0,8.913,8.911,8.911,8.911,0,0,0,8.911-8.911A8.912,8.912,0,0,0,868.043-280.351Zm-.963,13.872a6.087,6.087,0,0,1-6.087-6.087,6.087,6.087,0,0,1,6.087-6.087,6.087,6.087,0,0,1,6.089,6.087A6.087,6.087,0,0,1,867.08-266.479Z" transform="translate(-855.438 284.043)" fill="rgba(0,0,0,0.7)" opacity="0.2"/>
          </g>
          <circle id="Ellipse_172" data-name="Ellipse 172" cx="8.913" cy="8.913" r="8.913" transform="translate(0 12.604) rotate(-45)" fill="none" stroke="#1a2e35" stroke-miterlimit="10" stroke-width="1"/>
        </g>
        <path id="Path_7408" data-name="Path 7408" d="M869.778-273.683l-6.984-3.492v6.983Z" transform="translate(-852.849 286.287)" fill="#1a2e35"/>
      </g>
      <g id="Group_5267" data-name="Group 5267" transform="translate(159.003 356.176)">
        <g id="Group_5264" data-name="Group 5264">
          <path id="Path_7409" data-name="Path 7409" d="M842.5-300.832v-9.986l-1.218-.832-1.218.832v9.986l1.218.832Z" transform="translate(-840.063 313.732)" fill="#1a2e35"/>
          <path id="Path_7410" data-name="Path 7410" d="M848.177-300.832l1.218.832,1.218-.832v-9.986l-1.218-.832-1.218.832Z" transform="translate(-834.332 313.732)" fill="#1a2e35"/>
          <path id="Path_7411" data-name="Path 7411" d="M849.42-304.062l-1.218.832v9.986l1.218.832,1.218-.832v-9.986Z" transform="translate(-834.313 319.093)" fill="#1a2e35"/>
          <path id="Path_7412" data-name="Path 7412" d="M852.251-310.435l.832-1.218-.832-1.218h-9.986l-.832,1.218.832,1.218Z" transform="translate(-839.096 312.87)" fill="#1a2e35"/>
          <path id="Path_7413" data-name="Path 7413" d="M842.265-305.156l-.832,1.218.832,1.218h9.986l.832-1.218-.832-1.218Z" transform="translate(-839.096 318.32)" fill="#1a2e35"/>
          <path id="Path_7414" data-name="Path 7414" d="M842.265-297.442l-.832,1.218.832,1.218h9.986l.832-1.218-.832-1.218Z" transform="translate(-839.096 323.77)" fill="#1a2e35"/>
        </g>
        <g id="Group_5265" data-name="Group 5265" transform="translate(22.468)">
          <path id="Path_7415" data-name="Path 7415" d="M855.665-300.832v-9.986l-1.218-.832-1.218.832v9.986l1.218.832Z" transform="translate(-853.23 313.732)" fill="#1a2e35"/>
          <path id="Path_7416" data-name="Path 7416" d="M862.587-304.062l-1.218.832v9.986l1.218.832,1.218-.832v-9.986Z" transform="translate(-847.48 319.093)" fill="#1a2e35"/>
          <path id="Path_7417" data-name="Path 7417" d="M865.418-310.435l.832-1.218-.832-1.218h-9.986l-.832,1.218.832,1.218Z" transform="translate(-852.262 312.87)" fill="#1a2e35"/>
          <path id="Path_7418" data-name="Path 7418" d="M855.432-305.156l-.832,1.218.832,1.218h9.986l.832-1.218-.832-1.218Z" transform="translate(-852.262 318.32)" fill="#1a2e35"/>
          <path id="Path_7419" data-name="Path 7419" d="M855.432-297.442l-.832,1.218.832,1.218h9.986l.832-1.218-.832-1.218Z" transform="translate(-852.262 323.77)" fill="#1a2e35"/>
        </g>
        <g id="Group_5266" data-name="Group 5266" transform="translate(41.608)">
          <path id="Path_7420" data-name="Path 7420" d="M866.881-300.832v-9.986l-1.218-.832-1.218.832v9.986l1.218.832Z" transform="translate(-864.446 313.732)" fill="#1a2e35"/>
          <path id="Path_7421" data-name="Path 7421" d="M866.907-303.23l-1.218-.832-1.218.832v9.986l1.218.832,1.218-.832Z" transform="translate(-864.427 319.093)" fill="#1a2e35"/>
          <path id="Path_7422" data-name="Path 7422" d="M872.559-300.832l1.218.832,1.218-.832v-9.986l-1.218-.832-1.218.832Z" transform="translate(-858.714 313.732)" fill="#1a2e35"/>
          <path id="Path_7423" data-name="Path 7423" d="M873.8-304.062l-1.218.832v9.986l1.218.832,1.218-.832v-9.986Z" transform="translate(-858.696 319.093)" fill="#1a2e35"/>
          <path id="Path_7424" data-name="Path 7424" d="M876.634-310.435l.832-1.218-.832-1.218h-9.986l-.832,1.218.832,1.218Z" transform="translate(-863.478 312.87)" fill="#1a2e35"/>
          <path id="Path_7425" data-name="Path 7425" d="M866.648-297.442l-.832,1.218.832,1.218h9.986l.832-1.218-.832-1.218Z" transform="translate(-863.478 323.77)" fill="#1a2e35"/>
        </g>
        <rect id="Rectangle_2283" data-name="Rectangle 2283" width="1.638" height="1.638" transform="translate(18.611 27.545)" fill="#1a2e35"/>
      </g>
      <path id="Path_7426" data-name="Path 7426" d="M882.891-321.475l-33.907,55.8H841.2a4.989,4.989,0,0,1-4.99-4.99v-45.41a5.4,5.4,0,0,1,5.4-5.4Z" transform="translate(-683.785 662.968)" fill="#fff" opacity="0.4"/>
      <path id="Path_7427" data-name="Path 7427" d="M866.927-339.484v20.337H852.939v-20.337a1.837,1.837,0,0,1,1.831-1.831H865.1A1.83,1.83,0,0,1,866.927-339.484Z" transform="translate(-671.964 648.952)" fill="#fff" stroke="#1a2e35" stroke-linecap="round" stroke-linejoin="round" stroke-width="1"/>
      <line id="Line_235" data-name="Line 235" x2="26.11" transform="translate(174.915 329.805)" fill="#5ae4a7" stroke="#1a2e35" stroke-linecap="round" stroke-linejoin="round" stroke-width="1"/>
      <path id="Path_7449" data-name="Path 7449" d="M866.927-339.484v12.215H852.939v-12.215a1.837,1.837,0,0,1,1.831-1.831H865.1A1.83,1.83,0,0,1,866.927-339.484Z" transform="translate(-671.964 648.952)" fill="#3968ff" opacity="0.2"/>
      <path id="Path_7450" data-name="Path 7450" d="M858.411-344.559s7.464,13.684,0,13.684S858.411-344.559,858.411-344.559Z" transform="translate(-670.441 646.66)" fill="#3968ff" stroke="#1a2e35" stroke-miterlimit="10" stroke-width="1"/>
    </g>
  </g>
</svg>
