<svg xmlns="http://www.w3.org/2000/svg" width="80.61" height="53.491" viewBox="0 0 80.61 53.491">
  <g id="Group_11639" data-name="Group 11639" transform="translate(0 0)">
    <path id="Path_34654" data-name="Path 34654" d="M407.651-1000.827c.036.326.081.65.125.967a20.716,20.716,0,0,0,.714,3.2,8.413,8.413,0,0,1,.7,2.635,33.552,33.552,0,0,1-.735,3.773,28.178,28.178,0,0,0,.13,11.062v0a11.639,11.639,0,0,0,.664,1.924,3.913,3.913,0,0,0,3.209,2.187,35.024,35.024,0,0,0,4.71.128h.007l.281-.009c.8-.027,1.69-.071,2.672-.135,4.45-.292,8.309.87,11.7,1.517.413.08.815.15,1.214.212.145.024.292.044.438.063a15.838,15.838,0,0,0,1.8.15,10.052,10.052,0,0,0,1.512-.07.059.059,0,0,0,.022,0,7.2,7.2,0,0,0,3.205-1.179c.278-.186.559-.366.842-.541q.836-.516,1.712-.981c.27-.148.544-.29.819-.429l.354-.177c.234-.118.47-.232.71-.345.833-.4,1.68-.77,2.532-1.136,1.444-.622,2.906-1.212,4.348-1.82,2.653-1.123,7.173-2.462,9.116-4.675a4.178,4.178,0,0,0,.572-.824,3.343,3.343,0,0,0,.2-.468,12.292,12.292,0,0,0,.415-2.462c.024-.208.048-.415.071-.624.032-.323.06-.648.083-.972.035-.5.057-1,.061-1.5a19.73,19.73,0,0,0-.237-3.38c-.086-.534-.156-.976-.2-1.345-.007-.055-.014-.109-.021-.161-.032-.245-.057-.455-.07-.636-.065-.843.041-1.086.265-1.376.036-.049.076-.1.122-.151.066-.082.142-.174.22-.287l0,0c.023-.031.045-.062.067-.1.035-.052.072-.111.108-.171a6.321,6.321,0,0,0,.4-.8,7,7,0,0,0,.467-2.518c0-.157,0-.319-.008-.482l-.014-.248c0-.047-.008-.094-.012-.14s-.012-.119-.019-.179c-.012-.123-.031-.245-.05-.37-.027-.183-.064-.369-.108-.557l0-.015c-.021-.093-.044-.184-.068-.277-.017-.061-.033-.123-.051-.184a8.265,8.265,0,0,0-.593-1.507c-.028-.061-.058-.12-.09-.179s-.072-.135-.11-.2-.066-.116-.1-.176-.089-.144-.134-.216c-.035-.054-.071-.112-.107-.167s-.085-.127-.128-.19-.09-.126-.136-.188a10.825,10.825,0,0,0-1.125-1.3c-.059-.059-.122-.116-.181-.175l-.186-.172c-.156-.14-.317-.28-.486-.418-.07-.058-.142-.116-.215-.173s-.131-.1-.2-.156-.113-.086-.172-.129-.126-.093-.2-.139-.148-.106-.224-.156a.182.182,0,0,0-.031-.022l-.069-.048-.073-.046c-.024-.019-.049-.034-.073-.05-.249-.165-.513-.328-.786-.484-.095-.056-.185-.1-.278-.158s-.188-.1-.285-.155-.171-.091-.259-.136q-.608-.312-1.283-.6c-.11-.048-.22-.1-.333-.14s-.219-.088-.332-.135c-.358-.143-.727-.279-1.115-.412-.11-.038-.221-.076-.332-.111a.433.433,0,0,0-.057-.02c-.1-.035-.207-.069-.314-.1-.278-.088-.562-.174-.851-.256a.159.159,0,0,0-.032-.009q-1.357-.387-2.761-.719a63.667,63.667,0,0,0-12-1.641l-.039,0h-.026q-.988-.039-1.975-.041a.012.012,0,0,0-.012,0c-7.929-.031-15.785,1.614-21.9,5.779a.139.139,0,0,0-.022.016c-.317.215-.63.438-.937.669-.114.084-.229.17-.342.258-.3.234-.6.475-.894.722-.091.081-.182.159-.27.24-.028.023-.056.05-.084.075-.058.051-.115.106-.171.157s-.128.126-.188.189c-.032.033-.064.063-.094.1-.086.084-.163.17-.242.258s-.168.188-.247.283c-.014.018-.028.037-.044.053-.034.044-.07.085-.1.127-.045.059-.088.117-.134.175-.089.117-.175.236-.255.356-.039.059-.082.119-.12.18-.077.122-.156.245-.229.371-.03.054-.061.111-.095.168-.074.134-.144.267-.209.4q-.047.095-.091.193a5.846,5.846,0,0,0-.711,2.048A12.291,12.291,0,0,0,407.651-1000.827Z" transform="translate(-382.367 1015.682)" fill="#6b2e1b"/>
    <path id="Path_34655" data-name="Path 34655" d="M462.968-1002.773l-.014-.248c0-.047-.008-.094-.012-.14s-.012-.119-.019-.179c-.012-.123-.031-.245-.05-.37-.027-.183-.064-.369-.108-.557l0-.015c-.021-.093-.044-.184-.068-.277-.017-.061-.033-.123-.051-.184a8.265,8.265,0,0,0-.593-1.507c-.028-.061-.058-.12-.09-.179s-.072-.135-.11-.2-.066-.116-.1-.176-.089-.144-.134-.216c-.035-.054-.071-.112-.107-.167s-.085-.127-.128-.19-.09-.126-.136-.188a10.825,10.825,0,0,0-1.125-1.3c-.059-.059-.122-.116-.181-.175l-.186-.172c-.156-.14-.317-.28-.486-.418-.07-.058-.142-.116-.215-.173s-.131-.1-.2-.156-.113-.086-.172-.129-.126-.093-.2-.139-.148-.106-.224-.156a.182.182,0,0,0-.031-.022l-.069-.048-.073-.046c-.024-.019-.049-.034-.073-.05-.249-.165-.513-.328-.786-.484-.095-.056-.185-.1-.278-.158s-.188-.1-.285-.155-.171-.091-.259-.136q-.608-.312-1.283-.6c-.11-.048-.22-.1-.333-.14s-.219-.088-.332-.135c-.358-.143-.727-.279-1.115-.412-.11-.038-.221-.076-.332-.111a.433.433,0,0,0-.057-.02c-.1-.035-.207-.069-.314-.1-.278-.088-.562-.174-.851-.256a.159.159,0,0,0-.032-.009q-1.357-.387-2.761-.719a63.667,63.667,0,0,0-12-1.641l-.039,0h-.026q-.988-.039-1.975-.041a.012.012,0,0,0-.012,0c-7.929-.031-15.785,1.614-21.9,5.779a.139.139,0,0,0-.022.016c-.317.215-.63.438-.937.669-.114.084-.229.17-.342.258-.3.234-.6.475-.894.722-.091.081-.182.159-.27.24-.028.023-.056.05-.084.075-.058.051-.115.106-.171.157s-.128.126-.188.189c-.032.033-.064.063-.094.1-.086.084-.163.17-.242.258s-.168.188-.247.283c-.014.018-.028.037-.044.053-.034.044-.07.085-.1.127-.045.059-.088.117-.134.175-.089.117-.175.236-.255.356-.039.059-.082.119-.12.18-.077.122-.156.245-.229.371-.03.054-.061.111-.095.168-.074.134-.144.267-.209.4q-.047.095-.091.193a5.846,5.846,0,0,0-.711,2.048,12.291,12.291,0,0,0,.085,2.034c.036.326.081.65.125.967a20.716,20.716,0,0,0,.714,3.2,8.413,8.413,0,0,1,.7,2.635,33.552,33.552,0,0,1-.735,3.773c-.1.637-.185,1.284-.258,1.935,9.256-3.236,19.012-3.559,29.027-5.526,3.645-.709,6.987-1.418,10.632-2.43a62.137,62.137,0,0,1,13.777-2.038c.025-.032.051-.063.079-.1.066-.082.142-.174.22-.287l0,0c.023-.031.045-.062.067-.1.035-.052.072-.111.108-.171a6.321,6.321,0,0,0,.4-.8,7,7,0,0,0,.467-2.518C462.978-1002.448,462.976-1002.61,462.968-1002.773Z" transform="translate(-382.367 1015.682)" fill="#5a2b06"/>
    <path id="Path_34656" data-name="Path 34656" d="M453.3-984.261c-11.038,3.443-21.975,8.2-34.026,5.164-3.35-.9-6.832-.412-10.287-.245.045.108.088.216.136.32a3.913,3.913,0,0,0,3.209,2.187,35.044,35.044,0,0,0,4.71.128h.007l.281-.009c.8-.027,1.69-.071,2.672-.135,4.45-.292,8.309.87,11.7,1.517.413.079.816.15,1.214.212.145.024.292.044.438.063a15.839,15.839,0,0,0,1.8.15,10.044,10.044,0,0,0,1.512-.07.061.061,0,0,0,.022,0,7.206,7.206,0,0,0,3.206-1.179q.416-.279.842-.541.836-.516,1.712-.981c.27-.148.544-.29.819-.429l.354-.177c.234-.118.47-.232.71-.345.833-.4,1.68-.77,2.532-1.136,1.444-.622,2.906-1.212,4.348-1.82,2.653-1.123,7.173-2.462,9.116-4.675a4.181,4.181,0,0,0,.572-.824,3.363,3.363,0,0,0,.2-.468,12.3,12.3,0,0,0,.415-2.462c.024-.208.048-.415.071-.624.032-.323.06-.648.083-.972.035-.5.057-1,.061-1.5a20.4,20.4,0,0,0-.15-2.766C460.706-990.822,458.507-985.807,453.3-984.261Z" transform="translate(-382.24 1017.44)" fill="#5c2716"/>
    <path id="Path_34657" data-name="Path 34657" d="M434.719-975.005a5.456,5.456,0,0,0,.891-.187c2.121-.646,3.447-3.264,3.937-7.735a39.568,39.568,0,0,0,.126-6.443c-.042-.3-.169-.817-.3-1.369s-.266-1.1-.3-1.355a6.685,6.685,0,0,1,.694-4.356,5.779,5.779,0,0,0-.022-5.324,11.458,11.458,0,0,0-6.334-5.293,42.128,42.128,0,0,0-12.614-2.69c-.994-.056-1.989-.074-2.957-.052-2.039.047-5,.265-7.18,1.787-3.355,2.344-3.167,6.615-1.84,9.678,1,2.3.639,4.12.221,6.26-.145.742-.3,1.51-.4,2.338a31.426,31.426,0,0,0-.16,6.716c.037.4.057.854.077,1.34a12.2,12.2,0,0,0,.539,3.791c.742,1.783,3.118,2.519,6.865,2.136.74-.075,1.52-.192,2.317-.345.462-.088.944-.159,1.436-.209a36.844,36.844,0,0,1,8.368.41c.652.084,1.368.248,2.126.419a13.349,13.349,0,0,0,4.507.482Z" transform="translate(-382.333 1016.202)" fill="#703422"/>
    <path id="Path_34658" data-name="Path 34658" d="M409.019-989.716a30.626,30.626,0,0,0-.156,6.516c0,.04.007.081.011.122.117,1.427.045,3.556.572,4.816,1.129,2.717,6.259,2.034,8.66,1.574a31.416,31.416,0,0,1,9.761.194c2.165.286,5,1.395,7.235.711,4.638-1.432,3.727-13.531,3.729-13.565-.079-.567-.527-2.147-.59-2.676l-.01-.089a6.747,6.747,0,0,1,.72-4.341,5.36,5.36,0,0,0,.286-.651c1.2-3.306-1.139-7.294-6.334-9.349a40.808,40.808,0,0,0-15.153-2.665c-2.359.053-4.944.345-6.885,1.7-2.984,2.078-3.075,5.91-1.7,9.085a8.015,8.015,0,0,1,.567,4.463C409.563-992.559,409.2-991.231,409.019-989.716Z" transform="translate(-382.299 1016.263)" fill="#b56e44"/>
    <path id="Path_34659" data-name="Path 34659" d="M409.155-997.641a7.868,7.868,0,0,1,.567,4.432c.163-.426.319-.851.475-1.267.838-2.218,2.374-4.841,4.607-5.789,3.1-1.316,6.855-1.417,10.151-1.227,4.482.26,11.168.577,14.272,3.626,1.2-3.367-1.137-7.245-6.329-9.047a39.885,39.885,0,0,0-15.15-1.924c-2.362.169-4.948.587-6.89,2.034C407.871-1004.58,407.78-1000.748,409.155-997.641Z" transform="translate(-382.3 1016.281)" fill="#bf7855"/>
    <path id="Path_34660" data-name="Path 34660" d="M409.012-990.341c.113,1.439-1.151,4.393.637,10.038.9,2.849,6.155,2.3,8.519,1.935,3.189-.488,6.521.064,9.609.586,2.131.372,4.919,1.589,7.125.993,4.57-1.249,3.658-13.316,3.661-13.353-.079-.568-.522-2.159-.584-2.688l-.01-.09c-.053.207-.1.405-.14.592a47.679,47.679,0,0,1-1.238,5.861,7.523,7.523,0,0,1-4.18,4.624c-1.643.63-2.8,1.278-4.563,1.184C421.308-981.032,415.732-990.347,409.012-990.341Z" transform="translate(-382.266 1017.703)" fill="#9c5836"/>
    <g id="Group_8007" data-name="Group 8007" transform="translate(28.431 8.196)">
      <g id="Group_7918" data-name="Group 7918" transform="translate(3.577 15.847)">
        <path id="Path_34661" data-name="Path 34661" d="M415.009-993.3a.278.278,0,0,0-.188-.261.457.457,0,0,0-.161-.03.925.925,0,0,0-.79.376c-.151.214.053.46.331.456a.908.908,0,0,0,.748-.378A.3.3,0,0,0,415.009-993.3Z" transform="translate(-413.818 993.601)" fill="#955130"/>
      </g>
      <g id="Group_7919" data-name="Group 7919" transform="translate(15.095 23.941)">
        <path id="Path_34662" data-name="Path 34662" d="M425.389-986.053c-.1-.125-.3-.114-.455-.113a1.564,1.564,0,0,0-.238.021c-.093.016-.162.057-.25.078-.071.017-.061.12.008.139s.147.065.23.084a1.534,1.534,0,0,0,.273.04c.156.008.347.026.442-.1A.118.118,0,0,0,425.389-986.053Z" transform="translate(-424.396 986.167)" fill="#955130"/>
      </g>
      <g id="Group_7920" data-name="Group 7920" transform="translate(15.697 29.176)">
        <path id="Path_34663" data-name="Path 34663" d="M425.621-981.285a.732.732,0,0,0-.444-.06c-.115.027-.223.095-.226.211a.281.281,0,0,0,.186.26.725.725,0,0,0,.444.047A.233.233,0,0,0,425.621-981.285Z" transform="translate(-424.95 981.359)" fill="#955130"/>
      </g>
      <g id="Group_7921" data-name="Group 7921" transform="translate(13.599 21.616)">
        <path id="Path_34664" data-name="Path 34664" d="M423.694-988.228a.728.728,0,0,0-.443-.06c-.116.026-.223.094-.227.21a.281.281,0,0,0,.186.261.736.736,0,0,0,.445.047A.233.233,0,0,0,423.694-988.228Z" transform="translate(-423.023 988.302)" fill="#955130"/>
      </g>
      <g id="Group_7922" data-name="Group 7922" transform="translate(11.196 23.777)">
        <path id="Path_34665" data-name="Path 34665" d="M421.383-986.278a.393.393,0,0,0-.217-.036.625.625,0,0,0-.193.065.225.225,0,0,0-.144.286.294.294,0,0,0,.312.177.671.671,0,0,0,.25-.076.294.294,0,0,0,.122-.138A.193.193,0,0,0,421.383-986.278Z" transform="translate(-420.816 986.317)" fill="#955130"/>
      </g>
      <g id="Group_7923" data-name="Group 7923" transform="translate(18.147 24.156)">
        <path id="Path_34666" data-name="Path 34666" d="M428.342-985.662a.318.318,0,0,0-.207-.268.44.44,0,0,0-.161-.033.8.8,0,0,0-.737.374c-.129.218.092.469.364.467a.784.784,0,0,0,.7-.377A.292.292,0,0,0,428.342-985.662Z" transform="translate(-427.2 985.969)" fill="#955130"/>
      </g>
      <g id="Group_7924" data-name="Group 7924" transform="translate(20.558 29.129)">
        <path id="Path_34667" data-name="Path 34667" d="M429.945-981.36a.394.394,0,0,0-.215-.039.511.511,0,0,0-.181.064.214.214,0,0,0-.114.291.319.319,0,0,0,.321.185.575.575,0,0,0,.237-.075.258.258,0,0,0,.106-.139A.218.218,0,0,0,429.945-981.36Z" transform="translate(-429.414 981.401)" fill="#955130"/>
      </g>
      <g id="Group_7925" data-name="Group 7925" transform="translate(15.538 2.677)">
        <path id="Path_34668" data-name="Path 34668" d="M424.8-1005.433c-.015.174.175.375.417.406s.462-.071.477-.257-.175-.375-.418-.406S424.82-1005.619,424.8-1005.433Z" transform="translate(-424.803 1005.696)" fill="#955130"/>
      </g>
      <g id="Group_7927" data-name="Group 7927" transform="translate(11.703)">
        <g id="Group_7926" data-name="Group 7926">
          <path id="Path_34669" data-name="Path 34669" d="M422.261-1008.038c-.106-.127-.3-.118-.455-.116a1.294,1.294,0,0,0-.235.021c-.09.015-.158.056-.244.077-.069.017-.056.121.013.141s.149.066.231.086a1.463,1.463,0,0,0,.271.041c.155.009.345.027.433-.095A.123.123,0,0,0,422.261-1008.038Z" transform="translate(-421.281 1008.155)" fill="#c7885a"/>
        </g>
      </g>
      <g id="Group_7929" data-name="Group 7929" transform="translate(21.442 26.683)">
        <g id="Group_7928" data-name="Group 7928">
          <path id="Path_34670" data-name="Path 34670" d="M430.878-983.572a.725.725,0,0,0-.44-.063c-.112.026-.215.095-.212.212a.307.307,0,0,0,.2.266.728.728,0,0,0,.441.05C431.124-983.147,431.134-983.465,430.878-983.572Z" transform="translate(-430.226 983.648)" fill="#c7885a"/>
        </g>
      </g>
      <g id="Group_7931" data-name="Group 7931" transform="translate(24.747 27.512)">
        <g id="Group_7930" data-name="Group 7930">
          <path id="Path_34671" data-name="Path 34671" d="M433.912-982.811a.726.726,0,0,0-.44-.063c-.112.026-.213.095-.211.212a.307.307,0,0,0,.2.266.716.716,0,0,0,.44.05C434.159-982.386,434.169-982.7,433.912-982.811Z" transform="translate(-433.261 982.887)" fill="#c7885a"/>
        </g>
      </g>
      <g id="Group_7932" data-name="Group 7932" transform="translate(11.77 3.179)">
        <path id="Path_34672" data-name="Path 34672" d="M422.514-1004.933a.291.291,0,0,0-.195-.264.435.435,0,0,0-.161-.031.874.874,0,0,0-.769.375c-.143.217.069.465.343.462a.858.858,0,0,0,.728-.378A.307.307,0,0,0,422.514-1004.933Z" transform="translate(-421.343 1005.235)" fill="#955130"/>
      </g>
      <g id="Group_7933" data-name="Group 7933" transform="translate(9.293 0.331)">
        <path id="Path_34673" data-name="Path 34673" d="M419.53-1007.673l-.4.29c-.216.155.226.477.458.329l.429-.272c.143-.09.289-.194.274-.349-.009-.1-.1-.168-.247-.175A.763.763,0,0,0,419.53-1007.673Z" transform="translate(-419.068 1007.851)" fill="#955130"/>
      </g>
      <g id="Group_7934" data-name="Group 7934" transform="translate(18.565 27.086)">
        <path id="Path_34674" data-name="Path 34674" d="M427.584-983.016c-.029.451,1.015.629,1.043.179S427.612-983.468,427.584-983.016Z" transform="translate(-427.583 983.278)" fill="#955130"/>
      </g>
      <g id="Group_7935" data-name="Group 7935" transform="translate(15.688 4.857)">
        <path id="Path_34675" data-name="Path 34675" d="M426.084-1003.386a.318.318,0,0,0-.208-.268.437.437,0,0,0-.16-.033.8.8,0,0,0-.737.373c-.13.218.093.47.363.467a.781.781,0,0,0,.7-.377A.3.3,0,0,0,426.084-1003.386Z" transform="translate(-424.941 1003.693)" fill="#955130"/>
      </g>
      <g id="Group_7936" data-name="Group 7936" transform="translate(22.547 10.823)">
        <path id="Path_34676" data-name="Path 34676" d="M431.885-998.137a.713.713,0,0,0-.439-.065c-.111.026-.21.094-.2.212a.319.319,0,0,0,.2.267.71.71,0,0,0,.439.052C432.14-997.71,432.141-998.029,431.885-998.137Z" transform="translate(-431.241 998.215)" fill="#955130"/>
      </g>
      <g id="Group_7937" data-name="Group 7937" transform="translate(18.099 9.831)">
        <path id="Path_34677" data-name="Path 34677" d="M427.686-999.084a.393.393,0,0,0-.214-.039.526.526,0,0,0-.181.065.212.212,0,0,0-.113.291.32.32,0,0,0,.321.184.587.587,0,0,0,.236-.074.26.26,0,0,0,.106-.14A.217.217,0,0,0,427.686-999.084Z" transform="translate(-427.156 999.125)" fill="#955130"/>
      </g>
      <g id="Group_7938" data-name="Group 7938" transform="translate(19.292 15.136)">
        <path id="Path_34678" data-name="Path 34678" d="M428.252-993.991c-.015.173.175.375.418.406s.461-.071.477-.257-.176-.375-.419-.406S428.268-994.177,428.252-993.991Z" transform="translate(-428.251 994.253)" fill="#955130"/>
      </g>
      <g id="Group_7940" data-name="Group 7940" transform="translate(15.582 10.641)">
        <g id="Group_7939" data-name="Group 7939">
          <path id="Path_34679" data-name="Path 34679" d="M425.824-998.263c-.106-.129-.3-.119-.455-.118a1.3,1.3,0,0,0-.235.021c-.09.015-.158.056-.244.077-.069.017-.056.121.013.142s.149.066.231.086a1.53,1.53,0,0,0,.271.042c.155.008.345.027.433-.1A.121.121,0,0,0,425.824-998.263Z" transform="translate(-424.844 998.382)" fill="#c7885a"/>
        </g>
      </g>
      <g id="Group_7942" data-name="Group 7942" transform="translate(23.523 15.317)">
        <g id="Group_7941" data-name="Group 7941">
          <path id="Path_34680" data-name="Path 34680" d="M433.116-993.968c-.1-.129-.3-.119-.454-.118a1.326,1.326,0,0,0-.236.021c-.089.015-.157.056-.243.078-.07.017-.056.121.013.141s.148.067.231.086a1.441,1.441,0,0,0,.271.041c.155.009.345.028.432-.095A.12.12,0,0,0,433.116-993.968Z" transform="translate(-432.137 994.087)" fill="#c7885a"/>
        </g>
      </g>
      <g id="Group_7944" data-name="Group 7944" transform="translate(18.983 7.385)">
        <g id="Group_7943" data-name="Group 7943">
          <path id="Path_34681" data-name="Path 34681" d="M428.619-1001.3a.724.724,0,0,0-.44-.063c-.112.026-.214.095-.211.212a.306.306,0,0,0,.2.266.708.708,0,0,0,.44.05C428.866-1000.871,428.876-1001.189,428.619-1001.3Z" transform="translate(-427.968 1001.372)" fill="#c7885a"/>
        </g>
      </g>
      <g id="Group_7946" data-name="Group 7946" transform="translate(19.41 17.288)">
        <g id="Group_7945" data-name="Group 7945">
          <path id="Path_34682" data-name="Path 34682" d="M429.011-992.2a.707.707,0,0,0-.439-.063c-.113.026-.214.094-.212.212a.3.3,0,0,0,.2.265.708.708,0,0,0,.44.05C429.258-991.776,429.268-992.093,429.011-992.2Z" transform="translate(-428.36 992.276)" fill="#c7885a"/>
        </g>
      </g>
      <g id="Group_7948" data-name="Group 7948" transform="translate(0 23.11)">
        <g id="Group_7947" data-name="Group 7947">
          <path id="Path_34683" data-name="Path 34683" d="M411.185-986.853a.711.711,0,0,0-.44-.063c-.113.026-.214.094-.212.212a.306.306,0,0,0,.2.265.709.709,0,0,0,.44.05C411.431-986.429,411.441-986.746,411.185-986.853Z" transform="translate(-410.533 986.929)" fill="#c7885a"/>
        </g>
      </g>
      <g id="Group_7949" data-name="Group 7949" transform="translate(15.524 15.637)">
        <path id="Path_34684" data-name="Path 34684" d="M425.963-993.491a.292.292,0,0,0-.2-.264.436.436,0,0,0-.161-.032.871.871,0,0,0-.769.375c-.143.217.069.465.343.46a.854.854,0,0,0,.728-.377A.317.317,0,0,0,425.963-993.491Z" transform="translate(-424.791 993.793)" fill="#955130"/>
      </g>
      <g id="Group_7950" data-name="Group 7950" transform="translate(22.029 22.532)">
        <path id="Path_34685" data-name="Path 34685" d="M431.745-987.344c-.106-.127-.3-.117-.455-.116a1.41,1.41,0,0,0-.235.02c-.089.016-.158.057-.244.078-.069.016-.056.121.014.141s.148.066.231.086a1.511,1.511,0,0,0,.27.041c.156.009.345.027.433-.095A.123.123,0,0,0,431.745-987.344Z" transform="translate(-430.765 987.461)" fill="#955130"/>
      </g>
      <g id="Group_7951" data-name="Group 7951" transform="translate(24.153 20.784)">
        <path id="Path_34686" data-name="Path 34686" d="M433.692-988.947c-.107-.129-.3-.119-.455-.118a1.4,1.4,0,0,0-.234.02c-.089.015-.156.057-.242.077-.069.017-.053.122.015.143s.149.066.232.086a1.524,1.524,0,0,0,.27.042c.155.009.344.027.43-.095A.123.123,0,0,0,433.692-988.947Z" transform="translate(-432.716 989.066)" fill="#955130"/>
      </g>
      <g id="Group_7952" data-name="Group 7952" transform="translate(22.124 17.205)">
        <path id="Path_34687" data-name="Path 34687" d="M431.5-992.276a.719.719,0,0,0-.44-.064c-.113.027-.214.095-.212.214a.306.306,0,0,0,.2.265.707.707,0,0,0,.44.05C431.75-991.852,431.76-992.169,431.5-992.276Z" transform="translate(-430.852 992.353)" fill="#955130"/>
      </g>
      <g id="Group_7953" data-name="Group 7953" transform="translate(20.312 20.595)">
        <path id="Path_34688" data-name="Path 34688" d="M429.733-989.2a.394.394,0,0,0-.216-.038.575.575,0,0,0-.185.065.219.219,0,0,0-.126.29.308.308,0,0,0,.318.181.6.6,0,0,0,.242-.075.273.273,0,0,0,.113-.139A.207.207,0,0,0,429.733-989.2Z" transform="translate(-429.189 989.239)" fill="#955130"/>
      </g>
      <g id="Group_7954" data-name="Group 7954" transform="translate(13.047 12.789)">
        <path id="Path_34689" data-name="Path 34689" d="M422.978-996.23l-.4.29c-.216.155.226.476.458.329l.429-.272c.144-.09.289-.194.274-.349-.008-.1-.1-.168-.247-.175A.762.762,0,0,0,422.978-996.23Z" transform="translate(-422.516 996.409)" fill="#955130"/>
      </g>
      <g id="Group_7955" data-name="Group 7955" transform="translate(16.105 7.788)">
        <path id="Path_34690" data-name="Path 34690" d="M425.325-1000.74c-.029.451,1.015.629,1.044.178S425.353-1001.192,425.325-1000.74Z" transform="translate(-425.324 1001.002)" fill="#955130"/>
      </g>
      <g id="Group_7956" data-name="Group 7956" transform="translate(3.409 2.253)">
        <path id="Path_34691" data-name="Path 34691" d="M414.806-1005.778a.319.319,0,0,0-.207-.268.438.438,0,0,0-.161-.033.8.8,0,0,0-.737.373c-.129.218.093.47.364.467a.782.782,0,0,0,.7-.377A.291.291,0,0,0,414.806-1005.778Z" transform="translate(-413.664 1006.085)" fill="#955130"/>
      </g>
      <g id="Group_7957" data-name="Group 7957" transform="translate(9.457 6.678)">
        <path id="Path_34692" data-name="Path 34692" d="M419.861-1001.944a.717.717,0,0,0-.438-.065c-.111.026-.21.095-.2.213a.32.32,0,0,0,.2.267.707.707,0,0,0,.439.051C420.118-1001.517,420.118-1001.836,419.861-1001.944Z" transform="translate(-419.219 1002.022)" fill="#955130"/>
      </g>
      <g id="Group_7958" data-name="Group 7958" transform="translate(6.276 6.688)">
        <path id="Path_34693" data-name="Path 34693" d="M416.828-1001.971a.394.394,0,0,0-.214-.039.511.511,0,0,0-.181.065.213.213,0,0,0-.114.291.32.32,0,0,0,.321.184.573.573,0,0,0,.237-.075.258.258,0,0,0,.106-.139A.218.218,0,0,0,416.828-1001.971Z" transform="translate(-416.297 1002.012)" fill="#955130"/>
      </g>
      <g id="Group_7959" data-name="Group 7959" transform="translate(5.396 8.075)">
        <path id="Path_34694" data-name="Path 34694" d="M415.49-1000.476c-.015.174.175.375.418.407s.461-.072.477-.257-.176-.375-.418-.407S415.506-1000.662,415.49-1000.476Z" transform="translate(-415.489 1000.739)" fill="#955130"/>
      </g>
      <g id="Group_7961" data-name="Group 7961" transform="translate(1.193 14.027)">
        <g id="Group_7960" data-name="Group 7960">
          <path id="Path_34695" data-name="Path 34695" d="M412.8-994.97a.29.29,0,0,0-.2-.263.411.411,0,0,0-.161-.032.872.872,0,0,0-.769.375c-.142.217.07.465.344.461a.855.855,0,0,0,.727-.378A.3.3,0,0,0,412.8-994.97Z" transform="translate(-411.628 995.272)" fill="#c7885a"/>
        </g>
      </g>
      <g id="Group_7963" data-name="Group 7963" transform="translate(5.581 19.073)">
        <g id="Group_7962" data-name="Group 7962">
          <path id="Path_34696" data-name="Path 34696" d="M416.83-990.335a.291.291,0,0,0-.195-.263.414.414,0,0,0-.161-.032.869.869,0,0,0-.769.375c-.143.217.069.465.343.461a.855.855,0,0,0,.728-.378A.306.306,0,0,0,416.83-990.335Z" transform="translate(-415.659 990.637)" fill="#c7885a"/>
        </g>
      </g>
      <g id="Group_7965" data-name="Group 7965" transform="translate(2.829 6.399)">
        <g id="Group_7964" data-name="Group 7964">
          <path id="Path_34697" data-name="Path 34697" d="M414.111-1002.16c-.106-.127-.3-.118-.455-.117a1.4,1.4,0,0,0-.235.02c-.09.016-.158.057-.244.077-.069.017-.056.122.013.143s.149.066.232.086a1.616,1.616,0,0,0,.27.041c.156.009.345.027.433-.1A.121.121,0,0,0,414.111-1002.16Z" transform="translate(-413.131 1002.278)" fill="#c7885a"/>
        </g>
      </g>
      <g id="Group_7967" data-name="Group 7967" transform="translate(10.558 9.356)">
        <g id="Group_7966" data-name="Group 7966">
          <path id="Path_34698" data-name="Path 34698" d="M421.209-999.444c-.106-.127-.3-.118-.455-.116a1.409,1.409,0,0,0-.235.02c-.089.016-.157.057-.243.078-.07.017-.057.121.013.142s.148.066.231.086a1.508,1.508,0,0,0,.271.041c.155.009.344.027.432-.095A.123.123,0,0,0,421.209-999.444Z" transform="translate(-420.23 999.562)" fill="#c7885a"/>
        </g>
      </g>
      <g id="Group_7969" data-name="Group 7969" transform="translate(11.48 28.203)">
        <g id="Group_7968" data-name="Group 7968">
          <path id="Path_34699" data-name="Path 34699" d="M422.056-982.136c-.1-.127-.3-.118-.454-.116a1.413,1.413,0,0,0-.236.02c-.089.015-.157.057-.243.077-.07.017-.056.122.013.143s.148.067.231.085a1.54,1.54,0,0,0,.271.043c.155.009.344.027.432-.1A.12.12,0,0,0,422.056-982.136Z" transform="translate(-421.077 982.253)" fill="#c7885a"/>
        </g>
      </g>
      <g id="Group_7971" data-name="Group 7971" transform="translate(7.16 4.242)">
        <g id="Group_7970" data-name="Group 7970">
          <path id="Path_34700" data-name="Path 34700" d="M417.761-1004.183a.727.727,0,0,0-.44-.063c-.113.026-.214.095-.212.212a.306.306,0,0,0,.2.266.715.715,0,0,0,.44.05C418.007-1003.758,418.017-1004.076,417.761-1004.183Z" transform="translate(-417.109 1004.259)" fill="#c7885a"/>
        </g>
      </g>
      <g id="Group_7973" data-name="Group 7973" transform="translate(5.515 10.228)">
        <g id="Group_7972" data-name="Group 7972">
          <path id="Path_34701" data-name="Path 34701" d="M416.25-998.685a.726.726,0,0,0-.44-.063c-.112.026-.214.095-.212.212a.309.309,0,0,0,.2.266.72.72,0,0,0,.441.05C416.5-998.26,416.506-998.578,416.25-998.685Z" transform="translate(-415.598 998.761)" fill="#c7885a"/>
        </g>
      </g>
      <g id="Group_7975" data-name="Group 7975" transform="translate(13.529 19.983)">
        <g id="Group_7974" data-name="Group 7974">
          <path id="Path_34702" data-name="Path 34702" d="M423.61-989.725a.717.717,0,0,0-.44-.064c-.112.027-.215.095-.212.212a.309.309,0,0,0,.2.266.713.713,0,0,0,.441.05C423.857-989.3,423.866-989.618,423.61-989.725Z" transform="translate(-422.958 989.802)" fill="#c7885a"/>
        </g>
      </g>
      <g id="Group_7977" data-name="Group 7977" transform="translate(5.091 26.342)">
        <g id="Group_7976" data-name="Group 7976">
          <path id="Path_34703" data-name="Path 34703" d="M415.753-983.921a.393.393,0,0,0-.216-.038.575.575,0,0,0-.185.065.218.218,0,0,0-.126.289.308.308,0,0,0,.318.182.609.609,0,0,0,.243-.075.276.276,0,0,0,.112-.139A.207.207,0,0,0,415.753-983.921Z" transform="translate(-415.209 983.961)" fill="#c7885a"/>
        </g>
      </g>
      <g id="Group_7979" data-name="Group 7979" transform="translate(11.287 22.159)">
        <g id="Group_7978" data-name="Group 7978">
          <path id="Path_34704" data-name="Path 34704" d="M421.445-987.762a.383.383,0,0,0-.216-.038.54.54,0,0,0-.185.064.218.218,0,0,0-.126.29.309.309,0,0,0,.318.182.615.615,0,0,0,.242-.075.274.274,0,0,0,.112-.139A.206.206,0,0,0,421.445-987.762Z" transform="translate(-420.899 987.803)" fill="#c7885a"/>
        </g>
      </g>
      <g id="Group_7981" data-name="Group 7981" transform="translate(4.925 22.152)">
        <g id="Group_7980" data-name="Group 7980">
          <path id="Path_34705" data-name="Path 34705" d="M415.058-987.546c-.022.173.164.374.408.4s.466-.072.489-.258-.165-.372-.409-.4S415.08-987.731,415.058-987.546Z" transform="translate(-415.056 987.809)" fill="#c7885a"/>
        </g>
      </g>
      <g id="Group_7982" data-name="Group 7982" transform="translate(2.896 9.578)">
        <path id="Path_34706" data-name="Path 34706" d="M414.365-999.056a.3.3,0,0,0-.2-.265.436.436,0,0,0-.161-.03.87.87,0,0,0-.769.375c-.143.217.069.465.344.46a.857.857,0,0,0,.727-.378A.308.308,0,0,0,414.365-999.056Z" transform="translate(-413.193 999.358)" fill="#955130"/>
      </g>
      <g id="Group_7983" data-name="Group 7983" transform="translate(9.689 17.116)">
        <path id="Path_34707" data-name="Path 34707" d="M420.411-992.318c-.106-.127-.3-.118-.455-.116a1.413,1.413,0,0,0-.235.02c-.09.015-.158.057-.244.077-.069.017-.056.122.013.143s.149.066.231.086a1.661,1.661,0,0,0,.271.041c.155.009.345.027.433-.1A.121.121,0,0,0,420.411-992.318Z" transform="translate(-419.431 992.435)" fill="#955130"/>
      </g>
      <g id="Group_7984" data-name="Group 7984" transform="translate(11.687 17.186)">
        <path id="Path_34708" data-name="Path 34708" d="M422.242-992.252c-.107-.129-.3-.119-.454-.118a1.378,1.378,0,0,0-.234.02c-.09.015-.157.056-.242.077-.069.017-.054.121.015.141s.148.066.231.086a1.544,1.544,0,0,0,.27.042c.155.009.344.028.43-.095A.12.12,0,0,0,422.242-992.252Z" transform="translate(-421.267 992.371)" fill="#955130"/>
      </g>
      <g id="Group_7985" data-name="Group 7985" transform="translate(9.159 11.244)">
        <path id="Path_34709" data-name="Path 34709" d="M419.6-997.751a.718.718,0,0,0-.44-.064c-.112.026-.215.095-.211.212a.306.306,0,0,0,.2.266.709.709,0,0,0,.44.05C419.843-997.327,419.853-997.644,419.6-997.751Z" transform="translate(-418.945 997.828)" fill="#955130"/>
      </g>
      <g id="Group_7986" data-name="Group 7986" transform="translate(7.971 15.179)">
        <path id="Path_34710" data-name="Path 34710" d="M418.4-994.173a.394.394,0,0,0-.216-.038.565.565,0,0,0-.185.065.216.216,0,0,0-.126.288.308.308,0,0,0,.318.182.6.6,0,0,0,.242-.075.27.27,0,0,0,.112-.139A.206.206,0,0,0,418.4-994.173Z" transform="translate(-417.854 994.214)" fill="#955130"/>
      </g>
      <g id="Group_7987" data-name="Group 7987" transform="translate(0.673 28.371)">
        <path id="Path_34711" data-name="Path 34711" d="M411.565-982.093a.374.374,0,0,0-.359.127.239.239,0,0,0-.045.136c-.069.258.224.59.5.74.291.162.632.017.63-.224a.842.842,0,0,0-.5-.7A.609.609,0,0,0,411.565-982.093Z" transform="translate(-411.151 982.098)" fill="#955130"/>
      </g>
      <g id="Group_7988" data-name="Group 7988" transform="translate(9.907 26.407)">
        <path id="Path_34712" data-name="Path 34712" d="M419.789-983.882c-.173.072-.158.247-.156.381a.87.87,0,0,0,.028.21c.022.082.077.147.107.226a.127.127,0,0,0,.194.011c.032-.068.089-.121.115-.19a.826.826,0,0,0,.054-.232c.011-.134.035-.3-.133-.4A.235.235,0,0,0,419.789-983.882Z" transform="translate(-419.632 983.902)" fill="#955130"/>
      </g>
      <g id="Group_7989" data-name="Group 7989" transform="translate(17.441 18.341)">
        <path id="Path_34713" data-name="Path 34713" d="M426.634-991.186a.411.411,0,0,0-.058.381.369.369,0,0,0,.3.231.349.349,0,0,0,.344-.127.41.41,0,0,0,.038-.384A.379.379,0,0,0,426.634-991.186Z" transform="translate(-426.551 991.31)" fill="#955130"/>
      </g>
      <g id="Group_7990" data-name="Group 7990" transform="translate(6.702 27.577)">
        <path id="Path_34714" data-name="Path 34714" d="M416.792-982.7a.411.411,0,0,0-.086.378.332.332,0,0,0,.287.225.385.385,0,0,0,.36-.128.406.406,0,0,0,.068-.38A.382.382,0,0,0,416.792-982.7Z" transform="translate(-416.689 982.827)" fill="#955130"/>
      </g>
      <g id="Group_7991" data-name="Group 7991" transform="translate(2.24 12.657)">
        <path id="Path_34715" data-name="Path 34715" d="M412.592-996.267c-.021.173.164.372.408.4s.467-.073.489-.258-.165-.372-.408-.4S412.615-996.452,412.592-996.267Z" transform="translate(-412.591 996.53)" fill="#955130"/>
      </g>
      <g id="Group_7992" data-name="Group 7992" transform="translate(0.419 6.729)">
        <path id="Path_34716" data-name="Path 34716" d="M411.38-1001.8l-.4.29c-.216.155.226.476.458.329l.429-.272c.144-.091.289-.194.274-.349-.008-.1-.1-.167-.247-.175A.762.762,0,0,0,411.38-1001.8Z" transform="translate(-410.918 1001.975)" fill="#955130"/>
      </g>
      <g id="Group_7993" data-name="Group 7993" transform="translate(0.706 17.075)">
        <path id="Path_34717" data-name="Path 34717" d="M411.358-992.449c-.219.1-.2.28-.134.438a.9.9,0,0,0,.4.512.687.687,0,0,0,.582.035c.158-.121.081-.3.042-.458a.712.712,0,0,0-.422-.474A.679.679,0,0,0,411.358-992.449Z" transform="translate(-411.182 992.472)" fill="#955130"/>
      </g>
      <g id="Group_7994" data-name="Group 7994" transform="translate(12.038 18.912)">
        <path id="Path_34718" data-name="Path 34718" d="M421.763-990.762c-.218.1-.194.278-.13.434a.909.909,0,0,0,.4.51.7.7,0,0,0,.583.036c.156-.121.077-.3.037-.456a.721.721,0,0,0-.426-.471A.681.681,0,0,0,421.763-990.762Z" transform="translate(-421.589 990.785)" fill="#955130"/>
      </g>
      <g id="Group_7995" data-name="Group 7995" transform="translate(24.577 7.413)">
        <path id="Path_34719" data-name="Path 34719" d="M433.776-1001.273a.728.728,0,0,0-.443-.06c-.115.026-.223.094-.228.21a.281.281,0,0,0,.186.261.736.736,0,0,0,.445.047A.233.233,0,0,0,433.776-1001.273Z" transform="translate(-433.105 1001.347)" fill="#955130"/>
      </g>
      <g id="Group_7997" data-name="Group 7997" transform="translate(24.507 5.779)">
        <g id="Group_7996" data-name="Group 7996">
          <path id="Path_34720" data-name="Path 34720" d="M433.692-1002.77a.719.719,0,0,0-.44-.064c-.112.027-.215.095-.211.212a.306.306,0,0,0,.2.266.713.713,0,0,0,.441.05C433.939-1002.346,433.948-1002.663,433.692-1002.77Z" transform="translate(-433.041 1002.847)" fill="#c7885a"/>
        </g>
      </g>
      <g id="Group_7999" data-name="Group 7999" transform="translate(22.264 7.956)">
        <g id="Group_7998" data-name="Group 7998">
          <path id="Path_34721" data-name="Path 34721" d="M431.527-1000.807a.383.383,0,0,0-.216-.038.54.54,0,0,0-.185.064.218.218,0,0,0-.126.29.309.309,0,0,0,.318.182.618.618,0,0,0,.242-.075.274.274,0,0,0,.112-.139A.206.206,0,0,0,431.527-1000.807Z" transform="translate(-430.981 1000.848)" fill="#c7885a"/>
        </g>
      </g>
      <g id="Group_8000" data-name="Group 8000" transform="translate(20.666 2.913)">
        <path id="Path_34722" data-name="Path 34722" d="M430.493-1005.362c-.106-.127-.3-.118-.455-.116a1.4,1.4,0,0,0-.235.02c-.09.016-.158.057-.244.077-.069.017-.056.122.013.143s.149.066.231.086a1.647,1.647,0,0,0,.271.041c.155.009.345.027.433-.1A.121.121,0,0,0,430.493-1005.362Z" transform="translate(-429.513 1005.48)" fill="#955130"/>
      </g>
      <g id="Group_8001" data-name="Group 8001" transform="translate(22.665 2.982)">
        <path id="Path_34723" data-name="Path 34723" d="M432.324-1005.3c-.107-.128-.3-.119-.454-.118a1.377,1.377,0,0,0-.234.02c-.089.015-.157.056-.242.077-.069.018-.054.121.015.142s.148.067.231.086a1.528,1.528,0,0,0,.271.042c.154.009.344.028.429-.095A.12.12,0,0,0,432.324-1005.3Z" transform="translate(-431.349 1005.416)" fill="#955130"/>
      </g>
      <g id="Group_8002" data-name="Group 8002" transform="translate(23.016 4.708)">
        <path id="Path_34724" data-name="Path 34724" d="M431.845-1003.807c-.218.1-.193.278-.13.435a.909.909,0,0,0,.4.509.7.7,0,0,0,.582.036c.156-.121.077-.3.037-.456a.721.721,0,0,0-.426-.471A.682.682,0,0,0,431.845-1003.807Z" transform="translate(-431.671 1003.83)" fill="#955130"/>
      </g>
      <g id="Group_8003" data-name="Group 8003" transform="translate(3.115 20.293)">
        <path id="Path_34725" data-name="Path 34725" d="M413.641-989.468a1.162,1.162,0,0,0-.1.139.276.276,0,0,0-.133.182.507.507,0,0,0,.14.5c.132.168.5.2.6.019a.458.458,0,0,0,.09-.475.367.367,0,0,0-.152-.2,1.343,1.343,0,0,0-.112-.144A.26.26,0,0,0,413.641-989.468Z" transform="translate(-413.394 989.517)" fill="#955130"/>
      </g>
      <g id="Group_8004" data-name="Group 8004" transform="translate(4.282 4.645)">
        <path id="Path_34726" data-name="Path 34726" d="M414.466-1003.627c-.028.451,1.015.629,1.044.179S414.5-1004.078,414.466-1003.627Z" transform="translate(-414.465 1003.889)" fill="#955130"/>
      </g>
      <g id="Group_8005" data-name="Group 8005" transform="translate(21.802 21.197)">
        <path id="Path_34727" data-name="Path 34727" d="M430.774-988.641a.337.337,0,0,0-.164.166c-.016.041-.031.083-.045.124-.052.156.152.343.364.368s.47-.067.478-.24c0-.044,0-.087,0-.131a.306.306,0,0,0-.1-.2A.5.5,0,0,0,430.774-988.641Z" transform="translate(-430.556 988.686)" fill="#955130"/>
      </g>
      <g id="Group_8006" data-name="Group 8006" transform="translate(3.32 28.195)">
        <path id="Path_34728" data-name="Path 34728" d="M413.639-982.144a.223.223,0,0,0-.053.183.439.439,0,0,0,.086.173.4.4,0,0,0,.392.157c.151-.021.281-.13.25-.248a.466.466,0,0,0-.1-.224.434.434,0,0,0-.189-.121A.306.306,0,0,0,413.639-982.144Z" transform="translate(-413.582 982.259)" fill="#955130"/>
      </g>
    </g>
    <g id="Group_8010" data-name="Group 8010" transform="translate(33.102)">
      <g id="Group_8008" data-name="Group 8008" transform="translate(0 0.062)">
        <path id="Path_34729" data-name="Path 34729" d="M441.923-999.837l-.007-.327c0-.109-.015-.218-.023-.326a12.31,12.31,0,0,0-.43-2.582,10.674,10.674,0,0,0-1-2.429,10.468,10.468,0,0,0-1.581-2.1,12.079,12.079,0,0,0-2.024-1.662,15.044,15.044,0,0,0-2.3-1.228,19.236,19.236,0,0,0-2.451-.865,28.648,28.648,0,0,0-5.089-.923c-.857-.083-1.717-.137-2.576-.168q-.723-.021-1.445-.021.621,0,1.242.021c.859.031,1.719.085,2.576.168a28.648,28.648,0,0,1,5.089.923,19.294,19.294,0,0,1,2.451.865,15.046,15.046,0,0,1,2.3,1.228,12.078,12.078,0,0,1,2.024,1.662,10.471,10.471,0,0,1,1.581,2.1,10.674,10.674,0,0,1,1,2.429,12.31,12.31,0,0,1,.43,2.582c.008.108.021.217.023.326l.007.327.007.327c0,.109.005.217,0,.326l-.023.652-.007.162-.013.162-.028.324-.028.324-.015.161-.022.161-.088.645c-.025.216-.071.427-.109.64l-.12.638-.005.027-.015.033a2.572,2.572,0,0,0-.121.307c-.018.054-.036.109-.051.166s-.032.111-.044.168a4.728,4.728,0,0,0-.112.69,5.46,5.46,0,0,0,.06,1.4c.011.059.017.116.031.174l.039.173.04.172c.014.058.034.113.05.17l.106.35c.037.125.068.249.094.373a13.506,13.506,0,0,1,.209,1.474c.095.982.136,1.964.151,2.946s0,1.964-.052,2.944a36.177,36.177,0,0,1-.624,5.3c-.029.164-.059.33-.091.494a18.113,18.113,0,0,1-.561,2.2l.162-.09a18.953,18.953,0,0,0,.581-2.065,35,35,0,0,0,.735-5.837c.05-.98.065-1.962.052-2.944s-.057-1.964-.151-2.946a13.513,13.513,0,0,0-.209-1.474c-.026-.124-.057-.248-.094-.373l-.106-.35c-.016-.057-.036-.112-.05-.17l-.04-.172-.039-.173c-.013-.058-.02-.115-.03-.174a5.506,5.506,0,0,1-.06-1.4,4.72,4.72,0,0,1,.112-.69c.012-.057.028-.112.043-.168s.033-.111.051-.166a2.578,2.578,0,0,1,.121-.307l.015-.033.005-.027.12-.638c.038-.213.084-.425.109-.64l.088-.645.022-.161.015-.161.028-.324.028-.324.013-.162.007-.162.023-.652c.007-.109,0-.217,0-.326Z" transform="translate(-414.097 1015.906)" fill="#7c3e32"/>
        <path id="Path_34730" data-name="Path 34730" d="M414.885-1011.716l-.062.033a63.632,63.632,0,0,1,7.694-.5h-.125A63.7,63.7,0,0,0,414.885-1011.716Z" transform="translate(-414.823 1015.931)" fill="#7c3e32"/>
        <path id="Path_34731" data-name="Path 34731" d="M425.939-1014.208q-2.883.01-5.76.28l-.094.029q2.982-.294,5.979-.308Z" transform="translate(-414.356 1015.751)" fill="#7c3e32"/>
        <path id="Path_34732" data-name="Path 34732" d="M445.61-1001.861l-.007-.326c0-.109-.015-.218-.023-.327a12.314,12.314,0,0,0-.43-2.58,10.634,10.634,0,0,0-1-2.429,10.445,10.445,0,0,0-1.581-2.1,12.016,12.016,0,0,0-2.024-1.661,14.9,14.9,0,0,0-2.3-1.229,19.059,19.059,0,0,0-2.451-.864,28.66,28.66,0,0,0-5.089-.923q-1.285-.124-2.576-.168-.723-.021-1.445-.021.621,0,1.242.021,1.289.046,2.576.168a28.66,28.66,0,0,1,5.089.923,19.063,19.063,0,0,1,2.451.864,14.9,14.9,0,0,1,2.3,1.229,12.015,12.015,0,0,1,2.024,1.661,10.443,10.443,0,0,1,1.581,2.1,10.629,10.629,0,0,1,1,2.429,12.313,12.313,0,0,1,.43,2.58c.008.109.021.218.023.327l.007.326.007.327c0,.109.005.218,0,.327l-.023.651-.005.163-.014.161-.028.324-.028.324-.014.162-.023.161-.088.643c-.025.216-.071.428-.109.64l-.12.638-.005.027-.015.033a2.637,2.637,0,0,0-.121.307c-.018.054-.036.11-.051.166s-.032.111-.044.169a4.74,4.74,0,0,0-.112.689,5.517,5.517,0,0,0,.06,1.4c.011.058.017.116.03.174l.039.172.04.172c.014.058.034.114.05.171l.106.35c.037.125.068.249.094.372a13.816,13.816,0,0,1,.21,1.475c.094.982.135,1.964.15,2.946s0,1.963-.052,2.943a36.177,36.177,0,0,1-.624,5.3c-.028.165-.059.331-.09.5a17.7,17.7,0,0,1-.639,2.425l.146-.065a17.912,17.912,0,0,0,.675-2.321,34.976,34.976,0,0,0,.735-5.837c.05-.98.065-1.962.052-2.943s-.057-1.964-.15-2.946a13.839,13.839,0,0,0-.21-1.475c-.026-.123-.057-.247-.094-.372l-.106-.35c-.016-.057-.036-.113-.05-.171l-.039-.172-.04-.172c-.013-.058-.02-.117-.03-.174a5.516,5.516,0,0,1-.06-1.4,4.74,4.74,0,0,1,.112-.689c.012-.058.028-.113.044-.169s.033-.111.051-.166a2.637,2.637,0,0,1,.121-.307l.015-.033.005-.027.12-.638c.038-.212.084-.425.109-.64l.088-.643.023-.161.014-.162.028-.324.028-.324.014-.161.005-.163.023-.651c.007-.109,0-.218,0-.327Z" transform="translate(-413.769 1015.726)" fill="#7c3e32"/>
        <path id="Path_34733" data-name="Path 34733" d="M448.946-1003.312l-.006-.327c0-.109-.015-.217-.023-.325a12.324,12.324,0,0,0-.43-2.582,10.649,10.649,0,0,0-1-2.428,10.437,10.437,0,0,0-1.581-2.1,12.032,12.032,0,0,0-2.024-1.662,14.984,14.984,0,0,0-2.3-1.229,19.079,19.079,0,0,0-2.451-.863,27.277,27.277,0,0,0-3.864-.784l-.319-.015a27.493,27.493,0,0,1,3.981.8,19.078,19.078,0,0,1,2.451.863,14.983,14.983,0,0,1,2.3,1.229,12.032,12.032,0,0,1,2.024,1.662,10.437,10.437,0,0,1,1.581,2.1,10.652,10.652,0,0,1,1,2.428,12.33,12.33,0,0,1,.43,2.582c.008.109.021.217.023.325l.007.327.006.327c0,.109.005.218,0,.326l-.023.652-.007.162-.013.162-.028.324-.028.324-.015.162-.022.16-.088.645c-.025.216-.071.427-.109.64l-.12.638-.005.027-.015.033a2.581,2.581,0,0,0-.121.307c-.019.055-.036.109-.051.166s-.032.111-.044.168a4.732,4.732,0,0,0-.112.69,5.517,5.517,0,0,0,.06,1.4c.011.058.017.116.031.173l.039.173.04.172c.014.058.034.113.05.17l.106.349c.037.126.067.249.094.373a13.549,13.549,0,0,1,.209,1.474c.095.982.136,1.964.151,2.946s0,1.964-.052,2.944a36.185,36.185,0,0,1-.624,5.3c-.028.165-.059.33-.09.5a18.279,18.279,0,0,1-.568,2.216l.151-.063a18.708,18.708,0,0,0,.6-2.114,35.008,35.008,0,0,0,.735-5.837c.05-.98.065-1.962.052-2.944s-.057-1.964-.151-2.946a13.542,13.542,0,0,0-.209-1.474c-.026-.124-.057-.247-.094-.373l-.106-.349c-.016-.057-.036-.112-.05-.17l-.04-.172-.039-.173c-.013-.057-.02-.115-.031-.173a5.519,5.519,0,0,1-.06-1.4,4.728,4.728,0,0,1,.112-.69c.012-.057.028-.112.044-.168s.033-.111.051-.166a2.587,2.587,0,0,1,.121-.307l.015-.033.005-.027.12-.638c.038-.213.084-.425.109-.64l.088-.645.022-.16.015-.162.028-.324.028-.324.014-.162.005-.162.023-.652c.007-.108,0-.217,0-.326Z" transform="translate(-413.035 1015.625)" fill="#7c3e32"/>
        <path id="Path_34734" data-name="Path 34734" d="M451.049-999c.012-.058.028-.115.044-.172s.033-.113.051-.169a2.738,2.738,0,0,1,.121-.316l.016-.033,0-.027.118-.642c.038-.214.084-.428.109-.645.057-.433.123-.864.151-1.3a17.289,17.289,0,0,0,.046-2.623l-.051-.655c-.026-.219-.059-.435-.088-.653s-.075-.433-.118-.65l-.065-.323c-.023-.108-.057-.213-.084-.32a10.6,10.6,0,0,0-.96-2.462,10.67,10.67,0,0,0-1.537-2.15,11.919,11.919,0,0,0-1.928-1.677l-.319-.08.048.033a11.865,11.865,0,0,1,2,1.725,10.671,10.671,0,0,1,1.537,2.15,10.6,10.6,0,0,1,.96,2.462c.027.107.061.212.084.32l.065.323c.042.217.094.431.118.65s.062.434.088.653l.051.655a17.285,17.285,0,0,1-.046,2.623c-.028.437-.095.868-.151,1.3-.025.217-.072.43-.109.645l-.118.642,0,.027-.016.033a2.744,2.744,0,0,0-.121.316c-.019.055-.036.112-.051.169s-.032.114-.043.172a4.944,4.944,0,0,0-.112.707,5.7,5.7,0,0,0,.06,1.434c.01.06.017.12.029.179l.04.176.04.176c.014.058.033.115.049.174l.107.357c.037.127.068.254.093.38a14.124,14.124,0,0,1,.21,1.5c.094,1,.136,2,.15,3.006s0,2-.051,3.005a37.725,37.725,0,0,1-.628,5.451q-.041.235-.085.47c-.06.316-.127.63-.2.943l.184-.071c.072-.278.138-.555.2-.835a36.434,36.434,0,0,0,.732-5.958c.05-1,.065-2,.052-3.005s-.058-2-.151-3.006a14.086,14.086,0,0,0-.21-1.5c-.025-.126-.056-.253-.093-.38l-.107-.357c-.016-.059-.035-.116-.049-.174l-.04-.176-.04-.176c-.012-.059-.02-.119-.029-.179a5.706,5.706,0,0,1-.06-1.434A4.944,4.944,0,0,1,451.049-999Z" transform="translate(-412.004 1015.778)" fill="#7c3e32"/>
        <path id="Path_34735" data-name="Path 34735" d="M454.906-993.872a14.374,14.374,0,0,0-.21-1.5c-.026-.126-.056-.253-.093-.381l-.107-.357c-.016-.058-.035-.115-.049-.174l-.04-.176-.04-.176c-.012-.059-.02-.119-.029-.177a5.713,5.713,0,0,1-.06-1.435,4.956,4.956,0,0,1,.112-.705c.012-.058.028-.115.044-.172s.033-.114.051-.17a2.714,2.714,0,0,1,.121-.315l.016-.033,0-.027.118-.642c.037-.216.084-.428.109-.646.057-.432.123-.864.151-1.3a17.3,17.3,0,0,0,.046-2.623l-.051-.657c-.026-.218-.059-.436-.088-.653s-.075-.433-.118-.649l-.065-.323c-.023-.108-.057-.213-.084-.32a10.607,10.607,0,0,0-.96-2.462,10.641,10.641,0,0,0-1.323-1.911c-.119-.06-.24-.12-.363-.179a10.664,10.664,0,0,1,1.483,2.089,10.611,10.611,0,0,1,.96,2.462c.027.107.061.212.084.32l.065.323c.042.216.094.43.118.649s.062.436.088.653l.051.657a17.277,17.277,0,0,1-.046,2.623c-.028.437-.095.868-.151,1.3-.025.218-.072.43-.109.646l-.118.642,0,.027-.016.033a2.72,2.72,0,0,0-.121.315c-.018.056-.036.112-.051.17s-.032.114-.044.172a4.666,4.666,0,0,0-.112.705,5.716,5.716,0,0,0,.06,1.435c.01.059.017.119.029.177l.04.176.04.176c.014.059.033.116.049.174l.107.357c.037.128.066.255.093.381a14.382,14.382,0,0,1,.21,1.5c.094,1,.136,2,.15,3.006s0,2-.051,3a39.675,39.675,0,0,1-.5,4.734c.076-.045.151-.089.225-.135a39.937,39.937,0,0,0,.473-4.6c.05-1,.065-2,.051-3S455-992.87,454.906-993.872Z" transform="translate(-411.521 1015.943)" fill="#7c3e32"/>
      </g>
      <g id="Group_8009" data-name="Group 8009" transform="translate(0.062)">
        <path id="Path_34736" data-name="Path 34736" d="M442.441-999.837l-.007-.327c0-.109-.015-.218-.023-.326a12.306,12.306,0,0,0-.43-2.582,10.672,10.672,0,0,0-1-2.429,10.47,10.47,0,0,0-1.581-2.1,12.078,12.078,0,0,0-2.024-1.662,15.046,15.046,0,0,0-2.3-1.228,19.3,19.3,0,0,0-2.451-.865,28.649,28.649,0,0,0-5.089-.923c-.857-.083-1.717-.137-2.576-.168q-.622-.018-1.242-.021-.67,0-1.337.012c-1.719.034-3.434.16-5.139.352q-1.055.121-2.1.273l-.079.041-.18.095a63.671,63.671,0,0,1,7.506-.468h.125a45.615,45.615,0,0,1,4.988.263,29.6,29.6,0,0,1,5.005.971,16.878,16.878,0,0,1,4.608,2.07,11.52,11.52,0,0,1,1.936,1.6,9.864,9.864,0,0,1,1.5,2,10.552,10.552,0,0,1,.948,2.316,11.907,11.907,0,0,1,.42,2.48c.008.106.021.21.023.315l.007.317.008.316c0,.106.005.211,0,.317l-.02.634-.005.158-.014.158-.026.317a23.615,23.615,0,0,1-.355,2.493,3.279,3.279,0,0,0-.128.338c-.02.062-.039.124-.054.186s-.035.124-.048.187a5.249,5.249,0,0,0-.117.758,5.91,5.91,0,0,0,.078,1.519c.012.062.021.125.034.186l.045.185.045.185c.016.061.036.121.054.181l.11.352c.034.109.062.222.087.338.1.464.166.945.22,1.426a43.629,43.629,0,0,1,.188,5.834c-.028.975-.087,1.948-.183,2.918s-.223,1.937-.41,2.893a17.685,17.685,0,0,1-.61,2.342L441-975.7a18.316,18.316,0,0,0,.634-2.209c.039-.177.075-.356.111-.534a36.173,36.173,0,0,0,.624-5.3c.05-.98.065-1.962.052-2.944s-.057-1.964-.151-2.946a13.5,13.5,0,0,0-.209-1.474c-.026-.124-.057-.248-.094-.373l-.106-.35c-.016-.057-.036-.112-.05-.17l-.04-.172-.039-.173c-.013-.058-.02-.115-.03-.174a5.46,5.46,0,0,1-.06-1.4,4.732,4.732,0,0,1,.112-.69c.012-.057.028-.112.044-.168s.033-.111.051-.166a2.578,2.578,0,0,1,.121-.307l.015-.033.005-.027.12-.638c.038-.213.084-.425.109-.64l.088-.645.022-.161.015-.161.028-.324.028-.324.013-.162.007-.162.023-.652c.007-.109,0-.217,0-.326Z" transform="translate(-414.88 1015.967)" fill="#542113"/>
        <path id="Path_34737" data-name="Path 34737" d="M445.986-1001.861l-.007-.326c0-.109-.015-.218-.023-.327a12.312,12.312,0,0,0-.43-2.58,10.63,10.63,0,0,0-1-2.429,10.444,10.444,0,0,0-1.581-2.1,12.018,12.018,0,0,0-2.024-1.661,14.9,14.9,0,0,0-2.3-1.229,19.06,19.06,0,0,0-2.451-.864,28.659,28.659,0,0,0-5.089-.923q-1.285-.124-2.576-.168-.622-.02-1.242-.021-.668,0-1.337.011c-1.653.033-3.3.151-4.941.331l-.136.038c-.228.065-.454.134-.679.2q2.873-.27,5.76-.28h.125a45.618,45.618,0,0,1,4.988.265,29.707,29.707,0,0,1,5.005.97,16.884,16.884,0,0,1,4.608,2.071,11.437,11.437,0,0,1,1.936,1.6,9.886,9.886,0,0,1,1.5,2,10.568,10.568,0,0,1,.948,2.317,11.838,11.838,0,0,1,.42,2.48c.008.1.021.209.023.315l.007.316.008.317c0,.105.006.21,0,.316l-.02.634-.005.158-.014.159-.026.316a23.626,23.626,0,0,1-.355,2.494,3.171,3.171,0,0,0-.128.338c-.02.061-.039.123-.054.185s-.035.125-.048.187a5.3,5.3,0,0,0-.117.758,5.962,5.962,0,0,0,.078,1.519c.012.062.021.125.034.187l.045.185.045.184c.016.061.037.121.054.182l.11.35c.034.109.062.222.087.339.1.463.165.945.22,1.426a43.619,43.619,0,0,1,.188,5.834c-.028.973-.087,1.948-.183,2.917s-.223,1.938-.409,2.894a17.346,17.346,0,0,1-.678,2.534l.145-.065a17.8,17.8,0,0,0,.715-2.43c.039-.177.075-.355.111-.534a36.181,36.181,0,0,0,.624-5.3c.05-.98.065-1.962.052-2.943s-.057-1.964-.15-2.946a13.831,13.831,0,0,0-.21-1.475c-.026-.123-.057-.247-.094-.372l-.106-.35c-.016-.057-.036-.113-.05-.171l-.04-.172-.039-.172c-.013-.058-.02-.117-.03-.174a5.517,5.517,0,0,1-.06-1.4,4.736,4.736,0,0,1,.112-.689c.012-.058.028-.113.043-.169s.033-.111.051-.166a2.637,2.637,0,0,1,.121-.307l.015-.033.005-.027.12-.638c.038-.212.084-.425.109-.64l.088-.643.023-.161.014-.162.028-.324.028-.324.014-.161.005-.163.023-.651c.007-.109,0-.218,0-.327Z" transform="translate(-414.41 1015.788)" fill="#542113"/>
        <path id="Path_34738" data-name="Path 34738" d="M449.17-1003.307l-.007-.327c0-.109-.015-.217-.023-.325a12.325,12.325,0,0,0-.43-2.582,10.652,10.652,0,0,0-1-2.428,10.441,10.441,0,0,0-1.581-2.1,12.007,12.007,0,0,0-2.024-1.662,14.973,14.973,0,0,0-2.3-1.229,19.1,19.1,0,0,0-2.451-.863,27.51,27.51,0,0,0-3.981-.8l-.38-.016-.039,0h-.026q-.988-.039-1.975-.041a.012.012,0,0,0-.012,0q-1.375-.007-2.744.059l-.057,0c1.365.025,2.73.1,4.085.255a29.613,29.613,0,0,1,5.005.971,16.851,16.851,0,0,1,4.608,2.071,11.483,11.483,0,0,1,1.936,1.6,9.9,9.9,0,0,1,1.5,2,10.54,10.54,0,0,1,.948,2.317,11.912,11.912,0,0,1,.42,2.479c.008.106.021.21.023.316l.007.316.008.316c0,.106.007.211,0,.317l-.02.634-.005.158-.014.158-.026.317a23.614,23.614,0,0,1-.355,2.493,3.343,3.343,0,0,0-.128.338c-.02.062-.039.124-.054.186s-.035.124-.048.187a5.239,5.239,0,0,0-.116.758,5.909,5.909,0,0,0,.078,1.519c.012.062.021.125.034.187l.045.184.045.185c.016.061.037.121.054.181l.11.352c.034.109.062.222.087.337.1.464.165.945.22,1.426a43.63,43.63,0,0,1,.188,5.834c-.028.974-.087,1.948-.183,2.918s-.223,1.937-.41,2.894a17.821,17.821,0,0,1-.6,2.314l.149-.062a18.589,18.589,0,0,0,.635-2.214c.039-.177.075-.356.111-.533a36.177,36.177,0,0,0,.624-5.3c.05-.98.065-1.962.052-2.944s-.057-1.964-.151-2.946a13.527,13.527,0,0,0-.209-1.474c-.026-.124-.057-.247-.094-.373l-.106-.35c-.016-.057-.036-.112-.05-.17l-.04-.172-.039-.173c-.013-.057-.02-.115-.03-.173a5.52,5.52,0,0,1-.06-1.4,4.732,4.732,0,0,1,.112-.69c.012-.057.028-.112.044-.168s.033-.111.051-.166a2.575,2.575,0,0,1,.121-.307l.015-.033.005-.027.12-.638c.038-.213.084-.425.109-.64l.088-.645.022-.16.015-.162.028-.324.028-.324.013-.162.007-.162.023-.652c.007-.108,0-.217,0-.326Z" transform="translate(-413.524 1015.682)" fill="#542113"/>
        <path id="Path_34739" data-name="Path 34739" d="M450.971-998.972c.012-.058.028-.114.044-.172s.033-.113.051-.169a2.747,2.747,0,0,1,.121-.316l.016-.033,0-.027.118-.642c.037-.214.084-.428.109-.645.057-.433.123-.864.151-1.3a17.291,17.291,0,0,0,.046-2.623l-.051-.656c-.026-.219-.059-.435-.088-.653s-.075-.433-.118-.65l-.065-.323c-.023-.108-.057-.213-.084-.32a10.6,10.6,0,0,0-.96-2.462,10.668,10.668,0,0,0-1.537-2.15,11.861,11.861,0,0,0-2-1.725l-.048-.033q-.51-.131-1.023-.253l-.158-.036-.345-.08a14.378,14.378,0,0,1,1.3.8,11.468,11.468,0,0,1,1.91,1.658,10.226,10.226,0,0,1,1.46,2.055,10.494,10.494,0,0,1,.915,2.353c.026.1.059.2.081.306l.064.311c.04.207.091.413.114.624s.061.419.087.629l.051.635a16.763,16.763,0,0,1-.037,2.55c-.026.426-.091.848-.145,1.272-.024.212-.066.422-.1.633l-.107.611a3.124,3.124,0,0,0-.128.345c-.021.063-.039.126-.056.19s-.034.127-.047.192a5.308,5.308,0,0,0-.115.772,6.192,6.192,0,0,0,.077,1.548c.012.064.021.127.034.191l.045.188.045.188c.015.063.036.124.054.186l.11.359c.034.111.062.227.087.345.1.475.164.966.22,1.458a45.442,45.442,0,0,1,.189,5.955c-.028.994-.087,1.988-.182,2.979s-.222,1.977-.408,2.955q-.1.516-.221,1.03l.182-.071q.121-.459.223-.922c.036-.169.07-.338.1-.507a37.723,37.723,0,0,0,.628-5.451c.05-1,.065-2,.051-3.005s-.057-2-.15-3.006a14.111,14.111,0,0,0-.21-1.5c-.025-.126-.056-.253-.093-.38l-.107-.357c-.016-.059-.035-.117-.049-.174l-.04-.176-.04-.176c-.012-.059-.02-.119-.029-.179a5.7,5.7,0,0,1-.06-1.434A4.944,4.944,0,0,1,450.971-998.972Z" transform="translate(-412.191 1015.81)" fill="#542113"/>
        <path id="Path_34740" data-name="Path 34740" d="M454.808-993.826a14.369,14.369,0,0,0-.21-1.5c-.026-.126-.056-.253-.093-.381l-.107-.357c-.016-.058-.035-.115-.049-.174l-.04-.177-.04-.176c-.012-.059-.02-.119-.029-.177a5.716,5.716,0,0,1-.06-1.435,4.664,4.664,0,0,1,.112-.705c.012-.058.028-.115.044-.172s.033-.114.051-.17a2.72,2.72,0,0,1,.121-.315l.016-.033,0-.027.118-.642c.037-.216.084-.428.109-.646.057-.432.123-.863.151-1.3a17.281,17.281,0,0,0,.046-2.623l-.051-.656c-.026-.218-.059-.436-.088-.653s-.075-.433-.118-.649l-.065-.323c-.023-.108-.057-.213-.084-.32a10.612,10.612,0,0,0-.96-2.462,10.659,10.659,0,0,0-1.483-2.089c-.265-.127-.537-.253-.82-.376l-.077-.033c-.085-.036-.169-.073-.256-.108l-.125-.051a11.224,11.224,0,0,1,.86.84,10.229,10.229,0,0,1,1.46,2.055,10.472,10.472,0,0,1,.915,2.353c.026.1.059.2.081.306l.064.31c.04.208.091.414.114.625s.061.419.087.629l.051.635a16.766,16.766,0,0,1-.037,2.55c-.026.426-.091.848-.145,1.272-.024.212-.066.421-.1.633l-.107.61a3.171,3.171,0,0,0-.128.346q-.031.095-.056.19c-.016.063-.034.126-.047.19a5.318,5.318,0,0,0-.115.773,6.187,6.187,0,0,0,.077,1.548c.012.063.021.127.034.191l.045.188.045.188c.015.062.036.123.054.185l.11.359c.034.111.062.228.087.346.1.474.164.966.22,1.457a45.657,45.657,0,0,1,.189,5.956c-.029.994-.087,1.988-.182,2.978-.063.637-.137,1.273-.231,1.905.074-.041.148-.083.221-.125l.022-.012a39.68,39.68,0,0,0,.5-4.734c.05-1,.065-2,.051-3S454.9-992.824,454.808-993.826Z" transform="translate(-411.688 1015.959)" fill="#542113"/>
      </g>
    </g>
    <g id="Group_8011" data-name="Group 8011" transform="translate(36.167 0.773)">
      <path id="Path_34741" data-name="Path 34741" d="M424.886-1012.537s-1.493-.222-1.266.607C423.828-1011.173,424.82-1012.233,424.886-1012.537Z" transform="translate(-417.108 1015.186)" fill="#955130"/>
      <path id="Path_34742" data-name="Path 34742" d="M429.218-1011.652s-1.494-.221-1.266.609C428.159-1010.287,429.151-1011.347,429.218-1011.652Z" transform="translate(-416.724 1015.264)" fill="#955130"/>
      <path id="Path_34743" data-name="Path 34743" d="M435.789-1007.024s-1.494-.221-1.266.609C434.73-1005.658,435.722-1006.72,435.789-1007.024Z" transform="translate(-416.14 1015.676)" fill="#955130"/>
      <path id="Path_34744" data-name="Path 34744" d="M432.706-1008.807s-.269,1.53.544,1.325C433.99-1007.668,433-1008.728,432.706-1008.807Z" transform="translate(-416.303 1015.52)" fill="#955130"/>
      <path id="Path_34745" data-name="Path 34745" d="M433.139-1010.729s-.268,1.531.544,1.326C434.425-1009.59,433.431-1010.648,433.139-1010.729Z" transform="translate(-416.264 1015.349)" fill="#955130"/>
      <path id="Path_34746" data-name="Path 34746" d="M431.61-1012.378s-1.031-1.136-1.358-.342C429.955-1012,431.373-1012.184,431.61-1012.378Z" transform="translate(-416.521 1015.147)" fill="#955130"/>
      <path id="Path_34747" data-name="Path 34747" d="M433.3-1010.86s-.268,1.531.545,1.326C434.584-1009.72,433.591-1010.779,433.3-1010.86Z" transform="translate(-416.25 1015.337)" fill="#c7885a"/>
      <path id="Path_34748" data-name="Path 34748" d="M431.769-1012.508s-1.031-1.136-1.357-.342C430.115-1012.127,431.533-1012.316,431.769-1012.508Z" transform="translate(-416.507 1015.136)" fill="#c7885a"/>
      <path id="Path_34749" data-name="Path 34749" d="M435.092-1011.588s1.508.024,1.18-.77C435.974-1013.08,435.121-1011.9,435.092-1011.588Z" transform="translate(-416.087 1015.184)" fill="#955130"/>
      <path id="Path_34750" data-name="Path 34750" d="M433.973-1014.037s1.127,1.033,1.382.211C435.587-1014.575,434.192-1014.253,433.973-1014.037Z" transform="translate(-416.187 1015.032)" fill="#955130"/>
      <path id="Path_34751" data-name="Path 34751" d="M434.906-1011.674s1.509.024,1.181-.77C435.788-1013.167,434.935-1011.985,434.906-1011.674Z" transform="translate(-416.104 1015.176)" fill="#c7885a"/>
      <path id="Path_34752" data-name="Path 34752" d="M433.787-1014.124s1.128,1.033,1.382.211C435.4-1014.662,434.006-1014.34,433.787-1014.124Z" transform="translate(-416.203 1015.024)" fill="#c7885a"/>
      <path id="Path_34753" data-name="Path 34753" d="M440.085-1006.94s-.268,1.531.544,1.326C441.37-1005.8,440.377-1006.859,440.085-1006.94Z" transform="translate(-415.648 1015.685)" fill="#955130"/>
      <path id="Path_34754" data-name="Path 34754" d="M446.446-1010.754s-.886-1.259-1.305-.513C444.758-1010.586,446.188-1010.592,446.446-1010.754Z" transform="translate(-415.201 1015.28)" fill="#955130"/>
      <path id="Path_34755" data-name="Path 34755" d="M443.592-1012.227s.85-1.284.027-1.439C442.869-1013.808,443.356-1012.423,443.592-1012.227Z" transform="translate(-415.366 1015.087)" fill="#955130"/>
      <path id="Path_34756" data-name="Path 34756" d="M446.427-1010.544s-.886-1.26-1.305-.514C444.739-1010.377,446.169-1010.383,446.427-1010.544Z" transform="translate(-415.202 1015.299)" fill="#c7885a"/>
      <path id="Path_34757" data-name="Path 34757" d="M443.573-1012.018s.85-1.284.027-1.44C442.85-1013.6,443.337-1012.214,443.573-1012.018Z" transform="translate(-415.367 1015.106)" fill="#c7885a"/>
      <path id="Path_34758" data-name="Path 34758" d="M421.521-1010.842s-1.03-1.135-1.357-.341C419.867-1010.46,421.285-1010.649,421.521-1010.842Z" transform="translate(-417.417 1015.284)" fill="#955130"/>
      <path id="Path_34759" data-name="Path 34759" d="M438.555-1008.588s-1.03-1.135-1.357-.342C436.9-1008.207,438.319-1008.4,438.555-1008.588Z" transform="translate(-415.904 1015.484)" fill="#955130"/>
      <path id="Path_34760" data-name="Path 34760" d="M449.792-1008.181s1.439.467,1.345-.39C451.051-1009.351,449.906-1008.469,449.792-1008.181Z" transform="translate(-414.782 1015.513)" fill="#955130"/>
      <path id="Path_34761" data-name="Path 34761" d="M438.869-1013.439s1.439.467,1.345-.39C440.128-1014.609,438.982-1013.727,438.869-1013.439Z" transform="translate(-415.752 1015.046)" fill="#955130"/>
      <path id="Path_34762" data-name="Path 34762" d="M427.351-1014.841s-.708,1.373.127,1.434C428.238-1013.353,427.606-1014.673,427.351-1014.841Z" transform="translate(-416.8 1014.984)" fill="#955130"/>
      <path id="Path_34763" data-name="Path 34763" d="M429.98-1014.781s-1.407.565-.812,1.173C429.709-1013.055,430.066-1014.482,429.98-1014.781Z" transform="translate(-416.626 1014.989)" fill="#955130"/>
      <path id="Path_34764" data-name="Path 34764" d="M433.526-1011.846s.3-1.523-.515-1.338C432.267-1013.015,433.236-1011.933,433.526-1011.846Z" transform="translate(-416.297 1015.13)" fill="#955130"/>
      <path id="Path_34765" data-name="Path 34765" d="M440.842-1011.563s.3-1.523-.514-1.338C439.584-1012.732,440.553-1011.65,440.842-1011.563Z" transform="translate(-415.647 1015.154)" fill="#955130"/>
      <path id="Path_34766" data-name="Path 34766" d="M447.93-1005.59s.3-1.523-.515-1.338C446.67-1006.759,447.639-1005.677,447.93-1005.59Z" transform="translate(-415.017 1015.685)" fill="#955130"/>
      <path id="Path_34767" data-name="Path 34767" d="M425.046-1012.668s-1.494-.222-1.266.609C423.987-1011.3,424.979-1012.364,425.046-1012.668Z" transform="translate(-417.094 1015.174)" fill="#c7885a"/>
      <path id="Path_34768" data-name="Path 34768" d="M429.377-1011.782s-1.493-.222-1.266.608C428.319-1010.418,429.31-1011.478,429.377-1011.782Z" transform="translate(-416.709 1015.253)" fill="#c7885a"/>
      <path id="Path_34769" data-name="Path 34769" d="M435.948-1007.154s-1.493-.222-1.265.607C434.89-1005.79,435.882-1006.85,435.948-1007.154Z" transform="translate(-416.126 1015.664)" fill="#c7885a"/>
      <path id="Path_34770" data-name="Path 34770" d="M432.864-1008.938s-.268,1.531.544,1.326C434.15-1007.8,433.157-1008.857,432.864-1008.938Z" transform="translate(-416.289 1015.508)" fill="#c7885a"/>
      <path id="Path_34771" data-name="Path 34771" d="M440.244-1007.07s-.268,1.53.546,1.325C441.53-1005.931,440.537-1006.991,440.244-1007.07Z" transform="translate(-415.633 1015.674)" fill="#c7885a"/>
      <path id="Path_34772" data-name="Path 34772" d="M421.681-1010.972s-1.031-1.136-1.357-.342C420.026-1010.59,421.444-1010.778,421.681-1010.972Z" transform="translate(-417.403 1015.272)" fill="#c7885a"/>
      <path id="Path_34773" data-name="Path 34773" d="M419.036-1011.853s-1.031-1.136-1.358-.342C417.381-1011.471,418.8-1011.659,419.036-1011.853Z" transform="translate(-417.638 1015.194)" fill="#955130"/>
      <path id="Path_34774" data-name="Path 34774" d="M419.195-1011.983s-1.031-1.136-1.357-.342C417.541-1011.6,418.959-1011.79,419.195-1011.983Z" transform="translate(-417.623 1015.182)" fill="#c7885a"/>
      <path id="Path_34775" data-name="Path 34775" d="M438.715-1008.719s-1.031-1.135-1.357-.342C437.06-1008.337,438.478-1008.525,438.715-1008.719Z" transform="translate(-415.89 1015.472)" fill="#c7885a"/>
      <path id="Path_34776" data-name="Path 34776" d="M449.951-1008.312s1.439.467,1.346-.389C451.211-1009.482,450.065-1008.6,449.951-1008.312Z" transform="translate(-414.768 1015.501)" fill="#c7885a"/>
      <path id="Path_34777" data-name="Path 34777" d="M439.028-1013.57s1.439.467,1.345-.389C440.287-1014.74,439.142-1013.858,439.028-1013.57Z" transform="translate(-415.738 1015.034)" fill="#c7885a"/>
      <path id="Path_34778" data-name="Path 34778" d="M427.511-1014.972s-.708,1.374.126,1.434C428.4-1013.484,427.766-1014.8,427.511-1014.972Z" transform="translate(-416.786 1014.972)" fill="#c7885a"/>
      <path id="Path_34779" data-name="Path 34779" d="M430.139-1014.911s-1.406.564-.811,1.172C429.869-1013.186,430.226-1014.613,430.139-1014.911Z" transform="translate(-416.612 1014.977)" fill="#c7885a"/>
      <path id="Path_34780" data-name="Path 34780" d="M442.038-1007.8s1.508.024,1.18-.769C442.92-1009.29,442.066-1008.109,442.038-1007.8Z" transform="translate(-415.47 1015.521)" fill="#955130"/>
      <path id="Path_34781" data-name="Path 34781" d="M440.918-1010.248s1.128,1.033,1.383.212C442.532-1010.785,441.137-1010.464,440.918-1010.248Z" transform="translate(-415.57 1015.369)" fill="#955130"/>
      <path id="Path_34782" data-name="Path 34782" d="M441.852-1007.886s1.509.024,1.181-.769C442.734-1009.377,441.881-1008.2,441.852-1007.886Z" transform="translate(-415.487 1015.513)" fill="#c7885a"/>
      <path id="Path_34783" data-name="Path 34783" d="M440.733-1010.335s1.128,1.033,1.382.212C442.347-1010.872,440.952-1010.551,440.733-1010.335Z" transform="translate(-415.586 1015.361)" fill="#c7885a"/>
      <path id="Path_34784" data-name="Path 34784" d="M433.685-1011.976s.3-1.524-.514-1.339C432.427-1013.146,433.4-1012.063,433.685-1011.976Z" transform="translate(-416.282 1015.118)" fill="#c7885a"/>
      <path id="Path_34785" data-name="Path 34785" d="M441-1011.694s.3-1.523-.515-1.338C439.743-1012.863,440.712-1011.781,441-1011.694Z" transform="translate(-415.633 1015.143)" fill="#c7885a"/>
      <path id="Path_34786" data-name="Path 34786" d="M448.088-1005.719s.3-1.524-.514-1.339C446.83-1006.89,447.8-1005.807,448.088-1005.719Z" transform="translate(-415.003 1015.674)" fill="#c7885a"/>
    </g>
    <g id="Group_8035" data-name="Group 8035" transform="translate(0 28.476)">
      <g id="Group_8030" data-name="Group 8030" transform="translate(0 0.055)">
        <path id="Path_34787" data-name="Path 34787" d="M389.962-987.482l.1-.013Z" transform="translate(-383.929 989.654)" fill="#e0933e"/>
        <path id="Path_34788" data-name="Path 34788" d="M391.268-987.587l.34-.008Z" transform="translate(-383.813 989.645)" fill="#e0933e"/>
        <path id="Path_34789" data-name="Path 34789" d="M391.58-987.6c.115,0,.231,0,.347,0C391.811-987.6,391.7-987.6,391.58-987.6Z" transform="translate(-383.785 989.645)" fill="#e0933e"/>
        <path id="Path_34790" data-name="Path 34790" d="M390.256-986.617v0Z" transform="translate(-383.903 989.732)" fill="#e0933e"/>
        <path id="Path_34791" data-name="Path 34791" d="M390.954-987.573l.257-.012Z" transform="translate(-383.841 989.646)" fill="#e0933e"/>
        <path id="Path_34792" data-name="Path 34792" d="M390.259-987.516c.11-.012.222-.023.335-.031C390.481-987.539,390.369-987.529,390.259-987.516Z" transform="translate(-383.903 989.649)" fill="#e0933e"/>
        <path id="Path_34793" data-name="Path 34793" d="M390.622-987.55c.089-.008.18-.014.27-.02C390.8-987.565,390.711-987.558,390.622-987.55Z" transform="translate(-383.87 989.647)" fill="#e0933e"/>
        <path id="Path_34794" data-name="Path 34794" d="M390.237-987.208l0,.04Z" transform="translate(-383.905 989.679)" fill="#e0933e"/>
        <path id="Path_34795" data-name="Path 34795" d="M389.739-987.45l.1-.014Z" transform="translate(-383.949 989.657)" fill="#e0933e"/>
        <path id="Path_34796" data-name="Path 34796" d="M390.235-987h0Z" transform="translate(-383.905 989.698)" fill="#e0933e"/>
        <path id="Path_34797" data-name="Path 34797" d="M391.985-987.593l.254.005Z" transform="translate(-383.749 989.645)" fill="#e0933e"/>
        <path id="Path_34798" data-name="Path 34798" d="M392.325-987.585l.248.011Z" transform="translate(-383.719 989.646)" fill="#e0933e"/>
        <path id="Path_34799" data-name="Path 34799" d="M389.036-987.317l.069-.015Z" transform="translate(-384.011 989.669)" fill="#e0933e"/>
        <path id="Path_34800" data-name="Path 34800" d="M389.251-987.363l.073-.015Z" transform="translate(-383.992 989.664)" fill="#e0933e"/>
        <path id="Path_34801" data-name="Path 34801" d="M389.525-987.415l.05-.009Z" transform="translate(-383.968 989.66)" fill="#e0933e"/>
        <path id="Path_34802" data-name="Path 34802" d="M385.32-985.337c.021-.027.04-.053.062-.078C385.36-985.39,385.341-985.364,385.32-985.337Z" transform="translate(-384.341 989.839)" fill="#e0933e"/>
        <path id="Path_34803" data-name="Path 34803" d="M425.174-980.966c-1.186-.665-2.639-1.345-4.075-2.113,1.365.732,2.747,1.382,3.9,2.015Z" transform="translate(-381.164 990.046)" fill="#e0933e"/>
        <path id="Path_34804" data-name="Path 34804" d="M420.86-983.209l.155.085Z" transform="translate(-381.185 990.035)" fill="#e0933e"/>
        <path id="Path_34805" data-name="Path 34805" d="M393-987.548c-.116-.009-.234-.015-.351-.022C392.768-987.564,392.885-987.557,393-987.548Z" transform="translate(-383.69 989.647)" fill="#e0933e"/>
        <path id="Path_34806" data-name="Path 34806" d="M390.281-986.416l0,.017Z" transform="translate(-383.901 989.75)" fill="#e0933e"/>
        <path id="Path_34807" data-name="Path 34807" d="M390.243-987.327c0-.064.01-.128.017-.192h0C390.253-987.456,390.247-987.392,390.243-987.327Z" transform="translate(-383.904 989.652)" fill="#e0933e"/>
        <path id="Path_34808" data-name="Path 34808" d="M390.314-986.218l.005.034Z" transform="translate(-383.898 989.768)" fill="#e0933e"/>
        <path id="Path_34809" data-name="Path 34809" d="M420.6-983.351l.144.081Z" transform="translate(-381.208 990.022)" fill="#e0933e"/>
        <g id="Group_8012" data-name="Group 8012" transform="translate(43.329 8.983)">
          <path id="Path_34810" data-name="Path 34810" d="M424.75-980.921c-.069,1.112-.248,2.14-.284,3.315-.021.59-.272,1.18-.248,1.823a18.37,18.37,0,0,0,.438,2.85,23.158,23.158,0,0,0,2.477-1.076c.407-.207.612-.493.565-.794-.011-.071-.022-.142-.032-.212-.019-.125-.034-.25-.044-.376-.008-.062-.013-.125-.018-.187-.013-.146-.115-.955-.118-1.1a6.468,6.468,0,0,1,.027-.931c.014-.157.036-.314.064-.469.2-1.092-.83-1.988-2.394-2.889-.094-.056-.188-.109-.285-.163l-.176-.1C424.733-981.126,424.744-981.023,424.75-980.921Z" transform="translate(-424.216 981.228)" fill="#5c2716"/>
        </g>
        <g id="Group_8013" data-name="Group 8013" transform="translate(39.539 6.752)">
          <path id="Path_34811" data-name="Path 34811" d="M420.735-983.277l.136.074Z" transform="translate(-420.735 983.277)" fill="#d57a2b"/>
        </g>
        <g id="Group_8014" data-name="Group 8014" transform="translate(39.251 6.591)">
          <path id="Path_34812" data-name="Path 34812" d="M420.47-983.425c.048.027.1.054.145.081C420.566-983.371,420.518-983.4,420.47-983.425Z" transform="translate(-420.47 983.425)" fill="#d57a2b"/>
        </g>
        <g id="Group_8015" data-name="Group 8015" transform="translate(39.83 6.911)">
          <path id="Path_34813" data-name="Path 34813" d="M421-983.131l.106.057Z" transform="translate(-421.002 983.131)" fill="#d57a2b"/>
        </g>
        <path id="Path_34814" data-name="Path 34814" d="M397.848-987.461a52.46,52.46,0,0,1,14.189-2,7.167,7.167,0,0,1,3.541.992,24.347,24.347,0,0,1,2.624,2.045c.383.334.792.709,1.233,1.126a17.7,17.7,0,0,0,3.429,2.413c.048.027.1.054.145.081l.144.081.136.074.155.085.106.057c1.365.732,2.747,1.382,3.9,2.015.012.1.023.2.028.307-.069,1.112-.248,2.14-.284,3.315-.021.59-.272,1.18-.248,1.823a18.371,18.371,0,0,0,.438,2.85,39.521,39.521,0,0,1-5.889,1.621q-.828.17-1.707.327a15.125,15.125,0,0,0-4.556,1.422c-.5.231-1.651.812-2.735,1.362a16.108,16.108,0,0,1-1.668-4.745c-.014-.075-.025-.15-.034-.224a7.147,7.147,0,0,1-.072-.882c0-1.35-1.969-3.32-4.647-5.409-4.007-3.162-9.563-6.651-12.557-8.61A16.349,16.349,0,0,0,397.848-987.461Z" transform="translate(-383.613 989.478)" fill="#6b2e1b"/>
        <g id="Group_8016" data-name="Group 8016" transform="translate(7.022 2.073)">
          <path id="Path_34815" data-name="Path 34815" d="M390.87-987.57l.091,0Z" transform="translate(-390.87 987.574)" fill="#d1741b"/>
        </g>
        <g id="Group_8017" data-name="Group 8017" transform="translate(7.37 2.058)">
          <path id="Path_34816" data-name="Path 34816" d="M391.19-987.585l.085,0Z" transform="translate(-391.19 987.588)" fill="#d1741b"/>
        </g>
        <g id="Group_8018" data-name="Group 8018" transform="translate(6.692 2.097)">
          <path id="Path_34817" data-name="Path 34817" d="M390.567-987.548l.06,0Z" transform="translate(-390.567 987.552)" fill="#d1741b"/>
        </g>
        <g id="Group_8019" data-name="Group 8019" transform="translate(9.311 2.099)">
          <path id="Path_34818" data-name="Path 34818" d="M393.564-987.51h0c-.2-.013-.4-.026-.589-.04h0C393.164-987.536,393.361-987.523,393.564-987.51Z" transform="translate(-392.973 987.55)" fill="#d1741b"/>
        </g>
        <g id="Group_8020" data-name="Group 8020" transform="translate(8.854 2.072)">
          <path id="Path_34819" data-name="Path 34819" d="M392.553-987.575l.107.005Z" transform="translate(-392.553 987.575)" fill="#d1741b"/>
        </g>
        <g id="Group_8021" data-name="Group 8021" transform="translate(6.356 2.133)">
          <path id="Path_34820" data-name="Path 34820" d="M390.259-987.519Z" transform="translate(-390.259 987.519)" fill="#d1741b"/>
        </g>
        <g id="Group_8022" data-name="Group 8022" transform="translate(7.795 2.05)">
          <path id="Path_34821" data-name="Path 34821" d="M391.58-987.595Z" transform="translate(-391.58 987.595)" fill="#d1741b"/>
        </g>
        <g id="Group_8023" data-name="Group 8023" transform="translate(8.142 2.051)">
          <path id="Path_34822" data-name="Path 34822" d="M391.9-987.594h0Z" transform="translate(-391.899 987.594)" fill="#d1741b"/>
        </g>
        <g id="Group_8024" data-name="Group 8024" transform="translate(8.489 2.058)">
          <path id="Path_34823" data-name="Path 34823" d="M392.218-987.588l.117,0Z" transform="translate(-392.218 987.588)" fill="#d1741b"/>
        </g>
        <g id="Group_8025" data-name="Group 8025" transform="translate(6.336 2.887)">
          <path id="Path_34824" data-name="Path 34824" d="M390.257-986.6c-.008-.076-.013-.152-.017-.228h0C390.244-986.751,390.25-986.675,390.257-986.6Z" transform="translate(-390.24 986.826)" fill="#d67e1e"/>
        </g>
        <g id="Group_8026" data-name="Group 8026" transform="translate(6.422 3.583)">
          <path id="Path_34825" data-name="Path 34825" d="M390.319-986.187q.023.114.049.229Q390.342-986.073,390.319-986.187Z" transform="translate(-390.319 986.187)" fill="#d67e1e"/>
        </g>
        <g id="Group_8027" data-name="Group 8027" transform="translate(6.353 3.117)">
          <path id="Path_34826" data-name="Path 34826" d="M390.256-986.615c.008.072.016.144.027.217C390.272-986.471,390.264-986.543,390.256-986.615Z" transform="translate(-390.256 986.615)" fill="#d67e1e"/>
        </g>
        <g id="Group_8028" data-name="Group 8028" transform="translate(6.382 3.351)">
          <path id="Path_34827" data-name="Path 34827" d="M390.283-986.4c.01.065.021.132.034.2C390.3-986.268,390.293-986.335,390.283-986.4Z" transform="translate(-390.283 986.4)" fill="#d67e1e"/>
        </g>
        <g id="Group_8029" data-name="Group 8029" transform="translate(0 2.05)">
          <path id="Path_34828" data-name="Path 34828" d="M385.379-985.418h0l0,0Z" transform="translate(-384.336 987.789)" fill="#db8246"/>
          <path id="Path_34829" data-name="Path 34829" d="M411.634-972.38c-.014-.075-.025-.15-.034-.224a7.147,7.147,0,0,1-.072-.882c0-1.35-1.969-3.32-4.647-5.409-4.007-3.162-9.563-6.651-12.557-8.61-.2-.013-.4-.026-.589-.04h0c-.116-.009-.234-.015-.351-.022l-.107-.005-.248-.011-.117,0-.254-.005h-.094c-.116,0-.232,0-.347,0h0l-.34.008-.085,0-.257.012-.091,0c-.09.005-.181.012-.27.02l-.06,0c-.113.009-.225.02-.335.032h0c-.076.008-.15.016-.225.026l-.1.013-.147.021-.1.014c-.061.009-.122.018-.183.029l-.05.009-.225.041-.073.015-.166.035-.069.015-.223.053-.157.04-.152.042-.167.047c-.091.025-.181.052-.266.081-.318.1-.614.2-.891.32l-.12.051c-.039.017-.078.035-.116.053l-.1.047-.1.049c-.06.027-.115.056-.169.086s-.094.049-.138.074c-.1.054-.194.11-.285.169l-.113.075c-.042.028-.084.058-.124.086s-.082.059-.121.089-.078.06-.115.09c-.076.061-.15.124-.219.189-.036.033-.072.065-.1.1s-.072.07-.106.106c-.055.058-.107.118-.158.176l-.029.036-.007.009h0c-.02.024-.039.048-.057.072l-.041.056a.7.7,0,0,0-.049.064h0c-.034.042-.063.088-.095.133s-.05.079-.074.119c-.012.02-.024.038-.034.058-.037.061-.072.124-.106.187-.106.2-.2.406-.292.613v0c-.046.1-.088.21-.13.317a14.531,14.531,0,0,0-.063,3.923,2.484,2.484,0,0,0,.36,1.027l0,0a31.31,31.31,0,0,0,3.629,4.707c1.39,1.558,3.525,4.979,5.779,6.4h0a18.636,18.636,0,0,0,6.426,2.463c.471.089,1,.261,1.532.326,2.858.338,6.194-.743,8.389-1.576a5.486,5.486,0,0,0,.547-.237c.4-.2,1.231-.626,2.112-1.074A16.108,16.108,0,0,1,411.634-972.38Zm-20.882-14.57c0-.061,0-.123,0-.184l0-.04,0,.04c0,.061,0,.123,0,.184Zm3.416,19.187c.015.027.032.054.047.081l.047.084Z" transform="translate(-384.421 987.595)" fill="#5a2b06"/>
        </g>
      </g>
      <g id="Group_8034" data-name="Group 8034" transform="translate(1.359)">
        <path id="Path_34830" data-name="Path 34830" d="M430.077-978.791a2.169,2.169,0,0,1,.349.428c.639,1.071-1.144,2.316-5.276,3.762-3.064,1.087-6.309,1.89-6.336,1.9-.321.066-.911.158-1.537.254-.611.095-1.245.193-1.521.254a9.153,9.153,0,0,0-4.028,1.679,9.572,9.572,0,0,1-5.469,1.687,17.566,17.566,0,0,1-8.756-2.006,30.672,30.672,0,0,1-8.814-7.011,22.958,22.958,0,0,1-1.4-1.838c-.881-1.282-1.976-3.188-1.508-4.775.684-2.407,4.7-2.761,8.215-2.4a13.8,13.8,0,0,0,5.92-.689c.61-.174,1.239-.354,1.947-.515a49.719,49.719,0,0,1,6.031-.99c.376-.038.8-.095,1.249-.155a23.915,23.915,0,0,1,3.678-.312,8.635,8.635,0,0,1,5.723,2.722,13.384,13.384,0,0,1,1,1.092,8.2,8.2,0,0,0,.621.676,27.4,27.4,0,0,0,5.17,3.59c.457.265,1.028.538,1.632.828a12.6,12.6,0,0,1,3.115,1.825Z" transform="translate(-385.669 989.528)" fill="#703422"/>
        <path id="Path_34831" data-name="Path 34831" d="M402.1-987.89a48.267,48.267,0,0,1,5.849-.972l.114-.012a36.73,36.73,0,0,1,4.622-.446c3.027.089,5.293,2.468,6.239,3.627,1.265,1.56,3.574,2.977,5.762,4.258,1.522.882,4.251,1.837,4.929,2.964,1.372,2.327-11.189,5.3-11.219,5.327-.613.126-2.443.367-3.009.49l-.1.022a9.187,9.187,0,0,0-4.006,1.676,5.409,5.409,0,0,1-.512.352c-2.738,1.69-8.148,1.76-12.912-.715a28.641,28.641,0,0,1-9.911-8.566c-1.019-1.475-1.882-3.148-1.471-4.55.6-2.135,4.085-2.615,7.721-2.245a12.792,12.792,0,0,0,4.435-.276C399.77-987.226,400.81-987.592,402.1-987.89Z" transform="translate(-385.606 989.546)" fill="#b56e44"/>
        <g id="Group_8031" data-name="Group 8031" transform="translate(0.772 2.587)">
          <path id="Path_34832" data-name="Path 34832" d="M394.2-986.875a12.792,12.792,0,0,0,4.435-.276c-.3.144-.614.284-.916.425-1.6.753-3.245,1.986-2.955,3.4.389,1.971,2.294,4.122,4.283,5.9,2.7,2.417,6.8,5.974,11.727,6.627-2.738,1.69-8.148,1.76-12.912-.715a28.641,28.641,0,0,1-9.911-8.566c-1.019-1.475-1.882-3.148-1.471-4.55C387.084-986.766,390.568-987.246,394.2-986.875Z" transform="translate(-386.378 987.152)" fill="#bf7855"/>
        </g>
        <g id="Group_8032" data-name="Group 8032" transform="translate(22.461 0.222)">
          <path id="Path_34833" data-name="Path 34833" d="M406.3-988.874a36.73,36.73,0,0,1,4.622-.446c3.027.089,5.293,2.468,6.239,3.627,1.265,1.56,3.573,2.977,5.762,4.258,1.522.882,4.251,1.837,4.929,2.964,1.372,2.327-11.189,5.3-11.219,5.327-.613.126-2.443.367-3.009.49l-.1.022c.182-.088.359-.17.527-.247,1.731-.785,3.678-1.42,5.22-2.28s2.655-1.992,2.3-3.188c-.28-.919-1.386-1.745-2.42-2.548C415.309-983.9,412.346-986.782,406.3-988.874Z" transform="translate(-406.298 989.325)" fill="#9c5836"/>
        </g>
        <g id="Group_8033" data-name="Group 8033" transform="translate(4.302 1.235)">
          <path id="Path_34834" data-name="Path 34834" d="M406.1-978.89l.038.05a.9.9,0,0,0,.434.278.856.856,0,0,0,.13.021.787.787,0,0,0,.195.034c.1,0,.221-.037.185-.144a.516.516,0,0,0-.133-.214c-.027-.028-.058-.053-.087-.08a1,1,0,0,0-.116-.123.833.833,0,0,0-.456-.2h-.056C405.993-979.277,405.94-979.11,406.1-978.89Z" transform="translate(-388.164 989.204)" fill="#c7885a"/>
          <path id="Path_34835" data-name="Path 34835" d="M407.186-976.267a1.722,1.722,0,0,0,.208.248c.036.035.073.074.112.107s.066.045.087.061c.126.1.235.078.179-.036-.01-.02-.012-.047-.026-.073s-.052-.077-.076-.113a1.628,1.628,0,0,0-.213-.247C407.3-976.48,407.066-976.434,407.186-976.267Z" transform="translate(-388.063 989.458)" fill="#c7885a"/>
          <path id="Path_34836" data-name="Path 34836" d="M403.757-978.278a2.019,2.019,0,0,0,.16.159c.035.032.212.164.107.083a.7.7,0,0,0,.513.184c.147-.036.172-.15.107-.3.02.045.018.039-.005-.017a.316.316,0,0,0-.036-.078,1.533,1.533,0,0,0-.113-.169.836.836,0,0,0-.683-.309C403.629-978.685,403.563-978.487,403.757-978.278Z" transform="translate(-388.375 989.252)" fill="#955130"/>
          <path id="Path_34837" data-name="Path 34837" d="M419.32-980.049c-.072.1.121.311.318.355.311.068.583.071.722-.072.11-.111-.171-.425-.42-.468A.584.584,0,0,0,419.32-980.049Z" transform="translate(-386.983 989.117)" fill="#955130"/>
          <path id="Path_34838" data-name="Path 34838" d="M413.49-984.9c-.037.025-.023.095.051.149a2.714,2.714,0,0,0,1.41.427c.256.036.086-.262-.168-.346C414.33-984.825,413.743-985.074,413.49-984.9Z" transform="translate(-387.502 988.699)" fill="#c7885a"/>
          <path id="Path_34839" data-name="Path 34839" d="M411.7-986.7l.005.039v0l-.007.01a.033.033,0,0,0-.015.028l-.017.025a.429.429,0,0,1-.044.028c-.076.037-.052.152.036.25a.644.644,0,0,0,.367.195c.177.023.342-.046.334-.179a.527.527,0,0,0-.289-.434C411.878-986.852,411.711-986.82,411.7-986.7Z" transform="translate(-387.67 988.535)" fill="#955130"/>
          <path id="Path_34840" data-name="Path 34840" d="M405.809-985.343a.91.91,0,0,0,.3.349.381.381,0,0,0,.247.069c.13-.017.149-.115.164-.214.022-.15-.232-.383-.461-.449C405.815-985.659,405.713-985.53,405.809-985.343Z" transform="translate(-388.185 988.641)" fill="#955130"/>
          <path id="Path_34841" data-name="Path 34841" d="M404.4-981.874a2.436,2.436,0,0,0,.167.285c.078.118.18.217.271.329.119.146.326.141.3.024a1.327,1.327,0,0,0-.029-.225,2.286,2.286,0,0,0-.128-.309.817.817,0,0,0-.487-.455C404.258-982.269,404.334-982.024,404.4-981.874Z" transform="translate(-388.313 988.941)" fill="#955130"/>
          <path id="Path_34842" data-name="Path 34842" d="M406.238-988.231c-.131.089.113.364.348.393a1.473,1.473,0,0,0,.735-.06c.191-.085-.167-.486-.441-.5A1.082,1.082,0,0,0,406.238-988.231Z" transform="translate(-388.147 988.394)" fill="#c7885a"/>
          <path id="Path_34843" data-name="Path 34843" d="M406.56-975.74a.335.335,0,0,0,.145.3.479.479,0,0,0,.349.143c.123-.034.259-.119.181-.293a.573.573,0,0,0-.327-.294C406.705-975.947,406.6-975.857,406.56-975.74Z" transform="translate(-388.116 989.503)" fill="#955130"/>
          <path id="Path_34844" data-name="Path 34844" d="M414.231-975.884a.207.207,0,0,0-.008.171,1.032,1.032,0,0,0,.537.646c.146.076.344.12.384.017.073-.187-.063-.471-.343-.689a.939.939,0,0,0-.248-.167C414.42-975.969,414.268-975.955,414.231-975.884Z" transform="translate(-387.436 989.499)" fill="#955130"/>
          <path id="Path_34845" data-name="Path 34845" d="M406.58-982.828a1.56,1.56,0,0,0,.372.5,2.3,2.3,0,0,0,.48.407c.208.116.373.086.351-.064a1.239,1.239,0,0,0-.255-.448,1.991,1.991,0,0,0-.475-.483C406.752-983.138,406.466-983.088,406.58-982.828Z" transform="translate(-388.116 988.868)" fill="#c7885a"/>
          <path id="Path_34846" data-name="Path 34846" d="M422.785-980.652l.025.029.015.022c.009.015.015.029.022.044l.01.024a.533.533,0,0,1,.014.154c0,.055.071.12.154.145.425.126.45-.247.229-.506a.561.561,0,0,0-.443-.186C422.677-980.9,422.682-980.784,422.785-980.652Z" transform="translate(-386.681 989.057)" fill="#c7885a"/>
          <path id="Path_34847" data-name="Path 34847" d="M420.769-978.275c-.135.039.042.239.2.221.275-.032.915.06.907-.214,0-.059-.057-.119-.145-.161C421.318-978.625,421.01-978.346,420.769-978.275Z" transform="translate(-386.858 989.273)" fill="#c7885a"/>
          <path id="Path_34848" data-name="Path 34848" d="M418.25-983.893a1.6,1.6,0,0,0,.28.632c.113.19.464.249.416.073a1.568,1.568,0,0,0-.279-.631C418.546-983.976,418.243-984.021,418.25-983.893Z" transform="translate(-387.077 988.787)" fill="#c7885a"/>
          <path id="Path_34849" data-name="Path 34849" d="M391.948-985.877a1.7,1.7,0,0,0,.235.676c.1.206.439.273.4.085a1.679,1.679,0,0,0-.233-.676C392.244-985.958,391.95-986.014,391.948-985.877Z" transform="translate(-389.413 988.611)" fill="#c7885a"/>
          <path id="Path_34850" data-name="Path 34850" d="M403.678-987.433a1.967,1.967,0,0,0-.393.431c-.086.126.252.345.4.291a2.49,2.49,0,0,0,.531-.272C404.41-987.123,403.863-987.582,403.678-987.433Z" transform="translate(-388.407 988.477)" fill="#c7885a"/>
          <path id="Path_34851" data-name="Path 34851" d="M400.237-979.813a.543.543,0,0,0,.175.381,1.5,1.5,0,0,0,.463.347c.208.107.608-.009.547-.158a.973.973,0,0,0-.316-.391,1.5,1.5,0,0,0-.518-.28C400.447-979.953,400.248-979.9,400.237-979.813Z" transform="translate(-388.677 989.146)" fill="#c7885a"/>
          <path id="Path_34852" data-name="Path 34852" d="M402.49-984.3c-.169.037.071.314.252.29.248-.033.594-.028.689-.206.022-.04-.045-.117-.121-.141A1.423,1.423,0,0,0,402.49-984.3Z" transform="translate(-388.482 988.749)" fill="#c7885a"/>
          <path id="Path_34853" data-name="Path 34853" d="M409.311-973.8c-.046.035.036.154.132.181a1.9,1.9,0,0,0,.812.071c.192-.023.421-.038.436-.22,0-.01-.012-.027-.026-.036a1.173,1.173,0,0,0-.7-.151A1.065,1.065,0,0,0,409.311-973.8Z" transform="translate(-387.872 989.676)" fill="#c7885a"/>
          <path id="Path_34854" data-name="Path 34854" d="M424.391-978.261c-.158-.048-.135.119.017.182a2.764,2.764,0,0,0,.441.2,1.457,1.457,0,0,0,.421.042c.285-.017.451-.1.514-.293.018-.053-.049-.148-.124-.207a.413.413,0,0,0-.543-.008.693.693,0,0,1-.3.082A1.407,1.407,0,0,1,424.391-978.261Z" transform="translate(-386.541 989.278)" fill="#955130"/>
          <path id="Path_34855" data-name="Path 34855" d="M415.971-974.65c-.086.052.056.219.194.225a2.1,2.1,0,0,0,1.215-.279c.068-.046-.042-.174-.157-.182A2.232,2.232,0,0,0,415.971-974.65Z" transform="translate(-387.282 989.593)" fill="#c7885a"/>
          <path id="Path_34856" data-name="Path 34856" d="M401.835-977.68c.026.334.413.6.869.817.248.115.551-.047.47-.187a1.617,1.617,0,0,0-1.047-.744C401.974-977.835,401.83-977.758,401.835-977.68Z" transform="translate(-388.535 989.334)" fill="#c7885a"/>
          <path id="Path_34857" data-name="Path 34857" d="M410.619-975.525c-.075.046.06.235.2.272a1.231,1.231,0,0,0,.608.094c.091-.036.12-.124.016-.262a.648.648,0,0,0-.391-.248A.51.51,0,0,0,410.619-975.525Z" transform="translate(-387.757 989.523)" fill="#955130"/>
          <path id="Path_34858" data-name="Path 34858" d="M401.732-981.776a1.981,1.981,0,0,0,.391.447c.149.144.366.066.221-.082a2.427,2.427,0,0,0-.475-.414C401.774-981.882,401.688-981.855,401.732-981.776Z" transform="translate(-388.545 988.975)" fill="#c7885a"/>
          <path id="Path_34859" data-name="Path 34859" d="M402-972.236c.012.017.024.035.037.051a.829.829,0,0,0,.429.283.693.693,0,0,0,.13.02.7.7,0,0,0,.2.033c.1,0,.224-.041.193-.151a.5.5,0,0,0-.124-.223c-.027-.028-.057-.054-.085-.082a1.035,1.035,0,0,0-.113-.126.785.785,0,0,0-.454-.207h-.056C401.9-972.64,401.844-972.463,402-972.236Z" transform="translate(-388.528 989.793)" fill="#c7885a"/>
          <path id="Path_34860" data-name="Path 34860" d="M395.953-976.094a1.638,1.638,0,0,0,.2.256c.035.036.07.076.108.11s.065.047.085.064c.123.1.231.082.179-.036a.641.641,0,0,0-.024-.075,1.376,1.376,0,0,0-.073-.118,1.6,1.6,0,0,0-.2-.255C396.069-976.313,395.839-976.269,395.953-976.094Z" transform="translate(-389.06 989.472)" fill="#c7885a"/>
          <path id="Path_34861" data-name="Path 34861" d="M400.408-975.328a2.442,2.442,0,0,0,.156.3c.074.121.173.223.261.34.112.149.323.143.306.021a1.655,1.655,0,0,0-.02-.236,2.3,2.3,0,0,0-.118-.32c-.071-.158-.234-.427-.473-.468S400.343-975.483,400.408-975.328Z" transform="translate(-388.667 989.521)" fill="#c7885a"/>
          <path id="Path_34862" data-name="Path 34862" d="M395.317-975.556a.335.335,0,0,0,.135.308.456.456,0,0,0,.343.15c.124-.035.261-.121.188-.3a.563.563,0,0,0-.317-.3A.245.245,0,0,0,395.317-975.556Z" transform="translate(-389.115 989.519)" fill="#c7885a"/>
          <path id="Path_34863" data-name="Path 34863" d="M397.008-981.118a1.486,1.486,0,0,0,.253.366,2.8,2.8,0,0,0,.386.366c.152.119.31.057.215-.086a2.4,2.4,0,0,0-.33-.391,2.071,2.071,0,0,0-.387-.309C397.057-981.223,396.977-981.193,397.008-981.118Z" transform="translate(-388.964 989.033)" fill="#955130"/>
          <path id="Path_34864" data-name="Path 34864" d="M397.69-975.183a1.955,1.955,0,0,0,.377.459c.145.147.369.063.229-.089a2.261,2.261,0,0,0-.464-.425C397.739-975.3,397.65-975.266,397.69-975.183Z" transform="translate(-388.904 989.56)" fill="#c7885a"/>
          <path id="Path_34865" data-name="Path 34865" d="M415.786-980.745l.04.049a.936.936,0,0,0,.445.267.831.831,0,0,0,.13.021.791.791,0,0,0,.2.032c.1,0,.22-.035.18-.137a.51.51,0,0,0-.139-.208c-.029-.026-.06-.051-.09-.076a1.136,1.136,0,0,0-.121-.119.874.874,0,0,0-.464-.2h-.056C415.661-981.119,415.614-980.956,415.786-980.745Z" transform="translate(-387.305 989.04)" fill="#c7885a"/>
          <path id="Path_34866" data-name="Path 34866" d="M416.96-978.212a1.736,1.736,0,0,0,.217.238c.038.034.076.072.115.1s.069.044.09.059c.131.1.237.076.177-.034a.494.494,0,0,0-.029-.071c-.021-.035-.054-.075-.079-.11a1.806,1.806,0,0,0-.222-.238C417.063-978.418,416.835-978.374,416.96-978.212Z" transform="translate(-387.195 989.285)" fill="#c7885a"/>
          <path id="Path_34867" data-name="Path 34867" d="M412.172-979.238c.052.052.106.106.164.155.037.031.218.159.11.081a.739.739,0,0,0,.518.179c.146-.037.169-.148.1-.3.021.044.02.038-.005-.016a.284.284,0,0,0-.039-.076,1.442,1.442,0,0,0-.118-.164.866.866,0,0,0-.691-.3C412.034-979.634,411.973-979.441,412.172-979.238Z" transform="translate(-387.628 989.167)" fill="#c7885a"/>
          <path id="Path_34868" data-name="Path 34868" d="M417.633-976.568c-.02.075.033.187.155.289a.5.5,0,0,0,.356.137c.123-.033.257-.115.172-.284a.594.594,0,0,0-.338-.283C417.773-976.77,417.665-976.682,417.633-976.568Z" transform="translate(-387.132 989.43)" fill="#c7885a"/>
          <path id="Path_34869" data-name="Path 34869" d="M408.606-980.725a.528.528,0,0,0,.185.37,1.542,1.542,0,0,0,.473.338c.211.1.61-.01.544-.155a1.007,1.007,0,0,0-.328-.381,1.536,1.536,0,0,0-.527-.27C408.813-980.862,408.614-980.807,408.606-980.725Z" transform="translate(-387.934 989.065)" fill="#955130"/>
          <path id="Path_34870" data-name="Path 34870" d="M410.263-978.652c.036.326.429.587.893.794.252.112.55-.047.466-.184a1.671,1.671,0,0,0-1.07-.721C410.4-978.8,410.255-978.728,410.263-978.652Z" transform="translate(-387.786 989.248)" fill="#c7885a"/>
          <path id="Path_34871" data-name="Path 34871" d="M392.2-979.335c-.086.053.046.229.18.239a1.957,1.957,0,0,0,1.2-.258c.067-.046-.035-.181-.146-.193A2.08,2.08,0,0,0,392.2-979.335Z" transform="translate(-389.393 989.178)" fill="#c7885a"/>
          <path id="Path_34872" data-name="Path 34872" d="M394.508-981.8a1.639,1.639,0,0,0,.2.254c.035.036.071.076.109.11s.064.046.085.063c.124.1.23.084.175-.033a.78.78,0,0,0-.026-.074c-.019-.036-.05-.08-.073-.115a1.743,1.743,0,0,0-.208-.253C394.617-982.007,394.391-981.967,394.508-981.8Z" transform="translate(-389.189 988.966)" fill="#c7885a"/>
          <path id="Path_34873" data-name="Path 34873" d="M391.16-983.888c.049.055.1.111.155.163.035.033.208.169.1.085a.687.687,0,0,0,.5.2c.144-.034.169-.148.106-.3.02.046.017.04,0-.017a.341.341,0,0,0-.036-.079,1.6,1.6,0,0,0-.11-.172.82.82,0,0,0-.666-.324C391.037-984.3,390.971-984.1,391.16-983.888Z" transform="translate(-389.493 988.753)" fill="#955130"/>
          <path id="Path_34874" data-name="Path 34874" d="M393.892-981.279a.344.344,0,0,0,.14.3.468.468,0,0,0,.342.15c.121-.031.254-.114.177-.29a.575.575,0,0,0-.318-.3C394.036-981.486,393.927-981.4,393.892-981.279Z" transform="translate(-389.241 989.011)" fill="#c7885a"/>
          <path id="Path_34875" data-name="Path 34875" d="M397.578-984a.207.207,0,0,0-.008.171,1.066,1.066,0,0,0,.52.662c.142.081.334.131.373.028.071-.185-.061-.474-.332-.7a.963.963,0,0,0-.242-.174C397.762-984.081,397.614-984.072,397.578-984Z" transform="translate(-388.915 988.779)" fill="#955130"/>
          <path id="Path_34876" data-name="Path 34876" d="M398.472-982.036c-.084.05.052.221.186.232a1.954,1.954,0,0,0,1.184-.246c.065-.044-.04-.176-.151-.187A2.08,2.08,0,0,0,398.472-982.036Z" transform="translate(-388.836 988.939)" fill="#c7885a"/>
          <path id="Path_34877" data-name="Path 34877" d="M400.7-984.416a1.662,1.662,0,0,0,.209.247c.036.035.073.073.111.107s.066.045.087.061c.126.1.231.083.174-.029-.011-.021-.013-.047-.028-.073s-.052-.076-.077-.112a1.758,1.758,0,0,0-.215-.246C400.8-984.621,400.576-984.583,400.7-984.416Z" transform="translate(-388.639 988.734)" fill="#955130"/>
          <path id="Path_34878" data-name="Path 34878" d="M397.3-986.461c.051.054.1.109.16.16.036.031.211.164.107.083a.718.718,0,0,0,.505.193c.142-.033.163-.144.1-.295.021.044.019.039-.005-.016a.333.333,0,0,0-.037-.077,1.717,1.717,0,0,0-.115-.167.858.858,0,0,0-.673-.319C397.165-986.86,397.106-986.669,397.3-986.461Z" transform="translate(-388.949 988.526)" fill="#955130"/>
          <path id="Path_34879" data-name="Path 34879" d="M400.1-983.917c-.02.075.029.188.149.3a.5.5,0,0,0,.344.148c.12-.031.25-.11.169-.281a.6.6,0,0,0-.326-.3C400.235-984.116,400.13-984.032,400.1-983.917Z" transform="translate(-388.69 988.778)" fill="#c7885a"/>
          <path id="Path_34880" data-name="Path 34880" d="M395.441-985.924c.034.327.417.6.868.818.245.119.536-.032.454-.171a1.682,1.682,0,0,0-1.041-.75C395.573-986.073,395.433-986,395.441-985.924Z" transform="translate(-389.103 988.603)" fill="#c7885a"/>
          <path id="Path_34881" data-name="Path 34881" d="M397.805-978.416c.024.338.406.609.859.825.246.118.549-.045.47-.186a1.607,1.607,0,0,0-1.039-.752C397.944-978.572,397.8-978.494,397.805-978.416Z" transform="translate(-388.893 989.269)" fill="#955130"/>
          <path id="Path_34882" data-name="Path 34882" d="M411.312-983.529a2.072,2.072,0,0,0,.406.431c.155.138.369.063.219-.079a2.534,2.534,0,0,0-.489-.4C411.351-983.632,411.266-983.606,411.312-983.529Z" transform="translate(-387.694 988.819)" fill="#c7885a"/>
          <path id="Path_34883" data-name="Path 34883" d="M417.466-982.531l.036.04a.908.908,0,0,0,.351.233.547.547,0,0,0,.091.021.5.5,0,0,0,.139.034c.07,0,.143-.02.1-.1a.639.639,0,0,0-.133-.173c-.025-.023-.05-.044-.075-.065a1.359,1.359,0,0,0-.1-.1.758.758,0,0,0-.35-.177l-.038,0C417.312-982.838,417.311-982.709,417.466-982.531Z" transform="translate(-387.157 988.888)" fill="#c7885a"/>
          <path id="Path_34884" data-name="Path 34884" d="M404.447-973.84l0,.042h0v0l-.008.011a.047.047,0,0,0-.02.032c0,.006-.024.028-.02.028a.529.529,0,0,1-.048.032c-.082.044-.067.169.014.273a.56.56,0,0,0,.359.2c.182.02.357-.061.361-.206a.505.505,0,0,0-.256-.467C404.642-974.012,404.466-973.972,404.447-973.84Z" transform="translate(-388.316 989.676)" fill="#c7885a"/>
          <path id="Path_34885" data-name="Path 34885" d="M405.024-971.574c.012.017.024.035.037.051a.837.837,0,0,0,.431.28.724.724,0,0,0,.132.02.692.692,0,0,0,.2.032c.1,0,.226-.042.194-.151a.489.489,0,0,0-.125-.221c-.028-.028-.058-.055-.086-.082a1.063,1.063,0,0,0-.114-.125.788.788,0,0,0-.456-.2.5.5,0,0,0-.056,0C404.925-971.976,404.865-971.8,405.024-971.574Z" transform="translate(-388.26 989.852)" fill="#955130"/>
          <path id="Path_34886" data-name="Path 34886" d="M394.338-977.131c.049.055.1.112.155.164.035.033.208.17.1.086a.674.674,0,0,0,.506.19c.147-.038.175-.156.115-.313.019.047.017.04,0-.017a.338.338,0,0,0-.034-.081,1.316,1.316,0,0,0-.109-.174.8.8,0,0,0-.671-.32C394.223-977.551,394.151-977.347,394.338-977.131Z" transform="translate(-389.211 989.352)" fill="#c7885a"/>
          <path id="Path_34887" data-name="Path 34887" d="M400.686-974.5a1.959,1.959,0,0,0,.38.457c.146.146.37.061.229-.089a2.279,2.279,0,0,0-.466-.422C400.734-974.607,400.645-974.577,400.686-974.5Z" transform="translate(-388.638 989.621)" fill="#c7885a"/>
          <path id="Path_34888" data-name="Path 34888" d="M406.874-973.531l.034.044a.819.819,0,0,0,.339.244.555.555,0,0,0,.091.022.5.5,0,0,0,.139.034c.07,0,.146-.024.107-.114a.6.6,0,0,0-.122-.184c-.023-.024-.047-.046-.071-.069a1.054,1.054,0,0,0-.1-.107.676.676,0,0,0-.343-.184l-.038,0C406.742-973.859,406.73-973.719,406.874-973.531Z" transform="translate(-388.096 989.686)" fill="#c7885a"/>
          <path id="Path_34889" data-name="Path 34889" d="M390.249-985.147l.009.035h0v0l0,.008a.033.033,0,0,0-.008.024l-.008.022a.169.169,0,0,1-.026.023c-.047.03-.017.133.053.222a.528.528,0,0,0,.269.185c.122.027.224-.026.2-.143a.614.614,0,0,0-.244-.394C390.349-985.273,390.24-985.251,390.249-985.147Z" transform="translate(-389.569 988.674)" fill="#c7885a"/>
          <path id="Path_34890" data-name="Path 34890" d="M389.62-980.8a.654.654,0,0,0,.17.328,1.48,1.48,0,0,0,.358.311c.154.1.407.02.345-.109a1.115,1.115,0,0,0-.266-.342,1.319,1.319,0,0,0-.385-.258C389.742-980.908,389.616-980.869,389.62-980.8Z" transform="translate(-389.62 989.061)" fill="#955130"/>
          <path id="Path_34891" data-name="Path 34891" d="M390.357-982.386a2.3,2.3,0,0,0,.324.393c.119.127.255.071.137-.06a2.563,2.563,0,0,0-.376-.369C390.372-982.475,390.318-982.455,390.357-982.386Z" transform="translate(-389.556 988.922)" fill="#c7885a"/>
          <path id="Path_34892" data-name="Path 34892" d="M400.477-987.568a.489.489,0,0,0-.246.154c-.06.092.139.266.294.291a1.058,1.058,0,0,0,.361-.015c.119-.016.228-.044.258-.136s-.09-.265-.272-.314A.549.549,0,0,0,400.477-987.568Z" transform="translate(-388.678 988.463)" fill="#955130"/>
        </g>
      </g>
    </g>
    <g id="Group_8036" data-name="Group 8036" transform="translate(0.673 37.214)">
      <path id="Path_34893" data-name="Path 34893" d="M389.729-974.827s-.917-.709-1.077-.069C388.507-974.31,389.57-974.648,389.729-974.827Z" transform="translate(-384.72 982.067)" fill="#955130"/>
      <path id="Path_34894" data-name="Path 34894" d="M387.525-978.8s-.755.924-.134,1.092C387.957-977.554,387.69-978.636,387.525-978.8Z" transform="translate(-384.852 981.744)" fill="#955130"/>
      <path id="Path_34895" data-name="Path 34895" d="M386.217-979.221s-.263-1.148-.781-.738C384.965-979.587,385.985-979.179,386.217-979.221Z" transform="translate(-385.015 981.633)" fill="#955130"/>
      <path id="Path_34896" data-name="Path 34896" d="M387.681-978.827s-.755.924-.134,1.093C388.113-977.58,387.846-978.664,387.681-978.827Z" transform="translate(-384.838 981.741)" fill="#c7885a"/>
      <path id="Path_34897" data-name="Path 34897" d="M386.373-979.248s-.264-1.148-.781-.739C385.121-979.613,386.141-979.207,386.373-979.248Z" transform="translate(-385.001 981.63)" fill="#c7885a"/>
      <path id="Path_34898" data-name="Path 34898" d="M390.752-973.651s-.755.924-.133,1.093C391.185-972.4,390.918-973.487,390.752-973.651Z" transform="translate(-384.566 982.201)" fill="#955130"/>
      <path id="Path_34899" data-name="Path 34899" d="M389.2-976s-.263-1.148-.78-.739C387.954-976.363,388.974-975.957,389.2-976Z" transform="translate(-384.75 981.919)" fill="#955130"/>
      <path id="Path_34900" data-name="Path 34900" d="M397.713-970.859s.788.855,1.046.245C399-971.17,397.9-971.01,397.713-970.859Z" transform="translate(-383.914 982.436)" fill="#955130"/>
      <path id="Path_34901" data-name="Path 34901" d="M386.041-981.461s-1.154-.15-.984.48C385.211-980.407,385.986-981.228,386.041-981.461Z" transform="translate(-385.039 981.506)" fill="#955130"/>
      <path id="Path_34902" data-name="Path 34902" d="M395.484-969.8s.775-.907.158-1.09C395.08-971.061,395.322-969.972,395.484-969.8Z" transform="translate(-384.129 982.444)" fill="#955130"/>
      <path id="Path_34903" data-name="Path 34903" d="M389.885-974.854s-.917-.71-1.077-.069C388.663-974.338,389.726-974.675,389.885-974.854Z" transform="translate(-384.706 982.064)" fill="#c7885a"/>
      <path id="Path_34904" data-name="Path 34904" d="M390.908-973.678s-.755.924-.133,1.092C391.341-972.432,391.074-973.515,390.908-973.678Z" transform="translate(-384.552 982.198)" fill="#c7885a"/>
      <path id="Path_34905" data-name="Path 34905" d="M389.361-976.026s-.263-1.148-.78-.738C388.11-976.392,389.13-975.984,389.361-976.026Z" transform="translate(-384.736 981.917)" fill="#c7885a"/>
      <path id="Path_34906" data-name="Path 34906" d="M397.869-970.886s.788.854,1.046.245C399.152-971.2,398.053-971.037,397.869-970.886Z" transform="translate(-383.9 982.434)" fill="#c7885a"/>
      <path id="Path_34907" data-name="Path 34907" d="M386.2-981.488s-1.154-.15-.984.479C385.367-980.435,386.142-981.256,386.2-981.488Z" transform="translate(-385.025 981.503)" fill="#c7885a"/>
      <path id="Path_34908" data-name="Path 34908" d="M392.385-973.515s1,.583,1.08-.072C393.536-974.184,392.521-973.712,392.385-973.515Z" transform="translate(-384.387 982.181)" fill="#955130"/>
      <path id="Path_34909" data-name="Path 34909" d="M393.125-971.287s.367,1.116.846.661C394.408-971.041,393.353-971.349,393.125-971.287Z" transform="translate(-384.321 982.41)" fill="#955130"/>
      <path id="Path_34910" data-name="Path 34910" d="M392.293-973.643s1,.583,1.08-.072C393.445-974.312,392.429-973.84,392.293-973.643Z" transform="translate(-384.395 982.169)" fill="#c7885a"/>
      <path id="Path_34911" data-name="Path 34911" d="M393.033-971.415s.367,1.116.846.661C394.316-971.169,393.261-971.477,393.033-971.415Z" transform="translate(-384.329 982.399)" fill="#c7885a"/>
      <path id="Path_34912" data-name="Path 34912" d="M395.64-969.832s.775-.907.158-1.09C395.236-971.089,395.478-970,395.64-969.832Z" transform="translate(-384.115 982.442)" fill="#c7885a"/>
    </g>
  </g>
</svg>
